<svg version="1.2" xmlns="http://www.w3.org/2000/svg" viewBox="0 0 4096 3980" width="100%" height="100%">
	<title>Path 0</title>
	<style>
		.s0 { fill: #63818c } 
	</style>
	<path id="Path 0" class="s0" d="m1838 13c-10.8 7.1-39.5 30.8-63.8 52.6-24.3 21.8-48.7 42.4-54.2 45.8-5.5 3.4-35.2 22.6-66 42.7-30.8 20.1-60.5 37.7-66 39.1-7.2 1.9-18.8-1.9-42-13.7-30.5-15.4-33.4-16.1-62-14.7-23.9 1.3-36.1 4.4-60 15.7-16.5 7.7-49.8 25.5-74 39.4-24.2 13.9-52.6 29.6-63 34.7-16.2 8-25 9.4-60 9.4-34.4-0.1-45.2 1.5-67 10-14.3 5.6-48.4 23-75.8 38.7l-49.8 28.6c-51.4-8.6-72.4-9.1-100.4-6.7-22 1.9-46.3 2.8-54 2.1-7.7-0.7-14.9-2.6-16-4.2-1.1-1.6-13.7-8.4-28-15.2-14.3-6.8-42.2-17.2-62-23.3-19.8-6-53.1-17.4-74-25.3-20.9-7.9-47-19.6-58-26-11-6.4-36.7-19.5-57-29.1-20.4-9.7-42.4-17.6-49-17.6-6.6 0-20.6 3.4-31 7.5-10.5 4.2-35.2 18.3-55 31.4-19.8 13.2-48.6 30.3-64 38-15.4 7.8-33.4 15.4-40 17-9.1 2.2-20-0.4-44.8-10.5-28.8-11.7-34-12.8-42-8.2-5.1 2.8-18.2 13.3-29.2 23.2-11 10-27.2 23.1-36 29.2-8.8 6-21.4 13-28 15.6-6.6 2.5-24.6 6.5-40 8.7-15.4 2.3-50.1 9.1-77 15.1l-49 11v3606h4096v-3668c-23.3-6-45.3-11.6-64-16.3-18.7-4.7-43-12.5-54-17.4-18.7-8.2-25.4-8.8-104-8.3l-84 0.5c-43.4 24.9-65 35.9-76 40.5-11 4.6-31.7 10.6-46 13.4-14.3 2.7-47.6 4.8-74 4.7-28.7-0.2-58.5-2.9-74-6.6-14.3-3.5-45.8-13.4-70-22-24.2-8.6-48.5-17.5-54-19.7-5.5-2.2-19.9-8-32-12.8-12.1-4.8-38.2-15.9-58-24.7-19.8-8.7-45.5-20.3-57-25.6-11.6-5.3-21.9-9.7-23-9.7-1.1 0-9.7-3.4-19-7.6-9.4-4.2-26-10.5-37-13.8-11-3.4-27.2-6.1-36-6-10.7 0.1-26.4-5-47.3-15.2l-31.3-15.4c-29 16.1-52.7 30.1-71.4 41.5-18.7 11.4-42.1 23.7-52 27.2-16.6 6-19 6-31-0.1-7.2-3.6-17.5-6.6-23-6.6-5.5 0-26.7 8.6-47 19.2-20.4 10.6-44.2 23.4-53 28.5-8.8 5.1-28.6 15.8-44 23.6-24.6 12.6-32.4 14.6-64 16.1-30 1.4-40 0.2-60-7.1-13.2-4.9-35.7-15.4-50-23.4-14.3-7.9-36.8-22-50-31.2-13.2-9.2-34.8-22.1-48-28.8-13.2-6.7-41.1-19.5-62-28.5-20.9-9-51.5-24.5-68-34.5-16.5-9.9-39-23.8-50-30.8-19.5-12.3-20.6-12.5-44-8.4-13.2 2.3-43.8 11.9-68 21.3-38.3 14.9-46.6 16.8-64 14.6-11-1.4-30.8-6.1-44-10.5-18.5-6.1-30.4-14-52-34.3-15.4-14.5-37-31-48-36.5-11-5.5-29-16.1-40-23.5-11-7.4-25.9-18.9-33-25.6-7.2-6.7-17.1-12.2-22.2-12.2-5 0-18 5.8-28.8 13z"/>
</svg>