<svg version="1.2" xmlns="http://www.w3.org/2000/svg" viewBox="0 0 592 1048" width="592" height="1048">
	<title>Layer</title>
	<style>
		.s0 { fill: #000000 } 
	</style>
	<g id="Layer">
		<path id="Layer" fill-rule="evenodd" class="s0" d="m250.8 1.2c1.2 1.6 4 15.2 4.8 28 0.4 2 2.8 2 5.6 0.4 3.6-2.4 3.6-1.6-0.4 3.2-4 4.8-4 6.8-0.4 8 3.6 1.2 2.8 4.4-2 11.6-7.6 11.6-5.2 15.6 9.2 15.6l10.4 0.4-10 5.6c-5.6 3.2-8 5.6-5.2 6 2.4 0 3.6 3.6 2.4 8-2.4 9.6-0.4 10 14.8 2 16.4-8.4 15.2-0.8-2 12.4-19.6 14.8-18 20.8 5.2 22.4 22 1.6 24.4 8 3.2 11.6-8 1.2-15.6 3.2-16.4 4.4-4 4 2.8 14.8 9.2 14.4 8.8-0.4 27.6 3.6 32.8 6.8 2 1.2 4 0.4 4-1.6 0-2.4 3.6-4.4 8-4.4 4.8 0 6.8-2 5.6-5.6-3.2-8 5.6-12 12.8-6 3.6 2.8 7.2 3.6 9.6 1.2 2.4-2.4-0.8-8.8-8-16.4-13.6-14.4-8.8-23.2 5.2-10l8.8 8.4-1.2-20c-1.2-14.4 0-19.6 4-19.6 4 0 3.6-1.2-0.8-4-4.4-2.8-4.8-4.8-1.2-8.4 2.4-2.4 3.6-6.8 2.8-9.6-1.2-2.8-0.4-6 1.6-7.6 2-1.2 3.6 0 3.6 2.8 0.8 21.6 6.8 54.4 11.6 61.6 3.2 4.8 5.6 10.4 5.6 12 0 1.6-1.6 0.4-4-2.8-2-3.2-4.8-4.4-6.4-2.8-1.6 1.6-1.2 4.8 1.2 7.2 2.4 2.4 3.6 7.2 2.4 10.8-2 4.8-0.4 5.6 7.2 3.6 10.8-2.8 25.6 4.4 16.4 8-2.8 0.8-7.2 4-10 6.8-2.8 2.8-6.8 4.4-9.2 3.6-2.4-0.8-4 2.8-3.6 7.6 0.8 5.6 3.2 8.8 6.4 7.6 3.2-0.8 8.4-1.2 11.6-0.8 3.2 0.4 10 0.4 15.2 0.4 9.6 0 10 0.4 6.4 9.2-1.2 3.6-5.2 5.2-9.6 4-4-1.2-11.6 0.8-16.4 4l-8.8 6.4 11.6 2.8c6.4 1.6 18.4 2.8 26.8 2.8 12.8-0.4 14.4 0.8 10 5.6-2.4 3.2-10 8-16.8 11.2-8.8 3.6-10 5.6-4.8 5.6 6 0.4 6.4 1.6 2.4 6.4-7.2 8.4-3.2 10.8 9.6 6 17.6-6.8 22.8-5.2 18.8 4.8-2 5.2-5.6 8.8-8 8-5.6-1.2-6 10-0.4 13.2 6.4 4 0 10.4-8.8 9.2-4.8-0.8-9.2 1.2-10 4-1.2 2.8 0.4 4 4.4 2.4 3.6-1.2 6.4-0.4 6.4 2 0 2.4 7.6 3.6 20.4 2.8l20-1.2-9.2 8.8c-5.2 4.8-10 8.4-10.4 8-0.8-0.8-6.8 0.4-13.2 2.8-18 6.4-11.6 13.2 12.8 13.6 40.4 1.2 38.8 0.8 29.2 8.8-4.4 4-7.6 9.2-6.4 12 0.8 2.4-1.2 4.8-4.8 4.8-3.2 0-8 3.2-10 7.2-3.6 6.8-2.4 7.6 13.6 8 10 0 18-1.6 18-3.6 0-1.6 2.8-2.4 6-1.2 4.8 2 4.8 3.6-1.2 12-3.6 5.2-10 9.6-13.6 9.6-4.8 0-7.2 3.2-7.2 10 0 10.4 4.4 10.8 27.2 3.6 3.2-0.8 4.8 0.8 3.6 3.2-0.8 2.8-4.4 5.2-8 5.2-3.2 0-7.6 1.6-9.6 3.6-1.6 2-1.2 2.4 2 0.8 2.4-1.6 4.8-0.8 4.8 1.2 0 2.4-1.6 4.4-4 4.4-2 0-2.4 3.2-1.2 6.8 2.4 6.4 1.6 6.4-3.6 2-5.6-4.4-7.2-4-11.2 3.2-4.4 8.4-4 8.4 20.8 6 13.6-1.6 26.4-3.6 28-4.4 6.8-4 2.8 3.2-6.4 12.4-5.2 5.2-10.8 8.4-12 7.2-1.2-1.6-2.4 0.8-2.4 5.2 0 6.4-0.8 6.8-4 1.6-3.2-5.2-4-4.8-4 1.2 0 8 6.4 11.2 25.2 12.8 7.2 0.8 15.6 1.2 18.8 1.6 4.4 0.4 3.2 2.8-4 8.4-5.6 4.4-13.2 6.8-16.8 5.6-4-1.2-7.2-0.4-7.2 2 0 2.4 2.4 4.4 5.2 4.4 2.8 0 1.2 3.2-3.2 6.8-8 6-8 6 1.2 4 4.8-1.2 8.8-0.8 8.8 1.2 0 1.6 4.8 2 11.2 0.8 9.6-2 10.4-1.6 5.2 4.8-3.2 3.6-8.4 5.6-11.6 4.4-4.8-1.6-4.8-1.2-1.2 3.6 3.6 4.4 2.8 6-4.4 8.4-5.2 1.6-10.4 2.8-12 2.4-1.6 0-2 2.4-0.4 6 1.2 3.6 4.8 5.2 8.4 3.6 3.2-1.2 7.2-0.4 8.8 2 1.6 2.4 6.8 2.8 16 0 16.8-4.8 18-3.6 8 7.2-10.4 11.2-10.4 11.2 5.2 14.4 12 2.4 12.4 3.2 4.8 7.2-4.4 2.8-18 4.8-30 4.4-12.4-0.4-18.4 0.8-13.2 2 7.6 2.4 27.2 23.2 27.2 28.8 0 0.8 3.2 1.2 7.2 0.8 3.6-0.8 6.8 0.4 6.8 2.8 0 2.4 2.8 3.2 6 2 3.2-1.6 6-0.4 6 2 0 5.2-24.4 16.8-28.8 14-2-1.2-5.2-0.8-7.6 0.8-5.6 3.2 10.4 13.2 21.6 13.6 8 0 8.8 4.4 2.4 10.8-3.6 3.6-2 5.6 5.6 7.6 6 1.2 9.6 4.4 8.4 6.4-1.6 2.8 2.4 3.2 10.8 1.2 18.4-4 10.8 2.8-12.8 12-14.8 5.2-20.4 5.6-27.2 2-4.8-2.4-10.4-3.2-12.8-1.6-2.4 1.2-7.6-0.8-12-4.8-4-3.6-8.8-6-10-4.4-1.2 1.2 4.8 7.6 14 14 8.8 6.4 15.2 12.4 14.4 13.6-1.2 0.8 4.4 4.4 12 7.2 7.6 3.2 14 6.8 14 8.4 0 1.6 3.6 2 8 0.8 4.4-1.2 8 0 8 2.4 0 2.4-2.8 4.4-6.4 4.4-5.2 0-5.2 0.8 0.8 6.8 4 4 11.6 9.2 17.2 11.6 9.6 4 8 4.4-15.2 6.8-13.6 1.6-27.2 1.6-29.6 0-2.4-1.6-10.4-3.2-17.6-4-12-1.2-13.2-0.4-12.4 8.4 0.4 5.6 2 9.2 3.6 8 4-2.4 23.6 6.8 23.6 10.8 0 2 2.8 2.4 6 1.2 3.2-1.6 6.8 0.4 8.4 3.6 1.2 3.6 5.2 5.2 10.4 3.6 7.2-1.6 8-0.8 5.6 5.6-2.4 6-2 6.8 2 2.4 6.4-6 11.6-6.4 11.6-0.8 0 2.4-8 6-18 8.8-20.4 5.6-23.6 14.8-8 23.2 5.6 2.8 10 6.8 10 8.8 0 2 3.6 2.8 8 1.2 12.8-4 5.6 8.4-8.4 14-9.6 4.4-13.2 4-22.4-2.4l-11.2-6.8 7.6 11.6c10.4 15.6 18.4 21.2 30.4 21.6 8.8 0 9.2 0.4 3.2 6.4-3.6 3.6-12 6.8-18.8 7.2-6.8 0.4-12.4 1.6-12.4 3.6 0 4.4-19.6 0-26.8-6-5.2-4-6.8-4-8 0-1.2 2.4-3.6 4-5.6 2.4-2-1.2-3.6-0.4-3.6 2 0 2.4-2.8 3.2-6 2-4.4-1.6-6 0.4-6 6.8-0.4 8.4-0.8 8.8-4.4 2.4-2-3.6-6.8-6.8-9.6-6.8-6.8 0-7.6 21.2-3.2 99.2l2.4 48.8 14.4 4c8 2 22.4 4.4 32.4 4.4 10 0.4 0 2.4-22 4-44 3.2-351.2 2.8-408-0.8-19.6-1.2-30.4-2.4-24-3.2 6.8-0.4 23.6-1.6 37.6-2.8 14.4-0.8 28.4-3.6 31.2-6 4-3.6 5.2-21.6 5.2-76.4v-71.6l-8.8 2-9.2 2.4 9.2-4.4c10-5.6 11.6-11.6 2.8-11.6-3.6 0-4.8-2.4-3.6-6 3.2-8 0.8-7.6-10.4 2-5.2 4.4-10.4 6.8-11.6 5.2-1.2-2-4.8-3.2-7.2-3.2-2.8 0-4.8-2-4-4 0.4-2.4 2.8-3.6 4.8-2.8 2.4 0.8 1.6-0.8-0.8-3.6-4-4-6.8-3.6-13.2 2.4-9.2 8.4-20 11.2-20 5.6 0-2.4-1.6-3.2-3.6-2-2 1.6-7.6 0.8-12.8-0.8l-9.2-3.6 11.2-7.2c6-4 13.6-12.4 16.8-18.8 6-11.6 6-11.6-2.4-7.2-4.8 2.4-11.2 3.6-14 2.4-2.8-0.8-6.4 0.8-7.6 4-1.2 3.2-5.2 5.6-8.4 5.6-3.6 0-5.2-2-3.6-4.4 1.6-3.2-0.4-3.6-6.8-1.6l-9.6 3.2 10-8.8c5.6-5.2 7.6-8 5.2-6.4-2.8 1.2-5.2 0.4-5.2-1.6 0-2.4-2.4-4.4-4.8-4.4-2.8 0-8.8-3.2-13.2-6.8-8-6-8-6 1.6-4 5.6 1.6 16.4-1.2 26.8-6.4 17.2-8.8 22-14.4 12.8-15.2-17.2-0.8-35.6-12.8-29.6-18.8 1.6-1.2 4-0.8 5.6 1.6 1.6 2 7.2 4.4 12.8 4.4 9.2 0.8 9.2 0.4 3.2-4.4-8-6-5.6-11.2 4-7.6 3.2 1.6 5.2 0.8 3.6-1.2-1.2-2.4-0.8-6.4 1.2-9.6 2.8-4.4-1.6-7.2-20.4-12.8-26.8-8.4-30.4-13.6-9.2-13.2 12 0.4 14.8-1.2 18-9.6 2.8-6.8 5.2-8.4 7.2-5.2 3.6 6.4 20.4-5.2 20.4-14 0-5.6-1.2-5.6-8 0.8-4.4 4-8 5.2-8 2.8 0-2.4-8.8-7.6-20-11.6-10.8-4-20-8.4-20-10.4 0-1.6 3.6-1.2 8 1.2 6.4 3.2 8 3.2 8-1.6 0-4 2.4-5.2 6.8-3.6 5.2 2 6 0.8 4.4-6-2.8-9.6 0.8-11.2 7.6-4.4 3.2 3.2 6 1.2 10-7.2 3.2-6 7.6-10.8 9.6-10.4 2 0.4 4-2.4 4.4-6.4 0.4-5.2-1.6-6.8-8-5.6-4.8 1.2-14.4-0.4-20.8-3.2-6.8-2.8-14.8-4.4-18-4-5.2 0.8-5.2 0.4 0-3.2 3.2-2.4 9.2-4.4 13.2-4.4 3.6 0 6.8-2.4 7.2-5.2 0-3.2 0.8-3.2 2-0.4 1.6 3.6 4.4 3.6 11.6 0 10-4.4 11.6-13.6 2.4-11.2-2.8 0.4-4-0.4-2.8-2.4 1.2-2 8-2.8 15.2-1.6 7.6 1.2 11.6 0.4 10-1.6-2-2-4.8-3.6-6-3.6-1.6 0-11.2-2.8-21.6-5.6-21.2-6-25.6-12.8-8-12 6 0.4 17.2 0.4 24.8 0l14-0.4-10-8c-5.6-4-10.4-6.8-11.6-6-0.8 0.8-7.2-1.2-14-5.2l-12.4-6.8 23.2-1.2c12.4-0.8 22.8-2.8 22.8-4.8 0-2 2.8-2.8 6-1.6 3.6 1.6 6 0 6-3.6 0-3.2-2.8-8-6-10.8-4.8-4-6-3.6-6.4 2.4 0 6.8-0.4 6.8-3.6-0.4-1.6-4.8-6-10.8-9.6-13.6-10.8-9.2-7.2-10.8 21.6-10.4 15.6 0.4 28-1.2 28-3.2 0-2-2.8-2.8-6-1.2-3.6 1.2-6 0-6-3.2 0-4-2.8-4.8-8.8-3.2-6.8 1.6-8 0.8-6-4.4 1.6-4 0.4-6.8-2.4-6.8-2.8 0-8.8-3.2-13.6-7.2-8.8-6.8-8.8-6.8 14-6.8 12.4 0.4 26-0.4 30-1.2 8.8-2.4 6.4-11.2-2.8-9.6-3.6 0.8-6.4-0.8-6.4-3.2 0-2.4-2.4-4-4.8-3.6-7.2 1.2-20.4-4.8-25.6-11.6-2.4-3.2-6.4-4.8-8.8-3.2-2.8 1.6-4.8 0.8-4.8-1.2 0-2.4 6-4.8 13.2-5.2 6.8-0.4 15.6-0.8 18.8-1.6 3.2-0.4 12-0.8 19.2-1.2 14.4-0.4 16.4-8.8 2.8-10.8-4.4-0.8-8.4-2.8-9.2-5.2-0.8-2-4.4-2.8-7.6-1.6-4.8 2-6 0.8-4-3.6 1.6-4.4-0.4-7.2-5.6-8.4-14-3.6-8.8-11.6 5.6-8.4 12.4 2.8 20.8 3.2 36.8 2 7.6-0.8 7.6-0.8 1.2-6-4-2.8-7.2-7.6-7.2-10.8 0-4.4-0.8-4.4-4 0.4-2.4 4-4 4.4-4 0.8 0-2.4-2.8-4.8-6-4.8-3.2 0-6-0.8-6-1.6 0-0.8-1.2-4.4-2.4-7.6-1.6-4.4 1.6-5.6 14.4-4.8 8.8 0.4 17.2-0.4 18-2 3.2-4.8 22 0.4 19.2 5.6-1.6 3.2-0.8 2.8 2.8-0.4 2.8-2.4 7.6-3.6 10.4-2.4 3.2 1.2 5.6 0.4 5.6-1.6 0-6.8-5.2-9.2-10.8-4.8-2.8 2.4-5.2 2.8-5.2 0.8 0-2-10-6.8-22.4-11.2-23.2-8-31.2-14-18-14 11.6 0 13.2-5.6 4.4-16-9.2-10.4-10.4-14-2.8-9.2 2.4 1.6 6 3.2 8 3.6 1.6 0.4 4 1.2 6 1.6 1.6 0.4 6 0.4 10 0 4-0.4 10.4 1.6 14 4.8 3.2 2.8 5.2 3.2 3.6 0.8-1.6-2.4 6.4-8 19.2-13.2 28.4-12 30-15.2 6.4-14-16.4 1.2-20 0-21.6-6.4-1.2-5.2-4.4-6.8-9.6-5.6-4.4 1.2-12-1.6-17.6-6.4l-9.6-8.4 21.2 1.6c11.2 0.8 20.8 0 20.8-1.2 0-1.6 9.6-2 21.6-1.2 12.4 0.8 22.8-0.4 24.4-2.8 1.6-2.4-2.4-4-9.6-4-6.4 0-16.8-2.4-23.2-5.6-6-3.2-16.4-8-23.2-10.4-13.2-5.6-11.6-6.8 12-8.8 16-1.6 23.2-11.6 9.6-13.2-6.4-1.2-27.6-13.6-27.6-16.4 0-0.8 10.8-0.8 24 0 19.6 0.8 25.2 0 28-5.6 3.2-5.6 2-6.4-5.2-5.2-8.4 1.6-34.8-16.8-34.8-24 0-2 8.4-2.4 19.2-1.6 18.8 1.6 32.8-2.4 32.8-9.2 0-2.4-2.4-4-5.2-4-2.8 0-11.2-5.6-18.8-12.4q-13.8-12-6-9.6c14.8 5.2 46.4 5.6 44.8 0.8-0.8-2.8-3.2-4.8-5.2-4.8-5.6 0-25.6-16.4-23.2-19.2 1.2-0.8 8.8-0.4 16.8 1.6 20.4 4.8 20.8 4.8 20.8-4 0-4.4-3.2-8.8-7.6-10.4-4-1.2-10.8-6-14.8-10.8-7.6-8.4-7.6-8.4 0.4-6.4 4.4 1.2 11.2 3.6 14.8 5.2 6 2.4 6.4 1.2 3.2-10.8-5.2-17.2-5.2-19.2 1.6-16.8 6.4 2.4 10.8-6.8 6.8-13.6-1.6-2.8-2-11.2-1.2-18.8 0.8-8 2.4-13.6 3.6-12.8zm-30.8 154.4c0 2 5.6 4.4 12 5.2 7.6 1.2 11.6 0.4 10.8-2.4-1.6-5.2-22.8-7.6-22.8-2.8zm65.2 20c-17.2 8.4-16.4 11.6 1.6 11.2 8-0.4 15.2 1.2 16 3.6 1.6 4.8 37.2 2 37.2-2.8 0-2 2.8-3.6 6-3.6 6.8 0 7.6-3.6 2-12-2-3.2-4-4-4-1.6 0 6-18.4 9.6-23.6 4.4-6-6-21.2-5.6-35.2 0.8zm-53.2 8.4c-2 0-4 2-4 4.4 0 2 2 2.8 4 1.6 2.4-1.2 4-3.2 4-4.4 0-0.8-1.6-1.6-4-1.6zm-14.4 4.4c-4.4 0-5.6 1.2-2.4 2.4 2.8 1.2 6.4 0.8 7.6-0.4 1.6-1.2-0.8-2.4-5.2-2zm-17.6 23.6c-2 0-4 1.6-4 4 0 2 2 4 4 4 2.4 0 4-2 4-4 0-2.4-1.6-4-4-4zm74.4 7.6c-2.8 4 10.4 8 38 10.8 12.8 1.6 19.6 0.8 19.6-2 0-4.8-0.8-4.8-24.8-6-8.4-0.4-16.4-2-17.6-3.6-4-4-12.8-3.6-15.2 0.8zm69.6-3.6c-2 0-4 2-4 4.4 0 2 2 2.8 4 1.6 2.4-1.2 4-3.2 4-4.4 0-0.8-1.6-1.6-4-1.6zm-52 38c-4.4 5.2-4 5.6 1.6 3.6 3.6-1.2 6.4-4 6.4-6 0-5.2-2.4-4.4-8 2.4zm22.4 30c-5.6 0-11.2 1.6-12.4 4-1.6 2.4 2.8 4 9.6 4 6.8 0 12.4-2 12.4-4 0-2.4-4.4-4-9.6-4zm5.2 40c-2 0-2.8 1.6-1.6 4 1.2 2 3.2 4 4.4 4 0.8 0 1.6-2 1.6-4 0-2.4-2-4-4.4-4zm86.4 4c1.2 2 5.6 4 9.2 4 6 0 6-0.8 0.8-4-8-5.2-13.2-5.2-10 0zm37.2 35.6c-1.6-4.4-2.4-4.4-4.8 0-3.6 5.2 0 11.2 4 7.2 1.2-1.2 1.6-4.4 0.8-7.2zm14.8 28.8c-1.6 2.4-2 4.8-0.8 6 0.8 1.2 2.8-0.8 4-4.4 2.8-6.8 0.4-8-3.2-1.6zm-18-0.4c-2 0-2.8 2.8-1.6 6 1.6 3.2 3.2 6 4 6 0.8 0 1.6-2.8 1.6-6 0-3.2-1.6-6-4-6zm-302.4 28c-3.2 0-4.8 2-3.6 4 2.4 3.6 10 2 10-2.4 0-0.8-2.8-1.6-6.4-1.6zm336 40.4c-4.4 0-5.6 1.2-2.4 2.4 2.8 1.2 6.4 0.8 7.6-0.4 1.6-1.2-0.8-2.4-5.2-2zm-365.6 73.6c0-3.3-1.8-6-4-6-2.2 0-4 2.7-4 6 0 3.3 1.8 6 4 6 2.2 0 4-2.7 4-6zm-13.6 50c-1.2 0-3.2 1.6-4.4 4-1.2 2-0.4 4 1.6 4 2.4 0 4.4-2 4.4-4 0-2.4-0.8-4-1.6-4zm-12 40c-1.2 0-3.2 1.6-4.4 4-1.2 2-0.4 4 1.6 4 2.4 0 4.4-2 4.4-4 0-2.4-0.8-4-1.6-4zm-22.4 28c-2 0-4 2-4 4.4 0 2 2 2.8 4 1.6 2.4-1.2 4-3.2 4-4.4 0-0.8-1.6-1.6-4-1.6zm16.4 0c-2 0-5.2 1.6-6.4 4-1.2 2-0.8 4 1.6 4 2 0 5.2-2 6.4-4 1.2-2.4 0.8-4-1.6-4zm-2 36c-1.2 0-3.2 1.6-4.4 4-1.2 2-0.4 4 1.6 4 2.4 0 4.4-2 4.4-4 0-2.4-0.8-4-1.6-4zm422.4 52.8c-2.8-0.8-4 0.8-2.4 4.8 2.8 7.2 11.2 8.8 8.8 1.6-0.8-2.4-4-5.6-6.4-6.4zm-224.8 34.8c0 2.4 1.6 5.2 4 6.4 2.4 1.2 2.8-0.4 1.6-3.6-2.8-7.2-5.6-8.4-5.6-2.8zm13.6 0c-6.4-5.2-6.4-4.8-2 3.6 2.8 5.6 7.2 8.4 10.8 7.2 2.8-1.2 6.8 0.8 8.8 4.4 2.4 3.6 4.8 4.8 6.4 2 1.2-2-0.4-4.8-3.6-6.4-3.2-1.2-6-5.2-6-9.2 0-6-0.8-6-3.6-1.6-3.2 5.2-4.8 5.2-10.8 0zm-225.6 4.4c-2 0-4 1.6-4 4 0 2 2 4 4 4 2.4 0 4-2 4-4 0-2.4-1.6-4-4-4zm184 12c-2 0-2.8 2.8-1.6 6 1.6 3.2 3.2 6 4 6 0.8 0 1.6-2.8 1.6-6 0-3.2-1.6-6-4-6zm-36 38.4c0 3.2 2 4.8 4 3.6 2.4-1.6 3.2-4.4 2-6.4-3.6-5.6-6-4.4-6 2.8zm38.4-2c-4.4-3.6-4.8-2.4-3.6 5.2 1.2 5.2 0 10.8-2.4 12-2.8 2-3.2 0.4-1.6-4 1.6-4.8 1.2-6-2-4-6 3.6-6.8 180.8-0.8 184.4 10 6 14-21.6 14.8-104.4 0.8-67.2 0-85.6-4.4-89.2zm28.4-1.6c-3.6 3.2-3.6 164-0.4 181.2 4 18.4 29.2 25.2 35.2 9.6 4.8-12.4 7.6-137.6 3.2-137.6-2.4 0-5.6 2-6.8 4-1.6 2.4-4 3.2-6 2-2-1.2-4.4-0.4-6 2-1.3 2.1-4.6 3.4-7.9 3.8 2.6-0.5 5.5-5.9 7.5-7.4 2.8-2.4 6-3.6 6.8-3.2 0.8 0.8 4.8-2 8.8-6 6-6.4 6-7.2 0.4-7.2-5.6 0-5.6-0.4 0-6.4 7.6-7.6 7.6-9.6 0.8-18.8-4.4-5.6-6-6-7.6-2-1.6 4-3.6 3.6-6.8-2-5.2-8-14.4-8.8-17.6-2-1.6 2.8-1.6 1.2-0.8-4 1.6-9.2 1.2-10.4-2.8-6zm11.3 65q-0.2 0-0.4 0 0.2 0 0.4 0zm-0.4-4.7c-4.8 0.5-9.7 3.9-9.7 0.9 0-2 2.8-2.8 6-1.6 1.1 0.5 2.4 0.8 3.7 0.7zm166.3-35.1l-2.8-26-0.8 30c-0.8 18.8-2 26.4-4 20.4-1.6-5.6-5.2-10.8-8-11.6q-5.4-1.8-2.4 3.6c2 3.2 0 2.4-4.8-1.6-4.4-3.6-9.2-6.8-10.4-6.8-4.4 0-3.2 11.2 0.8 12.8 2 0.4 1.2 4.8-2.4 9.2-4.8 6.4-5.6 6.4-4 1.2 1.2-4 0.4-8-2-9.6-3.2-2-4 18-2 74.4 2 55.6 4 78.4 7.6 80.4 2.8 2 12.8 3.2 22 2.8l17.2-0.4-0.4-76.4c-0.4-42-2-88-3.6-102.4zm-24-19.2c-5.6 0-7.6 0.8-4.8 2 2.4 0.8 7.2 0.8 10 0 2.4-1.2 0.4-2-5.2-2zm-212.8 7.2c-4.4 0.4-10.4 7.6-12 14.8-2 7.2-0.8 9.2 5.2 9.2 5.6 0 7.6-2.8 7.6-12 0-6.8-0.4-12-0.8-12zm128 7.2c-6-6-8-6.8-6-2 1.6 3.6 4 10 5.2 13.6 2 6 1.6 6-2 1.2-2-3.2-5.2-4.8-6.4-3.2-3.2 3.2-3.6 162.8-0.4 166 4.8 5.2 11.6-6.8 14.8-25.6 1.6-10.4 3.2-46.8 3.2-80.4 0.4-57.2 0-61.2-8.4-69.6zm50.8-7.2c-1.2 0-5.2 6.4-8.8 14.4-6 12-7.2 12.8-9.6 6.8-1.6-4-3.2 28.8-3.2 73.2-0.4 84 2 98 17.2 92.4 5.6-2.4 6.4-12.8 6.4-94.8 0-50.4-0.8-92-2-92zm39.6 0c-3.2 0-4.8 1.6-3.6 4 1.2 2 4 4 6.4 4 2 0 3.6-2 3.6-4 0-2.4-2.8-4-6.4-4zm-253.2 4c-2.4 0-4.8 2.4-5.2 4.8 0 2.8-0.8 6.8-1.2 9.2-0.8 2-1.2 8-1.6 12.8-0.4 10-8.4 12.8-8.4 3.2 0-3.6-2.4-4.8-6.8-3.2-5.2 2-6 0.8-4-4.4 1.6-3.6 1.2-6-0.8-4.8-5.2 3.2-4.4 26.4 0.8 26.4 3.2 0 3.2 1.2-0.4 3.6-4 2.4-5.2 18.4-5.2 68.4 0.4 36 1.2 66 2 66.8 0.4 0.8 8 1.6 16.8 2.4 14.8 0.8 15.2 0.4 18.4-15.2 1.6-8.8 2.8-43.6 2.8-77.6 0.4-54-0.4-62-6.4-66.8-6.8-5.2-6.8-5.2 0-5.6 6.8 0 10-8 2.8-8-2 0-2.8-2.8-1.6-6 1.6-3.2 0.4-6-2-6zm-22.4 7.4c0-1.9-2.2-3.4-5-3.4-2.8 0-5 1.5-5 3.4 0 1.9 2.2 3.4 5 3.4 2.8 0 5-1.5 5-3.4zm277.6 0.6c-2 0-2.8 1.6-1.6 4 1.2 2 3.2 4 4.4 4 0.8 0 1.6-2 1.6-4 0-2.4-2-4-4.4-4zm44.4 10c-5.2-3.2-5.2 2 0 10 3.2 5.2 4 5.2 4-0.8 0-3.6-1.6-8-4-9.2zm-271.6 7.2c-7.2 0.4-8 4.4-8.4 75.2-0.4 73.2 3.2 93.2 11.6 70.4 3.2-8 6-96 4.8-135.6-0.4-8-2.4-10.4-8-10zm262.8 0.8c-1.2-1.2-3.6 0.8-4.8 4.8-2.4 5.6-2 6 2 2.4 2.8-2.8 4-6 2.8-7.2z"/>
	</g>
</svg>