<svg version="1.2" xmlns="http://www.w3.org/2000/svg" viewBox="0 0 576 1220" width="576" height="1220">
	<title>Layer</title>
	<style>
		.s0 { fill: #394231 } 
	</style>
	<g id="Layer">
		<path id="Layer" fill-rule="evenodd" class="s0" d="m309.6 41.2c-0.8 5.6 0.4 6.8 5.6 4.8 5.6-2 6-1.6 2 2.4-7.6 7.6-6.4 19.6 2 19.6 6 0.4 6 0.8 0.8 5.2-5.6 4.8-10.8 26.8-6 26.8 1.2 0 8.4-2.8 16-5.6 7.6-3.2 14-4.8 14-3.2 0 4.4-6.8 13.6-9.6 13.2-8-1.2-10.4 0.4-10.4 5.2 0 3.2-2 7.2-4.8 8.8-2.8 1.6-3.2 1.2-1.6-1.6 1.6-2.8 1.2-4.8-1.2-4.8-2 0-3.6 3.6-3.2 7.6 0.4 7.6 1.6 7.2 26-2 19.6-7.2 24.4-8 20.4-3.2-2.8 3.2-10.4 8.8-16.4 12-12 6.4-13.2 16.4-2 14.4 3.2-0.4 7.2 0.8 8.4 2.8 2.4 4 18.4 1.2 18.4-3.2 0-1.6 3.6-2.8 8-3.2 10.8-0.8 10 1.2-5.2 17.6-10.8 11.2-16.8 14-30 14.4-10 0.4-17.6 3.2-18.8 6.4-1.6 4 1.6 4.8 14.4 3.6 13.2-1.2 14.8-0.4 9.6 3.2-4.4 3.2-5.2 5.6-2 7.6 2.4 1.6 8.4-0.4 12.8-4.8 8-6.8 8.4-6.8 6 0-2.4 6-1.6 6.4 5.2 2.8 11.6-6 18-5.2 12.4 1.6-2.8 3.2-13.6 8-24.4 10.8-15.6 4-18.8 6-15.6 10.4 3.6 4 7.2 4 18.8-1.2 8.4-3.6 18-6.8 22-7.6 3.6-0.8 8.8-2.8 10.8-4 8-5.2 3.6 5.6-4.8 11.6-4.8 3.6-7.6 7.2-6 8.8 1.2 1.6-1.6 6-6.4 9.6-4.8 4-7.2 8.8-5.6 10.4 1.6 2 4.8 0.8 6.8-2.4 2-3.2 4.8-4.4 6.4-3.2 1.2 1.6 7.2 0.4 13.2-2.4 28.8-14.8 39.6-9.6 14.4 6.4-7.6 5.2-14 11.2-14 13.6 0 2.8-3.2 4.4-6.8 4-4 0-7.2 2.4-7.2 5.6 0 3.2 2.8 5.2 6 4.4 3.2-0.8 11.6-2 18-2.8 11.2-1.2 11.6-1.2 2 2-5.6 2-7.6 3.6-4.8 4 2.8 0.4 4 2.4 2.8 4.8-1.6 2.4-5.6 3.2-8.8 2-3.2-1.2-4.8-0.8-3.2 1.2 1.2 2-4.8 6-12.8 8.4-8.4 2.8-17.2 6.4-19.6 8.4-2.4 2-6 2-7.6 0.4-2-1.6-2-0.4-0.4 2 1.6 3.2 0.8 5.2-2.4 5.6-2.8 0-1.6 1.6 2.8 3.6 11.2 4.8 14.8 4.8 12 0-2.8-4.8 8.4-4.8 20-0.4 4.4 2 10.8 2 14 0.4 10-5.2 32-7.6 32-3.6 0 2.4 2 2.8 4.4 1.2 2.8-1.6 2.8 0.4-0.4 6.4-4 7.2-3.6 9.6 0.4 12.4 3.2 2 3.6 3.6 1.2 3.6-2.4 0-13.6 7.2-24.8 16-10.8 8.8-21.6 16-24 16-2.4 0-3.2 3.6-2 7.6 1.6 6 4.8 7.2 16.4 5.6 8.4-0.8 18.8-2 24-2.4 4.8 0 8.8-2 8.8-4 0-2 2.4-2.8 5.2-1.6 2.4 0.8 9.2 0 14.8-1.6 9.6-3.6 9.6-3.2 2 2.4-4.4 3.2-12.4 10.4-18 15.6-5.6 5.6-19.2 13.6-30 18.4-18.8 8-19.6 8.8-12.4 14.4 4.4 3.2 11.2 5.6 15.6 5.6 4 0 6 1.6 4.8 4-1.2 2-0.8 4 1.6 4 2 0 5.2-2 6.4-4 1.6-2.4 4-3.2 6-2 2 1.2 7.6 0.4 12.4-2.4 6.8-3.2 8-3.2 5.6 0.4-1.6 2.8 1.6 1.6 7.6-2 16.8-11.2 16-4.4-1.2 10.4-34.4 30-37.2 31.6-53.6 32.8-3.6 0.4-6.4 2.4-5.6 4.4 1.2 4 10.8 6.8 28 7.2 6 0.4 10.8 2.8 10.8 5.2 0 3.6 4 4 16 0.8 8.8-2.4 16-6 16-7.6 0-1.6 2.8-3.2 6-3.2 3.2 0 6 2 6 4 0 2.8 2.8 2.8 8 0 4.4-2.4 10.4-3.2 12.8-1.6 2.4 1.6 3.2 1.2 2-1.2-2.8-4 13.2-10.8 16.8-7.2 2.4 2.8-45.2 43.2-51.6 44.4-1.2 0-8.4 2.8-16 6.4-14 6.4-14 6.4 20.4 5.6 21.6-0.8 36.8 0.8 40.8 3.6 5.6 4 2.4 6.4-20.8 16-19.2 7.6-27.2 12.8-25.6 16.4 1.2 3.6-0.8 5.6-6.4 5.6-4.8 0-8.4 2-8.4 4.4 0 2.8 4 3.6 10 2 5.6-1.6 10-0.8 10 1.2 0 2 7.6 2.8 17.2 2 9.2-0.8 20-1.6 23.6-1.6 4-0.4 8.4-2.4 9.6-4.8 1.6-2.4 4-2 6 1.2 2.4 4 3.6 4.4 3.6 0.4 0-2.4 2-4.8 4-4.8 8 0-3.6 14.8-18.4 23.6-15.2 9.2-16.4 18.8-2 18 4.4 0 8.4 1.2 8.4 3.2 0 4.4-35.6 2.4-42.8-2-2.4-1.6-5.6-1.6-6.8 0.4-2.4 4-55.2 3.2-62-0.8-5.6-3.6-5.6-0.4 0.4 9.2 2.4 4.4 7.6 6.4 11.6 5.6 4.4-1.2 6.8-3.6 5.6-4.8-0.8-1.6 0.8-3.2 4-3.2 3.2 0 6.8 2.8 7.6 5.6 1.2 3.2 0.4 4.4-1.6 3.2-5.6-3.6-4.8 3.6 0.8 9.2 4 4 3.2 5.6-4 7.2-12.4 3.6-10.8 10 2.4 8.8 8.8-0.8 10.8 0.4 10 6.8-0.4 4.4 0 6 1.2 3.6 2.4-5.6 18-2.4 22.4 4 2 3.2 6.4 2.8 15.2-0.4 10-3.6 13.2-3.6 18 1.6 4.8 4.8 9.6 5.2 24.8 2 10.4-2.4 20-3.6 21.6-2.4 1.6 0.8 4-0.4 4.8-2.4 1.2-2.4 1.6-2 1.2 0.8-1.2 5.2-30.8 25.2-44 30-7.6 2.4-7.2 2.8 0.8 5.6 12 4.4 11.2 11.6-1.2 11.6-5.6 0-10 1.6-10 4 0 2-5.6 2.8-12.4 2-9.2-1.2-11.6 0-10 4.4 2.4 6.4-4 7.6-8 1.2-1.2-2.4-7.2-3.6-12.8-2.4-5.6 1.2-14.4 0.4-19.6-1.6-6-2-9.2-2-9.2 0.8 0 2.4-2.8 2.4-8-0.4-5.6-3.2-8-3.2-8 0 0 2.4-2 3.2-4.4 1.6-2.8-1.6-4-0.4-2.8 2.8 1.2 3.2 4.4 5.6 7.6 5.6 3.2 0 5.2 3.2 4.4 7.6-0.8 4.4 0.4 6 2.8 4.4 2.4-1.2 5.6 0 6.8 3.2 1.2 3.6 5.2 5.2 10 4 5.2-1.6 7.6 0 7.6 4 0 4.4 2.4 5.2 8.4 4 5.6-1.6 10 0 12.4 4.4 2.4 4.4 9.2 6.4 21.2 6.4 11.6 0 18 1.6 18 4.8 0 3.6 1.6 3.2 4-0.8 5.2-8 5.2-1.6-0.4 8.4-2 4.4-5.6 6.8-8 5.6-2-1.6-3.6-0.4-3.6 2.4 0 2.8-4 3.6-10 2.8-5.6-1.2-10-0.8-10 1.2 0 1.6-6.4 2.4-14.4 2-10.8-1.2-13.6 0-12 4.4 1.6 4.4 0.4 4.4-6 0.8-4.4-2.4-9.2-3.2-10.4-2-1.2 0.8-6.8-2.4-12.4-7.6-5.6-5.2-10.8-9.2-11.6-8.8-2.8 3.2 4.4 18.8 9.2 18.8 3.2 0 5.6 1.6 5.6 3.2 0 1.6 8.4 5.6 19.2 8.4 10.4 3.2 20 7.6 21.2 9.6 1.6 2 8.4 4 15.2 4.4 17.6 0.4 15.2 5.6-5.6 11.2-10 2.8-18 6.4-18 8.4 0 2-2.8 1.6-6-1.2-4-3.6-6-3.6-6-0.4 0 2.4-2.8 4.4-6.4 4.4-5.6 0-5.6 1.2-1.6 6 2.8 3.2 10 6 16.4 6 6.4 0 11.6 1.6 11.6 3.6 0 1.6 4.4 2.4 10 1.2 6.8-1.2 10 0 10 4 0 4 5.2 5.6 19.2 5.2 26-0.8 30.8 1.2 23.2 9.6-4.8 5.6-4.8 7.2 0 11.6 3.2 2.8 5.6 3.2 5.6 0.8 0-2 2-4 4-4 2.4 0 4 1.6 4 3.6 0 4.4-15.6 10.4-22.8 9.2-2.8-0.8-5.2 0.4-5.2 2 0 5.6-41.2 6-44.4 0.4-1.6-2.8-4.4-3.6-6-2-1.6 1.2-0.4 5.6 2.8 9.6 3.6 4.4 4 5.6 0.8 3.6-2.8-1.6-5.2-0.8-5.2 1.2 0 2.4 2 4.4 4.4 4.4 2.4 0 11.6 6.4 20.8 14 8.8 7.6 18.4 14 21.2 14 2.4 0 5.6 2.4 6.8 5.6 1.2 3.2 7.2 6.4 13.6 7.2l11.2 1.6-12 5.6c-6.4 2.8-15.6 5.2-20 5.2-4.4 0.4-9.2 2.4-10.8 4.4-2 2.8-4.4 2.8-8-0.8-6.8-6.8-11.2-6-11.2 2.8 0 8.8 13.6 12.4 41.6 10.8 21.6-1.2 27.6 3.6 12.8 10-14 6.4-16.8 15.6-4.4 15.6 5.6 0 10 2 10 4.8 0 3.6 1.2 3.6 4.8 0 5.2-5.2 15.2-6.4 15.2-1.6 0 1.6-4.8 6-10.4 9.2l-10.4 6.4 19.2 9.2c15.6 8 17.6 10 11.2 12-4 1.6-8.4 1.2-9.2-0.8-0.8-2.4-2.8-2-4.4 0.8-2.4 4-6.4 3.6-18-1.6-12-6-15.6-6.4-18-2-2.8 4-4.8 4-10-0.4-8-6.8-18-8.8-18-3.6 0 7.2-7.6 3.6-10-4.8-2.4-6.8-3.6-7.6-6.4-3.2-3.2 4.4-5.2 4-11.2-3.6-4.4-4.8-8.8-8.8-9.6-8.8-1.2 0-7.2-2-13.6-4.8-6-2.4-12-4.8-13.2-5.2-11.6-4-23.6-10.8-30.8-17.6-5.2-4.8-9.2-7.2-9.2-5.6 0 1.6-2.8-0.4-6-4.4-5.6-7.2-6-7.2-6-0.8 0 4 3.6 8 8 9.2 8.8 2.4 8.8 2.4 5.6 10.8-1.2 3.6-4 5.2-6 4-2-1.2-2.4 0.8-0.8 4.4 1.6 4.8 3.2 5.2 5.2 1.6 2.4-3.2 4.4-2 7.6 4 2.8 4.4 7.2 8.4 10.8 8.4 3.2 0 6.8 2.8 8 6 1.6 3.6 4.4 5.6 7.2 5.2 6.8-1.2 22.4 4.8 22.4 8.8 0 5.2-24.8 3.6-36.8-2.4-6-3.2-19.2-14.4-29.2-24.4-13.6-14.8-18-17.2-18-11.6 0 7.2-0.4 7.2-9.2-0.8-5.2-4.8-11.6-8.8-14.4-8.8-2.8 0-4-1.6-2.4-3.6 1.2-2 0.4-4.8-2-6.4-7.2-4.4-4-10.4 5.2-9.2 4.8 0.8 8.4 3.6 7.6 6.4-0.4 3.2 0.8 4.4 3.2 2.8q4.2-2.4 0-9.6c-2-4-2.4-8.4-1.2-10 1.2-1.2-0.4-2.4-4-2.4-3.6 0-6.8-2-6.8-4 0-2.4-2.4-4-5.6-4-6.8 0-11.6-10.8-6-14.4 2.4-1.2 7.2 0.4 11.2 4 10.4 9.2 14.8 8 6-2-7.2-8-34-23.6-40-23.6-4 0 1.6 185.2 6.8 222.4 2.4 17.6 6 34 8.4 36.4 2.4 2.8 10.4 5.2 17.6 5.2 12.4 0 14.4-1.6 13.2-10.8 0-1.6 3.6-4.4 8.4-6 8-2.8 8-3.6 2-12.8-6-9.2-6-10 2.8-12.8 8.4-2.4 8.8-2.8 1.6-5.6-7.6-2.4-7.6-2.8 0-10.4 4-4 7.6-9.6 7.6-11.6 0.4-2.4 1.6-11.6 3.6-20.8 4.8-26.8 10.8-25.6 16.4 3.6 3.6 18.4 10.8 32 14.4 26.4 2.8-4 3.6-3.6 3.6 1.6 0 3.6-2 8-4.4 9.2-2.4 2-1.6 4.8 3.2 8.4 5.6 4.4 6 5.2 1.2 5.6-5.2 0-5.2 0.8-0.4 3.6 3.2 2 4.4 6.4 3.2 9.6-1.6 4.4-0.8 5.6 3.6 4q6.6-2.4 4.8 4.8c-0.8 4 1.6 8 4.8 8.8 5.2 1.6 5.2 1.2 0-2.4-4.8-3.6-4-4.4 4-4.4 8.8-0.4 9.2-0.8 3.2-4.4-9.2-5.2-9.2-12-0.4-8.8 4 1.6 5.6 0.8 4-1.6-1.6-2.4 0-9.6 3.2-15.6 3.2-6.4 6-14.8 6-18.8 0-14.4 7.6-2.4 12 19.2 2.4 12 6 22 7.6 22 2 0 2.4 4.8 1.2 10.8-1.6 8.4-0.8 10 4.4 8 4.4-1.6 5.6-0.8 4.4 2.8-1.2 2.8 0.8 7.6 4.4 10.4 5.2 4.4 5.6 4 3.2-2-2-5.6-1.2-6.8 3.6-5.2 6.4 2.8 15.2-11.2 15.2-23.2 0-10.4 6.8-2.4 9.6 10.8 2 10 4 12 10 10.4 5.6-1.2 9.2 1.2 12.8 9.6 2.4 6.4 7.6 13.6 11.2 15.2 3.6 2 5.2 4.8 4 6-1.2 1.6-115.6 2-254 1.6-152.4-0.8-246.4-2.4-238.8-4.8 7.2-2 12-4.8 11.2-6.8-1.2-1.6 2-7.2 7.2-12.4 5.6-6 9.2-13.2 8-18.4-0.4-4.8 0.4-8.8 2.4-8.8 1.6 0 2.8-4.4 2.4-10-0.8-5.6 0.4-10 2-10 2 0 4-4 4.8-8.8 1.6-12.4 9.2-13.2 10-0.8 0 6 2.8 12 5.6 14 2.8 1.6 6 9.2 6.8 16.4 0.8 7.2 3.2 13.6 5.2 14.4 2 0.8 3.6 3.6 3.6 6.4 0 2.4 3.6 4.8 7.6 5.2 5.6 0.4 8.8-2.8 10.4-11.2 3.6-15.6 7.6-14.8 16 4l6.8 15.6 11.6-6.8c6.4-3.6 11.6-8.8 11.6-11.6 0-2.4 2.8-4.8 6-4.8 3.6 0 4.8-2.4 3.6-6-1.6-3.2-0.4-6 2-6 4.4 0 6 5.2 4.4 16-0.4 3.2 0.4 4.8 2.4 3.2 1.6-1.6 4.8-1.6 7.2 0.8 6 4.8 11.6 0.8 17.6-13.6l5.2-11.6 6.4 8.8c4 6 7.6 7.6 10 5.2 2.4-2.4 5.6-30.8 7.6-63.2 3.6-60 10-144.4 13.6-178 2-17.6 1.6-18.8-8.8-20.8-9.2-2-13.2 0-22 10-6 7.2-10 13.6-8.8 14.8 1.2 1.2 4-0.8 6-4.8 2.4-3.6 6.4-6.8 9.6-6.8 4.4 0 4.4 2-0.4 11.6-8.8 17.6-15.6 22-25.2 16-6.8-4.4-9.2-4-16.4 2.4-5.2 4.8-7.2 10-5.6 15.6 1.6 6 1.2 6.8-1.6 2.8-4.8-6.8-9.6 0.4-6.4 10.4 1.6 5.2 1.2 6-1.6 1.6-2.8-4-6.4-0.4-15.2 14.8-6.4 11.2-15.6 22-20.4 24.4-9.2 4.4-9.2 4.4-2.8-8 3.2-6.8 5.2-13.2 4.4-14.4-1.2-0.8-9.6 2-18.8 6.8-26 13.2-28 7.2-2.8-7.2 14.8-8.4 22.8-15.2 22.4-20 0-4-1.2-4.8-2.4-1.6-0.8 2.4-3.6 4-5.6 2.4-2-1.2-3.6 0-3.6 2.4 0 2.4-2.4 4-4.8 3.6-8.8-1.2-31.2 5.2-31.2 8.8 0 2-2.8 3.6-6.4 3.6-3.2 0-5.2 1.2-4.4 3.2 3.6 5.6-16.4 26-26 26.4-4.8 0.4-11.6 2-14 3.6-2.8 2-5.2 1.6-5.2 0 0-2 8-8.8 18-14.8 19.2-12.4 24-20.8 9.2-16-5.2 1.6-17.6 3.2-28 3.6-10.4 0.4-20 1.6-21.2 2.8-2.4 2.4-34-11.6-34-14.8 0-1.2 4.4-1.2 9.6 0.4 7.6 1.6 10.4 0.4 12.4-6 1.6-4.8 5.6-8 11.2-7.6 4.8 0 14 0 20.4-0.4 9.6-0.4 10.8-1.2 6.4-6.4-2.8-3.2-3.6-6-1.6-6 2 0 0-2.8-4.4-6.4-6.8-5.2-7.2-6.4-2-10 4.4-3.2 3.6-3.6-3.6-1.6-6 2-8.4 1.2-6.8-1.2 1.2-2.4-0.8-5.2-4.4-6q-6.6-1.8 3.6-2.4c8-0.4 10.4-2 8.8-6.4-2.4-6-1.6-6.4 25.6-7.6 7.2 0 14.8-2.8 16.4-6 2-3.2 7.2-4.8 12-3.2 16 4 4-4.8-12.8-10l-16.8-4.8 16-2.4c14.4-2 15.2-2.4 8-6.8-9.6-5.6-6-10.4 8-10.4 10.8 0 13.6-5.6 4-9.2-3.2-1.2-8.8 0.4-12 4-3.6 3.6-8 6.4-10 6.4-8 0-16-5.2-16-10.8 0-3.2-1.6-4.8-3.2-3.6-5.2 3.2-34.4-8-36.4-14-0.8-3.2 0.8-4 5.2-2.4 11.2 4.4 26.4-0.8 23.6-8.4-2-4.4-1.2-5.2 2.8-2.8 4.4 2.8 27.2 4 39.2 2 1.6 0-1.6-2.8-7.2-6-7.6-4-8.4-6-4-7.2 44.4-14.4 51.2-20 26.8-21.6-27.2-2-52.8-4.4-52.8-5.2 0-0.4-2.8-1.2-6.8-2-3.6-0.8-9.6-3.2-14-5.6-6.4-4.4-6.4-4.4 2-2.4 6.8 2 8.8 0.8 8.8-5.2 0-7.6 2-8 39.2-10.4 4.8 0 8.8-2 8.8-3.6 0-1.6 6.8-2 15.2-0.8 8 1.2 12.4 0.8 10-0.4-2.8-1.2-5.2-4.8-5.2-8 0-3.2-2.4-5.6-4.8-6-6.4 0 12.4-8.8 20.8-9.2 3.2-0.4 6.4-4 7.2-8.4 1.2-8 0.8-8-4.8-0.4-5.6 6.8-6.4 6.8-8.8 1.2-1.2-4-4-6.8-6.4-6.8-2 0-2.4 1.6-1.2 4 1.2 2 0.4 4-1.6 4-2.4 0-4.4-1.6-4.4-4 0-2-2.8-2.8-6-1.6-3.2 1.6-6 0.4-6-2 0-2.4-3.2-4.4-6.8-4.4-6 0-5.6-1.2 2-7.2 12-9.2 8.8-11.6-13.2-10.4-13.2 0.8-19.2-0.8-22.8-6-2.8-3.6-11.2-9.2-18-12-7.2-2.8-13.2-8.4-13.2-11.6 0-4.8 1.2-5.2 4.4-2 2.8 2.8 8.4 3.2 16.4 0.8 6.8-1.6 14-2.4 15.6-1.2 2 1.2 3.6 0 3.6-2.8 0-2.8 3.2-3.6 8.4-2.4 6 1.6 10.8-0.4 15.6-6 4.8-6 10.8-8.4 21.2-8 8.4 0.4 14.8 0 14.8-1.2 0-0.8-10-6-22-11.6-12-5.6-22-12-22-14 0-5.6-0.8-5.2 41.6-6.8 34.4-0.8 54.8-6.8 29.2-8.4-7.2-0.4-23.6-1.2-36.8-2-18.8-1.2-25.6 0-31.6 5.6-4.4 4-8.8 6-10 4.8-1.2-1.2 0.4-3.6 3.6-5.6 4.4-2.8 2.8-5.6-7.2-14.4-7.2-6.4-12.8-14-12.8-17.2 0-4.4 1.6-4 6 2 3.2 4 6 5.6 6 3.6 0-2.4 6.8-4.8 15.2-5.2 20-1.2 41.6-8.4 38.8-13.2-1.6-2 0-2.4 3.2-1.6 2.8 1.2 10.8-0.4 17.2-4 13.2-6.8 21.6-7.6 21.6-2.4 0 2-2.4 4.4-4.8 5.6-2.8 0.8-4 3.2-2.4 4.8 1.6 1.6 8-0.8 14.4-5.6 6.8-4.4 16-10 21.2-12.4 8.8-3.6 8-4-4.4-2.8-7.6 0.4-15.2 2.4-16.4 4.4-1.6 2-5.2 2-8 0-3.2-2-10-2.8-15.2-2-6 0.8-8.4-0.4-6.8-3.2 2-2.8-3.2-4.4-15.2-4.4-19.6 0-30-7.6-11.6-8.4 8.4-0.4 9.2-1.2 3.2-2.4-13.6-3.6-42-21.6-46-29.6-3.2-6-2.8-6.8 2-5.2 3.2 1.6 6 4 6 6 0 2 3.6 3.6 8 3.6 4.4 0 8-1.6 8-3.6 0-2.4 4.8-2.4 11.2-0.8 6 1.6 13.2 2.4 16 2 2.4-0.4 6.8-0.8 8.8-1.2 2.4 0 4-2.8 4-6 0-4 2.8-4.8 8.8-3.2 5.2 1.2 7.6 0.4 6-2-1.6-2.4 0-5.2 2.8-6.4 3.2-1.2 6.8-0.4 7.6 2.4 1.2 3.2 5.2 1.6 11.2-4.8 9.2-8.8 9.2-9.2 0.8-4.8-6 3.2-8.8 3.2-10 0-0.8-2.4-10-5.2-20.4-6.4-23.2-2.8-27.6-8-11.2-14.4 17.2-6.4 15.6-8.8-5.6-10-11.6-0.4-20.4-3.2-26-8.8-4.4-4.4-8-8.4-8-9.2 0-0.8 10-1.2 22-0.8 29.6 0.8 46-2 46-7.6 0-6.4 16.8-5.6 19.2 0.8 0.8 2.4 3.6 3.6 6.4 2.4 3.2-1.2 8.4 0.8 12 4.4 3.6 3.6 8.4 5.2 10.8 3.6 2.8-1.6-0.8-5.2-8.4-8.8-9.2-4.4-11.2-6.8-7.2-9.6 4-2.8 4-4.4-0.8-8.4-3.6-2.4-5.6-8-4.8-11.6 0.8-5.2-1.6-6.4-11.2-6.4-12 0.4-25.6-10.8-21.2-18 1.2-2-0.4-2.8-3.6-2-2.8 0.8-10.4-2.8-16.4-7.6l-11.2-8.8 31.2 1.2c17.2 0.8 34.4 0 38.4-2 8-4.8 9.6-17.6 1.2-14.4-3.2 1.2-8.8-0.4-13.2-3.2-6.8-5.6-6.8-5.6 1.6-6 4.8 0 9.6-1.6 11.2-3.6 2.8-5.2-20.8-16.4-28.4-13.6-6.4 2.4-7.6-3.2-1.2-9.6 2.8-2.8 1.2-6.4-6-12.4-13.2-10-13.2-12 0.8-10 6 0.8 13.2 2 16 2 2.4 0.4 4.8 2.4 4.8 4.4 0 2.4 3.6 0.8 8-3.2 4.4-4 8-5.6 8-3.6 0 2 4.8 4.4 10.4 4.8 9.2 0.8 10 0 5.6-5.2-6.8-8.4-2-12.4 6.8-6 4 2.8-2-3.6-13.2-14.4-30-29.2-34.4-37.6-10.4-20 11.2 8.4 20.8 13.2 20.8 10.8 0-2-1.6-5.2-4-6.4-2-1.2-4-4.4-4-6.4 0-2.4 2-2.8 4-1.6 5.6 3.6 5.2-3.2-0.8-9.2-3.6-3.6-3.2-4.8 1.6-4.8 3.6 0 8 1.6 9.2 4 1.2 2 6.8 4 12 4 5.2 0 10.8 1.6 12 4 3.2 5.2 14 5.2 14 0.4 0-2-5.2-4.8-11.6-6.4-16.4-3.6-53.6-42-40.8-42 2 0 4.8 1.6 6 3.2 0.8 1.6 9.6 3.6 18.8 4.4 9.2 0.4 18.8 2 20.8 3.2 2.4 1.2 2.8 0.4 1.2-2-1.6-2.8-6-4.8-9.6-4.8-7.2-0.4-20.8-9.2-20.8-13.2 0-1.6 5.2-1.6 11.2-0.4 8 1.6 12.8 0 17.2-4.8 3.6-4.8 4-6 0.4-4-5.6 3.6-18-4.8-14.8-10 1.2-1.6-1.6-5.2-6-7.6-4.4-2.4-8-6-8-8.4 0-2.4 1.6-2.8 4-1.6 2 1.2 7.2 0.8 10.8-1.2 6-3.6 4.8-4.8-6.8-10-7.6-3.2-17.2-9.6-21.6-14l-7.2-8.4 15.2 7.6c8.4 4.4 21.6 8.8 29.2 10.4 8 1.2 18.4 3.6 23.6 5.6 5.6 2.4 8.8 2.4 8.8-0.4 0-2-2.8-4.8-6.4-6.4-3.2-1.2-5.2-4.8-4-7.6 1.2-3.2-0.4-5.6-3.6-5.6-2.8 0-6.8-2-8.4-4.4-2-3.6 0.4-4 8.4-2l11.2 2.8-12.8-10.8c-15.2-12.8-14-15.6 5.2-10.4 12.8 3.6 14.4 3.2 14.4-3.2 0-4-1.6-8.8-4-10-2-1.2-6-6.4-8.4-11.2-3.6-7.2-3.6-8 0.8-4 2.8 2.8 7.6 5.2 10.8 5.2 4 0 4.4-1.6 2.4-5.2-4-5.2-4-10.4-0.4-30.8 1.6-7.6 3.6-19.6 4.4-26 0.8-6.8 2-12.8 2.4-14 2-4 6.8 34.4 5.6 41.2zm16.8 102.8c-3.6 0-6.4 1.6-6.4 4 0 2 1.6 4 3.6 4 2.4 0 5.2-2 6.4-4 1.2-2.4-0.4-4-3.6-4zm-42 32c-2 0-5.2 1.6-6.4 4-1.2 2-0.8 4 1.6 4 2 0 5.2-2 6.4-4 1.2-2.4 0.8-4-1.6-4zm42 32c-3.2 0-7.2 1.6-8.4 4-1.2 2 1.2 4 5.6 4 4.8 0 8.4-2 8.4-4 0-2.4-2.4-4-5.6-4zm49.2 10.4c-1.2-1.2-5.6 0.4-10 3.6-8.4 6.4-3.2 8 6.4 2 3.2-2 4.8-4.4 3.6-5.6zm-136 41.6c-5.6 0-4.4 2.8 2.8 5.6 3.2 1.2 4.8 0.8 3.6-1.6-1.2-2.4-4-4-6.4-4zm128 56c-2 0-2.8 1.6-1.6 4 1.2 2 3.2 4 4.4 4 0.8 0 1.6-2 1.6-4 0-2.4-2-4-4.4-4zm46.8 10c-1.6 5.2-0.8 5.6 5.6 2 4.4-2.4 8-5.2 8-6 0-4.8-11.6-1.2-13.6 4zm-94.4 46c-2 0-4 2-4 4.4 0 2 2 2.8 4 1.6 2.4-1.2 4-3.2 4-4.4 0-0.8-1.6-1.6-4-1.6zm54 36c-0.8 0-2.4 1.6-3.6 3.2-1.2 2 0.4 3.6 3.6 3.6 3.2 0 4.8-1.6 3.6-3.6-1.2-1.6-2.8-3.2-3.6-3.2zm-66 41.6c0 7.6 1.6 8.8 9.6 7.6 8.8-1.6 9.2-3.2 5.2-9.6-6.4-10.4-14.8-9.6-14.8 2zm27.2-7.2c-3.2 3.2 1.2 17.6 5.2 17.6 2 0 3.6-2.8 3.6-6 0-3.2-2-6-4.4-6-2 0-2.8-2-1.6-4 2.8-4.4 0.8-5.6-2.8-1.6zm-168.8 21.6c-1.2 0-3.2 1.6-4.4 4-1.2 2-0.4 4 1.6 4 2.4 0 4.4-2 4.4-4 0-2.4-0.8-4-1.6-4zm141.6 18.4c0 8.8 0.8 9.6 5.6 5.6 3.2-2.4 4.8-7.2 3.6-10.4-3.6-9.2-9.2-6.4-9.2 4.8zm40.4 19.2c-13.2-7.2-16.4-7.6-18-3.2-2 5.6 14.8 16 22.8 14.4 1.6-0.4 2.8 0.8 2.8 3.2 0 2 2 4 4 4 2.4 0 4-2.4 4-5.2 0-2.4-7.2-8.8-15.6-13.2zm26.8 12.8c-5.6-7.2-6-7.2-6 0 0 4.4 1.6 9.6 3.6 12 4.4 6 19.2 2.4 19.2-4.8 0-7.2-6.8-10.8-9.2-4.8-1.2 3.6-3.6 2.8-7.6-2.4zm-59.6 1.6c-6.4-3.6-7.6-2.8-7.6 4.8 0 7.6 0.8 8 4 3.2 2.4-4 4-4.4 4-1.2 0 2.8 2.8 5.2 6.4 5.2 3.2 0 4.8-1.6 3.6-4-1.2-2-6-6-10.4-8zm83.2 6.8c-4 3.6-3.2 13.2 0.8 13.2 2 0 4.4-3.6 5.6-8 2-8-1.2-10.4-6.4-5.2zm-87.6 21.2c-2.4 0-2 2.8 0.8 6 2.8 3.2 6.8 6 8.8 6 2.4 0 2-2.8-0.8-6-2.8-3.2-6.8-6-8.8-6zm-3.6 15.2c-1.2-2-2.4 2-2.4 8.8 0 6.4 1.6 12 3.6 12 1.6 0 3.2-2 3.2-4.4 0-2.4 2.8-1.2 6.4 2 7.6 7.6 12.4 8 12.4 1.2 0-2.4 1.2-9.2 2.8-14.8 2.4-8.4 2-8.8-1.6-2.8-3.2 5.2-7.2 6.4-13.2 4.4-4.8-1.6-10-4.4-11.2-6.4zm40.4 20.8c-7.2-9.2-7.6-9.6-10.4-2.4-2 5.2-0.4 9.2 4.4 12.8 8.4 6 14 7.2 14 2.4 0-1.6-3.6-7.2-8-12.8zm-28.4 20c-5.6 0-4.4 2.8 2.8 5.6 3.2 1.2 4.8 0.8 3.6-1.6-1.2-2.4-4-4-6.4-4zm-70.8 16c-4.8 8-4.8 8.4 5.2 1.6 5.6-3.6 10-7.2 10-8 0-5.2-10.8-0.4-15.2 6.4zm26.8-8c-4.4 0-6.8 1.6-5.6 4 1.2 2 5.2 4 8.4 4 3.2 0 5.6-2 5.6-4 0-2.4-3.6-4-8.4-4zm43.2 6.8c-4 3.6-3.6 10 0.4 7.6 2-1.2 7.6 1.6 12.4 6 12.4 12 14 7.6 2-5.6-10.8-12-11.2-12-14.8-8zm-3.6 24.8c-6.4-3.2-7.6-3.2-5.2 0.4 1.6 2.8 0.8 6.4-2.4 8.4-8 4.8-3.2 7.2 9.2 4.8 6-1.2 10-3.6 8.8-5.6-1.2-2-5.6-5.6-10.4-8zm-44.8 11.6c-0.8 1.6 1.6 3.6 6 3.6 4.4 0.4 6.8-0.8 5.6-3.2-2.8-4.4-8.8-4.8-11.6-0.4zm-2.4 12.4c0 2 2.8 4.8 6.4 6 9.6 3.6 10.8 2.8 4-3.6-6.8-6.8-10.4-7.6-10.4-2.4zm42.4 10.4c1.2 3.2 6 6.8 10 8 6.8 2.4 7.2 3.6 3.2 8.8-4.4 4.8-3.6 7.2 4.4 13.2 10.4 7.6 18.4 6.8 13.2-1.2-1.6-2.8-3.2-6.8-3.6-9.6-0.4-2.8-6-9.6-12.4-14.8-12.8-11.6-18-13.2-14.8-4.4zm45.6 8c0-3.3-1.8-6-4-6-2.2 0-4 2.7-4 6 0 3.3 1.8 6 4 6 2.2 0 4-2.7 4-6zm7.2 0.4c-1.6 1.6-1.2 5.6 0.8 9.6 2 4 2.4 8 1.2 9.6-1.2 1.2-0.4 2.4 2 2.4 2.8 0 4.8-2.4 4.4-5.2-0.4-8.8-6-19.2-8.4-16.4zm-85.2 5.6c-3.2 0-6 1.6-6 4 0 2 2.8 2.8 6 1.6 3.2-1.6 6-3.2 6-4 0-0.8-2.8-1.6-6-1.6zm-128.8 11.2c-5.2 0.8-9.2 4-9.2 7.2 0 7.2 4 6.8 13.6-0.4 9.2-6.8 8-8.8-4.4-6.8zm252.8 5.2c-1.6 2.4-2 4.8-0.8 6 0.8 1.2 2.8-0.8 4-4.4 2.8-6.8 0.4-8-3.2-1.6zm-288 3.6c-6.4 2.8-5.6 3.6 5.2 2.8 7.6-0.4 14.4-2 15.2-3.6 2.8-4-10.4-3.6-20.4 0.8zm200.4-4c-1.2 0-3.2 1.6-4.4 4-1.2 2-0.4 4 1.6 4 2.4 0 4.4-2 4.4-4 0-2.4-0.8-4-1.6-4zm-32 12c0-2.2-2-4-4.4-4-2.4 0-4.4 1.8-4.4 4 0 2.2 2 4 4.4 4 2.4 0 4.4-1.8 4.4-4zm65.6-4c-2 0-2.8 2.8-1.6 6 1.6 3.2 3.2 6 4 6 0.8 0 1.6-2.8 1.6-6 0-3.2-1.6-6-4-6zm-89.6 18.8c-4-1.6-6-1.2-4.4 1.2 1.2 2.4 0.4 4-1.6 4-5.6 0-5.6 10.8 0 14.4 2.4 1.2 7.2-0.8 10.8-4.4 6.4-6.8 6.4-6.8 0-4.8-4 1.6-7.2 0.8-7.2-0.8 0-2 2-4.4 4.8-5.2 2.8-1.2 2-2.8-2.4-4.4zm85.6-2.8c-2 0-4 1.6-4 4 0 2 2 4 4 4 2.4 0 4-2 4-4 0-2.4-1.6-4-4-4zm-74 36c-1.2 4.4-4.4 8-6.4 8-2.4 0-2.8-2-1.6-4 1.2-2.4 0.4-4-1.6-4-2.4 0-4.4 2.8-4.4 6 0 2.8-3.2 7.6-6.8 9.6-4 2.4-5.2 4.4-2.8 4.4 2 0 6-2 8.4-4.4 3.6-3.6 7.2-3.2 14.8 2 8.4 5.2 9.6 5.6 8 0.4-1.6-3.2-0.4-6 2-6 2.4 0 4.4-4.4 4.4-10 0-12-10.4-13.6-14-2zm-126 0c-2 0-4 2-4 4.4 0 2 2 2.8 4 1.6 2.4-1.2 4-3.2 4-4.4 0-0.8-1.6-1.6-4-1.6zm129.6 41.6c-6-1.6-25.6 6.8-25.6 10.8 0 5.2 5.2 4.4 14.4-2 5.6-4.4 8.8-4.8 13.2-1.2 4.4 4 5.2 3.6 4-0.8-1.2-3.2-3.6-6.4-6-6.8zm-118.4 2.8c-0.8 0.4-4.4 1.2-8 2.4-4 0.8-7.2 3.6-7.2 5.6 0 2.4 3.2 2 8-0.4 4.4-2.4 8-5.2 8-6 0-1.2-0.4-1.6-0.8-1.6zm155.6 15.6c-3.6 0-5.2 5.2-5.6 15.6-0.4 14 0.4 15.2 11.2 15.6 10.4 0.4 11.2-0.8 7.6-7.6-2.4-4-6.8-7.6-10.4-7.6-4.8 0-4.8-1.6-1.6-8 3.2-6 3.2-8-1.2-8zm-31.6 12c-1.2-4-3.6-2.8-8.4 4-5.2 7.2-5.6 10.4-1.6 12.8 8 5.2 12 3.6 7.2-2.4-3.6-4.4-3.6-6 0-7.2 2.8-0.8 4-4 2.8-7.2zm-2.8 24c-5.6 0-12.8 10.4-9.2 14 1.6 1.6-0.8 1.2-5.2-1.2-6-2.8-10-2.8-15.2 1.2-7.2 5.2-9.6 12.4-2.8 8 2.4-1.6 2.8 2.4 1.6 10.8-2.4 12.4-2.4 12.8 4.4 6.8 6.4-6.4 7.6-6 15.2 1.6l8.8 8.8 2.8-16c1.6-8.8 2.8-20 2.8-25.2 0.4-4.8-1.2-8.8-3.2-8.8zm38.4 12.8l-9.6-9.2-2 10c-1.2 6-0.4 10.4 1.2 10.4 2 0 3.6-2.4 3.6-5.2 0-3.6 1.2-3.2 3.6 0.8 2 2.8 5.6 4.8 8 4 3.2-1.2 1.2-5.2-4.8-10.8zm-190.8 3.2c-2 0-4 1.6-4 4 0 2 2 4 4 4 2.4 0 4-2 4-4 0-2.4-1.6-4-4-4zm184 12c-4 0-9.6 15.6-6.4 18.8 3.2 3.6 15.2-10.4 12.4-14.8-1.2-2-4-4-6-4zm27.6 0c-7.2 0-7.6 0.8-3.6 6 2.8 3.6 4 7.2 2.4 8.8-1.2 1.6-5.2-0.8-8.8-5.2-6-7.2-6-6.8-3.6 4.4 2.8 12 13.6 27.6 17.2 24 0.8-0.8 4.8 2 8.4 6.8 6.8 8 6.8 7.6 6.8-14 0-16.4-1.2-21.6-5.2-20-2.8 1.2-5.2-0.8-5.2-4.4 0-4-3.2-6.4-8.4-6.4zm28.8 2.8c-4-3.6-4.4-3.2-2 2.4 1.2 4 3.6 6 4.8 4.8 1.2-1.2 0-4.4-2.8-7.2zm-179.2 6c-0.8 2-4.8 2.8-8 2.4-3.6-0.8-7.2 0.8-8 3.6-1.2 3.2 2.4 3.6 13.6 0.8 8.4-2 16.4-3.6 18.4-3.6 1.6 0 2.8-1.6 2.8-3.6 0-4.8-15.6-4-18.8 0.4zm-21.6 9.6c-2.8-2.8-9.6 2.8-10.8 9.6-1.2 4.8 0 4.8 5.6-0.8 4-4 6.4-8 5.2-8.8zm196 13.6c-2 0-3.6 1.6-3.6 4 0 2 2.8 4 6.4 4 3.2 0 4.8-2 3.6-4-1.2-2.4-4-4-6.4-4zm-145.2 10.4c-3.6 9.6-3.2 9.6 7.6 4.8 7.6-3.2 8.8-5.6 5.2-8-7.6-4.4-10-4-12.8 3.2zm154 1.6c-5.2 0-10 8-6.8 10.8 1.2 1.6 2.4 0.4 2.4-2.4 0-2.8 2-3.6 4-2.4 2.4 1.2 4 0.4 4-1.6 0-2.4-1.6-4.4-3.6-4.4zm125.6 8.4c-1.6 2.4-2 4.8-0.8 6 0.8 1.2 2.8-0.8 4-4.4 2.8-6.8 0.4-8-3.2-1.6zm-302 11.6c-6.4 4.8-8.8 8.8-6 11.2 2.4 2.4 7.2-0.4 13.2-7.6 10.8-13.2 7.6-14.8-7.2-3.6zm-24.8-3.6c-0.8 0.4-12.4 3.6-26 7.2-13.6 3.6-27.2 8.8-30 12-4.4 4.8-4 5.2 2.8 2.4 4.4-1.6 12-3.6 16.8-4 15.2-2 37.2-10.4 37.2-14.4 0-2-0.4-3.2-0.8-3.2zm250 46c-5.6-2.4-6-2-2.4 2 2.8 2.8 6 4 7.2 2.8 1.2-1.2-0.8-3.6-4.8-4.8zm16.8 5.6c-1.2 2 1.2 4 5.6 4 4 0 8.8 2.4 9.6 4.8 1.6 4 2.4 4 2.4 0.4 0.4-6.8-14.4-14.4-17.6-9.2zm-46 21.6c0 0.8 3.2 4 7.2 6.8 6 5.2 6.4 4.8 1.2-1.6-5.2-6.4-8.4-8.4-8.4-5.2zm130 174.8c-1.6 2.4-2 4.8-0.8 6 0.8 1.2 2.8-0.8 4-4.4 2.8-6.8 0.4-8-3.2-1.6z"/>
	</g>
</svg>