<svg version="1.2" xmlns="http://www.w3.org/2000/svg" viewBox="0 0 552 1024" width="552" height="1024">
	<title>Layer</title>
	<style>
		.s0 { fill: #323935 } 
	</style>
	<g id="Layer">
		<path id="Layer" fill-rule="evenodd" class="s0" d="m270 2.4c20 3.2 22 4.4 19.6 11.6-1.6 4 0 4.8 6.8 3.2 10.4-2.8 20.4 8 16.8 18-1.6 3.6-0.8 5.2 1.6 3.6 2.4-1.6 5.6 0 6.8 3.6 1.2 3.6 4.8 5.6 8 4.4 3.2-1.2 7.2 2 9.6 7.6 3.2 6 6.8 8.8 10.8 7.2 3.6-1.6 6 0 6 4 0 4 2.4 5.2 6 4 5.2-2 5.6-0.8 2 8-3.2 8.4-2.8 10.4 2 10.4 4.8 0 5.2 1.2 1.2 7.6-5.2 8.8-18 15.2-27.2 14.4-3.2-0.4-10-1.2-14.8-1.2-5.2-0.4-9.2-3.6-9.2-6.8 0-6.8-3.6-7.6-12-2-5.2 3.2-4.8 4 1.2 4 4 0 8 2.4 9.2 5.6 1.2 3.2 4.8 4.8 8 3.6 3.2-1.2 5.6 0 5.6 2.8 0 2.8 3.2 4 8 2.8 4.4-1.2 9.2-0.4 10.4 1.6 1.6 2.4 4.4 2.4 7.6-0.4 3.6-3.2 5.6-2.8 7.2 1.2 1.2 3.6 6.4 4.8 14.4 3.6 9.6-1.2 12.4-0.4 12.4 4.8 0 4 1.6 6 3.6 4.8 5.6-3.6 7.6 6.4 4 16.4-4 10.8-4.8 10.8 16 3.2 10-3.2 16.4-4 16.4-1.6 0 2.4 2 2.8 4.8 1.2 3.2-2 3.6 0 2.4 5.6-1.6 6-0.8 8.8 3.2 8.8 7.2 0 7.2 3.2 0 16.8-5.2 10-5.2 10.8 6 16.4 10.4 4.8 11.2 6.4 6 10.4-3.2 2.8-14 6-23.2 7.2-9.6 1.2-22.8 4.4-30 7.6-6.8 3.2-15.2 5.6-18.8 5.6-3.6 0-6.4 1.6-6.4 4 0 2 3.6 4 8 4 4.4 0 8 1.6 8 3.6 0 2.4 6.4 2.8 14 1.6 8.8-1.2 14-0.8 14 2 0 2.4 2.8 7.2 6.4 10.8 6 6 6 6.8-0.8 12-4 2.8-8.8 4.4-10.4 3.6-2-1.2-3.2 0-3.2 2.4 0 2.4-1.6 3.6-3.6 2-2-1.2-4.8-0.4-6.4 2-1.2 2 0.4 4 3.6 4 7.6 0 8.4 6.4 1.6 9.2-3.2 1.2-2 2.4 2.4 2.4 4.8 0.4 6.4 2.4 4.8 6.8-1.6 3.6-0.8 5.2 2 3.2 2.4-1.6 5.6-0.8 7.2 1.6 1.6 2.8 7.2 5.2 12.4 5.6 12.4 1.6 28.4 14.8 25.2 20.8-1.6 2.4 0.4 2 4-0.8 7.6-6.4 16.4-2.8 13.2 5.2-1.2 3.2 0 6.4 2.8 7.6 3.2 1.2 2 4-3.2 8-4.4 3.2-10 8-12.8 10.4-6 5.2-20 5.2-23.2 0-1.2-2.4-6-2.4-11.6 0-5.2 2-10.8 2.4-12.8 0.8-1.6-1.6-1.6 0.4 0 4.8 2 5.6 0.8 6.8-3.6 4.8-3.2-1.2-6-0.4-6 1.6 0 2.4 2 4 4.4 4 2 0 2.8 2 1.6 4-1.6 2.8-5.2 2.4-10.8-0.4-6.4-3.6-8.8-3.2-11.6 0.8-2 3.6-0.8 6.4 4.4 8.4 4.4 1.6 8 5.2 8 8 0 2.8 4 7.2 8.8 9.2 10.8 4.8 14.4 14 5.6 14-3.6 0-7.6 2.8-8.8 6-1.6 3.2-5.2 6-8.4 6-3.2 0-4.4 1.6-3.2 4 1.2 2 9.6 4 18.4 4 14.8 0 15.6 0.8 14 10-1.2 5.2-2.8 11.6-4.4 14-1.2 2 0.4 4 3.6 4 3.6 0 6.4 2.8 6.4 6 0 3.2 2.8 6 6 6 3.2 0 6 1.6 6 4 0 2-2.8 4-6.4 4-3.2 0-5.2 1.6-4 3.6 3.2 4.8-8 13.6-14.4 11.2-2.8-0.8-11.2 0.8-18.8 3.6-10 4-17.2 4.8-27.6 1.6-7.6-2-15.6-2.8-17.2-1.6-4 2.4-23.6-17.2-23.6-23.6 0-2.8-4.8-7.2-11.2-9.6-6-2.8-14.4-10.4-18-17.2-4.4-6.8-10.4-12-15.2-12-7.2 0-8 2.4-6.8 24.8 1.2 22.8 2 25.2 10.4 26.4 4.8 0.8 8.8 3.2 8.8 5.2 0 2.4 1.6 3.2 3.6 1.6 2-1.2 8 2 13.2 7.2 5.2 4.8 12.4 8.4 16.8 7.6 4.4-1.2 6.4 0 4.8 2.8-1.6 2.4 0 4.4 3.6 4.4 4.4 0 6 2 4.4 6-2.4 6.8 7.6 8.4 11.6 2 1.6-2.4 4.8-2.8 7.2-1.2 2.8 1.6 16.4 3.2 30.4 3.2 16.8 0.4 26.4 2 27.6 5.2 1.2 4 2.8 4 7.2 0.4 6-4.8 14 0.8 18.8 14 2.8 7.2 3.2 7.2 8 0.4 5.2-6.4 6-6.4 16.4 3.6 6.4 5.6 13.2 9.2 15.6 7.6 2.4-1.6 3.2 0 1.6 4-1.2 4-0.8 6.8 1.2 6.8 2.4 0 4 2.8 4 6.4 0 3.6 3.6 10 8.4 14 4.4 4 7.2 9.2 5.6 11.2-1.2 2.4 0.4 4.4 3.6 4.4 3.6 0 6.4 1.6 6.4 4 0 2-2 4-4.4 4-2 0-2.8 2-1.6 4 4.4 7.2-8.4 15.6-25.2 16.8-12.4 0.8-15.2 2.4-12 6 2.4 2.8 3.6 5.2 2.8 5.6-0.8 0-5.6 0.8-10.4 1.2-11.2 1.2-14.8 4.4-11.2 10.4 1.6 2.4 4.8 2.8 7.2 1.2 4.4-3.2 14-3.6 40-2 15.2 1.2 12 9.6-5.6 15.6-7.6 2.8-10.4 4.8-6.4 4.8 3.6 0.4 6.8 2 6.8 4 0 2-3.2 4.8-6.8 6-4 0.8-0.8 1.2 6.8 0.4 24.4-2.8 31.6 9.6 10.4 18-6.8 2.8-6.8 3.6-1.2 3.6 8 0.4 9.2 8.4 1.2 8.4-3.2 0-7.2 2-8.8 4.4-2 3.6 3.6 4 20 2.8 12.4-1.2 22.4-1.6 22.4-0.8 0 2-30 19.6-36 20.8-3.2 0.8-9.6 1.2-14 1.2-6.4 0-6.8 0.8-2 3.6 3.2 2 18 2.8 32.8 2 15.2-0.8 27.2 0 27.2 2 0 8-18 12.8-40.4 11.2-13.2-0.8-23.6-0.4-23.6 1.6 0 1.1 0.9 4.7 2.3 5.3-7.4-2.3-22-10.4-31.5-17.7-3.6-3.2-8-4.4-9.6-3.2-1.2 1.6 0 2.8 3.2 2.8 4.8 0 4.8 0.8 0 3.6-7.2 4.4-2.4 18 5.2 15.2 3.2-1.2 14 0.4 24.8 3.6 10.4 3.2 23.2 5.6 28.8 5.6 5.2 0 14 3.6 19.6 8l10.4 8h-16.8c-9.2 0-16-1.2-15.2-3.2 1.2-1.6-9.2-2-22.4-1.2-17.6 0.8-22.4 2.4-16.8 4.8 7.6 2.8 7.6 3.2-0.8 3.2-4.8 0.4-10-1.6-11.2-3.6-4-6.8-10-4.4-10 4 0 7.6 7.2 10.4 38 12.8 7.6 0.8 11.6 3.2 10.8 6.8-0.8 3.6 1.6 4.8 7.2 3.2 4.4-1.2 7.2-0.4 5.6 1.6-2 3.6 3.2 5.2 15.2 4 11.2-1.2 11.6 6 0 11.6-12.8 6.4-30 8-33.2 3.2-3.6-5.2-28 4.8-24.8 10q2.4 4.8-3.6 0c-3.2-2.8-7.2-4-8.4-2.4-1.6 1.2-2.8 0.4-2.8-2 0-2.4 7.6-6.8 16.8-9.6l16.4-4.8-15.6-6.8c-8.4-4-16.8-7.2-18.4-7.2-2-0.4-3.2 12-3.2 27.6 0 26.4 0.4 28 9.2 28.4l8.8 0.8-8.8 1.6c-8.8 1.6-9.2 2.8-9.2 54.8 0 36 1.6 55.2 5.2 59.6 5.6 8.4 39.2 12.4 44 5.2 2.4-3.2 4-3.2 5.6 0.4 0.8 2.8 6 5.2 11.2 5.2 5.2 0 10.8 1.6 12 4 1.6 2.8-72.8 4-219.6 4-145.6 0-222.4-1.2-222.4-4 0-2.4 7.6-4 17.2-4.4 61.6-1.6 90.8-5.2 96-13.2 3.2-4.4 0.4-187.2-3.6-235.6-2.4-25.2-3.6-28-15.2-35.2-14-8.4-34.4-10-34.4-2.8 0 2.8-2 8-4 11.2-3.2 5.2-4.4 5.2-8.8-0.8-4.8-6.4-6-6.4-15.2 1.6-9.6 8-9.6 8-0.8 5.6 5.2-1.6 8.8-1.2 8.8 1.2 0 5.6-16.4 16.4-21.2 13.6-2-1.2-5.2 0.4-7.2 3.2-2.8 4.4-3.6 4.4-3.6 0.4 0-3.2-2-4-4.8-2-10 6-30.8 4-37.6-3.6-4-4-5.6-7.2-4.4-7.2 10.4 0 18.4-10.4 15.6-20.8-1.2-5.6 0.4-7.2 8.4-7.2 8.8 0 10-1.6 9.6-11.2-0.4-6.8 1.2-10.4 4.4-9.6 2.4 0.4 4.8-2 4.8-5.2 0-3.2 2.8-6 6-6 3.6 0 7.2-2.8 8.8-6.4 1.2-3.6 5.2-5.6 9.6-4.4 4.4 1.2 7.6 0.8 7.6-0.8 0-1.6 8.8-3.2 19.6-3.6 16-0.8 20 0.8 21.6 6.4 1.6 5.6 2.4 5.2 4.8-2.4 2.8-8.4 3.6-8.8 12.4-2.8l9.6 6v-36c0-26-1.2-36-4.8-36.4-2.8 0-8.8-0.8-13.2-1.6-9.6-2-26 12.4-26 22.4 0 5.2-2 6.4-6.8 4.8-4.4-1.6-5.6-1.2-3.6 2 2 3.2-0.8 4.8-9.2 4.8-6.4 0-13.2 1.6-14.4 4-4 6.8-10 4.4-10-3.6 0-4.4-1.6-8.8-4-10.4-2-1.2-2.4-5.2-1.2-9.2 2.4-6.4 2-6.4-5.2-0.4-19.2 16-56.8 20.4-41.2 4.8 3.2-3.2-1.6-5.6-16.8-8.8-11.6-2.4-23.6-6.4-26.4-9.2-7.2-6-6.8-15.6 0.8-12.8 3.6 1.6 6 0 6-3.6 0-5.2 5.6-5.6 34-4.4 18.8 1.2 34 0.4 34-1.6 0-2-4.8-2.8-10.8-2-7.2 0.8-14.8-1.6-21.2-7.2-5.6-4.4-8-7.2-5.2-6 2.4 1.6 5.6 0.8 6.8-1.2 1.2-2-0.4-4.8-3.6-6-5.2-2-5.2-3.6-1.2-10.4 2.8-4.4 7.2-8 10-8 2.8 0 9.2-4 14.8-9.2 8-7.6 8.8-10 4.4-16-4.8-6.4-5.2-6.4-7.6 2-2 6.4-3.6 7.6-5.2 3.6-1.6-4-2.8-4-5.2-0.4-4.8 7.6-30.4-3.2-35.6-14.8-6.8-14.4-5.6-16.4 10-16.4 19.2 0 20.4-2.4 8-15.6-11.6-12.4-13.6-19.2-4.8-16 3.2 1.2 6.4-0.8 7.6-5.6 1.2-4.4 4.4-6.8 7.6-5.6 3.2 1.2 10-1.2 15.2-6 6.4-5.6 10.8-6.8 14-4 3.6 3.2 5.6 2 7.2-4 2.4-10 2-14.4-2-13.2-3.6 1.2-12.4-14.8-10-17.6 6-5.6 70.8 0.8 70.8 7.2 0 2 3.6 1.6 8-1.2 4.4-2.8 7.6-8 6.8-11.2-0.4-3.2 1.6-5.6 4.4-5.2 8.8 2 5.2-2-8-8.4-13.6-7.2-25.6-8.8-14-2 8.4 4.8 8.8 11.6 0.8 11.6-3.2 0-6-2-6-4 0-2.4-4.4-3.2-10-1.6-6.8 1.6-10 0.8-10-2.8 0-4.4-1.2-4.4-4 0.4-3.2 5.2-6 4-16-6.8-6.4-7.2-12-14.8-12-16.8 0-4 21.2-16.8 26.8-16.4 2 0.4 4-3.6 4.4-8.8 1.2-7.2 0.4-8-4-4-3.2 2.4-6.8 4-7.6 3.2-2.8-2.8-28.8-7.2-40-6.8-5.6 0.4-13.6-3.2-17.6-7.6-7.2-7.6-6.8-8 1.2-8 4.8 0 9.2-3.2 10.8-8 1.6-5.6 7.6-8.8 18.4-10.4 14-2.4 15.2-3.6 13.2-12-1.2-5.2-0.8-10 0.8-10 2-0.4 8-1.2 13.6-1.6 14.4-1.2 24.4-6.4 21.6-10.8-1.2-2-5.2-2.8-8.4-1.6-3.2 1.2-11.2-1.6-18.4-6.8-22-15.6-23.6-17.6-18.8-26.8 2.4-4.4 3.2-10 2-12-1.6-2.4 4.4-4 14.8-4 30 0.4 36-1.2 34-8.8-1.6-5.6 0.4-7.2 9.6-7.2 12.8 0 14.8-4.4 5.6-12-8.8-7.2-7.6-20.4 2-22.8 9.2-2.4 10.4-7.2 2.8-12-4-2.8-14.8-22-14.8-26.8 0-0.8 5.2-1.2 12-0.8 6.4 0.4 12.8-1.6 13.6-4.4 1.2-2.8 4.8-4 8.4-2.8 3.2 1.6 8.8 0.4 12-2.4 3.2-2.4 7.6-3.6 10-2 2 1.2 4 0.8 4-1.2 0-2.4-4.8-5.2-10.8-6.8-23.6-5.6-28-18.8-8.8-25.6 9.2-3.2 11.6-6 10-11.6-2.4-7.6 10.8-16.8 24.4-16.8 5.6 0 5.6-1.2-0.8-8-7.2-8-7.2-8.8-0.4-15.2 3.6-3.6 9.6-6.8 13.6-7.2 7.2-0.4 28.8-8.8 23.6-9.2-1.6-0.4-0.8-3.2 2-6.4 3.6-4.4 9.6-5.2 21.2-3.6zm222.8 777.6c2.4 0 3.6 1.2 2 2.4-0.5 0.5-2-1.8-4.1-2.7q1 0.3 2.1 0.3zm-2.1-0.3q-0.2-0.1-0.4-0.2 0.2 0.1 0.4 0.2zm-222.7-719.7c-6.4 0-4.8 6.8 2.4 9.6 9.2 3.6 13.6 2.8 13.6-1.6 0-2-2.8-2.8-6-1.6-3.2 1.6-6 0.4-6-2 0-2.4-1.6-4.4-4-4.4zm-17.6 12c-1.2 0-3.2 1.6-4.4 4-1.2 2-0.4 4 1.6 4 2.4 0 4.4-2 4.4-4 0-2.4-0.8-4-1.6-4zm11.2 10.4c-3.2-1.2-4.8 1.2-4.4 6 0.4 8.8 9.6 10.4 9.6 1.6 0-3.2-2.4-6.4-5.2-7.6zm-29.6 93.2c0 2.4 1.6 5.2 4 6.4 2.4 1.2 2.8-0.4 1.6-3.6-2.8-7.2-5.6-8.4-5.6-2.8zm-12.4 7.6c-2-3.2-3.6-3.6-3.6-0.8 0 8 9.6 13.6 16 9.6 5.6-3.6 2.8-4.8-6.4-3.6-1.6 0-4.4-2-6-5.2zm31.6 8.8c1.2 8.4 3.2 11.2 5.6 8.8 2.4-2.4 3.2-7.2 2.4-11.2-2.4-12.8-10-10.4-8 2.4zm-60.8-4.4c-1.2 1.6 2.4 2.4 7.6 1.2 5.6-0.8 10-2.4 10-3.2 0-3.2-15.6-1.6-17.6 2zm82 0.4c-6 0-5.6 9.2 0.8 17.6 4.4 6.4 6.8 6.8 14.4 2.8 10.8-6 7.6-12.4-6-12.4-5.6 0-8.8-1.6-7.6-4 1.2-2.4 0.4-4-1.6-4zm103.6 3.6c0 2 2.8 4.8 6.4 6 5.6 2 6 1.6 1.6-3.6-5.6-6.8-8-7.6-8-2.4zm-66.8 2c-2.8-1.2-5.2-0.4-5.2 1.6 0 2.4 3.6 5.6 8 6.8 4.4 1.6 7.2 4 6.4 5.6-1.2 1.6 0.4 3.2 3.6 3.2 8.4 0 7.6-9.2-0.8-12.4-4-1.2-9.6-3.6-12-4.8zm47.2 2c-3.2 2-3.6 4.4-1.2 6 2 1.2 6-0.4 8.8-3.6 5.6-6.4 1.2-8-7.6-2.4zm-117.2 0.4c-3.6 0-3.6 1.2 0 4.8 2.8 2.8 4.8 8 4.8 11.6 0 8.4 10.4 17.6 13.6 12 1.2-2 0-6-2.8-9.2-2.8-2.8-6.4-8.4-8-12.4-1.2-3.6-4.8-6.8-7.6-6.8zm100.4 0c-2 0-2.8 1.6-1.6 4 1.2 2 3.2 4 4.4 4 0.8 0 1.6-2 1.6-4 0-2.4-2-4-4.4-4zm-54.4 30.4c-6.4-0.8-9.2 1.2-9.2 6q0 7.2 7.2 4.8c4-0.8 10 1.2 12.8 4.8 4.8 5.6 4.8 7.2-0.4 10.4-3.2 2-3.6 3.6-1.2 3.6 2.4 0 6.8-2.4 9.6-5.6 5.6-7.2 17.2-3.6 14.4 4.4-1.2 3.2-0.4 4.4 1.6 3.2 5.2-3.2 1.6-22.4-4.8-26.8-8-4.8-11.2-4-8.8 2.8 1.6 3.2 0.4 6-2 6-2.4 0-4.4-2.8-4.4-6 0-3.2-1.2-6-2.8-6.4-2 0-7.2-0.8-12-1.2zm-48.4 15.6c-5.2-2-5.2-0.8 1.2 6 8.4 9.6 10.4 10 7.6 2.4-1.2-3.2-5.2-6.8-8.8-8.4zm-13.2 2c-2 0-3.6 1.6-3.6 4 0 2 2.8 4 6.4 4 3.2 0 4.8-2 3.6-4-1.2-2.4-4-4-6.4-4zm-52 21.6c-2-1.2-4.8 0.8-6 4.4-2 4.8-4 5.2-8 1.6-4-3.2-7.6-2.8-13.6 1.6-9.6 6.8-6.8 9.6 8 8.4 5.6-0.4 10.8 0.8 12 2.4 1.2 2 4-0.8 6.8-6.4 2.4-5.6 2.8-10.4 0.8-12zm104.4 16.8c0 10 1.6 17.2 3.2 16 8-4.8 28.4-6 31.2-2 1.6 3.2 4.8 1.2 8-4.8 4.4-8 5.2-8.4 5.6-2.4 0 6.4 0.8 6.8 6 1.6 3.2-3.6 9.2-5.6 12.8-5.2 4 0.8 9.2-1.2 12-4 8-8 6-9.6-5.6-5.2-8 2.8-11.2 2.4-14-1.2-2.4-4-3.2-4-3.2-0.4 0 6.4-10 4.8-27.6-4-23.2-11.6-28.4-9.6-28.4 11.6zm-20-4.4c-2.4-10-3.2-10.8-5.6-5.2-2 4-7.2 7.2-12 7.2-8.4 0.4-8.4 0.4-0.4 4.8 4.4 2.4 11.2 8 14.8 12.8 6.8 8 7.2 8 6.8 0.4-0.4-4.4-2-13.6-3.6-20zm-41.2 23.6l-11.2 4.8 16 4.8c8.8 2.8 20.4 10.4 26 17.2l10.4 12.4v-15.6c0-12.8-2-16.8-11.6-22.4-13.2-8-14.4-8-29.6-1.2zm-2.8 22.4c0-2.2-2.7-4-6-4-3.3 0-6 1.8-6 4 0 2.2 2.7 4 6 4 3.3 0 6-1.8 6-4zm6.8 2.4c-3.6 3.6 1.6 14 5.6 11.2 2-1.2 10 4 17.6 11.6 18.8 18.8 18 10.8-0.8-9.2-14.4-16-18-18-22.4-13.6zm61.2 13.6c-2 0-4 7.6-4 16.4v16.4l10-6.4c5.6-3.6 12-5.6 14-4.4 2.4 1.2 4 0.8 4-1.2 0-2-4.4-5.6-10-8-5.6-2.4-10-6.4-10-8.8 0-2-1.6-4-4-4zm-152 4c-2 0-4 1.6-4 4 0 2 2 4 4 4 2.4 0 4-2 4-4 0-2.4-1.6-4-4-4zm254.8 7.2c-1.6-4-2.4-4-2.4-0.4-0.4 2.8-3.6 5.2-7.2 5.2-5.2 0-5.6 1.2-2 4.8 4.4 4.4 28.8 7.2 28.8 3.2-0.4-5.6-7.6-12.8-11.2-10.4-2.4 1.2-5.2 0-6-2.4zm-47.6 8.8l-1.2-8.4-6 8c-3.2 4.8-8.4 8.4-12 8.8-3.2 0-0.4 2 6 4.4 6.8 2.4 14 5.6 16 7.2 2.4 1.6 8.4 1.6 14 0 10-2.4 10-2.4-2.8-6.8-8-2.8-13.2-7.6-14-13.2zm20.8-4c-5.2 3.2-4.8 4 1.2 4 3.6 0 6.8-2 6.8-4 0-4.8-0.4-4.8-8 0zm-42.8 2.4c-5.6-2.4-6-2-2.4 2 2.8 2.8 6 4 7.2 2.8 1.2-1.2-0.8-3.6-4.8-4.8zm-76 12c-5.6-2.4-6-2-2.4 2 2.8 2.8 6 4 7.2 2.8 1.2-1.2-0.8-3.6-4.8-4.8zm-78.4 6.8l-12.8-0.4 13.6 5.6c7.2 3.2 16.4 5.2 20 4.4 4-1.2 3.2-2-2.8-2.4-5.2 0-8.4-1.6-7.6-3.6 1.2-1.6-3.6-3.2-10.4-3.6zm93.2 2.4c-3.2 2.4-11.2 3.2-18 2-11.6-2-11.6-2 3.2 6.4 16.8 9.2 18.4 9.2 20.8-3.6 1.6-9.6 2-9.6-6-4.8zm51.2-3.6c-0.8 0-6.4 5.2-12.4 11.2l-10.8 11.2 14 6.4c12.8 5.6 14.4 5.6 22-1.6 8-7.6 12.8-8 29.6-1.2 7.2 3.2 7.2 2.8 0.4-5.2-4-4.4-9.6-7.2-12.4-6-2.8 1.2-10.8-2-17.2-6.4-6.4-4.8-12.4-8.4-13.2-8.4zm-60.8 26.8c-2.8 3.2 4.8 17.2 9.6 17.2 2.4 0 4-3.6 4-7.6 0-7.6-9.2-14-13.6-9.6zm37.6 13.2c-2 0-4 1.6-4 4 0 2 2 4 4 4 2.4 0 4-2 4-4 0-2.4-1.6-4-4-4zm-45.6 8c-7.6 0.4-7.6 0.8 1.6 6 8.4 4.4 8.8 6 3.2 8-3.6 1.6-7.6 5.2-8.8 8.4-1.6 4.8-0.8 4.8 5.6 1.6 4.4-2.4 8-2.8 8-1.2 0 1.6 4 7.6 8.4 13.2l8 10-2.4-18c-1.6-10-5.6-20.4-9.2-23.2-3.6-2.4-10-4.8-14.4-4.8zm71.2 28.4c-2.8 4.8 11.2 16 17.2 14 3.2-1.2 9.2-2.4 13.6-2.4 10.4 0 9.6-6.4-1.2-10-13.2-4-27.6-4.8-29.6-1.6zm72.8 20c-0.4 0-2.8 1.2-5.2 2.4-6.8 2.4-6.8 9.2 0 9.2 3.2 0 5.6-2.8 5.6-6 0-3.2-0.4-6-0.4-5.6zm-228.4 12c-1.6 2.4-2 4.8-0.8 6 0.8 1.2 2.8-0.8 4-4.4 2.8-6.8 0.4-8-3.2-1.6zm16 7.6c-2 0.4-7.6 2.8-12 6.4-4.4 3.2-10 4.8-12.8 4-8-3.2-6 3.2 2.8 8.8 6.8 4 8.4 4 10.4-1.2 1.2-3.2 4.4-4.8 6.8-3.2 2.4 1.6 2.8 0.4 0.8-2.8-1.6-2.8-0.8-6.4 2.4-8.4 3.2-2 4-3.6 1.6-3.6zm82.8 1.6c-13.6 0.8-18.4 4.8-10 8.4 4 2 8.4 2.8 10.4 2.8 1.6-0.4 2.8 0.8 2.8 3.2 0 2 1.6 4 3.6 4 2 0 3.2-4.4 2.8-9.6-0.4-7.2-2.4-9.2-9.6-8.8zm139.2 0c0 0.8 3.2 4 7.2 6.8 6 5.2 6.4 4.8 1.2-1.6-5.2-6.4-8.4-8.4-8.4-5.2zm-264 8.4c-4.4 5.2-4 5.6 1.6 3.6 3.6-1.2 6.4-4 6.4-6 0-5.2-2.4-4.4-8 2.4zm66.4-5.6c-0.4 0-2.8 1.2-5.6 2.4-2.4 0.8-4 3.6-2.4 5.6 3.2 5.6 8.4 4.4 8.4-2.4 0-3.2-0.4-6-0.4-5.6zm17.6 3.6c-2.4 0-4 12-4 30 0 16.4 1.2 30 2.8 30 1.2 0 14-2 28-4.4 23.6-4 25.2-5.2 25.2-15.2 0-12.8-12-25.6-32.8-34.4-8.4-3.2-16.8-6-19.2-6zm-119.2 16c0 6.8 1.6 12 3.6 12 2 0 3.6-4.4 3.6-9.6 0-14.4-6.8-16.4-7.2-2.4zm211.2-4c-2 0-4 2-4 4.4 0 2 2 2.8 4 1.6 2.4-1.2 4-3.2 4-4.4 0-0.8-1.6-1.6-4-1.6zm-118 20c-3.6 0-4.8 2.4-3.6 6 1.6 3.2 4 6 6 6 2 0 3.6-2.8 3.6-6 0-3.2-2.8-6-6-6zm157.2 16c-1.6 5.6-27.2 8.8-27.2 3.6 0-2.4-2.4-2.8-4.8-0.8-2.8 1.6-9.2 2.4-14.4 1.6-9.2-1.2-9.2-0.4-8.4 37.6 0.8 38.4 0.8 38.8 10 36.8 5.2-0.8 9.6 0 9.6 1.6 0 2-2.8 3.6-6 3.6-6.8 0-15.6 14.4-12 20 1.2 2 2.4 32 2.4 66.8 0.4 40.8 2 65.2 5.2 68.8 3.2 4.4 3.2 6-0.4 7.2-6.8 2.4-7.6 145.2-0.8 152 3.2 3.2 3.2 5.2 0 6.8-9.2 6-1.6 39.6 10 44 4 1.6 4.4-0.4 1.6-8-6-14.8-4.8-21.6 3.2-21.6 3.6 0 15.2-2.8 25.6-6.8 23.6-8.4 31.2-3.6 31.2 19.2 0 16 5.2 20.8 9.6 9.2 1.2-3.6 2.4-26 2.4-50v-43.6l-14.8-0.4-15.2-0.8 14-2.4c12.4-2 14-4 15.2-16 1.2-12.4 0.8-13.2-8.8-11.6-6.4 1.2-10.8 0-12.4-4-1.2-3.2-4.8-4.8-7.6-3.6-3.2 1.2-6.4 0.8-7.2-1.2-1.2-3.2-11.6-6.4-24.4-7.6-2-0.4-2-2.4-0.4-4.8 1.2-2.4 7.2-3.2 13.2-2 6.4 1.6 8.4 1.2 5.2-0.8-4-2.8-3.2-5.6 3.2-13.6 8.4-10.8 10.4-17.2 4.4-13.6-2 1.6-8 0.8-13.2-1.2-9.2-4-9.2-4 2-4 6-0.4 11.6-0.4 12.8-0.4 1.2 0 7.6-2.8 14-6 6.4-3.2 13.2-5.6 14.8-5.2 5.6 2 6-26 0.4-29.2-4-2.8-4-3.6 0-3.6 2.8 0 4.8-6 4.8-16.8 0-15.6-0.4-16.4-6-8.8-6 7.2-6 7.2-3.2 0 1.6-5.2 1.2-6.8-2-4.8-2.8 1.6-4.8 5.2-4.8 8.4 0 2.8-6.8 10.8-14.8 17.6-8.8 7.2-12.8 12-9.2 12.4 3.2 0 10.8-4.4 16.8-10 13.2-12.4 14.4-12.4 12.4-0.4-1.6 6.8-6 10.4-16.4 13.6-26 7.6-32.4 8-34.4 2.4-1.2-3.2-4.8-5.6-8.4-5.6-12.4 0-5.2-6.8 17.2-16 26-10.4 31.6-14.4 26.8-18.8-1.6-2-4-0.8-4.8 1.6-2.4 7.2-13.6 6.4-31.6-1.6l-15.6-7.2 17.2-1.2c10-0.8 16-2.8 14.4-5.2-1.2-2 0-6.4 2.4-9.6 7.2-8.8-1.2-7.2-13.2 2-11.6 9.2-16 10-14 3.2 1.2-2.8-0.4-7.6-3.6-10.4-7.2-7.6-6.4-12.8 2-12.8 4 0 11.2-4.4 16.4-9.2 9.2-10.4 6.8-16-9.6-20-6.8-1.2-6-2.4 5.2-6.8 11.6-4.4 14.8-8.4 13.2-17.2-0.4-1.6 1.6-7.2 4-12 3.6-7.2 3.6-8-0.8-4-8.8 8.4-10.8 6-10-10.8 0.8-11.6-0.8-16-4.8-16-3.6 0-0.8-6 8.4-17.2 7.6-9.2 16.8-16.4 20-16.4 4.4 0.4 6-2.8 5.6-9.6-0.8-10.4-8.8-16.8-11.6-8.8zm-209.6 12c-0.8 0-1.6 1.6-1.6 4 0 2 2 4 4.4 4 2 0 2.8-2 1.6-4-1.2-2.4-3.2-4-4.4-4zm26.8 5.2c-2.4-4-4.4-5.2-4.4-2.8 0 2.8-3.6 5.6-8 6.8-4.4 1.2-8 5.2-8 8.8 0 6 0.4 6 6.4 0.4 3.6-4 9.6-5.6 15.6-4 10.8 2.8 17.2-4.8 10-11.6-4-3.6-4.4-3.6-2.4 0 1.2 2.4 0.8 5.6-1.2 7.2-2 1.2-5.6-1.2-8-4.8zm103.6-1.2h-25.2c-14 0-26.8 1.2-28 2.8-3.6 3.2-3.6 74-0.4 98 2.4 16.8 3.2 17.6 13.6 16 6-0.8 12.4 0.4 14 3.2 2 2.8 0.4 4.4-4.4 4-20.8-2.4-21.6-1.2-21.6 24.8 0 14 1.6 27.2 3.2 29.6 1.6 2.4 10.4 8.4 19.2 13.6 9.2 4.8 19.2 13.6 21.6 19.6l5.2 10.4 3.6-12c5.6-20 0-121.2-8-133.6-6.4-10-6.4-10 0.4-4.8 6.4 5.2 6.8 2.8 6.8-33.2zm-132.8 8c-1.6 0-4 2-5.2 4.4-1.6 2.4-5.6 3.2-9.6 1.6-5.2-2-5.6-1.6-1.2 2.4 4 4.4 6 4 11.6-1.6 4-3.6 5.6-6.8 4.4-6.8zm-30 8.4c-6.4-0.4-9.2 2-9.2 6.4 0 4.4 1.2 5.6 3.2 2.8 1.6-2.4 5.6-5.6 8.8-6.8 4-1.6 3.2-2.4-2.8-2.4zm78.8 5.2c0 5.6 11.2 16.8 14 13.6 0.8-0.8 0.8-5.6-0.8-10.4-2.4-9.6-13.2-12.4-13.2-3.2zm-12.4 6.4c-5.2 0-4.4 2.4 2.4 8 5.2 4.4 5.6 4 3.6-1.6-1.2-3.6-4-6.4-6-6.4zm238.8 20c-1.2 0-3.2 1.6-4.4 4-1.2 2-0.4 4 1.6 4 2.4 0 4.4-2 4.4-4 0-2.4-0.8-4-1.6-4zm-288.8 8c-10.8 4.4-16 16-7.2 16 3.6 0 5.6-2.4 4.4-5.2-0.8-2.4 3.2-6.8 8.8-9.6 12-5.2 6.8-6.4-6-1.2zm255.2 0.8c-7.2 7.2-5.6 11.2 4.4 10.8 4.8 0 6.8-1.2 4-2-2.8-1.2-3.6-4.8-2.4-8 2.4-6.8 0.4-7.2-6-0.8zm-24.8 11.2c-5.2 3.2-5.2 4 0.8 4 3.6 0 8-2 9.2-4 3.2-5.2-2-5.2-10 0zm82.4 12c-1.2 0-3.2 1.6-4.4 4-1.2 2-0.4 4 1.6 4 2.4 0 4.4-2 4.4-4 0-2.4-0.8-4-1.6-4zm-59.6 9.6c-1.6 4 0 5.6 4.8 5.2 4 0 7.2-2.8 7.2-5.6 0-7.2-9.2-6.8-12 0.4zm72.4 6c-1.6-4.4-2.4-4.4-4.8 0-3.6 5.2 0 11.2 4 7.2 1.2-1.2 1.6-4.4 0.8-7.2zm-36.4 10c-4-1.2-8 1.2-10.8 6.4-6 10.8-2.4 14.8 6.4 7.6 4-3.2 10-5.2 14.4-4.4 4 0.8 7.2-0.8 7.2-2.8 0-2.4-2.4-4.4-5.6-4.4-3.2 0-8.4-1.2-11.6-2.4zm-48.8 6.4c-1.2 2.4 0.4 2.8 3.6 1.6 3.6-1.2 6.4-3.2 6.4-4 0-3.2-7.6-1.6-10 2.4zm19.2-3.6c-4.4 0-5.2 1.2-2 2.4 2.4 0.8 4 3.6 2.4 5.6-1.2 2 0 3.6 2 3.6 2.4 0 4.4-2.8 4.4-6 0-3.2-3.2-6-6.8-5.6zm-206 19.6c-2.8 6.4-6.4 12-8 12-2 0-3.2 2.4-3.2 5.6 0 3.2 6.4 8 14 10.4 7.6 2.4 14 6.4 14 8.4 0 2 2 3.6 4 3.6 2.4 0 4-9.2 4-20 0-18.4-0.8-20-10-20-7.2 0-9.2-1.6-7.6-6 4.4-11.2-1.6-6-7.2 6zm175.2-8c-3.6 0-6.4 1.6-6.4 4 0 2 1.6 4 3.6 4 2.4 0 5.2-2 6.4-4 1.2-2.4-0.4-4-3.6-4zm36 4c-1.2 0-3.2 1.6-4.4 4-1.2 2-0.4 4 1.6 4 2.4 0 4.4-2 4.4-4 0-2.4-0.8-4-1.6-4zm29.6 4c-3.2 0-8.8 2-12 4-5.2 3.6-5.2 4 0 4 3.2 0 8.8-2 12-4 5.2-3.6 5.2-4 0-4zm8 10c-5.6 3.2-12.8 5.6-16 6-3.6 0-6.4 3.6-6.4 7.6 0 6.4 2 7.6 12.4 5.6 14-2.8 18.4-5.2 8.8-5.2-3.6 0-6.8-2-6.8-4 0-2.8 5.6-3.2 15.2-1.6 12.8 2.4 14 2 10-3.2-2.8-3.2-4-7.2-2.4-8.4 4.4-4.8-4.4-2.8-14.8 3.2zm-75.2 3.6c2.8 3.2 6.8 4.8 8.8 3.6 1.6-1.2 0.8-3.6-2-5.6-8.8-5.2-12.4-4.4-6.8 2zm29.2 2.4c-1.6 2.4-9.6 7.2-18.4 10.8-9.2 3.6-15.6 8.8-15.6 12.8 0 3.6 1.2 4.8 3.2 2.4 1.6-2.4 8-4.4 14.8-4.8 6.4-0.4 12.4-2.4 13.2-4.8 0.8-2.4 4-4.4 7.2-4.4 3.2 0 5.6-3.6 5.6-8 0-8.4-6-10.8-10-4zm86 0c-2 0-4 2-4 4.4 0 2 2 2.8 4 1.6 2.4-1.2 4-3.2 4-4.4 0-0.8-1.6-1.6-4-1.6zm13.6 0.4c-4.4 0-5.6 1.2-2.4 2.4 2.8 1.2 6.4 0.8 7.6-0.4 1.6-1.2-0.8-2.4-5.2-2zm-33.2 11.6c-2.4 0-5.2 1.6-6.4 4-1.2 2 0.4 4 3.6 4 3.6 0 6.4-2 6.4-4 0-2.4-1.6-4-3.6-4zm-20 4.4c-17.6 3.6-20.4 11.6-4 11.6 4.4 0 12.4 2.8 17.6 6.4 9.6 6 10 6 10-0.8 0-4.4-4.8-10-10.8-12.8-6-2.4-11.6-4.4-12.8-4.4zm31.6 3.2c0 2.4 1.6 5.2 4 6.4 2.4 1.2 2.8-0.4 1.6-3.6-2.8-7.2-5.6-8.4-5.6-2.8zm16 6c0 0.8 4.4 2.4 10 3.2 5.2 1.2 8.8 0.4 7.6-1.2-2-3.6-17.6-5.2-17.6-2zm-64.8 8.4c-10-4.8-11.2-4.8-11.2 0.4 0 3.2 2 4.8 4 3.6 2.4-1.2 4-0.8 4 1.6 0 2-2.4 4.4-4.8 5.6-10.8 3.6-0.4 5.6 16.8 2.8 14-2 16-3.2 10-5.6-4.4-1.6-12.8-5.2-18.8-8.4zm37.2 10c-2.4 0-5.2 1.6-6.4 4-1.2 2 0.4 4 3.6 4 3.6 0 6.4-2 6.4-4 0-2.4-1.6-4-3.6-4zm-223.2 10.4c-2.4 6.8 5.2 182 9.6 206.8 2 14.4 2.8 14.8 9.2 8 5.2-5.6 6-8.4 2.4-12.8-3.2-4.4-3.2-6 0.8-7.2 2.4-1.2 4.8-4.8 4.8-8.4 0.4-6 0.8-6 6 0.4 2.8 4.4 4.4 10 3.2 13.2-1.2 3.2-0.8 8.8 1.2 12.4 2.4 5.6 3.6 3.2 5.6-8.8 1.6-10.8 0.4-18-3.2-22.8-3.2-3.6-4.8-9.2-3.6-12 1.6-3.2 2.4-2.8 2.4 1.6 0.4 4 2 7.2 4 7.2 2.4 0 4-3.2 3.6-7.2 0-3.6 1.2-34.8 2.8-68.8 3.2-68.8 5.6-61.2-26.8-96.4-12-13.2-18.4-14.4-22-5.2zm201.6 3.2l-25.6 0.4-0.8 16.8c-0.4 17.6 3.6 20.8 15.6 13.2 3.6-2.4 6.8-2 8.4 0.8 1.6 2.4 7.6 2.8 15.2 1.2 20.8-4.4 14-9.6-11.6-8.4-13.2 0.4-24-0.4-24-2.4 0-7.6 29.6-12 41.2-6.4 5.6 2.8 6.8 1.6 6.8-6 0-9.2-1.2-9.6-25.2-9.2zm49.2 27.2c-5.6 0-7.6 0.8-4.8 2 2.4 0.8 7.2 0.8 10 0 2.4-1.2 0.4-2-5.2-2zm-68.8 14c-8.8 2-9.6 12-1.2 12 3.2 0 6-1.6 6-3.6 0-1.6 3.2-3.2 7.2-3.2 5.6 0 6 0.8 0.8 4-5.2 3.2-5.2 3.6 0 5.6 3.2 0.8 12 2.4 19.2 3.6 11.6 1.2 12.8 0.4 12.8-10 0-9.6-1.6-11.2-10.8-11.2l-11.2 0.4 10 5.6c7.2 4 8 5.6 3.2 6-3.6 0-9.2-2.8-12.8-6-6-6-10.4-6.8-23.2-3.2zm-33.2 9.6c-2.8-2.8-6-1.6-9.2 4-6.8 10.8-4.4 13.2 5.6 6 5.2-4 6.4-7.2 3.6-10zm4.4 15.2c-7.6 8.4-5.6 16.4 4 16.4 3.6 0 5.6-4.4 5.6-12 0-14-0.4-14.4-9.6-4.4zm20 2.4c1.2 2.4 6.8 5.2 12.8 5.2 24.8 1.6 32.8 5.6 32.8 17.6 0 7.6-0.8 8-6.8 2.4-13.2-11.2-43.2-18.8-40-10.4 0.8 2.8 4 4.8 6.4 4 2.8-0.4 8.8 2 13.6 5.2 8.8 6.4 8.4 6.4-5.2 5.2l-14-1.2 0.4 62c0.4 41.2 2.4 62.4 5.2 63.2 2.4 0.8 4.4 4.4 4.4 7.6 0 5.2 1.2 5.2 6 1.2 3.6-2.8 6.4-4.4 7.2-3.6 0.4 0.8 2.8 5.2 5.2 9.6 6.8 12.4 16.8 12 21.6-0.4 2.4-6 4-44.4 4-90l-0.4-79.2-10.8-2c-19.2-4-44.4-2-42.4 3.6zm-44.8 10.8c-2.8 4.4-2 5.6 9.6 8.8 6.4 2 8.8 1.2 8.8-2.8 0-6.8-14.8-12-18.4-6zm-181.6-72.4c0 2 1.6 3.2 3.6 2 1.6-1.2 6.4 1.2 10.4 5.2 6.4 7.6 6 8-3.6 14.4-5.6 4-13.2 6-16.4 4.4-5.2-2-5.6-0.8-1.6 6 3.2 6 3.2 7.6 0 6-2.4-1.6-4.4-0.8-4.4 1.2 0 2.4 3.2 4.4 7.2 4.4 5.6 0 5.6 0.8 1.2 3.6-3.2 2-6.4 6.8-6.8 10.4-1.2 9.2-1.6 9.2-19.6 11.6-8.8 0.8-16 2-16 2.4 0 0.4-3.2 1.2-6.8 2-4 0.8-7.2-0.4-7.2-2.4 0-2-2-3.2-4.4-2.8-10.8 2.4-6.4-7.6 6.8-16 10.4-6.8 13.6-11.2 11.6-16.8-1.6-5.2 0.4-8.8 6.4-12 6.4-3.6 7.2-6 4-9.2-3.2-3.2-1.2-6.4 8.4-11.6 15.2-8 27.2-9.2 27.2-2.8zm-27.6 49.2c-4 4.8-3.2 5.2 3.2 3.6 4.8-1.2 7.2-3.6 6-5.6-2.8-4.8-4-4.4-9.2 2z"/>
	</g>
</svg>