<svg version="1.2" xmlns="http://www.w3.org/2000/svg" viewBox="0 0 632 1112" width="632" height="1112">
	<title>Layer</title>
	<style>
		.s0 { fill: #323935 } 
	</style>
	<g id="Layer">
		<path id="Layer" fill-rule="evenodd" class="s0" d="m359.2 6c1.2 4.4 3.6 9.2 6.4 10.8 3.2 2.4 2.8 3.2-0.4 3.2-2.8 0-5.2 4.8-5.2 10.4 0 7.6 1.6 10 6 8.4 3.2-1.6 6.8-0.8 7.6 0.8 1.2 2 7.6 2.8 14 2 11.6-1.2 12-0.8 8 8-2.8 6-9.2 10.4-16.4 12-8.4 1.6-11.6 4.4-10.4 9.2 1.6 7.6 12 9.6 26.4 4.4 4.8-1.6 8.8-2.4 8.8-1.6 0 1.2 1.2 4.8 2.8 8.4 2 5.6 0.8 6.4-7.2 4.4-5.2-1.2-7.2-1.2-4.4 0 6.8 3.2 6 10.8-1.2 8.4-3.2-1.6-6.8-0.4-8.4 1.6-1.2 2.4-6.8 3.2-12 2-10.8-2.8-11.6-1.2-5.6 9.6 2.4 4.4 6.4 6.8 9.6 5.6 2.8-1.2 7.2 0.8 10 4 3.6 4 7.6 5.2 12 2.8 3.6-2 11.2-3.2 17.6-2.8 6 0.4 10.8-0.8 10.8-2.4 0-1.6 1.6-3.2 3.6-3.2 2 0 0.4 6-3.2 13.6-3.6 7.2-8.8 12.4-11.2 11.6-2.8-1.2-5.2-0.4-5.2 1.2-0.4 2-4 8-8.4 13.2-6.8 8-8.8 8.8-11.6 4.4-2-3.2-4.8-4.4-6.4-2.8-5.2 5.2 7.2 15.2 16 12.4 4.8-1.6 12-3.2 16.4-3.2 4.4-0.4 10.8-2.4 14-4.4 3.2-2 9.2-4.4 13.6-4.8 6.8-1.2 7.2-0.8 0.8 8.8-3.6 5.2-6.4 12.4-6.4 16 0 3.2-1.6 6-4 6-2 0-2.8 2.8-1.6 6 1.6 3.2 0.8 6-1.2 6-2 0-7.6 5.2-12.4 11.6l-8.4 11.6 9.6-0.8c5.6 0 10-1.6 10-3.6 0-1.6 3.6-2.8 8-2.8 4.4 0 8-2.8 8-6 0-3.2 2-6 4-6 2.4 0 4 1.6 4 4 0 2 2.8 2.8 6 1.6 3.2-1.6 6-0.4 6 2 0 2.4-1.6 4.4-4 4.4-2 0-2.8 2.8-1.6 6 1.6 4 0 6-4 6-3.6 0-6.4 2.4-6 4.8 2 16.8-0.8 24-8 22-4.8-1.2-8.8 0.4-10 4-1.2 3.2-0.4 4.4 2 3.2 2.4-1.6 3.2 0.8 1.6 7.2-2.4 9.6-2.4 9.6 20.8 8 12.8-0.8 25.2-3.6 28-6 4-3.2 5.2-2.4 5.2 3.6 0 4-3.6 10-8 13.2-4.4 3.2-8 8-8 10.8 0 2.8-2.4 5.2-4.8 5.2-2.8 0-2 2 2 4.4 5.2 3.2 6 5.6 2.8 12-5.2 9.2-1.6 17.2 5.2 12.8 2.8-1.6 9.2-3.2 14.8-3.2 5.6 0 12.4-1.6 15.2-3.6 2.8-1.6 6.4-2 8-0.4 1.2 1.2 0 4-3.2 6-3.2 2.4-4.8 4-2.8 4 1.6 0-2.4 5.6-9.2 12.4-6.4 7.2-12 14.4-12 16.4 0 2-1.6 2.4-4 1.2-2-1.2-4 0.4-4 4 0 3.6-2 5.2-4 4-2.4-1.2-4.8 0-6 2.8-2.8 6.4-18 8.4-18 2.4 0-2.8-2-2.4-6 0.8-3.2 2.8-8.4 4-11.6 2.8-3.2-1.2-6.4 0.8-7.6 5.2-2 7.2 0 7.6 28.4 5.6 16.4-1.2 33.2-3.6 36.8-5.6 3.6-2 8.8-2 12 0 3.6 2 7.2 1.2 9.6-2.4 2.4-3.2 8.4-6.4 12.8-7.2 6.8-1.6 8.4 0 6.8 6-1.2 4-3.6 7.6-5.6 7.6-2 0-3.6 2.8-3.6 6 0 3.2-1.6 6-4 6-2 0-4 2.8-4 6.4 0 4-2.4 5.6-5.6 4.4-3.2-1.2-6.8 0.4-8 3.6-1.2 3.2-4.4 5.6-7.6 5.6-3.6 0-4.8 3.6-3.6 12 1.2 9.6 0 12.4-8.4 15.6-18.8 7.2-16.4 12.4 4.8 10.8 11.2-1.2 22-3.2 24.4-4.4 2.4-1.6 6.8-0.8 9.6 1.6 5.6 4.8 18.4 2 18.4-4 0-2 1.6-3.6 4-3.6 5.6 0 2.4 16-4 20-4.4 2.8-4.4 4.4-0.4 9.6 4.4 5.2 4 6.8-1.2 8.8-4 1.6-6 5.2-4.8 8 1.6 3.6-0.8 5.6-6.8 6-8.4 0-8.4 0.4-0.8 3.6 5.2 2.4 6 3.6 2 3.6-4.8 0.4-4.8 1.2-0.8 4 4 2.4 2.4 5.2-6 10.4-12.4 8.4-24.4 10.4-27.6 5.2-4.8-7.2-9.6-2.8-5.6 4.8 2.4 4.8 3.2 12 1.6 16.8-2 6.8-1.2 8 4 6 4.8-2 6.4-0.8 5.6 4-1.2 5.6 2.8 6.8 24 7.2 13.6 0.8 26 2 27.6 3.2 1.2 1.2 4.8 0 8-3.2 8.8-8.8 14-7.2 11.2 2.8-4 12.8-18.8 28-24.8 25.6-2.8-1.2-5.2 0.4-5.2 3.6 0 3.2-1.6 6-4 6-2 0-4 2.8-4 6 0 3.2-3.6 6-8.4 6-4.4 0-6.8 1.6-5.6 4 3.2 5.2 28 5.2 47.6-0.4 12.4-3.2 16.4-3.2 18.8 1.2 2 2.8 1.6 5.6-0.4 6.4-2.4 0.8-4 4.4-4 7.6 0 3.6-2.4 5.2-6 3.6-3.6-1.2-6.4 0.4-6.4 3.6-1.6 16.4-7.2 24-12.8 18.4-7.2-7.2-11.2-4.8-8.8 4.8 1.6 6 0.4 11.2-3.6 14.4-3.6 3.2-6.4 8.4-6.4 12 0 5.6-0.8 5.6-4 0.4-2-3.2-4-4.4-4-2 0 9.6 7.6 14.8 20.4 14 7.6-0.4 15.6-0.4 17.6 0 5.6 1.2 22 0.4 34.8-1.6 10.8-1.6 10.8-1.6 5.2 9.6-3.2 6.4-9.6 12.8-14.4 14-7.6 2.4-7.6 3.2-1.6 10 7.2 8 5.2 16-4.4 16-3.2 0-5.6 1.6-5.6 3.6 0 5.2-15.6 8.4-18.4 3.6-1.6-2.4-4-2-7.2 0.8-3.2 3.6-3.2 5.6 0.8 6.8 6 2.4 6.4 13.2 0.4 13.2-2 0-2.8 2-1.2 4.8 2 2.8 0.8 3.6-2.8 2.4-4-1.6-6 0.4-6 5.2 0 4 2.4 8.4 5.6 9.6 2.8 0.8 4.4 0.4 3.2-1.6-1.2-2 0.4-4.4 3.2-5.6 3.2-1.2 6.4-0.4 7.2 2 1.6 4.8 23.2 7.2 23.2 2.8 0-1.6 4.4-2.8 10-2.8 10.8 0 13.6 6 4 9.6-3.2 1.6-4.8 4-3.6 6 1.2 2 0 3.6-2.4 3.6-2.4 0-3.6 1.6-2 3.6 1.2 2-1.6 5.2-6 6.4-6.8 2-7.6 4-3.6 8.4 3.2 3.6 3.2 5.6 0.4 5.6-2.4 0-8.8 4.4-14 9.6-6.4 6-13.2 9.2-20 8.4-16.8-2-13.2 8.8 4.4 13.6 8 2.4 18.8 4.4 23.6 4.4 4.8 0 9.6 1.6 11.2 3.6 3.2 5.2-12.8 13.6-19.2 10-3.6-2-3.6-1.6 0.4 2.8 5.6 6 6.4 13.2 1.2 9.6-2-1.2-4.8-0.4-6.4 2-1.2 2 0 4 2.8 4.4 12.8 0.8 21.2 3.6 22.4 7.2 0.8 2.4 3.6 4.4 6 4.4 2.8 0 7.2 3.6 10 8.4 4.4 6.8 6.4 7.2 11.2 3.2 6.8-5.6 12-2.4 7.6 4.4-5.6 9.2-29.6 16-46 13.6-11.2-2-16-1.2-16 2 0 3.6-5.6 4.4-18 3.2-11.6-1.2-20 0-24.8 3.6-4.4 3.6-5.2 5.2-1.6 4.8 2.8-0.8 6.4 1.2 7.2 4.4 1.6 4-0.8 4.4-11.2 2-7.6-1.6-17.2-3.2-21.6-3.2-4.4-0.4-10-2.8-12.4-6-2.3-3.1-6.2-4.3-8.3-3.3l-7.3-9.9c-4.4-6-10-10.4-12.8-9.2-2.8 0.8-6 0-7.2-2-1.6-2.4-4.4-4-6.8-4-6.8 0-2 131.2 5.2 146 6.4 12.8 15.6 18 15.6 8.4 0-3.6 2-6.4 4-6.4 2.4 0 4-4 4.4-9.2 0.4-8 0.8-7.6 4.4 2 2 6.4 5.6 11.2 7.6 11.2 2 0 3.6 2.4 3.6 5.6 0 6 6.4 6.4 15.6 0.8 3.2-2 6.4-1.6 8.4 1.6 4 6 4.4 6.4 15.2 0.4 5.6-2.8 8.8-3.2 8.8-0.4 0 8 7.2 4 15.2-8.8l8.4-12.8 2.8 11.2c2.4 9.6 11.2 16.4 26.8 20.4 9.6 2.8 4.8 3.6-31.2 6-50.8 3.2-496.8 3.2-542 0-18.8-1.6-26.4-2.8-16.8-3.2 10.8-0.4 18-2.8 19.2-6.8 1.6-3.2 4.8-6 8-6 3.2 0 5.6-2.8 5.6-6 0-3.2 2.8-6 6-6 3.2 0 4.8-2.4 3.6-5.2-0.8-2.8 2.8-9.2 8.4-14.4 8.4-7.2 9.6-10 6-14.8-2.8-3.2-3.2-5.6-1.2-5.6 2 0 4-6 4.4-13.2 0.4-6.8 2.4-18.4 4.4-24.8 3.6-11.2 3.6-10.8 4 6.8 0.4 11.2 2.4 19.2 4.8 19.2 3.2 0 3.2 2-0.4 6-4 4.8-4 7.2 0 12 2.8 3.2 3.6 8.8 2.4 12.8-1.6 3.6-0.4 8 2.4 10 4 2.4 4 3.2-0.8 3.2-5.2 0-5.2 0.8-0.4 3.6 4.8 3.2 4.8 5.2 1.2 9.6-4 4.8-3.2 5.6 4.8 4.8 14-1.6 18.4-5.2 15.6-12.8-1.6-4.4-0.8-5.6 2-3.6 4.8 2.8 14-10.8 10-14.8-1.2-1.6-0.4-5.2 2.4-8 2.4-3.2 3.2-9.2 1.6-12.8-2-5.6-1.2-6.4 2.8-4 4 2.4 4.8 0.8 3.2-7.6-1.2-5.6-0.4-10.4 1.6-10.4 2 0 3.2-3.2 2.8-6.8-0.4-4 0-10 0.4-13.2 1.2-10.8 7.6 8.8 7.6 24.8 0.4 8.4 2.4 15.2 4.8 15.2 2.4 0 3.6 3.6 2.4 8-1.2 4 0.4 10.8 3.2 14.4 2.8 4 4 10.8 2.8 15.2-2 7.6-1.6 8 5.2 2.4 6.8-5.6 7.2-5.6 2 3.6-4.4 8.8-4.4 9.2 2.4 6.4 4.4-1.6 10-3.2 12.8-3.2 2.4 0 4.8-1.6 4.8-3.2 0-1.6 4-2 9.2-0.8 4.8 1.2 7.2 0.4 4.8-1.6-5.6-4.8-6.8-13.2-1.6-13.2 2.4 0 3.2-3.6 1.6-8.4-2-5.6-1.2-7.6 1.6-6 2.4 1.6 5.2-2 6.8-8.4l2.8-11.2 4 11.6c2 6.4 8.4 16 13.6 20.8 5.6 5.2 8.8 10.8 7.6 13.2-1.6 2.4 2.4 3.2 9.2 2.4 7.6-1.2 12.4 0.4 14 4.4 2.4 6.4 25.2 7.6 34.4 1.6 6-3.6 11.2-42.4 11.6-87.2 0.4-24.8-2-28.8-10.8-20-2.8 2.8-4.8 3.2-4.8 0.8 0-2-2-0.8-4 2.4-3.6 5.2-4.4 5.2-7.6 0-3.2-4.8-5.2-4.4-12.8 2-8.8 8-8.8 8-6.8-0.8 2-7.2 0.8-9.2-5.2-9.2-4 0-7.6-2.4-7.6-5.2 0-3.2-1.2-3.2-3.6 0.8-2 3.2-6.4 4.4-9.6 3.2-3.2-1.2-7.2-1.2-8.8 0.4-4 4-26 4-28.4 0.4-1.2-2 0.8-3.6 4-3.6 3.6 0 6.4-2 6.4-4.4 0-2.4 2.8-3.2 6.4-2 4 1.6 5.2 0.8 3.2-2.4-1.6-2.4 0.4-6.8 4.4-10 6-4 6-5.2 1.6-5.2-3.2 0-8 2-10.8 4.8-3.6 3.6-4.8 3.6-4.8-0.8 0-2.8-1.2-4-2.4-2.8-1.6 1.2-6 0.8-10-1.2-4.8-2.8-7.6-2.4-8.8 1.2-1.6 3.2-3.2 3.2-5.6 0.8-1.6-2.4-7.6-4.4-13.2-5.2-5.6-0.4-14.8-3.2-20.8-5.6-9.6-4.4-10-5.2-4-10 5.6-4 5.6-4.8 1.2-5.2-6 0-28.4-19.2-28.4-24 0-1.2 12-2.4 27.2-2 14.8 0.4 33.2-1.6 40.8-3.6l14-4.4-8.8-8.8c-5.2-4.8-9.2-7.6-9.2-5.6 0 1.6-2.8 3.2-6 3.2-3.2 0-6-1.6-6-3.6 0-1.6-1.6-3.2-4-3.2-6.8 0-20-13.6-20-20 0-3.6-5.6-10.4-12-15.6-6.8-4.8-11.2-10.8-9.6-12.8 1.2-2.4-0.8-7.6-4.8-12-8.4-9.6-4.4-15.2 5.2-6.8 9.2 7.6 24.4 11.6 27.6 6.8 3.2-5.2 24.8-4.4 26.4 0.8 1.2 3.6 3.6 3.6 10 0 4.8-2.4 16.4-4.4 25.6-4.4 13.6 0 16-1.2 12.4-4.8-2.8-2.8-10-5.2-16-5.6-6-0.4-10.4-2.8-9.6-5.2 0.4-2.4-0.8-4.4-3.2-4.4-2 0-4-2.8-4-6 0-3.6-3.6-6-10-6-6.4 0-10-2.4-10-6 0-6.8-6.8-8-8.8-1.6-0.8 2-4.4 2.8-8.4 1.2-4.4-1.6-6.4-5.2-4.8-10 1.6-4.8-0.4-8.4-6-11.6-4.4-2.4-7.2-6-6-8 1.2-2.4-0.4-2.8-3.6-1.6-4 1.6-7.2-0.4-8.8-4.8-1.6-4.4-5.2-10.4-8.4-14-4.8-5.6-2.8-6.4 19.6-6 14 0.4 27.6 2 30.4 3.6 2.8 2 5.6 1.2 6.8-2 1.6-4 11.6-5.2 41.2-4.8 21.2 0.4 36.8 0 34-1.2-2.8-0.8-4-4-2.8-7.2 1.6-4 0-4.8-6-3.2-6.8 1.6-8 0.8-6-4.4 1.2-3.6 0.4-6.4-2-6.4-2.4 0-4.4 2-4.4 4.4 0 3.2-2 3.2-6-0.4-3.2-2.8-6-11.2-6-18.4 0-7.6-1.6-13.6-4-13.6-2 0-4 4.4-4 10 0 5.6-1.6 10-4 10-2 0-4-1.6-4-3.6 0-1.6-3.6-8-8.4-14-6.4-8-9.6-9.6-13.6-6.4-6 4.8-7.6 2.8-11.6-13.2-1.2-6-5.2-10.8-8.4-10.8-5.2 0-8.4-10.8-6.4-21.6 0.4-2-0.8-4.8-3.2-6-2.4-1.6-2.4-4.8-0.4-8.4 3.2-4.8 4.4-4.8 10.8 0.8 11.2 10.4 55.6 19.2 67.2 13.6 12.4-5.6 12.4-9.2 1.6-12.4-5.2-2-10-0.8-12.4 2.4-3.2 4.4-3.2 4-1.6-1.6 1.2-4 0-7.6-2.8-8.4-20.4-6.4-20.4-6-13.6-13.6 6.4-6.8 8-26 2-22.4-5.6 3.6-20-6.8-17.6-12.4q1.8-5.4-3.6-3.6c-4 1.6-4.8 0-3.2-6 1.2-4.8 0.4-8.4-2.4-8.4-2.4 0-4.4-2-4.4-4.4 0-2.8 3.2-3.6 9.2-1.6 4.8 1.6 16.8 2.8 26.8 2.4 10.4-0.4 21.6 1.6 26 5.2 6.8 4.8 8.8 4.8 16.8-0.4 4.8-3.2 10.8-4.4 13.6-2.8 2.8 1.6 4 0.8 2.8-2.8-1.2-3.2-4.8-5.2-8.4-4.4-3.6 0.4-9.6-3.6-13.2-9.2-6.4-9.6-6.4-10.8 0.8-16 7.2-5.2 6.8-5.6-5.2-6-7.2 0-13.2-1.6-13.2-4 0-2-2.8-2.8-6-1.6-4 1.6-6 0-6-4.4 0-3.6-2-5.2-4-4-2.4 1.6-7.2 0.4-10.4-2.4-4.8-4-4.8-5.6-0.8-8.4 4-2.8 3.6-4.4-1.6-7.6-16.4-9.6-5.6-12.4 20.8-5.6 21.6 5.2 68 7.2 68 2.4 0-2.4-1.6-4.4-4-4.4-2 0-4-2.8-4-6.4 0-4-2.4-5.6-6-4.4-3.2 1.6-6.8 0.8-8-1.6-1.6-2-4.4-2.8-6.4-1.2-5.6 3.2-36.4-17.6-33.6-22.4 1.6-2.8 5.2-2.4 10 0 5.2 2.8 8.4 2.8 10 0 1.6-2.4 4.4-2.8 6.8-1.6 2.8 2 3.6 0.8 2-3.2-1.2-3.6 0-8.4 2.4-11.2 2.8-2.8 2.8-4 0.4-2.8-2 1.2-7.2-4-11.6-11.6-4-7.6-8.8-13.6-10.8-13.6-1.6 0-3.2-2.8-3.2-6.4 0-3.6-2.8-8.8-6.8-11.6-3.6-2.8-5.2-6.8-3.6-9.6 2.4-3.6 4.4-3.6 8.8 0 3.2 2.8 13.2 5.2 22.8 6 9.2 0.8 17.2 3.2 18 5.6 0.8 2 3.6 2.8 6 1.2 2.8-2 8.4-3.6 12.8-3.6 4.4-0.4 11.2-0.8 15.2-1.2 3.6 0 6.8-2 6.8-4 0-2-2.4-3.2-4.8-3.2-2.8 0.4-14.8-4-26-9.2-15.2-7.2-22.4-13.6-26-22-2.4-6.4-5.2-13.2-6.4-15.2-0.8-1.6 1.2-2.8 4.4-2.8 3.2 0 7.2 2.8 8.4 6.4 1.6 4 5.6 5.6 10 4.4 4.8-1.2 8.8 0.4 10 3.6 1.2 3.2 4 5.6 6.4 5.6 6.4 0 4.8-9.6-3.2-18.4-4-4.4-6.8-10-5.6-12.8 0.8-2.4-0.8-4.8-4-4.8-2.8 0-8.4-5.6-12-12-3.6-6.8-5.2-12-3.2-12 2 0 2.8-2.8 1.6-6-1.6-3.2-0.4-6 2-6 2.4 0 4.4 2 4.4 4.4 0 2.4 2.8 3.2 6.8 2 3.6-1.6 8-0.4 10 2.4 2.4 4 4 4 6.8-0.8 2.4-3.2 2.8-6.8 1.2-8-3.6-2.8-16.8-41.2-14.8-43.2 0.8-1.2 4.4 1.2 8 4.8 3.6 3.6 10.8 6.4 16.4 6.4 5.2 0 9.6 2 9.6 4.4 0 2.4 2.4 3.6 5.6 2.4 2.8-1.2 7.2-0.4 9.2 1.6 2.4 2.4 9.6 1.6 19.6-2 16.8-6.4 16-7.2-8.4-7.2-16 0-36-12.4-31.6-19.6 1.2-2-2.4-8-8-13.6-10.4-10.4-13.6-22-6.4-22 2.4 0 4 1.6 4 4 0 2 2.8 4 6 4 3.2 0 6 1.6 6 3.6 0 2 7.2 2.8 16 1.6 11.2-1.6 16-0.8 16 2.8 0 3.6 1.2 4 5.2 0.4 3.2-2.4 6.8-3.2 8-2 1.2 1.6 5.6-0.4 9.2-4 8.4-8.4 3.6-13.6-6.4-7.2-5.2 3.2-8 3.6-8 0.4 0-2-1.6-3.2-3.6-2-1.6 1.2-6.4-1.2-10.4-5.6-4-4.4-8.4-6.8-10-6-4 2.4-16-22.8-13.2-27.2 1.2-2 3.6-1.2 5.6 1.6 2 3.2 3.6 3.6 3.6 1.6 0-2.4 1.6-1.6 3.6 1.2 4 6.4 32.4 10.4 32.4 4.8 0-2 2.8-4 6-4 3.2 0 6-3.2 6-6.8 0-3.6-1.2-5.2-2.8-4-1.2 1.6-4.8 0.8-8-1.6-2.8-2.4-5.2-3.6-5.2-2 0 1.2-3.6-0.8-7.6-4.4-9.2-7.6-6.8-18.8 2.8-13.6 7.6 4.4 14.4-1.6 18.4-15.6 2-6.4 1.6-8-0.8-4.8-3.6 5.6-16.8 2.4-21.6-4.8-4.8-7.2-3.6-19.2 1.6-16 10.8 6.8 22.4 4.8 26.8-4.8 2.4-5.2 2.4-9.6 0.4-9.6-4 0-2.4-13.2 2.8-21.2 2-3.2 3.6-2.4 4.4 3.2zm118.8 952l-1.1-0.6q0.2-0.1 0.3-0.2 0.1 0 0.1-0.1zm-1-0.6c-2.6 1.2-8.7-1.2-13.4-5.8l-9.6-8 12 7.2zm-116.5-808.1c-4-6.8-4-6.8-4.4-0.4 0 7.6 11.2 15.2 19.2 12.4 8-3.2 5.6-10-2.8-7.2q-7.8 2.4-12-4.8zm-58 34.8c-1.2 0-3.2 1.6-4.4 4-1.2 2-0.4 4 1.6 4 2.4 0 4.4-2 4.4-4 0-2.4-0.8-4-1.6-4zm165.6 128c-2 0-4 1.6-4 4 0 2 2 4 4 4 2.4 0 4-2 4-4 0-2.4-1.6-4-4-4zm-6.4 12c-0.8 0-1.6 1.6-1.6 4 0 2 2 4 4.4 4 2 0 2.8-2 1.6-4-1.2-2.4-3.2-4-4.4-4zm-214.8 62.8c-1.2-2.4-2-0.4-2 5.2 0 5.6 0.8 7.6 2 4.8 0.8-2.4 0.8-7.2 0-10zm226.8 161.2c-0.8 0-1.6 1.6-1.6 4 0 2 2 4 4.4 4 2 0 2.8-2 1.6-4-1.2-2.4-3.2-4-4.4-4zm-230 50.4c-0.8-1.2-4.4-0.4-7.6 1.6-3.2 2-4.8 4.4-3.6 5.6 0.8 1.2 4.4 0.4 7.6-1.6 3.2-2 4.8-4.4 3.6-5.6zm338.8 129.6c-1.2 0-3.2 1.6-4.4 4-1.2 2-0.4 4 1.6 4 2.4 0 4.4-2 4.4-4 0-2.4-0.8-4-1.6-4zm-172.4 202.8c-1.2 4-0.4 7.6 1.6 8.4 2.4 0.8 3.6 3.2 2.4 5.2-1.6 2-6.4-0.4-11.2-5.6-4.8-5.2-8.4-8.4-8-7.6 0.4 1.2-0.8 5.2-2.8 8.8-2.8 5.2-2.4 8 2 9.6 3.2 1.2 6 4.4 6 7.2 0 3.6-1.2 3.6-4-0.8-7.2-11.2-9.2 7.2-6.8 59.2 2.8 61.2 4.8 69.6 16.4 68 11.6-1.6 13.2-13.2 14-92.4 0.4-61.2-2.4-78.4-9.6-60zm-92.8 12.8c-4 6.4-3.6 7.2 3.2 5.6 4-1.2 7.6-4.8 7.6-7.6 0-8-5.2-6.8-10.8 2zm8.8 18c-6.8-6.8-6.8-6.8-4 2.4 2.8 8.8 2.4 9.2-2.8 4.8-5.2-4.4-6.4-3.2-8.4 6-3.2 16.4 1.2 98.4 5.6 103.2 8 8 11.6-6 14-56.8 2.4-47.2 2-53.2-4.4-59.6zm36.8-2.8c-2 1.6-5.6 3.2-8 3.2-3.6 0-4.8 15.2-4.8 52.8 0 44.8 1.2 54 6.8 59.6 6 6 7.2 6 9.2 1.2 3.6-9.2 0.4-120.8-3.2-116.8z"/>
	</g>
</svg>