<svg version="1.2" xmlns="http://www.w3.org/2000/svg" viewBox="0 0 652 1176" width="652" height="1176">
	<title>Layer</title>
	<style>
		.s0 { fill: #000000 } 
	</style>
	<g id="Layer">
		<path id="Layer" fill-rule="evenodd" class="s0" d="m336.4 9.2c8 4.8 14 11.2 13.2 14-0.4 2.8 0 3.2 1.2 0.8 3.2-6.4 14.4-4.8 11.6 2-1.2 4 1.2 6.8 7.6 8.4q9.6 2.4 7.2 8.4c-2 5.2-1.2 5.2 6.4 1.2 9.6-4.8 20.4-2.8 20.4 3.6 0 2.4-4.4 8.4-9.6 13.6-12 12-10 14.8 10.4 14.8 17.6 0 21.6 10.4 5.6 14.4-7.6 1.6-10.4 5.6-11.2 14.8-0.8 10.4-2.8 12.8-10 12-5.2-0.8-9.2 0.8-9.2 3.2 0 3.2 5.6 4 16 2.4 10-1.2 16-0.4 16 2.4 0 2 3.2 1.2 7.2-2 7.2-6.8 34.4-9.2 30.8-2.8-1.6 2 0.4 3.6 3.6 3.6 15.6 0 0 19.2-20.4 25.6-4.8 1.6-11.6 8.4-14.8 14.8-5.6 11.6-5.6 12 2 9.6 5.6-2 10.4-0.4 14 4.8 4.4 5.2 6.8 5.6 8 2 2.4-5.6 13.6-6.8 13.6-1.2 0 2 3.6 2.8 8 1.6 4.8-1.2 8 0 8 2.8 0 2.4 3.2 3.6 7.2 2.4 3.6-1.2 9.2-0.8 12 1.2 4.8 2.8 4.8 4.8 0.4 12-3.2 4.4-6.8 8.4-8.4 8.4-2 0-3.2 2-3.2 4 0 2.8 2.4 2.8 7.6 0 11.2-5.6 28.8-5.2 27.6 0.8-0.8 2.8 2 5.2 5.6 5.2 4 0 9.2 2.4 11.6 4.8 3.6 3.6 2.4 6-5.6 9.6-5.6 2.4-10.8 8.4-11.6 13.2-1.2 7.2-3.6 8.4-17.2 7.2-15.2-1.2-15.6-1.2-8 4.8 6.4 4.8 7.2 7.2 3.6 13.2-2.4 4-7.6 8-11.6 8.4-4.4 1.2-6 0-4-3.2 2.4-3.6 0.8-3.6-6 0-4.8 2.4-11.2 3.6-14 2.4-3.2-1.2-6.8-0.4-8 1.6-3.2 5.2-14 0.4-14-6.4 0-3.2-2.4-5.6-5.6-5.6-3.2 0-6 3.2-6 6.8 0 6.4-2.8 25.2-4 28.8 0 0.8-2.8-0.8-6-3.2-4-3.6-6.8-2.8-10.8 2.4-3.6 4.4-4 5.6-0.4 3.6 2.4-1.6 4.8-0.8 4.8 1.2 0 2.4 5.6 4.4 12.4 4.4 7.6 0 11.2-1.6 9.2-4.4-3.2-5.6 15.2-0.4 18.8 5.2 1.6 2.4 6.8 2.8 11.6 1.2 7.6-2.4 8.8-1.6 6.8 3.6-2 4.4-0.4 6.4 5.2 6.4 5.2 0 7.2 2 5.6 6-1.6 3.2-0.8 6 1.6 6 2.4 0 4.8-2 5.6-4.8 1.2-3.6 5.2-3.2 15.2 1.6 7.6 3.6 15.2 5.6 16.8 4.8 1.6-1.2 3.2 0.8 3.2 4 0 3.2-1.6 7.2-4 8.4-2 1.2-4 5.6-4 9.6 0 9.6-35.6 25.6-42.8 19.6-2.8-2.4-7.2-2.4-11.2 0-6 3.2-5.6 4 2.8 9.6 5.2 3.2 14.8 6.4 21.2 6.4 16.4 0.8 25.2 2.8 28.4 6 1.6 1.6 5.2 0.8 8.4-1.6 4-3.6 5.2-3.2 5.2 2 0 8 2.8 8 10.8 0.4 3.2-3.2 7.6-4.8 10-3.6 2.4 1.6 5.6 0 7.6-2.8 2.4-4.4 5.2-3.6 12.8 3.6 7.6 7.2 10.4 8 12 4 1.6-3.2 3.2-2 5.2 4 1.6 6 4.8 8.4 9.2 7.2 3.6-1.2 8.8-0.4 12 1.2 8.4 5.2-0.4 14.8-18.8 20.8-8 2.4-18 7.6-22 10.8-6 5.6-8.4 5.6-15.6 1.2-6-3.6-9.2-4-12.4-0.8-6.4 6.4-22.8 5.6-22.8-1.6 0-4.4-5.2-6-20.8-6.4-26-0.4-39.2-2.4-45.6-8-3.2-2.8-5.6-2.8-7.6 0.4-3.6 6-2 7.2 10.8 8.8 6 0.8 12 2.8 13.6 4.4 1.6 1.6 8 2.8 14.4 2.8 6 0 11.2 1.6 11.2 4 0 2-4 4-8.8 4-12.4 0-21.6 6-15.6 10 2.8 1.6 7.2 1.6 10.4 0.4 3.2-1.2 6-0.8 6 1.2 0 5.2-18.8 16.4-28 16.4-4.4 0-8 1.6-8 4 0 2-2.8 4-6 4-3.2 0-6 1.6-6 3.6 0 2-0.8 6-2 9.2-2.8 7.2 22.4 7.2 28.4-0.4 2.4-3.2 6.4-4.4 8.8-2.8 2.4 1.2 5.2 0.8 6.4-1.2 3.6-5.6 19.2 0 16.8 6-1.2 3.2 0.4 5.6 3.6 5.6 3.2 0 6 2.4 6 4.8 0 3.6 7.2 5.2 22 5.2 12 0 22 1.2 22 2.4 0 1.6 5.6 3.6 12.4 5.2 6.8 1.2 11.2 4 10 6-1.2 2 0.4 4.8 4 6 4 1.6 5.6 5.6 4.4 10.4-2.4 9.2-1.2 9.6 9.2 4 5.2-2.8 7.6-2.4 9.6 2.4 1.2 3.6 4.8 5.6 7.6 4.4 3.2-1.2 8-0.4 11.2 1.6 4.4 3.2 4 5.2-4 11.6-8 6.8-19.2 10-29.2 8.4-2 0-3.2 1.6-3.2 3.6 0 2.4-3.2 4-6.8 4-6 0-5.6 0.8 1.2 6.4 7.2 6 7.2 6-2.4 4-5.6-1.2-16-2.4-23.2-2.4-10.8 0-12.8-1.2-11.2-7.2 2-5.2 0-6.8-8.8-7.2-6-0.4-18.8-2.8-28.4-5.2-12.4-3.2-18.8-3.6-22-0.4-2 2-6.4 4-9.2 4-7.2 0-20-13.6-18-19.2 0.8-2.8-0.8-4-4.8-2.4-3.6 1.2-6.4 0.4-6.4-2 0-3.6-2-3.6-8-0.4-6.4 3.6-7.2 3.2-5.6-2 1.6-4.4 0-6-6.4-6-4.4 0-7.6-1.6-6.4-3.6 2.8-4.4-5.2-3.6-12.4 0.8-3.2 2-8.8 0-14-4.8-4.8-4.8-12.8-8.4-18-8.4-8 0-9.2 2-9.2 13.6 0 13.6 0 13.6 18.4 13.6 12 0 18.8-1.6 20.4-5.6 2.4-6.4 13.2-7.6 13.2-1.6 0 2-2.8 4-6 4-3.2 0-6 1.6-6 4 0 4.4 14.4 12.4 21.2 11.6 2.4-0.4 10.8-0.4 18 0 12 0.4 12.8 1.2 12.8 14.4 0 11.2 1.6 14 8 14 4.4 0 8-1.6 8-3.2 0-2 2.4-6.4 5.2-10.8 5.2-6.8 6.4-6.8 29.2 0 28 8.8 29.2 9.2 21.6 14-4.8 3.2-4 4 3.2 4 5.2 0 8.8 2.4 8.8 6.4 0 4 2 5.6 6 4 3.6-1.2 7.2 0.4 8.4 3.6 1.6 3.2 4 4.8 6.4 3.6 6-3.6 24 2 20.8 6.8-1.6 2.8 0 3.6 5.2 2 4-1.2 11.2 0.4 15.6 3.6 4 3.2 12.4 6 18.8 6 12.8 0 12.4-0.8 4.4 15.2-5.6 12-21.6 18.4-21.6 9.2 0-2.4-6.4-2.8-14-1.6-9.6 1.6-14 0.8-14-2.8 0-4-1.2-4-6 0-3.2 2.8-8.4 4-11.6 2.8-3.2-1.2-6.8-0.4-8 2.4q-1.8 5.4-6-1.2c-2.4-3.2-4.4-4.4-4.4-2.4 0 2.4-2 2-4.8-0.8-2.8-2.8-9.2-4.8-14.4-4.8-5.2 0-8-1.6-6.8-4 1.2-2.4-0.4-4-3.6-4-3.6 0-6.4 2.4-6.4 4.8 0 3.2-2.8 2-6-2.4-3.2-4.4-6-6-6-3.6 0 2.4-6 4.4-12.8 4-7.2 0-16.8 0.4-21.2 0.8-7.6 0.4-7.6 0.4 0 5.6 4.4 3.2 18.4 9.6 31.2 14.8 16.8 6.4 22.8 10.8 20.8 14.8-1.6 4.4-0.4 5.2 4.8 3.2 9.6-4 26-5.6 31.2-2.8 2 1.6 8.4 2 14 1.6 15.6-1.2 23.2 5.2 17.2 14.8-4 6.4-3.6 8.8 1.6 13.2q7.2 5.4 3.6 0c-5.6-9.6 9.6-4.8 21.6 6.8 11.2 10.4 11.6 12 6 18-8.4 8.4-3.6 15.6 8.4 12.8 11.2-2.8 13.2 5.6 3.6 13.6-3.2 2.8-6 7.6-6 10.4 0 3.2-4 5.6-10 5.6-5.6 0-10-1.6-10-3.6 0-6.8-13.6-8.8-18-2.8-5.2 6.8-32 6-38.8-0.8-8.4-8.4-0.4-15.2 16.4-14.8 10 0.4 18.8-2 21.6-5.2 4-4.8 3.2-5.6-3.6-3.2-6 1.6-9.2 0.8-10.8-3.2-2.8-6.8-19.2-7.2-24-0.4-1.6 2.4-5.6 0.4-10.8-6-6-7.6-8.8-8.8-11.2-4.8-4.4 6.8-24.8-0.4-24.8-8.8 0-6.8-10.8-11.6-14-6.4-3.2 5.2-30 5.2-30 0.4 0-2 3.6-5.2 8-6.4 10.4-3.2 10.4-10 0-7.2-4.4 1.2-10.8 6-14.4 10.8-4.4 6.8-6.4 7.2-9.2 2.8-2-3.2-4.4-3.6-6-1.2-1.2 2.4-6 3.2-10.4 2-6.8-1.6-7.2-3.2-3.2-8 4-5.2 1.6-5.6-18.8-3.2-13.2 1.6-25.2 3.6-26.8 4.8-6.4 3.6-2.8 17.2 4.8 21.2 10.4 5.6 10.4 12-0.4 12-5.6 0-7.6 2-6.8 6.8 0.8 5.2 4.4 6.8 12.4 6 14.4-1.6 14 4.8-0.8 11.2-7.6 2.8-12.4 8.4-13.6 15.2-1.2 6-1.6 11.2-1.6 11.6 0.4 0.4 21.2 1.2 46 1.6 30.4 0.8 46.4-0.4 49.6-3.6 6-6 19.2-6.4 19.2-0.4 0 2.8 5.6 4 14 2.8 7.6-0.8 14 0 14 1.6 0 2 7.2 2 16 0.8 10-1.6 16-1.2 16 1.6 0 2 4 3.2 9.2 2 7.6-1.6 8-1.2 2.4 3.6-3.6 2.8-5.6 7.6-4.4 10.8 1.2 3.6-0.4 4.4-6.4 2.8-4.4-1.6-9.2-1.2-10.4 0.8-3.2 5.6 8.4 14 14 10.4 3.6-2 4-0.4 2.4 6-2 7.6-1.2 8 4 4 4.8-4.4 6.8-4 9.6 1.6 2.4 3.6 7.6 6.8 11.6 6.8 4.4 0 8 1.6 8 4 0 5.6 10.8 5.2 12.8-0.4 1.2-3.2 5.6-3.2 16.8-0.4 8 2.4 17.6 3.2 20.8 2 3.6-1.2 5.6 0.4 5.6 5.2 0 3.6 1.2 6 2.4 4.4 3.2-3.2 13.6 7.2 13.6 13.2 0 2.8 2.8 3.6 6.4 2.4 8-3.2 5.6 6-2.8 10-22 10.8-28 12.4-34.4 9.6-10-4.4-17.6-6.4-28-6.8-5.2 0-9.2-2-9.2-4 0-2.4-2.8-2-6 0.8-5.2 4.4-8.4 3.6-18-3.6-9.2-6.8-12-7.2-12-2.8 0 3.2 2 7.2 4 8.4 6 3.6-3.6 14.8-10.8 12.4-2.8-1.2-5.2-0.4-5.2 2 0 2.4-2 2.8-4.8 1.2-2.8-2-3.6-0.8-2 3.6 2 5.2 0 6-12.4 4.8-8-0.8-16.8-4.4-19.2-8-2.8-3.6-6.8-5.6-8.8-4.4-2 1.2-6.4 0-10-2.8-4.8-3.6-5.6-8.8-3.6-20.4 2.8-14.8 3.2-15.2 9.6-9.2 4.8 4.8 7.2 5.6 8.4 1.6 1.6-3.6 3.2-3.2 6.4 1.2 2 3.2 5.2 4.4 6.8 2.8 3.2-2.8-4.4-12.8-9.6-12.8-1.6 0-8.8-6-16-13.2-7.6-8-15.6-12.4-18.8-11.2-4 1.2-6.8-1.6-8.4-8.8-4.8-18.8-8.4-20.8-43.6-20.8-18.4 0-36 1.2-39.6 2.4-8.8 3.2-8.8 32.8-0.4 36q6 2.4 2.4 7.2c-4.8 5.6-4.8 6.4-6.8 116.8-2 98.8 2.8 142.4 16.8 158 8 8.8 14.4 10 11.2 2-1.6-4.4 0-5.2 6-3.6 6 1.6 8.4 0.4 8.4-4.4q0-6 7.2-3.6c6 2.4 5.6 1.2-1.2-6.8-6.8-8-7.2-9.2-0.8-6.8 7.6 2.8 9.2-1.2 2.4-8-3.2-3.2-2.4-4.4 2.8-4 6 0.8 7.6-1.6 7.2-10.4-0.4-7.2 1.6-10.8 5.6-10.8 4.8 0 4.8-1.2 0.8-6-4-4.8-3.6-6 3.2-6 4.4 0 10.8 4.4 14.4 10 3.6 5.6 4.8 10 2.4 10-2 0-4 2-4 4.4 0 2.4 2.8 3.6 6 2 6.8-2.4 7.6 2.8 2 14-5.2 8.8 3.2 10.8 11.6 2.4 4-4 4.8-3.2 3.6 3.2-0.8 5.2 1.2 8 4.8 8 7.2 0 8-10 1.2-17.2-8-8-6.4-12.4 3.6-9.6l8.8 2-8.8-12c-11.2-16-11.2-18 1.2-13.2 11.6 4.4 11.6 4.4 6-10.4l-4.4-10.8 11.2 7.2c10.8 7.2 11.2 7.2 4.8-0.4-8-9.2-8.4-21.6-0.8-21.6 2.8 0 5.2-2.8 5.2-6 0-10.4 6-6.4 11.2 6.8 3.6 10 3.6 13.6-0.4 16.4-3.2 2.4-2.8 2.8 2.4 1.2 4.4-1.2 6.8 0 6.8 3.6 0 3.2 2.8 6 6.4 6 3.6 0 4.8 2 3.2 4.8-4 6-5.2 19.2-2 19.2 1.2-0.4 6.8-2.8 12.4-6 12.8-7.2 16-7.2 16 0 0 3.6-2.4 4.8-6.4 3.2-5.2-2-19.2 11.2-19.6 18.8 0 1.2-1.6 4.4-3.6 7.6-2.4 4-2 4.8 0.8 2.8 2.8-1.6 4.8-1.2 4.8 1.2 0 2-2.4 4.8-4.8 5.6-2.8 1.2-1.6 2.4 3.2 2.4 11.2 0.4 14-3.2 9.2-12.8-3.6-6-3.2-7.2 0.8-4.8 3.2 2.4 4.4 1.6 2.4-2.8-2.8-8.4 4-14.8 13.6-12.4 8 2.4 10.4 9.2 3.2 9.2-3.2 0-3.2 1.6 0.4 6 2.4 3.2 3.6 7.2 2.4 9.6-1.2 2-0.4 4.4 2 5.2 2.4 0.8 4.8 7.2 4.8 14 0.4 8 2.4 11.6 5.6 10.4 3.6-1.2 4.4 0 2.8 4-1.6 4.4 1.2 6.8 9.2 8 44 8.4 44 8.4-8.8 11.2-65.6 3.2-343.2 3.2-444 0-83.6-2.8-84.8-2.4 40-14.8 33.2-3.2 66.4-6.4 74-7.2 7.6-0.8 20.4-1.6 28.4-2 14.4-0.4 15.2-1.2 25.2-26.8 8.8-22 11.2-36.4 14.4-88.4 2.4-34 3.2-63.2 2-65.2-6.4-10-34-8.8-82.8 4.4-15.6 4-20.4 14-9.2 18 8.8 3.6 7.2 14-2 16.4-4.4 1.2-8 4-8 6 0 2.4-2.8 2.8-6.4 1.6-3.2-1.2-4.8-0.8-3.6 1.6 1.2 2.4 0.4 4-1.6 4-2.4 0-4.4-2.4-4.4-5.2 0-3.2-1.6-2.8-4 1.2-2 3.2-4 4.4-4 2.4 0-2.4-2-2-4.4 0.4-2.8 2.8-10 3.6-16.8 2.4-8.4-1.6-11.2-1.2-9.2 2 3.6 6.4-2.8 6-8.8 0-3.6-3.6-4.8-3.6-4.8 0.4 0 2.8-1.6 3.6-4 2.4-2-1.2-4-0.4-4 1.6 0 4.8-10.8 4-20-1.6-5.2-3.2-5.2-2.8-0.4 3.2 6.4 8 7.2 7.6-14.4 8.8-17.6 1.2-22.4-1.6-27.2-17.2-2.4-8.4-1.6-9.2 5.6-6.8 9.6 2.8 11.6-5.2 3.6-13.2-5.6-5.6-1.2-11.2 10.8-13.6 10.4-1.6 12-12.4 4.4-27.6-6-11.6-6-13.2 0.8-18 3.6-2.8 8-5.6 9.6-5.6 1.2 0 1.6-3.6 0.4-8-2-6.8 0-8 12.4-8 12 0 14.4-1.6 14.4-8.4 0-6.8 1.6-8 8.8-6.4 4.8 1.6 10.8 0.8 13.2-1.2 6-4.8 34-7.6 34-3.6 0 2 2.8 3.6 6 3.6 3.2 0 6-3.6 6-8.4 0-6-2-7.6-7.2-6-4.4 1.6-8.8-0.8-12.4-6.4-3.6-6-4-9.2-1.2-10.4 2.4-0.8 3.2-4 2-7.2-1.2-3.2 0.4-5.6 3.6-5.6 2.8 0 7.2-4 9.2-8.8 4.8-11.2 25.6-13.6 42.4-5.2 10.4 5.6 13.2 5.2 12.4-2.4-0.4-1.6 2.8-5.6 6.8-9.2 6.8-6.4 8-6.4 14.4 0 5.6 5.6 8.4 6 14.4 2.4 6.4-4 7.6-3.6 7.6 2 0 6 0.8 6.4 4 1.2 2.4-4 4-4.4 4-1.2 0 8.8 10.8 5.6 13.6-4 1.2-4.8 2.4-24 2.4-42.4 0-28-0.8-32.8-5.6-28.8-2.8 2.4-8.8 3.2-12.4 1.6-4.8-1.6-6.4-1.2-4.8 1.6 4 6.4-7.2 13.6-15.2 10.4-4.8-1.6-6.4-1.2-4.8 1.6 1.6 2.4-2.4 5.2-9.6 6-6.4 1.2-12.8 0.4-14-1.2-0.8-2-6.4-1.6-12 0.4-5.6 2.4-11.6 3.2-13.6 2-1.6-1.2-4 0.8-5.6 4-1.2 3.6 0 6 3.6 6 3.2 0 6 1.6 6 4 0 6.4-15.2 12.4-26 9.6-6-1.6-10-0.8-10 2 0 2.4-2.8 4.4-6 4.4-3.2 0-6-2.4-6-5.6 0-5.2-12-6.4-23.6-2.8-0.8 0 0.8 3.2 3.6 6.4 2.8 3.2 4.4 6.4 3.6 6.4-4.8 2-43.6 2-43.6 0 0-1.2 4.8-5.6 10.4-10.4l10-8-21.6 0.4c-12 0.4-24 1.6-26.4 3.2-2.8 2-4.4-0.8-4.4-8 0-8-1.2-9.6-5.2-6.4-6.8 5.6-31.6 4-34-2.4-0.8-2.4 0.4-4.8 2.8-4.8 2.4 0 3.2-2.4 2.4-5.2-1.2-2.4-0.4-7.2 1.6-10.4 3.2-4.8 4.8-4.8 10-0.8 4 3.6 6.4 4 6.4 1.2 0-2.4 2.4-3.6 5.6-2.4 2.8 1.2 6.4-0.8 7.6-4 1.6-3.6 7.2-6.4 12.8-6.4 8.8 0 10 1.2 8 8.4-2 6-1.6 7.6 1.6 5.6 2.8-1.6 7.6-0.4 11.2 2.4 5.2 4.4 7.2 4 13.2-3.6 5.2-6.4 8-7.2 9.6-4 1.6 4 3.2 4 4.4 0.8 1.2-2.8 6-4 10-2.8 4.4 1.2 8 0.4 8-2 0-2 7.2-4.8 15.6-6.4 16-2.4 26-10.4 17.2-13.6-5.2-1.6-6.8-12.8-1.6-12.8 1.6 0 5.2 2 7.6 4.4 2.8 2.8 4.4 1.2 4.4-5.6 0-11.2-10-12.4-16-1.6-2 3.6-6 6.8-8.8 6.8-2.4 0-10.8 4.4-18 9.6-11.6 8.4-14.8 9.2-24 5.2-5.6-2.4-11.6-6.4-12.8-8.4-1.6-2-5.2-2-8-0.4-4.4 2.4-4.8 2-0.4-2.4 7.2-7.6 6-13.6-1.6-7.2-5.2 4-6.8 4-9.6 0-2-4-3.6-4-6-0.8-1.2 2.8-6 3.6-10.4 2.4-5.6-2-6.8-0.8-5.2 3.2 2.8 8-4.8 12.4-23.2 13.2-10.4 0.4-15.2-0.8-15.2-4.4 0-3.2-3.6-5.2-8-4.8-4.4 0.4-8 2-8 3.6 0 6.8-12 2.8-22-6.8-12-12.4-12.8-18-2-18 4.4 0 8-2 8-4 0-2.4 6-3.2 16-1.6 11.2 2 16 1.2 16-2 0-2.8 1.6-4 3.6-2.4 2 1.2 4.8 0.4 6.4-2 1.6-2.8 5.2-2.4 10.8 0.4 6.8 3.6 9.6 2.8 17.2-6.8 6-7.2 9.6-9.6 11.6-6.4 4 6.4 10.4 6 10.4-0.8 0-7.2-12.8-10.4-22-5.2-6 3.2-6.8 2.8-4.8-4.8 1.6-7.2 1.2-8-3.6-4-5.2 4-7.2 2.4-6-5.6 0-1.6-1.6-2.8-4-2.8-6 0-15.2-12.4-15.6-20 0-5.2 0.4-5.2 4 0 2.8 4.8 4 4.8 4 0.4 0-3.2 2.4-4.4 6.8-2.8 4 1.6 5.6 1.6 4.4 0-1.6-1.6-1.2-6 0.8-9.6 3.2-6.4 5.6-6.8 16-2.8 9.6 3.6 13.2 3.6 15.2 0 2-2.8 7.6-4 13.6-3.2 8 1.6 11.2 0 13.2-5.6 1.6-6 5.2-7.2 15.2-6 7.2 1.2 15.2 2.8 18 3.6 2.4 0.8 4.8-0.8 4.8-4 0-3.2 2.4-6 5.2-6 3.2 0 2.8-1.6-1.2-4-5.2-3.6-5.2-4.8 1.2-8.4 7.2-4.4 9.6-19.6 2.8-19.6-2 0-4 1.6-4 4 0 6-6.4 4.8-14-2.4-4.4-4.4-7.6-5.2-11.2-2.4-2.8 2-12.8 5.2-22.4 6.4-9.6 1.2-20 4.4-22.8 6.8-8 6.4-54 5.2-64.4-1.6-2.8-2-5.2-6-5.2-9.2 0-3.2 2.4-5.6 5.2-5.2 10.8 1.2 15.2-0.8 14-7.6-0.8-5.2 1.6-6.8 10.8-6.4 6.8 0 13.2-1.6 14.8-3.6 1.2-2.4 9.2-4.4 18-5.2 10.4-0.4 14.8-2.4 13.6-6.4-0.8-2.8-2.4-8.4-3.6-12.8-1.6-6-0.4-6.8 6.8-4.4 4.4 1.2 8.4 0.8 8.4-1.2 0-2 6.8-3.6 15.2-3.2 13.6 0.4 14.8-0.4 13.6-10-1.2-8.8 0.8-10.8 10.8-12.8 14-2.8 16.4-12.8 4-16l-8.4-2.4 8.8-14c6.8-11.6 7.6-14.4 2.8-14.4-3.6 0-6.8-2.8-7.6-6.4-1.2-5.2-2.4-4.8-9.6 2-6.4 5.6-9.6 6.8-13.2 3.2-3.2-3.2-4.4-2.8-4.4 2.4 0 3.6-2.8 6.8-6.4 6.8-3.2 0-4.8-2-3.6-4 2.8-4.4-3.2-5.6-7.6-1.2-1.2 1.6-5.6 3.2-9.6 3.6-3.6 0.8-7.2 3.2-8 5.6-1.2 2.8-3.6 2.8-8-0.8-5.6-4.4-6-4-3.2 2.8 2 6 1.6 6.8-1.6 3.2-3.2-2.8-8.8-3.2-16.4-1.2-8 2.4-15.2 1.6-23.6-2.4-14.4-7.6-15.6-13.6-2-13.6 8.8 0 9.6-1.2 7.6-11.6-2-10.4-1.6-11.2 8-10.4 9.2 1.2 9.6 0.4 6.4-6.4-3.2-5.2-2.8-7.6 0-7.6 2.8 0 4-4.8 3.2-11.2-1.2-9.6 0-10.8 10-9.6 8.4 1.2 10.8-0.4 10.8-6.4 0-8 10-14.4 16.4-10.8 1.6 1.2 7.6-0.4 12.8-4 5.6-3.6 12.8-5.2 16.8-3.6q7.2 3 4.8-1.2c-1.6-2.4-0.8-10 1.6-16.8 3.6-10 6.4-12 13.2-10.8 10.8 2 14.8-0.4 21.6-12.4 6.8-12.4 6.4-13.6-5.2-9.2-8.4 3.2-10 2.8-10-3.2 0-4-1.2-5.2-3.2-2.8-5.2 7.2-19.2 6.4-26.4-1.6-4-4.4-10-6.8-14.8-5.6-4 1.2-7.6 0.4-8-1.2 0-2-0.8-7.6-2-12-1.2-6.8 1.2-9.2 9.2-11.6 5.6-1.2 12-0.8 14 1.2 4.4 4.4 20 1.2 17.2-3.2-1.2-2-0.4-4.4 2-6 4.4-2.8-3.6-18-9.6-18-4.8 0-18.4-12.4-18.4-16.8 0-2 2.4-3.2 5.2-2.8 15.6 2 22.8-0.8 22.8-8.8 0-6 1.6-7.6 6.4-6 3.6 1.6 9.2 0.4 12.8-2.4 6-5.2 7.2-5.6 24.4-6.4 8-0.8 8.4-1.6 4.4-6.8-5.6-6.8-6-6.8 10-7.6 10.4-0.8 11.6-2 13.2-16.4 1.2-13.2 0.4-14.8-4.4-10.8-2.8 2.4-6.8 3.6-8 2-1.6-1.2-2.8-0.4-2.8 2.4 0 3.6-2 3.6-8 0.4-4.8-2.4-11.6-3.6-15.6-2-4 1.2-9.6-0.4-12-3.6-7.2-8.8 2.8-22.8 15.6-22 18.8 1.6 23.2-0.4 25.6-10.8 2-8 4.4-9.6 10.8-7.6 10 3.2 24.8-10.8 22.8-21.2-0.8-3.6-8-10-16.4-14-8-3.6-14.8-9.2-14.8-12 0-5.6 14-15.6 17.6-12 1.2 1.2 8.8 2.8 16.4 3.6 12.8 1.2 14 0.4 12-6.4-1.6-5.2-0.8-8 2.4-8 3.2 0 2-2.8-2.4-8-6.4-7.2-6.8-8-0.4-8 3.6 0 8.4-4.4 10.4-10 2-5.6 6.4-10 8.8-9.6 10.8 1.2 14.4-0.8 16.4-8.4 1.2-4.4 4.8-8 8.4-8 3.6 0 6.4-2 6.4-4.4 0-2 2-2.8 4-1.6 2.4 1.2 4 0.4 4-1.6 0-6.4 4-5.2 20.4 4.8zm-70 48.8c2 5.2 15.2 8.4 26.8 6.4 1.6 0 2.8 1.2 2.8 3.6 0 2 2 4 4.8 4 8 0-5.6-11.6-15.6-13.2-4.8-0.8-10.4-2.4-11.6-4-5.2-4.8-9.6-2.8-7.2 3.2zm-13.6 50c-4.4 0-4.8 15.6-0.4 18 2 1.6 3.6-2 3.6-7.6 0-5.6-1.6-10.4-3.2-10.4zm79.2 10c-4.4 5.2-4 5.6 1.6 3.6 3.6-1.2 6.4-4 6.4-6 0-5.2-2.4-4.4-8 2.4zm-44.4 0c-2.8-2.8-7.6 2-7.6 7.6 0 2.4 2 2 4.8-0.8 2.4-2.4 3.6-5.6 2.8-6.8zm6 2c-0.8 0-1.6 1.6-1.6 4 0 2 2 4 4.4 4 2 0 2.8-2 1.6-4-1.2-2.4-3.2-4-4.4-4zm114.4 44c-3.6 2.4-4 4-1.2 4 2.4 0 6-2 7.2-4 3.2-4.8 1.6-4.8-6 0zm46 70.4c-3.2-1.2-6-1.6-6-0.8 0 0.8 2.8 3.6 6 6.4 3.6 2.8 6 3.2 6 0.8 0-2-2.8-4.8-6-6.4zm-34.4 4c-10.8-2-15.2-1.2-16.8 3.2-1.6 4 2.4 6 13.6 8 16.4 2.8 26.8 0 20.8-5.6-1.6-1.6-9.6-4-17.6-5.6zm56.8 1.6c-10 0-10.8 2.4-2.4 5.2 3.2 1.6 6.8 0.8 8-1.2 1.6-2.4-1.2-4-5.6-4zm-128.4 24c-7.2-4-8-3.2-8 8.8 0 10 1.2 11.6 4.8 8 2.8-2.8 8-4.8 12-4.8 4 0 7.2-2.8 7.2-6.4 0-3.2-1.6-4.8-4-3.6-2 1.2-7.6 0.4-12-2zm65.2 2.4c-5.6-2.4-6-2-2.4 2 2.8 2.8 6 4 7.2 2.8 1.2-1.2-0.8-3.6-4.8-4.8zm-33.2 7.6c-2-1.2-4 0.4-4 3.6 0 3.6 2 6.4 4 6.4 2.4 0 4-1.6 4-3.6 0-2.4-1.6-5.2-4-6.4zm-210.4 22.8c-1.2 1.6-4 2.4-6 1.2-2-1.6-3.6-0.8-3.6 1.6 0 2 7.2 3.6 16 3.2 8.8-0.4 16-1.6 16-3.2 0-4.4-20-6.8-22.4-2.8zm194.8 37.6c-2.4-1.6-4.4-0.8-4.4 2 0 2.4-3.2 3.6-7.2 2.8-4.8-1.2-7.6 0-7.6 3.6 0 2.8 2 4.8 4.4 4 2.4-0.8 8.4 0 13.6 1.6 5.6 2.4 8.8 2 8.8-0.8 0-2.4 2.8-3.2 6.4-2 3.6 1.6 8.8 0.8 11.2-1.2 2.4-2 8.8-4.4 14.4-5.6 5.6-0.8 0-1.6-12.4-1.6-12.4 0-24.4-1.2-27.2-2.8zm99.2 9.6c-2 0-2.8 1.6-1.6 4 1.2 2 3.2 4 4.4 4 0.8 0 1.6-2 1.6-4 0-2.4-2-4-4.4-4zm-160 25.6c-0.8 1.2-6.8 2.8-12.8 4-22.8 4-38 11.6-35.6 17.6 1.2 4 0.4 5.2-2.4 3.2-4.4-2.4-20.4 4-25.2 10.8-1.2 1.6-8 4.4-14.8 6.4-10.4 3.2-12.8 2.8-12.8-2 0-3.6-7.2 1.2-17.6 11.2-21.6 20.8-15.6 24 16.4 8.8 12.8-6 24.4-10.8 26.4-10.4 1.6 0.4 2.8-2 2.8-5.6 0-5.2 3.6-6 17.6-4.8 15.6 1.6 18.8 0.4 26.8-9.6 8.8-10.4 23.6-15.6 23.6-7.6 0 2 4.4 4.4 9.6 5.2 10 2 14.4-4.4 14.4-22 0-6-11.6-10-16.4-5.2zm70.4 43.2c-6.4 0-8.8 0.8-4.8 2 3.6 0.8 9.2 0.8 12 0 2.4-1.2-0.4-2-7.2-2zm32-0.8c-16.8 0-18 4-3.2 10.8 10.4 5.2 16.8 2 17.2-8 0-1.6-6.4-2.8-14-2.8zm-222.4 46c-2.8-2.8-7.6 2-7.6 7.6 0 2.4 2 2 4.8-0.8 2.4-2.4 3.6-5.6 2.8-6.8zm40.8 15.6c-4 4.8-3.2 5.2 3.2 3.6 4.8-1.2 7.2-3.6 6-5.6-2.8-4.8-4-4.4-9.2 2zm19.6-5.6c-2 0-4 2-4 4.4 0 2 2 2.8 4 1.6 2.4-1.2 4-3.2 4-4.4 0-0.8-1.6-1.6-4-1.6zm-30.8 8.4c-17.2 3.2-21.2 4.8-21.2 7.6 0 4 13.2 12 19.6 12 2.4 0 4.4-4.4 4.4-10 0-5.6-1.2-9.6-2.8-9.6zm200.4 28c-4.4 0-5.6 1.2-2.4 2.4 2.8 1.2 6.4 0.8 7.6-0.4 1.6-1.2-0.8-2.4-5.2-2zm-57.6 9.6c-2-1.2-4 0.4-4 3.6 0 3.6 2 6.4 4 6.4 2.4 0 4-1.6 4-3.6 0-2.4-1.6-5.2-4-6.4zm12 2c-2 0-4 2-4 4.4 0 2 2 2.8 4 1.6 2.4-1.2 4-3.2 4-4.4 0-0.8-1.6-1.6-4-1.6zm-49.6 20c-3.6 0-4.8 3.2-3.2 10 1.6 9.2 0.4 9.6-12.8 9.2-14-0.4-25.6-7.2-12.8-7.2 3.6 0 6.4-2 6.4-4 0-6.4-5.6-4.8-15.6 4.4-7.2 6.8-10 7.2-14.8 3.2-3.2-2.4-6.8-3.6-8.4-2-1.2 1.2-0.4 2.4 2 2.4 2.8 0 4.8 1.6 4.8 4 0 4-24.8 2.4-32-2-2-1.2-4.4-0.4-6 1.6-1.2 2.4-5.2 2.8-9.2 1.6-6-2.4-6.4-2-0.8 4.8 5.6 6.8 5.2 7.2-0.8 4.8-4.8-1.6-7.2-0.8-7.2 3.2 0 6-15.2 6.8-22.8 0.8-3.6-2.4-5.2-2.4-5.2 0.4 0 7.6 14.4 12.4 30 10 10.4-1.6 16-0.8 18 3.2 2.8 4.4 7.6 3.6 26.8-4.4 12.4-5.2 32.4-10.4 43.6-11.2 19.2-1.6 20.8-2.4 23.2-13.6 1.2-6.8 2.4-13.6 2.4-15.6 0-2-2.4-3.6-5.6-3.6zm-48.4 48c-10 4-28.8 24-22.8 24 2.8 0 4.8-2 4.8-4 0-2.4 1.2-3.6 3.2-3.2 1.6 0.4 16.8-1.6 34-4.8 20.8-3.2 30.8-6.8 30.8-10.4 0-6.4-36-7.6-50-1.6zm98 39.6c0 2 2.8 4.8 6.4 6 5.6 2 6 1.6 1.6-3.6-5.6-6.8-8-7.6-8-2.4zm6.4 15.6c-19.2-1.2-22.4-0.4-22.4 5.6 0 4.4 28.4 4 35.6-0.4 3.6-2.4-0.8-4-13.2-5.2zm-62.8 1.2c-9.6 3.2-19.6 10.4-19.6 14 0 4.8-12.8 17.6-17.6 17.6-1.6 0-1.6-4-0.4-9.2 1.6-4.8-1.6-2-7.2 6.8-5.6 9.2-10.8 13.6-12.4 11.2-1.6-2.8-7.2-1.6-16.8 4-10.4 6-12.8 9.2-9.6 13.2 5.2 6.4 20 10.4 20 5.6 0-2 2.4-3.6 5.6-3.6 2.8 0 8.8-4.4 12.8-10 7.6-10.4 24.8-18 39.6-18 12 0 21.2-10.4 14.4-17.2-3.6-3.6-5.6-3.6-8.8 1.2-2.8 4.4-3.2 2.8-1.2-5.2 1.2-6 2-10.4 1.2-10.4zm85.6 12c-31.2 1.2-36.4 6-18.4 18 6 3.6 14.4 10.4 18.8 14.4 9.2 8.4 13.6 8.8 28 3.2 7.2-2.8 10.4-2.4 10.4 0.4 0 3.2 2 2.8 6-0.4 3.2-2.8 9.6-4 14-2.8 10.8 2.8 10-4.4-0.8-9.6-16.4-7.2-28.4-14.8-32-20.4-2.8-4-4.4-4-6-0.4-0.8 2.8-3.6 5.2-5.6 5.2-2.4 0-2.8-2-1.6-4 1.6-2.4-3.6-4-12.8-3.6zm-185.6 3.6c-5.6 0-4.4 2.8 2.8 5.6 3.2 1.2 4.8 0.8 3.6-1.6-1.2-2.4-4-4-6.4-4zm150 8c-4 0-5.6 4.8-4.8 18 0.4 14 2 18 6 16 3.2-1.2 11.2-2 18-2 12 0 12.4 0 5.2-8-4-4.4-8.8-6.8-10.8-5.6-1.6 1.2-3.2 0.8-2.8-1.2 0.4-1.6-0.4-6.4-2-10.4-2-3.6-5.6-6.8-8.8-6.8zm-188 4c-0.8 0-1.6 1.6-1.6 4 0 2 2 4 4.4 4 2 0 2.8-2 1.6-4-1.2-2.4-3.2-4-4.4-4zm-8.4 10.8c-4.4-2.4-13.2 1.2-13.2 5.6 0 4.8 10.8 4.8 14 0 1.2-2 0.8-4.8-0.8-5.6zm-20 12.4c-3.6-8.4-4-8.4-6.8-0.8-2 4.8-4 6-5.2 2.8-1.2-3.6-4-4-9.6-1.2-8.4 4.8-10.4 12.8-2.4 11.6 2.4-0.4 8 0.4 12 2.4 4.4 1.6 9.2 1.2 11.6-1.2 3.2-3.2 3.2-7.2 0.4-13.6zm174.8 4.8c-2 0-4 2-4 4.4 0 2-1.2 3.2-2.8 2.4-2-1.2-5.6 0.4-8.4 3.6-4.4 4.8-3.6 6.4 4 9.2 12 4.4 15.2 2.4 15.2-10 0-5.2-1.6-9.6-4-9.6zm-28 19c0-2.8-1.5-5-3.4-5-1.9 0-3.4 2.2-3.4 5 0 2.8 1.5 5 3.4 5 1.9 0 3.4-2.2 3.4-5zm10 189.8c-5.6 0-10 1.6-10 3.6 0 2 1.6 3.6 4 3.6 2 0 6.4 4.8 9.6 10.8l6 11.2 0.4-14.4c0-12.8-1.2-14.8-10-14.8zm-31.6 13.6c-1.6 3.6-2 7.6-0.8 8.4 2.4 2.4 18.4-8 18.4-11.6 0-6-15.2-3.2-17.6 3.2zm-23.2 1.2c-0.8-2.4-4.8-1.6-9.6 3.2-4.4 4-5.6 5.6-2.8 4 5.6-4 21.2 0 21.2 5.6 0 2-1.6 3.6-3.2 3.6-5.6 0-41.2 24.8-39.2 26.8 1.2 1.2 15.6-0.8 32.8-4.8 16.8-3.6 38.4-6 48-5.2 10.4 0.8 17.6-0.4 17.6-2.8 0-5.6-31.6-19.2-38.4-16.4-2.8 1.2-6-0.8-7.2-4-1.2-3.2-5.6-5.6-10-5.6-4.4 0-8.4-2-9.2-4.4zm-36.8 10.4c-1.6 4.8-0.4 6.4 4.4 5.2 3.6-0.8 6.4-2.8 6.4-5.2-0.8-6.8-8-6.8-10.8 0zm-110.4 34c0 2 4 4 9.2 4 7.2 0 7.6-0.8 2.8-4-7.6-5.2-12-5.2-12 0zm0 48c-2 0-4 1.6-4 4 0 2 2 4 4 4 2.4 0 4-2 4-4 0-2.4-1.6-4-4-4zm352 116c-2.4 0-4 2.8-4 6 0 3.2 0.8 6 1.6 6 0.8 0 2.4-2.8 4-6 1.2-3.2 0.4-6-1.6-6zm21.2 4.4c-5.2-0.4-10.8 2.8-13.2 7.6-3.6 6.4-3.2 7.2 2 5.6 3.2-1.6 6-4 6-5.6 0-2 3.2-4.4 7.2-5.2 5.2-1.6 4.8-2-2-2.4zm48.4 12c-4.4 0-5.6 1.2-2.4 2.4 2.8 1.2 6.4 0.8 7.6-0.4 1.6-1.2-0.8-2.4-5.2-2z"/>
	</g>
</svg>