<svg version="1.2" xmlns="http://www.w3.org/2000/svg" viewBox="0 0 488 1120" width="488" height="1120">
	<title>Layer</title>
	<style>
		.s0 { fill: #434f38 } 
	</style>
	<g id="Layer">
		<path id="Layer" fill-rule="evenodd" class="s0" d="m250 20.8c1.6 11.6 3.6 14.4 8.8 12.4 4.8-2 5.6-1.2 2.8 3.2-1.6 3.2-3.6 7.2-3.6 9.6-0.4 2-2 7.2-3.6 11.2-4.8 10 0.4 13.6 10.4 7.2 5.6-3.6 9.2-4 12.4-0.8 3.2 3.2 2.8 4.4-1.2 4.4-7.2 0-20 12-20 19.2 0 3.2 2.4 4.8 5.2 3.6 27.2-10 29.6-6 8.8 14.4l-14.4 14 11.2-1.2c6.4-0.4 17.2-4 24.4-7.6 16.8-8.4 16-6-2 11.2-8.4 7.6-14 14.8-12.8 16 2 2 17.6-1.6 32.8-7.6 14-6 2.4 9.6-15.6 20-10 5.6-16.8 12-16 13.6 1.2 1.6-3.2 2-10 1.2-6.4-0.8-11.6 0-11.6 2.4 0 5.6 11.2 9.2 14 4.8 1.2-2 4.8-2.8 7.6-1.6 3.2 1.2 15.2-0.8 26.8-4 26.4-8 26.4-8 17.6 1.6-4 4.4-9.6 8-12.4 8-3.6 0-4.4 2.4-2.8 6.8 2.4 6 1.6 6.4-3.6 2.4-3.2-2.8-7.2-4-8.4-2.4-3.6 3.6 4.8 13.2 11.6 13.2 7.6 0 7.2 6.4-0.8 9.6-3.2 1.2-4.8 0.8-3.6-1.6 3.6-6-0.8-4.8-12 2.4-10 6.4-14.8 21.2-4.8 14.8 2.4-1.6 8.4-2.4 12.8-2 4.4 0.8 16-1.6 26-4.8l18-6.4-14 12.4c-7.6 6.4-18.8 13.2-25.2 14.4-6 1.2-12 3.6-12.8 5.2-3.6 5.6 20 8.4 31.6 4 15.2-5.6 20-5.2 12.8 2-3.2 3.2-8.4 6-11.2 6-4 0-4 0.8 0.4 3.6 12 7.6-23.6 12-45.2 5.6q-7.2-1.8-4.8 2.4c4 6 36 20.4 46 20.4 12 0 10.4 6.8-2 9.2-11.2 2-40.8-4-48.4-10.4-2.8-2-5.2-2.4-5.2-0.8 0 4.8 17.6 17.6 24 18 3.6 0 8.8 2.4 11.6 4.8 4.4 4.4 5.6 4 7.2-0.4 1.2-3.2 3.2-3.6 4.8-1.2 1.6 2.4 13.2-0.4 30.4-7.2 30.4-12 37.6-12 22 0.8-5.6 4.4-9.6 10-8.8 11.6 0.4 2-2 3.6-5.2 3.6-3.6 0-4.8 2.4-3.6 6 2 4.4 0.8 5.2-4 3.6-3.6-1.6-6.4-0.4-6.4 2.4 0 3.2-3.6 4.4-10 3.2-5.2-1.2-10.4 0-11.2 2.4-1.2 3.2-3.2 2.8-7.6-0.8-5.2-4-6.4-3.6-8.4 2.8-2.4 9.2 2.8 19.2 6.8 13.2 1.6-3.2 6.4-3.2 14.8 0 6.8 2.4 19.6 2.8 28.8 1.6 9.2-1.6 20.8-3.6 26-4.4 4.8-0.8 8.8 0 8.8 2 0 4.4-12 8.4-16.4 5.6-2-1.2-3.6-0.4-3.6 2 0 2 2.4 4.8 5.2 6 2.4 1.2 0.8 1.2-4 0-5.2-1.2-9.2-0.4-9.2 2 0 2.4 2 4.4 4 4.4 2.4 0 4 2 4 4 0 2.8-2.4 2.8-7.6 0-9.6-4.8-13.6-5.2-10.8-0.4 3.2 5.2-11.2 8-19.2 3.6-4-2.4-6.4-2-6.4 0.8 0 2.8-4.8 3.6-12.8 2-7.2-1.2-16-2.8-19.2-3.2-3.2-0.8-8.4-2.4-10.8-4-3.2-2-4.4-1.2-3.2 2 3.6 9.2 40.8 20 58.4 17.2 12.4-2 15.2-1.6 13.6 2.8-1.2 3.2-4.4 6-7.2 6-2.8 0-10 1.6-16.8 3.2-6.4 1.6-19.2 2.8-28 2.4-15.6-0.4-16-0.4-6 5.2 15.6 8.8 46.8 5.2 76.4-8.8 27.2-13.2 34-13.6 21.2-1.2-4 4-10 11.2-13.2 15.6-3.2 4.8-7.2 7.6-9.2 6.4-1.6-1.2-3.2 0-3.2 2.4 0 2.4-2 3.2-4 2-6.4-4-16 5.6-13.2 12.8 2 5.2 0.8 6-4.8 4-3.6-1.6-9.6-0.8-12.4 1.6-6 4.8-20 8-38.4 8-6.4 0-11.2 2-11.2 4 0 4-0.4 4 21.2 4.8 8 0.4 14.8 0 14.8-1.2 0-1.2 4-2 9.2-2.4 4.8 0 13.6-1.6 20-2.8 6-1.6 15.6-4 21.6-5.2 6-1.2 13.2-4 16-6.4 6.4-5.2 6.8-1.6 0.4 8.8-7.6 11.6-0.8 14.4 19.2 7.2 9.6-3.2 17.6-5.2 17.6-3.6 0 4.8-24.8 24.4-30.4 24.4-3.2 0-5.6 1.6-5.6 3.6 0 3.6-40.8 20.8-47.2 20-1.6-0.4-3.6 0-4.8 0.4-11.2 4.4-28 1.2-38.8-6.8-15.6-11.2-17.6-5.2-3.2 8.8 17.6 18 63.6 14.8 120-8.4 7.2-2.8 6.8-1.6-2 9.2-5.6 7.2-12.4 12-15.2 11.2-2.8-1.2-4 0-2.8 2 1.2 2.4-0.4 4-3.6 4-3.6 0-6.4 1.6-6.4 3.6 0 2-4 5.2-8.8 6.8-8.8 2.8-8.8 2.8-1.2 5.6 7.2 2.8 6.8 3.6-4 8-12.8 5.2-34 6-48.8 2.4-12.8-2.8-11.6 0 4 7.6 21.6 11.6 52.4 10.8 89.6-2 27.2-9.2 32.4-10 29.6-4.8-4.8 8.8-19.2 20.8-24.8 20.8-2 0-2.8 2-1.2 4.8 2 2.8 0.8 3.6-3.6 2-4.8-1.6-5.6-0.8-4 4 2 5.2 0.8 6-6 4.4-6.4-1.6-7.6-0.8-6 4 1.6 4 0.8 5.2-2 3.2-2.8-1.6-4.8-0.8-4.8 1.6 0 2.4-1.6 3.6-3.6 2-2-1.2-4.8-0.8-5.6 0.8-3.6 5.6-51.2 2.8-55.2-3.2-2.4-4-3.6-4-3.6-0.8 0 3.6-2.8 4-9.6 1.2-8.4-3.2-9.6-2.4-8.8 6.8 0.4 11.2 21.2 27.2 43.2 33.6 17.6 4.8 9.6-2.8-16-16.4-12.4-6.4-20-11.6-16.8-12 3.6 0 10.4 2.8 15.6 6.4 11.2 8 44 6 85.6-5.6 8-2.4 15.2-2.8 16.4-1.6 1.2 1.2 2.4 0.4 2.4-1.6 0-2 3.6-4 8.4-4.4 12.4-1.2 2.4 9.2-21.2 21.2-20 10-29.2 12.4-25.2 5.6 1.2-2.4-0.4-2.8-3.6-1.6-6.8 2.4-6.8 10-0.4 14.4 2 1.6 10.4 2 18 0.8 13.2-1.6 13.6-1.6 6.4 4.4-4.4 3.2-6.4 6-4 6.4 2 0-0.4 1.6-5.6 3.6-4.8 2-11.6 2.8-14.8 1.6-3.2-1.6-6.8 0-8 3.2-1.6 3.6-8.4 5.6-20 5.2-10 0-18 1.6-18 4 0 2.8-1.2 2.8-3.2 0-1.6-2.4-7.2-4-12.8-4-5.6 0-18-4.4-28-9.2l-18-9.6 11.6 12.4c17.2 18 49.2 23.2 90.8 14.8 13.6-2.8 28.4-5.2 33.2-4.8 4.4 0.4 9.2-0.8 10.4-2 1.2-1.6 9.2-4 18-5.6l16-2.8-15.6 14.4c-8.8 8-19.2 15.2-23.2 16.8-6 1.6-6.4 3.6-2.8 10.4 2.8 4.8 2.8 7.2 0.4 5.6-2.4-1.2-4.8-0.4-5.6 2-1.6 5.2-17.6 8-40.4 8-8.4-0.4-14.4 1.2-12.8 3.2 3.2 5.6-10.8 7.6-18.8 2.8-10.4-6.4-17.6 2.4-8.8 10 5.6 4.4 6.4 4.4 4 0.4-2.8-4.4-1.6-4.4 6 0 5.2 2.8 10.8 6.4 12 8 2.8 4 81.2 16.4 97.6 15.6 8.4-0.4 10.4 0.8 6.4 3.2-4.4 2.8-4 4.4 2 8.4 7.2 4.4 6.8 4.4-1.2 2.8-5.2-1.2-8.4 0-8 2.4 0.8 5.2-36 14.4-51.2 12.8-8-1.2-10 0-8.4 4.8 2 5.2 0 6-12 4-8-1.6-18.4-0.4-22.4 1.6-7.2 4-7.6 3.2-5.2-5.2 2.4-8.8 2-8.8-3.6-1.6-5.2 6.8-7.6 7.2-16.4 3.2-6-2.8-9.2-6.8-8-8.8 1.2-2.4-1.2-4-5.6-4-4 0-8.8-2.4-9.6-5.2q-2.4-4.8-2.4 0c-0.4 6.8 22.8 25.2 43.6 34 15.6 6.8 24.8 7.6 70.8 6.4 42.8-1.6 52.4-0.8 48.8 3.2-6.4 7.6-36.8 21.6-46.8 21.6-4.8 0-8.8 1.2-8.8 3.2 0 1.6-8 2.4-18 1.6-15.6-1.6-17.6-0.8-15.6 5.2 2 5.2 3.6 5.6 6 1.2 3.2-4.4 4.4-4.4 7.2 0.4 2.8 4.4 11.6 5.2 43.2 3.2l39.2-2.4-20 9.6c-10.8 5.6-26 11.2-32.8 12.4-7.2 1.2-13.2 3.6-13.2 5.2 0 3.6-16.8 3.2-22.4-0.8-2.8-1.6-5.6 0-7.2 3.2-2.8 7.6-14.4 7.6-25.6-0.4-4.8-3.2-8.8-4.4-8.8-2.4 0 5.6 8.4 11.2 24 16.4 16.4 5.2 91.6 7.6 99.2 3.2 2.4-2 4.8-1.6 4.8 0.4 0 7.2-30 26.4-35.6 22.8-2-1.2-4.4 0.4-5.6 3.6-2.4 6.4-22 10.8-25.2 6-1.2-2-4.8-3.6-8-3.6-4.4 0-3.2 2.8 4 10.4 7.2 8 13.6 10.8 26 11.2 14 0.4 15.6 1.2 10.4 5.2-3.6 2.4-9.2 8-12.8 12-3.2 4-4.8 4.8-3.2 1.2 1.6-4 0.8-3.6-3.2 0.8-3.2 4-6.8 6-8 4.4-1.6-1.2-2.8-0.8-2.8 1.6 0 2-6.4 3.6-14 3.2-7.6 0-14 0.8-14 2.4 0 3.6-40.4 0-45.6-4q-4.2-3.6-4.8 6c-0.4 5.6 1.6 9.6 4.4 9.6 3.2 0 8.8 4.4 13.2 9.6 4 5.2 12.8 10.4 19.2 11.2l11.6 1.6-12 5.6c-14 6.4-58 8.8-58 3.2 0-2 2-2.4 4.8-0.8 2.8 1.6 3.2 1.2 1.6-1.6-1.6-2.8-5.6-4.8-8.8-4.8-3.2 0-5.6-3.2-5.6-6.8 0-5.2-1.2-5.6-4.8-2-6.8 6.8-11.2 6-11.6-2.4 0-4-1.2-4.8-2.4-2-0.8 2.8-3.6 5.2-5.6 5.2-2.4 0-2-3.2 0.4-8 2.4-4.4 2.8-8 1.2-8-1.6 0-0.4-2 2.8-4.4 4.8-3.2 4.4-3.6-2.4-1.6-5.6 1.2-10.4-0.4-14-4.8-4.8-6.4-4.8-6.8 0.4-2.4 5.2 3.6 6 2.8 6.4-6.8 0.4-10-0.4-10.8-7.2-6.8-10.8 6.8-12.4 18.4-10 66.4 2.4 49.2 4.8 58 15.2 55.2 4.8-1.2 7.6 0 7.6 3.6 0 3.2 2.4 4.4 6 3.2 3.2-1.6 6-0.8 6 1.6 0 2 8.4 3.2 19.2 2.8 10.4-0.4 20.8 0 22.8 1.6 5.6 3.2 11.2 3.2 18 0 3.2-1.6 16.8-0.4 30 2.4 14.8 2.8 26 3.6 28.8 1.2 2.8-2 5.6-2 6.8 0.4 1.6 2.4 5.2 3.2 8.8 1.6 3.2-1.2 9.2 0.8 13.2 4.4 5.2 4.8 8.4 5.6 10.4 2.4 1.2-2 4.8-2.8 7.2-1.2 10 6 22.8 5.6 22.8-0.8 0-6 0.4-6 6.4 0 3.6 3.6 5.2 7.6 3.6 9.2-2.8 3.2-364.8 4.8-416.8 2-18.4-1.2-33.2-3.2-33.2-5.2 0-4.8 16-6.8 29.2-3.6 6 1.6 10.8 1.6 10.8-0.4 0-2 2.4-2.8 5.6-1.6 3.2 1.2 6.8 0 8.4-2 1.2-2.4 4.4-3.2 6.8-2 2.4 1.6 6 0 8-2.8 2.8-4 4.4-4.4 5.6-0.8 1.6 3.2 5.2 3.6 10.8 1.6 4.8-2 15.6-2.8 23.6-2 9.6 0.8 17.2-0.8 21.2-4.8 3.2-3.6 6-4.4 6-2.4 0 6.4 30.8 2.4 42-4.8 5.6-3.6 10-5.2 10.4-3.6 0 2 1.6-0.4 3.6-4.8 2-4.4 3.6-32 3.6-61.2 0.4-45.2-0.4-52.4-5.2-48-3.2 2.8-4 6.4-2 7.6 2 1.2 0 6.4-4.4 11.6-4.4 5.2-8 11.6-8 14.8 0 6.4-6.4 6.8-10 0.8-2-2.8-6-1.2-12 4.4-5.2 5.2-11.6 7.6-14 6-3.6-2-4-0.4-2 6.4 1.6 5.2 1.6 8.4 0 6.8-2-1.6-5.6 0-8.4 4-4 4.8-5.2 5.2-5.6 1.2 0-4.4-2-4-10 1.2-5.2 3.6-10.4 6.4-11.2 6.4-1.2 0-1.2-7.2-0.8-16l0.8-15.6-10.8 7.6c-6.4 4.4-14.8 8-19.2 8-4.4 0-8.8 2.4-10 4.8-1.2 4-2.8 4-6.8 0.4-3.6-3.2-7.6-3.6-12.8-0.8-4 2-7.2 2.4-7.2 0.4 0-2-5.2-3.6-12-4-22-0.4-28-10.4-7.2-12 7.2-0.8 14-2.8 15.2-4.8 1.6-2.4 8.8-8.8 16.4-14.4l13.6-10.4-14 2.4-14 2.4 10-6.8c5.6-3.6 11.6-9.2 13.2-12 1.6-2.8 6-5.2 8.8-5.2 3.2 0 6-2.8 6-6.4 0-3.2-1.6-5.2-3.6-4-2 1.6-4.8 0-5.6-2.4q-2.4-4.8-2.4 1.2c-0.4 6.4-13.6 13.2-22 12-2-0.4-11.2-1.2-20.4-2-15.6-0.8-29.6-7.6-34.8-16.4-2-2.8 4.4-4 17.6-3.6 17.6 0.8 21.6-0.4 28-8.8 4.4-5.2 10-9.6 12.8-9.6 9.2 0 32-13.2 46-26.8 7.6-7.2 12-13.2 10-13.2-2.4 0-6.4 2.4-9.2 4.8-4 4-6 4-7.2 0.4-1.2-3.2-4.4-2-9.6 3.2-4.4 4.4-9.6 6.8-11.6 5.6-2.4-1.6-4-0.4-4 2 0 2.4-1.2 3.6-3.2 2.4-1.6-0.8-10.4-0.4-20 1.6-10 1.6-18 1.2-19.2-0.8-1.2-2-4.4-2.8-7.2-2-2.8 1.2-9.2-1.6-14.8-6-6-4.8-6.8-6.4-2-4 5.6 2.8 9.2 2.4 13.2-1.2 7.6-8 6.8-8.8-9.6-8-17.2 0.8-29.2-4-29.2-11.2 0-2.8 1.6-2.4 4 1.2 2.4 4 4 4.4 4 0.8 0-2.4 3.6-4.8 8.4-4.8 4.4 0 16.4-2.4 26.8-5.6 10.4-3.2 26.8-6.8 36.8-8.4 23.2-2.8 31.6-8 25.2-14.4-3.2-3.2-6.8-3.6-10-1.2-2.8 2.4-19.2 3.6-36 3.6-23.6-0.8-33.6-2.8-44-9.2-7.2-4.8-10.4-8.8-7.2-8.8 3.2 0 8.4 1.6 11.6 3.6 3.6 2.4 12 0.8 22.8-4 9.6-4 17.6-6.4 17.6-4.8 0 1.2 4.4-0.8 10-4.4 5.6-3.6 11.6-6 13.2-5.2 1.6 0.8 10-5.2 18.4-13.6l16-14.8-12 2c-6.4 1.2-14 4-16.4 6.4-3.6 2.4-5.2 2-5.2-1.6 0-4-0.8-4.4-3.2-0.8-2.8 4.4-11.6 4.4-37.6 0-8.4-1.6-14.4-6.8-8-6.8 2.8 0 4.8-1.6 4.8-4 0-2-2.8-2.8-6-1.6-3.2 1.6-6 0.4-6-1.6 0-6.8 7.2-9.6 14.4-5.6 3.6 2 13.6 2 23.2 0 8.8-1.6 21.6-4 28-5.2 17.6-2.8 26.4-6 26.4-10.4 0-4.8-10.8-4.8-14 0.4-2 3.2-4.4 2.8-8.4-0.4-4.4-3.6-5.6-3.2-5.6 1.6 0 5.6-1.2 5.6-10.8 0.8-6-3.2-12.4-4.4-14.4-2.4-3.6 3.6-22.8 0.8-22.8-3.2 0-1.6 10-4.8 22-7.2 20.8-4.4 49.6-16 54-21.2 1.2-1.6 5.2-3.6 9.2-5.2 7.2-2.8 9.6-10.8 2.8-10.8-2 0-4 2-4 4.4 0 2.8-4 3.6-10 2.8-5.6-1.2-10-0.4-10 1.6 0 2.4-2.8 2.8-6.4 1.6-3.6-1.6-9.2-0.4-12 2-4.4 3.6-5.6 3.2-5.6-0.4 0-4-1.2-4-6 0-4.4 3.6-6 3.6-6 0.4 0-3.2-5.6-4-16-2.8-8.8 1.2-16.8 0.4-18-2-1.6-2-4-2.8-6-1.6-4.4 2.8-16-2-16-6.8 0-2.4 6-3.2 13.6-2.4 7.6 0.8 12.8 0 12-1.6-1.2-1.6-0.4-3.2 2-3.2 2.4 0 3.2-2.4 2.4-5.2-1.6-3.6 4.4-4.8 22-5.2 31.2-0.8 65.6-14.4 85.6-34.4 8.8-8.4 14.4-16.4 13.2-17.6-1.2-1.6-5.6 0.4-9.2 4-3.6 4-8.8 6-11.6 4.8-3.2-1.2-6.4 0.8-7.6 4-1.2 3.6-4 5.2-6 4-2-1.2-8.4 0.4-14.8 3.6-12.4 6.4-19.2 4.4-15.6-5.2 2-5.6 1.2-5.6-5.2 0.4-8 7.2-18.8 9.2-14.8 2.8 1.2-2.4-0.4-4-4.4-4-5.2 0-5.6-1.2-1.6-6 3.2-4 3.6-6 0.8-6-2.4 0-3.6-2.8-2.4-6 1.6-3.2 0.4-6-2.4-6-2.8 0-4-2.8-2.4-6 1.6-4.4-0.8-6-8-6-5.6 0-8.8-1.6-7.6-4 1.2-2-0.4-8-3.6-12.8-8.8-12.4-8-18 1.6-9.2 17.2 15.6 78.8 25.2 86.4 13.6 1.2-2-1.2-2.4-4.8-0.8-5.6 2-6.4 1.2-4-4.8 2.8-7.2 2.4-7.2-5.2-0.4-7.2 6.8-8.4 6.8-10.8 1.2-1.2-3.6-4.4-5.6-7.6-4.4-2.8 1.2-6-0.8-7.2-4-1.6-3.6-5.2-5.2-8.8-4-4 1.6-6 0-6-4.4 0-3.6-1.6-5.6-3.2-4.4-4 2.4-31.2-24.4-28-27.6 1.2-1.2 10.8 1.6 21.2 6.4 24.4 10.8 50.4 12.4 77.6 4 22.8-6.8 26-14.4 5.6-14.4-6.8 0-12 0.8-11.2 2 0.8 1.2-7.6 2.4-18.4 2.4-10.8 0-19.6-1.6-19.6-3.2 0-1.6-2.4-3.2-4.8-3.2-2.8-0.4-12.4-7.2-20.8-15.6l-15.6-15.6 17.6 3.6c34 7.6 43.2 7.6 65.2 2 12.4-3.2 24.4-7.2 26.4-8.4 7.6-4.8 4-8-8-8-6.4 0-12 1.2-12 2.4 0 4.4-37.2 0-40.4-5.2-1.6-2.8-4.4-3.6-6-2.4-1.2 1.6-6-0.8-10.8-4.8-4.4-4.4-9.6-6.8-11.6-5.6-1.6 1.2-3.2 0-3.2-2.4 0-2.4-4.4-8.8-10-14-11.6-10.4-5.2-16.4 6.8-6.4 4 3.6 8.8 6.4 10.4 6.8 1.6 0 6.4 2 10.4 3.6 5.6 2.4 8.4 1.6 9.6-1.6 1.6-4.4 2.4-4.4 4.8-0.4 3.2 5.2 32 10.4 32 6 0-1.2-6.4-5.2-14-8.4-7.6-3.2-14-7.6-14-9.6 0-2.4-2.4-4-5.6-4-3.2 0-5.2-3.2-4.8-7.2 0-3.6-2-6.4-4.4-6-2.8 0.8-5.2-2.4-5.2-7.2 0-4.8-1.6-7.2-4.4-5.2-5.6 3.2-11.6-5.6-11.6-16.4 0.4-7.2 0.8-7.2 5.2-1.6 2.8 3.2 10.8 8.8 18 12 6.8 2.8 12.8 6.8 12.8 8.4 0 2 3.2 3.2 7.2 3.2 4 0 8.8 1.2 10 2.8 5.6 5.2 33.2 5.6 48 0.8 16-5.2 28.4-19.6 16.8-19.6-3.2 0-6 2-6 4.4 0 2-2 2.8-4.4 1.2-2.4-1.2-6.4 0-8.4 2.8-3.2 4.4-4.4 4.8-6 0.4-1.6-4-4-3.6-10.4 2-4.4 4-6.8 4.8-5.2 2 1.6-2.4 1.2-4.8-1.2-4.8-2 0-4.4 2-5.2 4-0.8 2.4-6-0.4-12-6-6-5.6-12.8-10-15.2-10-5.2 0-5.2-5.2 0.8-11.2 5.6-5.6-1.2-15.2-13.2-18.8-5.6-2-7.2-4.8-5.6-10.4 1.6-4.8 0.8-7.6-2.8-7.6-2.8 0-7.6-3.6-10.4-8-4-6.8-4-8 0.8-8 3.2 0 6.8 1.6 8 3.6 1.2 2 16 10 33.2 18.4 32.8 16 64.8 20.8 68.4 10.4 1.2-4 0-4.8-5.6-2.8-12.8 4.8-14.4 4.8-15.6-2.8-0.8-4.4-2.8-8.8-4.4-10-1.6-1.6-1.6 0.4-0.4 4 1.6 4 0.8 7.2-1.2 7.2-2.4 0-4-2.8-4-6.4 0-3.2-1.6-5.2-3.6-3.6-2 1.2-4.8 0.4-6.4-2-1.6-2.4-4.4-3.2-6.4-2-2 1.6-3.6-0.4-3.6-4 0-3.6-1.6-5.2-4-4-7.2 4.4-24.4-7.2-37.2-26-10.4-15.2-8-17.6 6.4-6.4 12.4 9.6 54.4 23.6 58.8 19.6 3.2-3.2-17.6-17.2-22.8-15.2-2.8 0.8-14.4-7.2-25.6-18.4-20.8-20-24.4-29.6-6.8-18 12.8 8.4 40 17.6 46.4 15.6 7.2-2.8 6-9.2-2.4-9.2-10 0-24.8-11.2-24.8-19.2 0-4.8 1.2-5.2 4.8-1.6 2.8 2.8 8.8 4.8 13.6 4.8 5.2 0 10.4 1.6 11.6 4 4.4 6.8 17.6 4.4 22.4-4.4 3.2-6.4 3.2-8 0-5.6-4.8 2.8-28.4-6-28.4-10.8 0-2-2.4-3.2-5.2-3.2-2.8 0-11.2-5.2-18.8-12-13.6-11.6-13.6-12-3.6-10.4 6 0.8 16 4.4 22 7.6 13.2 6.4 37.6 8 37.6 2.4 0-2-2.8-4.8-6-6-3.2-1.6-5.2-4-4-5.6 1.2-2 0.4-4.4-2-6-2-1.2-4 0.8-4 4.4 0 4.4-4.4 0.8-11.6-9.6-6.4-8.8-13.6-17.2-16-18.8-2.4-1.2-6-5.6-8-9.6-3.6-6-1.6-6 14.4 2.4 14.4 7.2 19.6 8 24 4.4 5.2-4 4.8-5.2-1.6-7.6-8-3.2-18.4-14.4-22.4-24.8-3.2-8.4-3.2-8.4 12.4-0.4 7.2 3.2 14.4 5.2 16.4 4 2-1.6 4.8 0 6 2.4 2 4 2.8 4 4.8 0 2-4 3.6-4 8-0.4 3.6 2.8 5.6 3.2 5.6 0.4 0-2.4-6.4-6.4-14-8.8-10.4-3.2-16.4-9.2-22.4-20.4l-8-16 22.4 12.8c20.8 11.6 35.2 13.6 21.2 2.4-9.2-6.8-23.2-31.6-23.2-40.4 0-7.6 0.4-7.6 9.2 0.4 4.8 4.4 13.2 10.4 18 13.2 8.8 4.4 9.2 4 6.8-4.8-1.6-4.8-7.6-14-13.2-20-5.6-6-9.2-12-8-13.6 3.6-3.6 19.2 7.6 21.6 15.2 1.2 4 4 7.2 6 7.2 5.6 0 4.4-3.6-4-14.8-4.4-5.2-7.2-12-6-15.2 1.2-2.8 0.4-6.4-2-8-2.4-1.2-4.4-5.2-4.4-8.8 0-5.6 0.8-5.6 7.2-0.4 15.2 13.2 18 13.2 14.8-1.2-1.2-7.6-3.6-17.2-4.8-21.2-1.6-5.6-0.4-7.2 4.4-5.2 5.2 2 6.4-0.4 6.8-14.4 0.4-18.4 1.6-16.8 5.6 6zm-6.8 19.2c-2.4 0-2.4 2.4 0.8 6 5.6 6.8 10.4 5.2 6-1.6-1.2-2.4-4.4-4.4-6.8-4.4zm24.4 98c-1.2-1.2-3.6-0.8-4.8 0.8-1.6 1.2-2.8 4.4-2.8 6.8 0 2.4 2 2 4.8-0.8 2.4-2.4 3.6-5.6 2.8-6.8zm18.4 50c-3.6-3.2-6-3.2-6-0.8 0 4.8 7.6 10.4 10.4 7.6 0.8-0.8-0.8-4-4.4-6.8zm-94.4 16c-5.6 0-4 6.8 2 9.2q6 2.4 3.6-3.6c-1.2-2.8-3.6-5.6-5.6-5.6zm64.4 12c0 1.6 4.4 4 10 5.2 6.4 1.2 9.6 0 8.8-2.8-1.6-4.8-18.8-7.2-18.8-2.4zm-1.6 84c-1.2 0-3.2 1.6-4.4 4-1.2 2-0.4 4 1.6 4 2.4 0 4.4-2 4.4-4 0-2.4-0.8-4-1.6-4zm8 18.8c-1.2 1.6-2.4 4.4-2.4 6.4 0 2.4 1.2 2.8 2.8 1.6 1.2-1.6 6.8 1.2 12 6 5.2 4.8 9.2 6.4 9.2 4 0-2.4 2.8-3.6 6-2.4 3.2 1.6 6 0.4 6-2 0-4.4-5.2-6-14.8-4.8-2.8 0.4-5.2-0.8-5.2-2.8 0-4.8-10.4-9.2-13.6-6zm-72 21.2c-1.2 0-3.2 1.6-4.4 4-1.2 2-0.4 4 1.6 4 2.4 0 4.4-2 4.4-4 0-2.4-0.8-4-1.6-4zm-30.8 64c-2 0-2.8 1.6-1.6 4 1.2 2 3.2 4 4.4 4 0.8 0 1.6-2 1.6-4 0-2.4-2-4-4.4-4zm100.4 40c-3.2-5.2-4-5.2-4 0.8 0 3.6 2 8 4 9.2 2.4 1.2 4 1.2 4-0.8 0-1.6-2-6-4-9.2zm100 22.8c-5.2 6-4.8 6.4 1.6 4 4-1.6 8-2.8 8.8-2.8 0.8 0 1.6-2 1.6-4 0-6-5.2-4.8-12 2.8zm-188 1.2c-2 0-4 2-4 4.4 0 2 2 2.8 4 1.6 2.4-1.2 4-3.2 4-4.4 0-0.8-1.6-1.6-4-1.6zm54.4 1.2c-1.2-1.6-2.4 0.8-2 5.2 0 4.4 1.2 5.6 2.4 2.4 1.2-2.8 0.8-6.4-0.4-7.6zm125.6 3.6c0-1.8-3.6-3.2-8-3.2-4.4 0-8 1.4-8 3.2 0 1.8 3.6 3.2 8 3.2 4.4 0 8-1.4 8-3.2zm-148.4 13.2c-1.2-1.2-3.6-0.8-4.8 0.8-1.6 1.2-2.8 4.4-2.8 6.8 0 2.4 2 2 4.8-0.8 2.4-2.4 3.6-5.6 2.8-6.8zm52 60c-7.2-15.2-7.6-14-2 10.8 2.4 9.6 10.8 16.8 10 8 0-1.6-3.6-10-8-18.8zm34 40c-1.6 3.2-4 4.8-6 3.6-5.6-3.2-4.4 0.8 2 6 4.4 3.6 6 2.4 7.2-5.6 2.4-11.2 0.4-13.6-3.2-4zm-106 32.4c-2.4-2.4-12.8 9.6-10.4 12 0.8 0.8 4-0.8 6.8-4.4 2.8-3.6 4.4-6.8 3.6-7.6zm179.2 8c-4.8 5.2-2.8 8 5.2 8 4.4 0 7.6-2 6.8-4-1.6-5.2-8.4-7.2-12-4zm42.8 65.6c-0.8 0-1.6 1.6-1.6 4 0 2 2 4 4.4 4 2 0 2.8-2 1.6-4-1.2-2.4-3.2-4-4.4-4zm-186.8 11.2q-2.4-6.6-2.4 0c-0.4 3.2-2.4 4-5.2 2.4-4-2-4-1.6-0.4 2.4 2.8 3.2 6 4.4 7.6 2.8 1.2-1.2 1.6-4.8 0.4-7.6zm-8.8 15.6c-3.2-4.8-6-5.6-8-3.2-1.2 2.4-0.8 4.4 1.6 4.4 2 0 4.4 3.2 5.2 6.8 0.8 4 2.4 5.2 4 3.2 1.2-2.4 0-7.2-2.8-11.2zm105.6-6.8c-7.2 0-7.6 0.8-3.6 6 4.8 6 12 4.8 12-2.4 0-2-4-3.6-8.4-3.6zm-43.6 4.4c-2.8-0.8-4.4 0.8-3.2 3.2 1.6 5.2 7.2 6.4 7.6 1.6 0-1.6-2-3.6-4.4-4.8zm-105.6 92.8c-1.2-1.6-2.4 0.8-2 5.2 0 4.4 1.2 5.6 2.4 2.4 1.2-2.8 0.8-6.4-0.4-7.6zm-62.4 20.8c0 1.2 2 5.6 4.8 9.6 4.4 7.2 5.6 7.2 16 2 6-3.2 11.2-7.6 11.2-9.6 0-5.6-7.2-4.8-9.2 0.8-1.6 4-2.8 4-7.2 0-5.2-4.8-15.6-6.8-15.6-2.8zm106.8 31.6c-0.8-1.2-2.8 1.6-4 6.4-1.2 4.4-5.2 9.2-9.6 10.8-4.8 2-7.6 7.6-7.6 16-0.4 7.2-0.4 13.2 0.4 13.2 0.4 0 6-10 12-22.4 6-12 10-22.8 8.8-24zm-154.4 26q-4.8 3.6-1.2 6c2.4 1.2 5.6 0.4 6.8-2 3.6-5.6 0.8-8-5.6-4zm286.8 32.4c-2.4 0-2.4 2.4 0.8 6 5.6 6.8 10.4 5.2 6-1.6-1.2-2.4-4.4-4.4-6.8-4.4zm12.8 11.6c0 2 8.4 6.4 18.8 10 21.6 7.6 25.2 7.6 25.2 2.4 0-2-6.4-4.8-14-6.4-7.6-1.2-15.2-4-16.4-6-2.8-4.8-13.6-4.8-13.6 0zm-239.6 14.8c-2-1.6-3.2 0.4-2.8 3.6 1.2 8.4 6.4 12.4 6.4 4.8 0-3.6-1.6-7.2-3.6-8.4zm137.2 1.6c-0.8 0-1.6 1.6-1.6 4 0 2 2 4 4.4 4 2 0 2.8-2 1.6-4-1.2-2.4-3.2-4-4.4-4z"/>
	</g>
</svg>