<svg version="1.2" xmlns="http://www.w3.org/2000/svg" viewBox="0 0 640 988" width="640" height="988">
	<title>Layer</title>
	<style>
		.s0 { fill: #394231 } 
	</style>
	<g id="Layer">
		<path id="Layer" fill-rule="evenodd" class="s0" d="m340 0c2.4 0 4 2 4 4.4 0 2 2 2.8 4 1.6 2.4-1.2 4-0.4 4 1.6 0 2.4 2 4.4 4.4 4.4 2 0 3.2-1.6 2-3.6-1.2-2 0.8-4.4 5.2-5.6 4.4-0.8 9.2 1.2 12 5.6 2.4 4.4 8 7.6 12.4 7.6 9.2 0 10.4 4 3.2 11.2-3.6 3.6-3.2 4.8 2.4 4.8 3.6 0 9.6 2.8 12.8 5.6 3.2 3.6 10.8 5.2 18 4.4 9.2-1.2 11.6 0 10 4-1.2 3.2 0 6 2.4 6.8 2.4 0.8-0.8 7.2-6.8 14.4-10 11.6-10 14.8-0.4 13.2 2-0.4 5.2 1.6 7.2 4.4 2.4 4.4 4 4 6.8-0.4 2.8-4.4 4-3.6 6.4 3.2 1.2 4.8 4.4 7.6 6.4 6.4 2-1.6 3.6-0.4 3.6 2 0 2.4 2 3.2 4.4 2 5.6-4 15.6 10.4 13.2 18.8-1.6 4.8 0 7.2 4 7.2 11.2 0 6.8 11.2-5.6 14-6.4 1.6-13.2 1.6-15.2 0.4-1.6-0.8-11.6-2.8-22-4-14-1.6-18.4-1.2-16.4 2.4 2 3.2-1.2 3.6-12 2-12-2-35.6 2.4-42 7.6-1.6 1.6 10 13.6 13.2 13.6 1.2 0 2.4-2.8 2.4-6 0-7.2 4-7.6 18.8-1.2 6 2.4 14.4 4 18.4 3.6 3.6-0.4 6.8 0.8 6.8 3.2 0 2 6 3.2 13.6 2.4 9.6-0.8 13.2 0.4 12 3.6-1.2 3.6 1.6 4.4 10.4 3.2 9.2-1.2 12 0 12 4.8 0 4.8 2.8 5.6 12 3.6 13.2-2.4 15.2 1.2 6 13.2-8.8 11.6-7.2 14.8 8 12.8 7.6-0.8 14 0 14 2 0 1.6 2 2 4 0.8 2.4-1.2 4 1.2 4 5.6 0 9.2 6 11.2 9.2 3.2 1.6-2.8 2.4-2.4 2.4 2 0.4 4.4-6 8.8-17.2 13.2-20.4 8-26 16.4-13.6 20.4 7.6 2.4 7.6 2.8 2 6.4-4 2-8.8 2.4-10.8 1.2-2.4-1.2-5.2 0.4-6.4 3.6-1.2 3.6-5.2 6.4-8.4 6.4-4 0-5.2-2.4-3.6-6.4 2-5.2 1.2-5.6-2.4-2.8-6.4 4.8-19.6 5.2-16.8 0.4 1.2-2 4.4-2 6.8-0.4 2.8 1.6 2.4 0-0.8-4-6.4-8.4-32.8-6-44.4 4-10.4 8.8-10.4 14.8-0.4 9.2 4.4-2 11.2-4 14.8-4 5.6 0 3.6 3.2-6.4 11.6-7.6 6.4-13.2 12.4-12 13.6 1.2 1.2 10.8 2.8 21.2 3.2 13.6 0.8 18.4 2.4 17.2 6.4-1.6 3.6 2.4 4.4 16.4 3.2 12.4-1.6 19.6-0.4 22 2.8 2.4 4 4.8 4 11.2 0 6.8-4.4 9.2-4 14.4 1.2 3.2 3.2 5.2 7.6 4 9.6-1.6 2 0 4.4 2.4 5.6 4 1.2 3.2 3.6-2 9.6-6.8 8-6.8 8.4 4 10.4 6 1.2 13.2 0.4 16-1.6q4.8-4.8 2.4 4.8c-1.6 5.6-0.8 8 1.6 6.4 2.4-1.6 6.4 0 9.2 3.2 2.8 3.2 6.4 4.8 8.4 3.6 2-1.2 4.8 0.4 6 4 1.2 3.2 4.8 4.8 7.6 4 3.2-1.2 6.4 1.6 8 6.4 1.6 5.6 4.8 7.6 8.8 6.4 4.4-1.6 5.2-0.4 3.2 5.6-2 6-0.8 8 4.8 8 6 0 5.6 1.2-2.4 7.6-9.2 7.2-9.2 7.6-2 11.6 8.8 4.8 6.4 8.4-6.8 10.8-12.8 2.4-24.4-1.6-20.8-7.2 1.6-2.4-2.4-0.8-8.4 4.4-14 10.8-22.4 11.2-22.4 0.8 0-4.4 2-8 4.4-8 10 0 0-9.2-10.8-10-6.4-0.4-16.4-2-22.4-3.6-15.2-4.4-14.4 3.6 0.8 11.6 6.8 3.6 12 6.8 12 7.2 0 0.8-10 1.2-22 0.8-12 0-22 0.8-22 2.4 0 1.2 7.6 4.8 16.8 8l16.4 5.2-10.8 4.4c-10 4.4-10.4 4.8-3.6 10.8 4 3.2 9.6 5.2 12.4 4.4 2.8-1.2 7.6 0 10.4 2.4 4 3.6 6 3.6 7.2 0.4 2.4-8 23.2 0 23.2 8.8 0 6 2 7.2 8 5.2 6.4-2 7.6-1.2 5.2 4.4-1.6 4.8-1.2 6 2 4 3.2-2 4.8 0 4.8 5.6 0 4.8 1.6 7.6 3.6 6.4 4.8-3.2 16.8 1.6 14.4 5.6-1.2 1.6 6.4 2.8 16.4 2.4 17.6-0.8 21.2 1.6 26.4 15.6 0.4 2 2.4 3.6 4 3.2 4.8-1.6 3.6 0.8-4.8 10.8-9.6 10.8-10 16-2 16 3.2 0 6 1.6 6 3.2 0 2-6 2.8-12.8 2-12-1.6-12.4-1.2-6 4 9.2 7.6 8.8 12-0.8 8.8-4-1.2-16-2.4-26-2.8-10 0-18.4-1.6-18.4-2.8 0-1.6-3.6-2.8-8-3.2-4.4-0.4-13.2-4-19.2-8.4-7.2-5.2-13.2-6.8-18.8-4.4-4.4 1.6-6.8 3.2-4.8 4 1.6 0.4 4 0.8 6 1.6 23.2 6.4 24.8 7.2 24.8 16.4 0 5.2 1.6 9.6 3.6 9.6 2 0 5.2 3.6 6.4 8 2 6 4 7.2 9.6 4.4 3.6-2 9.2-2.4 11.6-0.8 5.6 3.2 2.4 16.4-4 16.4-2 0-2.4-2-1.2-4 1.2-2.4 0.4-4-1.6-4-5.6 0-5.6 5.2 0.4 11.2 5.6 5.6 5.2 5.6-10.8 6.4-6.8 0.4-14.4 2-16.8 3.6-2.8 1.6-7.2-0.8-10.4-5.2-4.8-7.2-6-7.2-8-2-1.6 3.2-6.4 6-10.8 6-4.8 0-7.6-1.6-6-4 1.2-2 5.2-2.4 9.2-1.2 13.2 5.2-4.4-8.8-18.8-14.8-13.2-5.2-13.2-5.6-4-8.8l9.2-3.6-9.6-5.2c-5.6-2.8-13.6-4-18-2.4-4.4 1.6-14.8 2-22.8 1.6-11.2-0.8-15.2 0.4-15.2 4.8 0 3.2 1.6 5.2 3.2 4 1.6-0.8 5.6-0.4 8.8 1.6 5.2 3.2 4.8 4.8-1.2 10.8-6.8 6.8-7.2 6.8-4.4 0 2-6 1.2-6.4-8-2.8-6.8 2.4-10.4 2.4-10.4 0 0-2.4-7.6-4-16.4-4-14.8 0-16 0.8-11.2 6.8 5.2 6 4.4 6.4-6.4 4-7.2-1.2-17.2 0.4-24.8 4-11.6 5.2-12.8 8.4-17.2 34-5.6 31.6-3.2 58.4 4.8 63.6 4.4 2.8 4.4 3.6-0.4 3.6-4 0-4.8 3.6-3.2 14 1.2 7.6 0.4 14.8-1.6 16-4.4 2.8-4.4 83.2 0 156 3.2 51.6 9.2 74.8 17.2 66.8 2.8-2.8 8.8-2 18.4 2 11.6 4.8 14.4 4.8 17.2 0.4 2-2.8 3.6-3.2 3.6-1.2 0 5.6 34.4 15.6 42.4 12.4 3.6-1.6 8.8-0.8 11.2 1.2 4 3.2 30 7.6 63.6 10.4 52.4 4.4-9.6 6-230.4 6-224.4 0-250.8-0.8-250.8-6.4 0-3.2 1.6-5.2 3.6-4 1.6 1.2 7.6-1.2 12.4-5.6 4.8-4.4 10.8-6.8 12.8-5.6 2 1.2 5.6 0.4 8.4-2 2.8-2 8.8-3.2 12.8-2.8 4.4 0.8 9.6 0.4 11.6-0.8 7.6-4.4 72.4-4 78 0.4 3.2 2.8 24.4 4.4 56.8 4.4 46 0 52.4-0.8 59.6-8 12.4-12 16.4-47.2 15.2-126l-1.2-72-32.8-17.6c-20.4-10.8-34-15.6-35.6-13.2-1.6 2.4 0 5.6 2.8 7.6 4.4 2.8 4.4 3.6-0.8 3.6-3.6 0-8.8 2.8-11.6 6-4.4 5.2-4 5.6 1.2 4 4-2 6-0.4 5.6 4.8-0.8 9.2-13.2 18.8-19.6 14.8-3.2-2-3.6-0.8-2 4 2 4.8 1.2 6.4-2 5.2-2.8-0.8-4.8-4.8-4.8-8.4 0.8-5.2-0.4-5.6-5.2-2-4 3.6-4.4 5.6-1.2 7.6 2.8 2 0.8 4-5.2 5.6-8 2-9.2 4.4-7.6 12.4 2 10.4-2.4 13.2-10 5.6-2.8-2.8-7.2-1.2-14 5.6-6.4 6.4-12 8.8-15.2 6.8-2.8-2-7.6-2.4-10.4-1.2-2.8 0.8-6.8-2-9.2-6.4-6-10.8-6-11.2 7.6-14 6.8-1.2 12-4 12-6.4 0-2.4-2-3.2-4-2-2.4 1.6-8.8-0.4-14.4-4l-10-6.4 10-8c5.6-4.4 12-6.8 14.4-5.6 5.2 3.2 24-14 24-21.6 0-4-2.8-2.8-9.6 3.6-5.6 4.8-12.8 8-16 6.8-3.6-1.6-7.2-0.8-8.4 1.2-1.6 2.4-4.4 4-6.8 4-2.8 0-2.4-2.4 0.8-6 4-4.8 3.6-6-2.4-6-6.4 0-6-0.8 1.6-9.2 10.8-11.2 11.2-16.4 2-12-4 2-10 3.2-13.2 3.2-12.4-1.2-42.4-11.6-48-17.2-5.2-5.2-5.2-5.6 1.2-3.6 7.6 2.8 9.2-1.2 2.8-7.6-2.4-2.4-3.2-7.2-1.6-10.8 1.6-5.2 4.4-5.6 12.4-2.4 8 2.8 12 2.4 17.6-2.4 3.6-3.6 10-7.2 14-7.6 9.2-1.2 11.2-8 4.4-13.6-4-3.2-8-3.2-15.2 0.8-5.2 2.8-11.6 4.4-13.6 4-2.4-0.4-10.8-2-19.2-3.6-8.4-1.2-14-4-12.8-6.4 3.2-4.8-3.2-4.8-8.8 0.8-3.6 3.6-6.8 4.8-21.2 7.2-2.8 0.8 9.2 8.4 13.2 8.4 2 0 2.4-1.6 1.2-3.2-0.8-1.6 2-3.6 6.8-3.6 8.8-0.8 8.8-0.8-0.8 7.2-6.4 5.2-12.4 6.8-20 5.2-14.4-3.6-19.6-9.2-12.4-13.6 8.4-5.2 2-9.2-14-8.8-12.4 0.4-14-0.4-14-9.2 0-7.6 2-10 8.4-10 4.4 0 7.2-1.6 6-3.2-0.8-1.6 0-5.6 2-8.8 2.8-4.4 4.4-4.8 6.8-1.2 3.6 5.6 10.4 2 14-8 1.2-3.6 5.2-6.8 8.8-6.8 3.2 0 6-1.6 6-3.6 0-4.8 24.8-2.4 35.2 3.2 6.8 3.6 8.4 2.8 10-4.4 2-7.2 3.2-7.6 8.8-3.2 4.8 4 7.6 4 10.8 0.8 3.6-3.6 6-3.2 10.4 0 4.4 4 6.8 3.6 10.4-1.6 4.8-6.4 5.6-6.4 12.4 0 4 3.6 6 4.4 4.4 1.6-1.6-2.4-0.8-4.8 1.2-4.8 2.4 0 4.4-2.4 4.4-5.6 0-3.2 2.8-6.4 6-8 3.6-1.2 6 0.4 6 4.4 0 5.2 1.2 5.2 6 1.2 4.4-3.6 6-3.6 6-0.4 0 2.8 2.4 4.4 5.2 4 8.8-1.2 16 0.4 13.6 2.8-3.2 3.2 10 17.6 16 17.6 2.8 0 5.2 2.8 5.2 6 0 3.2 2.8 6 6 6 3.2 0 6 2.8 6 6 0 3.6 4 5.6 11.2 5.6 6 0 24.8 0.4 42.4 0.4 17.2 0 32.8-0.8 34-2.4 4-4 1.2-76.8-3.6-85.6-5.2-9.2-32.8-28-42-28-4.8 0-4.4 1.6 2 8 6.8 6.8 7.6 20 1.2 20-1.2 0-1.2-2.4 0-5.6 6-15.6-20.8-14.4-28.8 1.2-5.6 10.4-5.6 13.6 0.4 10 2.8-1.6 3.2-1.2 1.6 2-1.6 2.4-4.8 3.6-6.8 2.4-2-1.6-3.6 1.6-4 6.8 0 5.2-1.2 6.8-2.4 4-2.8-7.2-9.2-6-9.6 2 0 4.4-1.2 5.2-2.4 2-0.8-2.4-5.6-4.8-10-4.8-6.8 0-7.2-0.8-3.2-6 2.8-3.6 8.4-5.2 12.4-4 3.6 1.2 8 0.4 9.6-2 1.6-2.4 1.2-4-0.8-3.6-9.2 1.6-12.8-0.8-10.4-7.6 2.4-6 1.2-5.6-6.4 1.2-6.8 5.6-14.4 7.6-27.2 7.2-10-0.4-19.2-1.6-20.4-3.2-2.4-2.4-0.4-4 15.2-14 5.2-3.6 5.2-4.4 0-8-8.4-5.6-12-4.8-12 2 0 6.4-13.6 15.2-17.6 11.2-4.4-4.8-2.4-9.2 4.8-9.6 4.4 0 4.8-0.8 1.6-2.4-2.8-1.2-7.2 0-10 2-2.8 2.4-11.2 3.6-18.8 2.8-7.6-0.4-17.2-1.2-21.6-1.6-4.8-0.4-6.4-2.4-4.8-6.4 1.2-3.6-1.2-9.6-5.6-14-10.4-10.4-10-14.8 2.4-17.6 8-2 9.6-4.4 7.6-10.8-2.4-7.2-1.2-8 13.6-6 10 1.2 15.6 0.4 14.4-2-1.6-2-0.4-3.6 1.6-3.6 2.4 0 4.4 2 4.4 4 0 2.8 2.4 2.8 7.6 0.4 4-2.4 8.4-2.8 10-1.6 1.2 1.6 4.8-0.8 8-4.8 2.8-4 7.2-6 9.6-4.4 2.8 1.6 4.8 1.2 4.8-0.8 0-2.4 4.4-5.2 10-6.4 5.6-1.6 10-5.2 10-8.4 0-6 4-7.6 17.2-6 4 0.4 9.6-1.6 12.8-4 3.2-2.8 7.6-3.6 10-2 2 1.2 4-0.4 4-3.6 0-3.6 1.6-6.4 3.6-6.4 2 0 2.8-4 1.6-8.4-2-7.2-1.2-8 6-6 6.8 2.4 7.6 1.2 6-6-1.6-5.2 0-10.4 3.2-13.2 10.4-8.4 7.6-13.6-8.4-15.2-8.8-0.8-16-0.4-16 1.2 0 1.6-3.6 3.6-8.4 4.8-4.8 1.2-7.2 4-5.6 6.4 1.6 3.2 4.8 3.2 10.8 0 5.2-2.8 9.6-2.8 12-0.4 2.4 2.4-5.2 6-20.8 10l-24.8 6 2.4-9.2c2-7.6 0.4-10-10.4-13.6-15.2-5.2-15.2-5.2-15.2 0 0 2 2 2.8 4 1.6 6-3.6 4.8 4.4-1.6 9.6-3.2 2.8-6.8 3.2-7.6 1.6-2.4-4-34.8-1.6-34.8 2.4 0 1.6 6 2 13.6 1.2 8-0.8 14.8 0.4 16.4 3.2 2.4 4 0.4 4.8-7.6 3.2-12.8-2.4-13.2-0.8-1.2 9.6 6.4 5.6 6.8 7.2 2 5.6-4-1.2-9.6 0.8-13.2 4-8 8-34 12.4-34 5.6q0-4.8-4.8-1.2c-2.8 2-8 3.6-11.2 3.2-3.2-0.4-8.4-1.2-11.2-1.2-2.8-0.4-4-2.8-2.4-5.2 1.6-3.2 0-3.6-6-1.6-6 2-8.4 0.8-8.4-3.6 0-3.6 3.2-6.8 7.2-7.2 3.6 0 8.8-0.8 10.8-1.2 2.4-0.8 8.4-1.2 13.6-1.6 17.6-0.8 6.8-4-21.2-6-32-2.8-34.4-4-34.4-16.8 0-6.8 2.4-9.6 7.2-9.6 4.8 0 10-5.6 14.8-15.6 6.4-14.4 7.6-15.2 18-12.4 12.8 3.6 16 2 16-8.8 0-6 2-7.2 8-5.2 6 2 7.2 1.2 5.6-3.6-2-5.2 0-6 12-4.8 12.4 1.6 14.4 0.8 14.4-5.6 0-7.6 4-9.6 15.2-8.4 2.4 0.4 4.8-1.2 4.8-3.6 0-2 2.8-4 6.8-4 3.6 0 5.6-0.8 4.4-2-2-2-11.6-3.6-38-5.6-2.8-0.4-5.2-4-5.2-8.8 0-5.6 2-7.6 5.6-6.4 3.2 1.2 6.8-0.4 8-3.6 1.2-3.2 0-6.8-2.8-7.6-24.4-8.8-27.6-10.4-25.2-16 1.2-3.2 0.4-6-2-6-2.4 0-3.6-2.4-2.4-5.2 0.8-2.4 4.4-4.4 7.6-3.6 4 0.4 7.2-3.2 8.8-9.6 2.8-9.6 4-10.4 17.6-7.6 8 1.6 19.2 3.2 24.8 3.6 5.6 0 11.2 2 12.8 4 1.2 2 8.8 0.8 17.2-3.2 8-4 14-7.6 13.2-8.4-0.8-0.8-8.8-2.4-18-3.2-9.2-1.2-18.8-3.6-21.6-5.2-3.6-2-4-0.8-2.4 3.6 1.6 4.4 0.4 6.8-3.6 6.8-3.2 0-5.2-1.6-4-3.6 1.6-2 0.8-8.4-1.6-14.4-3.6-9.2-3.2-10.4 3.6-8 4.8 1.2 8.4 0 9.6-4 1.6-3.2 5.2-4.8 8.8-3.6 3.2 1.2 6 0.4 6-1.6 0-2.4 3.6-5.6 8-6.8 4.4-1.2 8-6 8-10.4 0-6.8 2.4-8.4 10.4-7.2 1.6 0 4.4-2 6-5.2 2.8-4 3.6-4 3.6 0 0 6.8 6.8 2.8 12.4-7.6 3.6-7.2 3.2-7.6-4-2.8-6.8 4-9.2 3.6-16.4-2.8-5.2-4.8-6.8-8.8-4.4-11.2 2-2 2.8-6.4 1.6-9.2-1.2-3.2 0-5.6 2.4-5.6 2.4 0 4.4 2.4 4.4 4.8 0.4 3.2 2.4 2.4 5.6-1.6 2.8-4 6.4-6 7.6-4.4 1.6 1.2 2.8-0.4 2.8-4 0-4 2-6.8 4-6.8 2.4 0 4-3.6 4-8 0-4.4 2.8-8 6-8 4.8 0 5.6-3.2 3.6-16-2.4-13.6-1.6-16 4.4-16 4.8 0 6.4-2.4 5.2-7.2-2.8-9.6 6.8-22.4 14.4-19.6 3.2 1.2 9.6-1.2 14.4-5.2 5.2-4.4 10.8-6.8 12.4-5.6 2 1.2 3.6-0.8 3.6-4 0-3.6 3.6-6.4 8-6.4 4.4 0 8-2 8-4 0-2.4 2-4 4-4zm-73.6 140c-1.2 0-3.2 1.6-4.4 4-1.2 2-0.4 4 1.6 4 2.4 0 4.4-2 4.4-4 0-2.4-0.8-4-1.6-4zm75.2 52c-0.8 0-1.6 1.6-1.6 4 0 2 2 4 4.4 4 2 0 2.8-2 1.6-4-1.2-2.4-3.2-4-4.4-4zm-15.6 12c-1.2 0-2 1.6-2 4 0 2-3.2 2.8-6.8 1.6q-7.2-2.4-2.4 1.2c2.8 2 6.4 8 8.8 13.2 3.6 9.2 4 8.8 4-5.2 0.4-8-0.4-14.8-1.6-14.8zm-40 8.4c-3.2 4.8 10.4 8 17.2 3.6 4-2 6-4 4.8-4.4-9.6-2-20.8-1.6-22 0.8zm60.4 28c-3.6 17.6-3.2 39.6 0.8 39.6 6 0 24.8-10 24.8-13.2 0-1.6-3.2-2.8-6.8-2.8-4.4 0-5.6-1.2-2.8-3.2 2.4-1.6 5.2-6 6.8-10 2.4-6 1.6-6.4-5.2-2.8-10.4 5.6-10.8 5.6-8.8-8 2.4-16-5.6-15.6-8.8 0.4zm31.2 15.6c-3.2 0-4.8 1.6-3.6 4 1.2 2 4 4 6.4 4 2 0 3.6-2 3.6-4 0-2.4-2.8-4-6.4-4zm-70.8 4c-4 0 13.6 23.6 18.4 23.6 5.6 0.8 2.8-7.2-6-15.6-4.8-4.4-10.4-8-12.4-8zm94.8 0.4c-4.4 0-5.6 1.2-2.4 2.4 2.8 1.2 6.4 0.8 7.6-0.4 1.6-1.2-0.8-2.4-5.2-2zm-233.6 10.4c-6-1.6-8 0-8 5.6 0 6.8 1.2 7.2 8 3.6 4.4-2.4 8-4.8 8-5.6 0-0.8-3.6-2.4-8-3.6zm212 10.8c-23.6-2.4-32 4.4-32 24.8l0.4 15.6 6.4-10.8c9.2-14.4 20.8-18.8 40.4-15.2 12.4 2 16.8 1.6 16.8-2 0-2.8-3.2-6.4-6.8-8-4-1.6-15.2-3.6-25.2-4.4zm-74 6.4c-2.4 3.6 9.6 20 14.8 20 2.8 0 1.2-13.6-2.8-20-3.2-5.2-8.8-5.2-12 0zm-54 6c-3.2 3.6-3.2 6-0.8 6 2.4 0 5.6-2 6.8-4.4 4.4-6.8-0.4-8.4-6-1.6zm94.4 50.8c-3.2 12.4 0.8 14.4 20.8 10.4 19.2-4 19.6-7.2 2.4-9.2-6.4-0.4-12-3.2-12.8-5.6-2.4-7.2-7.6-4.8-10.4 4.4zm-78.4 19.2c-3.6 2.4-4 4-1.2 4 2.4 0 6-2 7.2-4 3.2-4.8 1.6-4.8-6 0zm20-4c-2 0-4 2-4 4.4 0 2 2 2.8 4 1.6 2.4-1.2 4-3.2 4-4.4 0-0.8-1.6-1.6-4-1.6zm100.8 4l-13.2 0.4c-21.6 0.8-27.6 3.6-30 13.6-4.4 17.6 0.4 18.4 22 2zm-75.6 4c-10.4 0-18.8 6.4-15.6 11.6 1.6 2.4 0 5.6-3.2 6.8-3.6 1.2-5.2 4.4-4 6.4 1.6 2.8 4 1.6 6.4-2.4 4.8-8.8 20.8-8.8 17.6 0-1.2 3.6-2.4 8-2.4 9.6 0 2-4 5.6-8.4 8.4-6.8 3.6-9.2 3.2-12-0.8-2.8-4.4-3.6-4-3.6 1.2 0 4-2.8 7.2-6 7.2-3.2 0-6 1.6-6 4 0 2 2.4 4 5.6 4 11.6 0 28.8 13.6 34.8 27.6 6 14 6.4 13.6 5.2-25.6-0.8-22-1.2-44-1.6-49.2 0-5.6-2.4-8.8-6.8-8.8zm78.8 8c0 2 2.4 4 5.2 4 2.4 0 9.2 1.2 14.8 2.4 9.6 2 9.6 2 2.4-4-8.8-7.2-22.4-8.4-22.4-2.4zm32 8.4c0 2 2.4 2.8 5.2 1.2 4-2.4 4-1.6 0 2.8-8 8-6 12.4 3.2 9.6 5.6-2 7.6-1.2 6 1.2-1.6 2.4 1.6 3.6 7.6 2.8 5.6-0.4 10 0.8 10 2.4 0 2 6.4 3.6 14.4 3.6 8.4 0 13.2-1.6 11.6-4-1.2-2.4-6-4-10.4-4-4 0-7.6-2-7.6-4.4 0-2.4-2.8-3.2-6.4-2-3.6 1.2-10.8-1.2-16.4-5.6-11.6-8.8-17.2-10-17.2-3.6zm-53.6 10.4c-1.6 2-4.4 3.2-6 3.2-8 0-15.6 14.4-16.8 31.2-1.6 15.6-0.8 18.4 4.4 16.4 3.2-1.6 15.2-4 26.8-5.2 11.6-1.6 22.4-4.4 24-6 1.6-2-0.8-2.4-5.6-1.2-5.2 1.2-9.2 0.4-9.2-2 0-2-1.6-2.4-4-1.2-2 1.2-8.4-0.8-13.6-4.4-8.4-5.2-9.2-7.2-4.8-11.6 2.8-2.8 13.6-6 23.6-6.8 22.4-2 26.4-5.2 14.8-11.2-7.2-4-9.6-3.6-12.4 0.4-2.4 4-3.6 4.4-3.6 0.4 0-5.2-12.8-6.8-17.6-2zm-100 26.4c-1.2-1.6-2.4 0.8-2 5.2 0 4.4 1.2 5.6 2.4 2.4 1.2-2.8 0.8-6.4-0.4-7.6zm193.6 20.4c0 0.8 3.2 4 7.2 6.8 6 5.2 6.4 4.8 1.2-1.6-5.2-6.4-8.4-8.4-8.4-5.2zm-54 9.6c-22.4-6.4-42-4-54 6.8-6.4 6-7.6 12.4-7.6 39.2 0.4 47.2 0 47.2 33.2 36.8l27.2-8.8-15.2-2.8c-9.2-1.2-21.2-7.6-29.2-15.2-12.8-11.6-13.2-12.8-6.4-17.6 4-2.8 8.8-4.4 11.2-2.8 2.4 1.2 2.8 0.4 1.2-2-3.2-5.6 2.8-9.2 18.8-11.2 7.2-0.8 10.4-0.4 8 0.8-2.8 1.2-5.2 3.6-5.2 5.2 0 4.8 13.2 4 19.6-1.2 4.8-3.6 5.2-3.2 3.2 2.4-1.6 5.2-0.4 7.2 4.4 8 3.6 0 8.8 0.8 11.6 0.8 2.4 0.4 6 2 7.6 3.6 5.2 5.2 16.8 3.2 19.2-3.6 1.2-3.2 4-4.8 6.4-3.6 2 1.2 4 0.4 4-1.6 0-2.4 2.8-4.4 6-4.4 5.2 0 5.2-1.2-0.8-7.6-7.2-7.6-20.4-12.8-35.2-14.4-4.4-0.8-16.8-3.6-28-6.8zm-178 31.6c-9.6-2.4-10.8 3.2-1.6 6.8 8.4 3.2 9.6 3.2 9.6-1.2 0-2-3.6-4.4-8-5.6zm16 2c0 2 1.2 3.2 3.2 3.6 1.6 0 7.2 0.8 12.8 1.2 5.2 0.8 15.6 0 22.8-1.6 7.2-2 13.2-1.6 13.2 0 0 2 3.6 2.4 8 1.2 4.8-1.2 7.2-3.2 6-4.4-3.6-3.6-66-3.2-66 0zm-61.2 12.8c-3.2-1.2-6.8 0.8-8.4 4.8-3.6 10-0.4 10.8 12.4 4 6-3.2 9.2-6 6.4-6.4-2.4 0-7.2-1.2-10.4-2.4zm78-0.8c-1.6 0-10.8 1.6-20.8 3.2l-18 2.8 23.2 0.4c14.8 0.4 22.4-0.8 20.8-3.2-1.2-2.4-3.6-3.6-5.2-3.2zm11.2 3.2c0 2 2.4 4 5.2 4 2.8 0 11.6 4.4 19.6 10 18.4 12.4 19.2 12.4 19.2-1.6 0-9.6-2-11.6-12.4-14-18.4-3.6-31.6-2.8-31.6 1.6zm108 0c-3.6 2.4-4 4-1.2 4 2.4 0 6-2 7.2-4 3.2-4.8 1.6-4.8-6 0zm-214.8 6.8c-4.4-2.8-16 4-12.4 7.2 1.6 1.6 5.6 1.2 9.6-1.2 3.6-2 4.8-4.8 2.8-6zm34.8 10.4c-8 0.4-8 0.8 0.8 7.6 10 7.6 16.8 8.4 29.2 3.6 7.6-3.2 7.6-3.2-0.8-7.6-10.8-6-14.4-6-11.2-0.8 1.2 2-1.2 4-6 4-4.8 0-7.6-1.6-6-3.6 1.2-2.4-1.6-3.6-6-3.2zm288 10.8c-3.2 0-8.8 2-12 4-5.2 3.6-5.2 4 0 4 3.2 0 8.8-2 12-4 5.2-3.6 5.2-4 0-4zm-104 15.2c-1.2-0.8-9.6 0.4-19.2 2.4-13.6 3.2-16.8 5.6-16 12 2 12 8 11.6 23.2-1.2 7.6-6.4 13.2-12.4 12-13.2zm10.4 3.6c-1.6 4-11.6 13.2-22.4 20.4-15.2 9.6-20 15.2-20 22.8 0 10 0.4 10 12 4 6.4-3.2 13.6-6 16-6 2.4 0 12-3.6 20.8-8 9.2-4.4 20.4-8 24.8-8 4.8 0 11.2-2 14.4-4.4 4.8-3.6 4-4-3.2-2.4-7.2 1.6-10 0-13.2-7.6-2-5.6-5.2-9.2-7.2-8-2 1.2-4.4-0.4-6-3.6-2.8-8.4-13.2-7.6-16 0.8zm95.6-4.4c-3.2-1.2-6-0.4-6 1.2 0 2 2.8 4.4 6 6 3.2 1.2 6 0.4 6-1.2 0-2-2.8-4.4-6-6zm14 1.6c-3.6 2.4-4 4-1.2 4 2.4 0 6-2 7.2-4 3.2-4.8 1.6-4.8-6 0zm-354.4 102.4c-3.2-1.2-4.8-0.8-3.6 1.6 1.2 2.4-1.2 4-5.6 4-4.8 0-8.4 2-8.4 4.4 0 2.8 3.6 3.6 9.2 2 4.8-1.2 10-2.4 12-2.4 1.6 0 2.8-1.6 2.8-3.6 0-2-2.8-4.8-6.4-6zm50.4 1.6c0 2 4 4 9.2 4 7.2 0 7.6-0.8 2.8-4-7.6-5.2-12-5.2-12 0zm78.8-3.6c-8 2.8-10.8 4.8-10.8 8 0 6 6.8 4 9.6-2.4 1.2-3.2 1.6-6 1.2-5.6zm21.2 0.8c-17.2-0.8-17.6-0.8-6 3.6 6.4 2.4 14.8 8.4 18.8 12.8 7.2 8.4 7.2 8.4 6.4-3.6-1.2-11.2-2.4-12-19.2-12.8zm-108.4 25.6c-5.2 6.4-4.8 6.8 1.6 1.6 3.6-2.8 6.8-6 6.8-6.8 0-3.2-3.2-1.2-8.4 5.2zm92.4 0c-5.2 6-4.8 6.4 1.2 4 3.6-1.2 7.6-0.8 8.8 1.2 1.6 2.4-0.4 4-4 4-4.8 0-5.6 1.6-2 7.6 5.2 10 5.2 17.6 0 14.4-2-1.2-4-1.6-4 0 0 2.4 24.8 18 29.2 18 1.6 0 2.8-10.4 2.8-23.2 0-21.2-0.8-24-10-28-13.2-6-14.8-6-22 2zm-51.6-2.8c-2 0-5.6 3.2-8 6.8-2 4-7.2 7.2-11.2 7.2-12.8 0-31.2 18.8-30 29.6 0.8 5.2-0.4 10.8-3.2 12.4-3.2 2-2.4 4.4 2 8 5.2 4.4 5.6 4 3.6-1.6-2-4.8-0.8-6 4.4-4 6 2.4 6 1.6 1.6-5.6-4.4-7.2-4-9.6 2.4-16.8 4-4.4 10-7.2 12.8-6.4 2.8 1.2 5.2 0.8 5.2-1.2 0-2 3.6-4.4 8.4-5.6 4.8-1.2 7.2-4 6-6.4-1.2-2 0.4-6.8 4-10 3.2-3.6 4.4-6.4 2-6.4zm-60.4 6c-2-1.2-4 1.2-4 5.6 0 4.8 2 8.4 4 8.4 2.4 0 4-2.4 4-5.6 0-3.2-1.6-7.2-4-8.4zm-25.6 12.4c-2 4.8-0.8 6 4 4 3.2-1.2 7.2-2.4 8-2.4 1.2 0 0.8-2-0.4-4-3.6-6-8.8-4.8-11.6 2.4zm19.6 24.4c-2 5.2-3.6 5.6-4.8 2-1.6-4-3.2-4-7.6-0.4-7.6 6.4-7.2 10.4 1.6 9.6 12-1.6 20.8-6.8 20.8-12.4 0-8-6.4-6.8-10 1.2zm63.6-2.8c-3.2 0-9.2 15.2-6.8 17.6 5.2 4.8 8.4 2 8.4-7.6 0-5.6-0.8-10-1.6-10zm36.4 14c10.4 8.8 42 26 48 26 1.2 0 2-4.4 2-9.2 0-8-3.6-10.4-24.8-16.8-37.2-11.2-38.4-11.2-25.2 0zm-26-2c-2 0-4 2-4 4.4 0 2 2 2.8 4 1.6 2.4-1.2 4-3.2 4-4.4 0-0.8-1.6-1.6-4-1.6zm-23.6 16c-2 0-5.2 1.6-6.4 4-1.2 2-0.8 4 1.6 4 2 0 5.2-2 6.4-4 1.2-2.4 0.8-4-1.6-4zm-114-6.4c5.2-0.4 9.6 0.8 9.6 2.8 0 2 2.8 3.6 6 3.6 8.4 0 7.6 7.6-0.8 10.8-16 6-14.8 18.8 1.2 14.8 13.6-3.6 12 0.8-3.2 8-13.6 6.8-33.6 9.2-23.6 2.8 3.2-2 8.4-2.8 12-1.6 5.2 1.6 5.2 1.2-0.4-2.4-4.4-2.8-10-3.2-16.4-0.8-13.6 5.2-22 3.2-28.8-6-4.8-7.2-4.8-8.8 1.2-14 7.2-5.6 16.4-8 30-8 4 0 6.8-2 5.6-4.8-1.2-2.8 2-5.2 7.6-5.2z"/>
	</g>
</svg>