<svg version="1.2" xmlns="http://www.w3.org/2000/svg" viewBox="0 0 556 1244" width="556" height="1244">
	<title>Layer</title>
	<style>
		.s0 { fill: #233031 } 
	</style>
	<g id="Layer">
		<path id="Layer" fill-rule="evenodd" class="s0" d="m275.2 0c3.6 0 14.4 22.8 13.6 28.4-0.4 1.6 2.4 2.4 6.4 2 4.4-0.4 6.4 2 5.6 7.2-0.8 4.4 0.4 6 2.8 4.4 2.4-1.2 4.8 0.8 5.2 4.8 0 4 0.8 8.8 1.2 11.2 0.8 2 1.2 5.6 1.6 7.6 0 2 4 0.4 8.4-3.6 8-7.2 8-6.8 8 7.6 0 10.4-2.8 17.6-10 24.4l-9.6 10h10.8c6.4 0 13.2-2 16-4.8 6.8-6.8 6-3.2-3.6 16.4-10 20.8-6.4 26.8 6.4 10.8 4.8-6 10-9.6 11.2-7.6 2.4 3.6-4.4 26.8-10.8 36.4-4.4 7.2 0 10.8 6.8 5.2 6.8-5.2 18.8-2 18.8 5.2 0 2.8-2.8 8.4-6 12.8-6.4 8.4-8 21.6-2.4 21.6 1.6 0 10-6.4 18-14 20-18.8 34.4-19.2 20.4-0.4-4.4 5.6-4.8 9.2-1.6 13.2 3.6 4 3.2 5.2-2 5.2-4 0-5.6 1.6-4.4 4 2.8 4.4-5.6 22-8.8 18.4-1.2-1.2 0-5.6 2.8-9.2 2.8-4 0.4-2.4-5.2 3.6-5.6 6.4-12.4 11.2-14.8 11.2-2 0-4 1.6-4 3.2 0 5.6 17.6 4.8 24-1.2 7.2-6.4 32-11.6 32-6.8 0 2-3.2 6.8-7.2 11.2-4 4-8.4 10.8-10 14.8-1.6 4.4-4.8 6-7.6 4.4-3.2-2-3.6-0.8-2 3.6 1.6 4.8 0.8 5.6-4 4-4.4-1.6-5.6-0.8-3.6 2 2.4 4-11.2 22-14.4 18.8-0.4-0.8-3.2 1.2-5.6 3.6-3.6 4-1.2 4.8 12 4.4 38-1.6 40.4-2 34.8-5.6-5.6-3.6-4-5.2 9.2-10 6-2 6.8-0.8 5.2 5.2-1.2 4.8 0.4 8.8 4 10 3.2 1.2 4.4 0.4 3.2-1.6-1.2-2.4-0.4-4 1.6-4 8.8 0 4 12-11.2 27.6-10.8 11.2-18 15.6-22.4 14-4.4-2-7.2 0-8.4 5.2-2.4 8.4-16.4 11.2-24.4 4.4-3.6-2.8-5.2-2.8-5.2 0.4 0 5.6 19.2 13.6 24.4 10 2-1.2 3.6-0.4 3.6 2 0 2.4 6.8 3.2 16.4 2 18.4-2.4 47.6-12.8 47.6-17.2 0-1.6 2.8-3.2 6-3.2 8.4 0 7.6 6.8-2.8 17.6-6.8 7.6-7.2 9.2-2.4 9.2 3.6 0 6 2.4 5.6 5.6-1.2 7.6-13.6 19.2-18 16.8-2-1.6-8 2.8-13.2 8.8-5.2 6.4-12 10.4-14.8 9.6-4-1.2-4.8 0.4-3.2 4.8 1.6 3.6 0.4 6.4-2.4 6.4-2.8 0-1.6 2 2.8 4.4 5.6 3.6 8.4 3.2 10.8-0.8 2.4-4 4.4-4.4 6.8-1.2 3.6 5.6 28.8 4.8 28.8-0.8 0-2.4 4-6.4 9.2-8.4 8.8-4 9.2-3.6 8.8 9.6-0.4 14.4-14.8 31.6-22.4 26.8-2-1.2-3.6-0.8-3.2 1.2 1.6 8.8-0.8 12.8-6.4 10.8-3.6-1.6-6 0-6 4 0 3.6 2 6.4 4.4 6.4 2 0 2.8 2 1.2 4.4-2 3.6 0.4 4 8 2 6.4-1.6 10.4-0.8 10.4 1.6 0 2.8 2 3.2 5.2 1.2 2.4-1.6 8-2.4 12-1.6 4 0.4 11.2-2.4 15.6-6.4 7.2-6.4 8.4-6.4 12.4-0.8 2.8 3.6 7.6 5.6 10.8 4.4 5.2-2 5.2-1.2 0 5.6-10.4 13.2-15.2 17.6-19.6 17.6-2.4 0-3.2 2.8-1.6 6.4 2 5.6 0 6.4-14 4.8-12.4-0.8-15.2 0-12.4 3.6 6.4 7.2-14.4 20-22 13.6-3.6-3.2-6.4-3.2-8-0.8-1.6 2.4-5.2 3.2-8 2-3.2-1.2-6.8 0-8.4 2.4-1.6 2.8 0.8 5.6 5.6 6.8 4.8 1.2 8.4 4 8.4 6 0 2 2.4 3.2 5.2 2.8 10.4-1.2 14.8 0.8 14.8 6.4 0 3.6-2.8 7.2-6 8.4-3.2 1.6-6 4.8-6 8 0 3.2-2 5.6-4.4 5.6-2.4 0-3.6 2-2.8 4.8 1.6 4.8 26.8 6.4 34.4 2 2.4-1.6 5.2-1.2 6.8 1.2 1.6 2.8 4.8 2.8 10.4 0 5.6-3.2 7.6-2.8 7.6 0.4 0 3.2 1.6 3.2 6-0.4 8.4-6.8 11.6-2.4 6 8-4 8-3.6 8.4 4.8 7.6 5.2-0.8 11.6 0 14.4 2 2.8 1.6 7.6 2 10.8 0.8 3.2-1.2 6.8-0.4 8.4 2 3.2 5.2-21.2 28.8-26.4 25.6-2.4-1.2-4-0.4-4 2.4 0 2.8-2.4 2-5.2-2.4-5.2-6.8-6-6.8-14.4 1.6-7.2 7.2-10 7.6-16.8 4-7.2-3.6-8-3.2-6 3.6 2.4 6.8 1.2 7.6-5.6 6-10-2.8-11.2 8.8-1.2 14.4 6.8 3.6 6.4 4.4-0.4 12-7.2 8-7.2 8 4 4.8 12.8-3.6 38.4-1.2 41.6 4 1.2 2 10.8 0.8 21.6-2.4 16.8-5.2 18.8-5.2 16.8 0-1.2 3.6 0 6 3.6 6 3.2 0 6 1.2 6 3.2 0 4.8-15.6 16.8-22 16.8-3.2 0-10.4 4.4-16.4 10-8 7.6-13.6 9.6-24.4 8-11.2-1.2-13.6-0.4-11.6 4 1.2 3.6-0.4 6-3.6 6-3.2 0-6-1.2-6-3.2 0-1.6-7.6-3.2-16.8-3.2-9.6-0.4-14.8 0.4-12 1.2 2.4 1.2 4.8 5.2 4.8 9.6 0 6.4 2.8 7.6 18 7.6 13.2 0 18 1.6 18 6 0 3.2 3.6 6 7.6 6 4.4 0 9.2 1.6 10.4 4 1.2 2 0.4 4-2 4-2.4 0-3.6 1.6-2 4 1.2 2 5.2 2.4 8.4 1.2 5.2-2 6-0.4 4 6-3.6 10.4 5.6 15.2 26.8 14.8 16.4 0 18.4 4.4 7.6 17.6-4.4 5.6-11.6 9.2-20 9.2-9.6 0.4-12.4 2-12 6.8 1.6 8.8-14.8 10.8-26.4 3.2-9.2-6.4-38.4-7.6-38.4-2 0 1.6 2.8 3.2 6.4 3.2 4 0 5.6 2.4 4.4 5.6-1.6 4.4 0.4 5.6 8.4 5.2 9.6-0.8 10.8 0.4 10 10-0.8 10.4 2.8 13.2 12.4 11.6 2-0.4 6.4 0.4 9.6 1.6 4.4 1.6 4.8 3.2 1.2 7.6-3.6 4-3.2 6 0.4 7.6 3.2 0.8 5.6 6.8 6.4 12.8 0.4 8.4-0.8 10.4-5.6 8.4-3.2-1.2-5.2-0.8-4 1.2 2.8 4-6.8 8.4-18 8.4-9.6 0-10 6.8-0.4 9.6 3.6 1.2-2.8 1.2-14 0-18.4-2-21.2-1.2-21.2 4.4 0 6 2.8 6.8 18 5.2 10.8-1.2 18-0.4 18 1.6 0 2.4 4.4 3.2 10 2.4 5.6-1.2 11.2-0.8 12 0.8 1.2 1.6 9.2 1.6 18 0 15.6-2.8 16-2.8 13.2 7.2-2 9.2-1.6 9.6 8.4 7.2 5.6-1.2 10.4-1.6 10.4-0.8 0 5.2-18.4 18.4-25.6 18.4-12.4 0 0.8 8 13.6 8h10l-10 8c-5.6 4.4-13.2 7.2-16.8 6.4-4.8-1.2-7.2 0.8-7.2 5.6 0 8.8-9.6 12.8-15.6 6.8-2.4-2.4-4.4-2.8-4.4-1.2 0 2-2.8 1.2-6-1.6-4.8-4-6-4-6 0 0 2.8-2.8 4-6 2.4-3.2-1.2-6 0-6 2 0 2.8-4 2-9.6-2-7.2-4.4-10.4-4.8-11.6-1.2-2 6.8 9.2 17.2 26.4 23.2 20 7.2 19.6 13.6-1.2 12-4 0-4.4 0.4-0.8 2 7.6 3.6 6 17.2-2 16-4-0.8-10 0.4-13.6 2.8-8.8 5.2-26-6.4-29.6-20.4-1.2-5.6-3.6-8.8-5.2-6.4-1.6 2-5.2 3.6-7.6 3.6-2.8 0-5.2 1.2-5.2 2.8 0 2 0 6.8 0 10.8 0 4.4 2.8 10.4 6 13.6 8 8 2.8 11.6-7.2 4.8-6-4.4-9.6-4.8-13.6-1.2-3.2 2.4-5.2 2.8-5.2 0 0-2-4-4.8-8.4-6-6-1.6-8-4.4-6-8.8 1.2-3.6 0.8-5.2-1.6-4-2.4 1.6-6.8-4-10-11.6-3.6-8-7.2-14.4-8.8-14.4-3.2 0 1.6 194.4 5.2 206.8 2.4 9.2 13.6 11.6 83.6 15.6 89.2 5.2 74 8-59.6 11.6-192.8 4.8-389.6-3.2-286.8-11.6 9.6-0.8 18.8-4 20.8-6.8 2-3.2 3.6-4 3.6-2 0 2 2.8 1.2 6-1.6 3.2-2.8 4.8-6.4 3.6-8.4-1.2-2 0.4-3.6 4-3.6 3.6 0 6.8-6 8.4-16 1.6-8.8 4-16 6-16 1.6 0 5.6 8 8.4 18 4 13.6 6.4 16.8 10.4 13.2 3.6-2.8 5.2-2.8 5.2 0.4 0 2.4 2 4.4 4.4 4.4 2 0 2.8-2 1.6-4-1.2-2.4 0.4-4 4.4-4 5.2 0 5.6-1.2 1.6-6-3.6-4.4-4-6-0.4-6 3.2 0 4-3.2 2.4-8-1.6-4.8-0.8-8 2-8 2.4 0 3.2-2 2-4-1.2-2.4-1.2-6.4 0.8-9.2 1.6-2.4 3.2-7.6 3.6-10.8 0-3.2 2.8-12.4 6.4-20l6.4-14 4 10.8c2.4 6 3.6 14.4 2.8 18.8-0.8 4.8 0.4 8.4 2.4 8.4 2.4 0 2.8 3.6 1.6 8-1.2 4.4-0.8 8 0.8 8 2 0 3.2 6.8 2.8 15.2-0.4 11.2 1.6 16.8 6.8 20 10 6.4 10.8 1.6 12-77.2 1.2-90 0.8-96-5.2-91.2-2.8 2.4-9.2 3.6-14 3.2-5.2-0.4-9.2 0.4-9.2 1.6 0 1.6-3.6 4.8-8.4 7.6-10.4 6.8-24 2.8-21.2-6.4 1.2-3.6-0.4-2.8-3.2 2.4-3.2 4.8-6.8 7.6-8.4 6-4.8-4.4-14.4-4.8-17.2-0.8-3.6 6.4-17.6-4-17.6-13.6 0-8.4-0.4-8-9.2 2.8-5.2 6.4-14 12-20.4 12.4-6.4 0.8-13.2 3.2-15.6 5.6-5.6 5.6-12 5.6-8.8 0.4 1.2-2.4 0.8-4-1.6-4-2 0-4.8 2.4-5.6 4.8-1.2 3.2-2.4 2.4-2.4-1.6-0.4-4-2.8-6-5.6-4.8-2.8 0.8-8.8-2-13.2-6.8-7.6-8.8-7.6-8.8 0.8-6 6.4 2 9.2 0.8 10.8-5.6 1.2-5.2 6.8-8.8 14.4-10.4 13.6-2.8 16-9.6 6.4-17.6-9.2-7.6-7.2-16 4-16 7.2 0 10-2 10-8 0-4.4-2-8-4.4-8-2.4 0-3.2-3.6-1.2-8.8 2.4-7.6 1.6-8.4-2.8-4.8-3.2 2.4-8.4 4.4-11.6 4.4-3.6 0-11.2 1.2-17.6 2.8-10.4 2.4-11.2 2.4-6.4-3.6 4-4.8 4-7.6 0.8-10.8-3.6-3.6-4.8-3.6-4.8 0 0 2.8-3.6 4.8-8.4 4.8-5.2 0-7.2-1.6-5.2-5.2 2-3.6 1.6-3.6-2.4 0-4.4 4-6.8 3.2-12.4-5.6-7.2-10.8-7.2-10.8 4.4-16 8.4-3.2 11.2-6.8 9.6-11.2-2.4-5.6 0-6.4 16-4.8 19.2 2 22.4-0.4 12.4-10.8-6.8-6.8-8-14.4-2-14.4 5.2 0 28-20.4 28-24.8 0-2-4.4-5.2-10-7.2-6.4-2.4-9.2-5.6-7.6-10 2-4.4 0.8-5.6-4.4-3.2-6.4 2-6.8 0.8-4.4-9.2l2.8-11.2-8.8 7.6c-7.2 6.8-8.4 6.8-6.4 1.2 1.2-3.6 0-7.6-3.6-8.8-3.2-1.2-5.6-5.2-5.6-8.8 0-4-2-5.6-5.6-4.4-6.4 2.4-16-6.4-11.6-10.4 1.2-1.6 0.4-2.8-2-2.8-2.8 0-4.8-2.8-4.8-6 0-6.8 6.4-8 10-2 2 3.2 4.8 2.8 8.8-0.8 6.4-5.2 8-5.2 15.2 0.8 2.4 1.6 11.2 2 20 0.4 13.6-2.4 16-4 14.8-12-0.8-7.2 0.4-8.4 4-5.2 7.6 5.6 26.4 4.8 28.8-1.6 2-5.2-4.4-7.6-16.4-6-2.8 0.4-5.2-1.2-5.2-4 0-2.4-3.2-3.6-8-2.4-6.4 1.6-7.2 0.8-4-5.2 4.4-8 1.6-12.4-6.4-9.2-3.2 1.2-8.4 0-11.2-2.4-4-3.2-6.4-3.6-8.4-0.8-3.2 5.6-18 3.2-22-3.6-2.8-4.4-4.4-4.4-9.6-0.4-4.8 4-6.8 3.6-11.2-3.2-2.8-4.8-9.2-8.4-14-8.4-5.2 0-9.2-1.6-9.2-3.6 0-4.4 10-8.4 20.8-8.4 6.4 0 7.2-1.2 3.6-5.2-5.2-6.4-2-10.8 8-10.8 4 0 10-2.8 13.2-6.4 3.6-3.2 8.4-4.8 11.2-3.2 3.6 2 3.2 0.8-0.4-3.6-3.2-4-4.4-8.4-2.8-9.6 1.6-1.6 4.4-0.4 6.4 2.8 3.2 5.2 4 4.8 4-1.2 0-4.8 1.6-6.4 5.2-4 2.4 1.6 6.8 3.2 8.8 3.2 10 0.8 26 7.2 26 10.4 0 5.6 10.8 4 13.2-1.6 1.2-3.6 6.8-5.2 15.6-4 7.2 0.4 10.8 0 8.4-1.2-2.8-1.2-5.2-4.8-5.2-8 0-4-2.4-4.4-9.6-1.6-8.4 3.2-9.2 2.4-8-5.2 0.8-4.8 0.8-6.4-0.8-4-3.6 8-12 6-16-3.2-2.8-6.4-8.4-8.8-21.6-9.6-10.4-0.8-19.6-4-22.4-8-2.4-3.6-6.4-6-8-5.2-2 0.4-8-0.8-13.2-2.4-7.2-2.4-8.4-4-4-6.8 8-4.8 12.4-4.4 9.2 1.2-1.6 2.8-1.2 3.2 2 1.6 3.6-2.4 3.6-4.4 0-8.8-2.4-3.2-4-6-3.2-6 5.2-2 43.6-2 43.6 0 0 6.4 23.6 3.2 31.6-4 11.6-10.8 10.8-17.2-1.6-14-7.2 2-10 0.8-10-3.2 0-3.2 2.4-6.8 5.2-7.6 3.6-1.6 3.2-3.2-1.2-6.4-4-2.8-7.2-2.4-10.8 0.4-3.6 2.8-5.2 2.8-5.2-0.4 0-2.8-1.6-4-3.6-2.4-2 1.2-4.8 0.4-6.4-2-1.2-2-6.8-4-12.4-4-6.8 0-9.6-2.4-9.6-7.2 0-4-4.4-11.6-10-16.8-12.8-12-12.8-16.8 0.4-12 5.6 2.4 9.2 2.4 8 0.4-4-6 8-8 18-2.8 7.6 4 11.2 4 18.4-0.8 7.6-4.8 10.8-4.4 23.2 1.6 10 4.4 15.6 5.6 18.4 2.8 6-6-4-21.2-14.4-22-4.4 0-10.4-0.8-12.8-0.8-2.8-0.4-8.8-3.6-13.2-7.6-4.4-3.6-10-6.8-12-6.8-5.2 0-5.2-5.2 0.4-10.8 3.2-3.2 0.8-7.6-8-16.4-13.6-12.8-15.6-18-6.4-14.4 4.4 2 5.2-0.4 4-10-0.8-8.8 0.4-12.4 4.4-12.4 3.2 0 5.6 2.8 5.6 6 0 3.6 2.4 4.8 6 3.6 3.2-1.6 6-0.4 6 2 0 2.4 3.6 4.4 8 4.4 6 0 8 2.8 8 10 0 5.6 1.6 10 3.6 10 6 0 8-10.8 3.2-15.6-3.2-3.2-3.2-4.4 0.8-4.4 3.6 0 4-1.6 1.6-5.2-2-2.4-4-10-4.8-16-0.8-10.4-0.4-10.8 10.4-8.4 6 1.6 14.4 2.8 18.4 2.4 3.6 0 6.8 1.6 6.8 3.6 0 2.4 2.4 2.8 5.2 0.8 2.4-1.6 8-2.4 12-2 7.2 1.2 8.4-2.4 4.4-12.4-1.2-4-5.6-5.6-12-4.4-6 1.2-9.6 0-9.6-3.2 0-3.6-1.2-3.6-4 0.8-2.8 4.8-4.4 4-7.6-4-2-5.6-4-7.6-4-4.8-0.4 2.8-2 4.4-4.4 2.8-2-1.2-2.8-4.8-1.2-8 1.6-4.4 0.4-5.2-4.8-3.6-4.4 2-6.4 0.8-6-2.8 1.6-9.6 0-17.2-2.4-14.4-5.2 5.2-18-5.6-16.8-14.4 1.6-10.4 15.2-14.8 15.2-4.8 0 4 2.4 6 5.2 4.8 5.6-2 37.6 5.2 46.4 10.8 6 4 12.4-3.6 12-13.6-0.4-4.4-1.2-4-2.4 0.8-2.4 10-6 8.8-14.8-4.4-4.8-7.2-10-10.8-14-9.2-3.2 1.2-4.8 0.4-3.2-1.6 2.4-4-14.8-25.6-20.4-25.6-1.6 0-5.2-3.6-7.6-7.6-4.4-6.8-4-7.6 3.6-6.4 7.6 1.6 8 0.4 6-14-1.2-8.8-0.8-16 0.8-16 4.8 0 20.4 16 20.4 20.4 0 2.4 2.8 3.6 6 2.4 3.2-1.6 8.8 1.6 13.2 7.2 7.6 9.2 18 10.8 29.2 3.6 2.4-1.2 6 0 8 2.8 1.6 2.8 4 4.4 5.2 3.2 2.4-2.4-44-51.6-48.8-51.6-1.6 0-5.2-3.6-8-8-7.6-12.4 5.2-10.4 17.6 2.8 10 10.8 16.4 10.4 12.4-0.8-1.6-3.2-2.8-7.6-3.2-9.2-0.4-1.6-4.8-8-10-14-14.8-17.6-12.4-25.6 3.2-10.8 10 9.2 18.4 10.8 11.2 2-2.8-3.2-4-8.4-2.8-11.6 1.2-3.2 0.8-6.4-1.2-7.2-3.6-1.2-5.2-9.2-4.4-21.2 0.4-7.2 0.8-7.6 4.8-1.2 2 4 6.8 7.2 9.6 7.2 3.2 0 6 1.6 6 3.2 0 2 4.4 5.6 10 8 13.6 6.4 13.6-3.6 0-18.4-10.8-11.6-20-32.8-14-32.8 2 0 4.8 2 6.4 4.4 1.6 3.2 3.6 3.2 6.8 0 5.6-5.6 16-5.6 12.4 0-1.2 2.4 0 6 2.8 8 7.6 4.8 11.6 4.4 11.6-0.8 0-2-1.6-2.8-4-1.6-2 1.2-4 0.4-4-2.4 0-2.4-5.2-10.8-12-18.4-6.4-7.2-12-16.4-12-19.6 0-5.2 1.6-5.2 12 0.8 13.6 8.4 20 5.2 10-5.2-4.4-4.4-5.6-7.2-2.4-8.4 2.4-0.8 4.4-4.4 4.4-7.6 0-5.2 1.2-5.2 6-1.2 10 8 11.2 2 2.4-12.8-4.4-8-6.4-16-4.4-19.2 2-3.2 3.6-3.6 5.6-0.4 4 6.4 10.4 5.6 10.4-1.6 0-3.2 2-6 4-6q4.2 0 0-8.4c-6.4-11.6-2.8-13.6 10.8-5.2 6.4 4 9.2 4.8 6.4 1.6-2.8-3.2-5.2-10.8-5.2-17.6 0-10.8 0.4-11.2 7.2-5.2 6.8 6.4 7.2 6 5.6-7.2-0.8-8 0-14 2.4-14zm16.4 58c-2.8-2.8-7.6 2-7.6 7.6 0 2.4 2 2 4.8-0.8 2.4-2.4 3.6-5.6 2.8-6.8zm-47.6 49.6c0 4.8 11.6 14 14.4 11.2 1.6-1.2-0.4-5.2-3.6-8.8-6.8-6.8-10.8-7.6-10.8-2.4zm87.2 92.4c-0.8-3.2-4.8-2-11.2 3.2-5.6 4-14 7.2-18.8 6.8-4.8-0.4-7.6 1.2-6.8 4 2.4 6 18.4 4.4 29.2-2.8 5.2-3.6 8.4-8.8 7.6-11.2zm-115.2 30c-2-1.2-4-0.8-4 1.6 0 2 2 5.2 4 6.4 2.4 1.2 4 0.8 4-1.6 0-2-1.6-5.2-4-6.4zm16 8.8c-2.4-6.4-3.6-6.8-3.6-2-0.4 3.6 1.6 8 3.6 9.2 2.4 1.2 4 4.4 4 6.8 0 2.8-2 2.4-5.6-0.4-4.4-4-5.6-3.6-4.8 1.2 1.6 10.4 4.8 10.8 12.4 2.4 4.4-4.8 5.2-8 2.4-8-2.4 0-6.4-4-8.4-9.2zm-28 85.2c0-2.2-2.7-4-6-4-3.3 0-6 1.8-6 4 0 2.2 2.7 4 6 4 3.3 0 6-1.8 6-4zm189.6 80c-3.2 0-1.6 15.6 2 17.6 1.6 1.2 2.4-2.4 1.2-7.6-0.8-5.6-2.4-10-3.2-10zm-31.6 16c-1.2 2 0.4 4 3.6 4 3.6 0 6.4 1.6 6.4 4 0 2 2.8 2.8 6 1.6 3.2-1.6 6-4.8 6-8 0-6.4-18.4-7.6-22-1.6zm20.4 108c0-2.2-2-4-4.4-4-2.4 0-4.4 1.8-4.4 4 0 2.2 2 4 4.4 4 2.4 0 4.4-1.8 4.4-4zm14-0.4c-3.6 2.4-4 4.4-0.8 6 5.2 3.2 12.4-0.4 12.4-6 0-4.4-4.4-4.4-11.6 0zm29.6 96.4c-1.6 2.4 2.4 6 8 8 12.8 4.8 14 4.8 14 0.8 0-5.6-19.2-13.2-22-8.8zm-326 282.8c-6.8 4.8-10 5.2-11.2 2-1.6-5.6-8.8-2.4-8.8 3.6 0 2.4 2 2.8 4 1.6 2.4-1.2 4-0.8 4 1.2 0 5.6 19.2-3.6 22-10.4 2.4-6.4 1.6-6-10 2zm406.4 53.2c0-2.2-2-4-4.4-4-2.4 0-4.4 1.8-4.4 4 0 2.2 2 4 4.4 4 2.4 0 4.4-1.8 4.4-4zm-372.4 18c-2 0.8-9.2 2.4-15.2 3.6-6.4 1.6-10 4.4-8.4 6.8 1.2 2.4 5.2 2.8 9.2 1.6 3.6-1.6 11.6-3.6 18-4.4 6.4-0.8 12.8-2.4 13.6-3.6 1.2-1.2 5.6 1.2 10 4.8 7.6 6.8 8 6.8 3.2-2-4.4-8-17.6-11.2-30.4-6.8zm146.8 0c-6.8-0.4-7.6 0.8-4.4 6.4 4 7.6 17.2 6 14.4-1.6-0.8-2.4-5.2-4.4-10-4.8zm-56.4 11.2c-3.6-6.4-4-5.6-4.4 4.4 0 8.8 1.2 10.8 4.4 7.6 3.2-3.2 3.2-6.4 0-12zm12 2.4q-4.8 3.6-1.2 6c2.4 1.2 5.6 0.4 6.8-2 3.6-5.6 0.8-8-5.6-4zm40.4 13.2l-8.8-14.8 0.8 106.8c1.2 114.4 1.6 116 22 117.2 6 0.4 18.4 2 27.6 3.6l16.4 3.2 2.4-45.2c3.6-60.4 2.8-163.2-1.2-175.6l-3.2-10-0.4 10.8c-0.4 8-2 10.4-6.4 8.8-3.2-1.6-6-0.4-6 2 0 2.4-3.6 4.4-7.6 4.4-4.4 0-9.2 1.6-10.4 4-1.2 2-4.4 4-6.4 4-2.4 0-2.8-1.6-1.6-4 1.2-2 0-3.2-2.8-2-2.8 1.2-9.2-4.4-14.4-13.2z"/>
	</g>
</svg>