<svg version="1.2" xmlns="http://www.w3.org/2000/svg" viewBox="0 0 560 1084" width="560" height="1084">
	<title>Layer</title>
	<style>
		.s0 { fill: #233031 } 
	</style>
	<g id="Layer">
		<path id="Layer" fill-rule="evenodd" class="s0" d="m290.4 6.4c-2 4.8-0.8 6 4 4 4.8-2 6-0.8 4 4-1.6 4.4-0.8 6 3.2 4.4 3.2-1.2 5.2 0.4 4.8 4.4-0.4 4.4 2 6.4 6.8 5.6 3.6-0.8 6.8 0.8 6.8 3.6 0 2.4-3.2 7.2-6.8 10.4-6.8 5.2-6.4 5.6 2 3.6 7.2-1.2 8.8-0.4 7.2 4-1.2 3.2-0.4 5.6 2 5.6 2.4 0 2.8 2 1.2 4.4-2 3.6 0.4 4 8 2 6.8-1.6 10-1.2 8.8 1.2-1.2 2 0.4 4.4 3.6 6 3.2 1.2 6 0.8 6-1.2 0-1.6 2.8-3.2 5.6-3.2 4.8 0 4.4 2.8-2 11.6-4.4 6-6.8 12.8-5.6 15.2 1.2 2-0.4 4-3.6 4-3.2 0-6.8 1.6-8 3.2-2 3.6 7.6 5.2 30.8 6 8 0 14.8 2 14.8 4.4 0 2.4 1.6 2 3.6-1.2 2-2.8 5.6-4.8 8.4-3.6 9.2 2.8-14 21.6-33.6 27.6-10 2.8-18.4 6.8-18.4 8.8 0 2 2.8 2.8 6 1.6 3.2-1.6 6.8-0.8 8.4 1.6 1.2 2.4 4.8 3.2 8 2 3.2-1.2 5.6-0.8 5.6 0.8 0 2 8 2.8 18 2.4 10-0.4 18 0 18 1.2 0 4.4-27.6 32.4-29.6 30.4-1.2-1.2-4.8 0.8-8.4 4.4-6 6-5.6 6.4 3.6 6.4 5.6 0 10.4 2 10.4 4.4 0 2.4 2.8 3.2 6.4 2 4.4-1.6 6-0.8 4.4 3.2-2 4.8-0.4 5.2 7.6 2.4 13.6-5.2 18.8-4.8 15.2 0.8-1.6 2.8 0.8 1.6 5.6-2.4 9.6-8.4 11.2-6.4 4.8 5.6-5.6 10.8-37.6 32-48 32-13.6 0-5.6 6.8 8.8 7.2 7.2 0 13.6 2 14.4 4.4 0.8 2 4 2.8 7.2 1.6 3.2-1.2 5.6 0 5.6 2.8 0 3.6 1.6 3.6 5.2 0.8 2.8-2.4 8.8-3.6 12.8-3.2 4.4 0.8 10.4-0.4 13.2-2.8 3.2-2.4 4.8-2.4 4.8 0.4 0 2-5.6 8-12.4 13.2-6.8 5.2-14.8 11.6-17.6 14.4-2.8 2.8-9.6 6-15.6 7.6-12 2.8-14 9.6-3.2 9.6 4 0 9.6 2.4 12 4.8 4 4 6 4 8.4-0.4 2.4-3.2 5.6-4 8.8-2 6.8 4 19.6 5.2 19.6 1.6 0-1.2 3.6-2.4 8-2.8 4.4-0.4 8 1.2 8 3.2 0 2.4 2 2.8 4 1.6 2.4-1.2 4-0.8 4 0.8 0 5.2-24 25.2-30.4 25.2-2.8 0-9.6 2-14.8 4.4-8.4 4-9.2 5.6-5.2 14 3.6 7.6 7.2 9.6 16.4 8.8 6.8-0.4 14.4-2.8 17.6-4.8 4-3.2 6-2.8 7.6 1.2 1.6 4.4 2.4 4.4 5.6 0 2.4-4 2.8-2.4 0.8 4.4-3.6 13.6-14 24.8-20.4 22.4-2.8-1.2-5.2-0.4-5.2 1.2 0 2-4.8 5.6-10.8 7.6-6.4 2.4-8.8 4.4-6 4.4 2.8 0.4 4 2 2.8 4.4-1.2 2-0.8 4 1.6 4 2 0 5.2 3.6 6.4 8 1.6 4.4 4.4 7.2 6.4 5.6 2.4-1.2 6.4-0.4 9.2 2 2.8 2.4 14 4.8 24.4 5.2 18 0.8 18.4 1.2 10.4 7.6-4.8 4-8.4 8.8-8.4 11.2 0 2.4-3.2 4.4-7.2 4.4-4 0-10.8 2.4-15.2 5.6-5.6 4.4-8.8 4.8-13.2 1.2-4.4-4-5.2-3.2-2.8 5.2l2.8 10-5.6-9.6c-5.2-8.8-5.6-9.2-7.6-1.2-1.6 4.8 0.8 10.4 5.2 14.4 4.4 3.6 7.6 9.2 7.6 12.4 0 3.6 1.6 5.6 3.6 4 6.4-3.6 40.4 7.2 40.4 13.2 0 3.2 2.4 4.8 6 3.2 4-1.2 6 0.4 6 4.4 0 5.2 1.2 5.6 4.8 2 7.6-7.6 12-5.6 7.2 3.6-4.8 8.8-37.2 25.2-48.8 24.8-4 0-7.2 1.2-7.2 3.2 0 4.8 23.6 15.2 26.4 11.2 2-3.6 25.6-5.2 25.6-2 0 8-8 17.2-23.2 26.8-10.8 6.8-15.6 11.6-11.2 11.6 3.6 0 13.2 4.8 20.8 10.4 7.6 6 16.4 9.6 19.6 8 7.6-2.8 22 5.6 22 12.8 0 2.8 2.4 4.8 5.2 4.4 14.4-1.6 16 0.8 6.8 9.2-11.6 11.2-43.2 19.2-56 14.4-6.8-2.4-8.4-2-6.8 2.4 3.2 8-5.2 14.4-19.2 14.4-10 0.4-10.8 0.8-5.2 4.4 4 2 12.4 8.8 19.2 15.2 8.8 8 15.2 10.8 22.4 9.2 5.6-0.8 9.6 0 9.6 3.2 0 2.8 3.2 3.6 7.6 2 4.4-1.2 8.8-0.4 10 1.6 1.6 2.4 5.6 3.2 9.6 2 5.6-2 5.2-0.8-1.2 5.2-4.8 4-9.6 10.4-11.2 14.4-3.6 9.2-14.4 13.2-22.4 8-4.4-2.8-8.4-2.8-13.6 0.4-5.6 3.2-8 3.2-10.8-1.6-3.2-5.2-4-4.8-4 1.2 0 4-1.2 6.4-2.8 5.6-2-1.2-6.8-0.4-11.2 1.6-6.8 2.4-6.8 3.2-0.8 3.2 3.6 0.4 6.8 2.8 6.8 6 0 3.2 6.4 9.2 14 14 7.6 4.4 14 10 14 12.4 0 2.4 1.6 3.6 3.6 2 2-1.2 4.8-0.4 6 1.6 2.4 4 22.8 3.2 29.6-1.2 6.8-4 6 0.4-2 14-4.4 7.6-12.4 13.6-22 16.4-14 4-14.8 5.2-14 19.6 0.4 13.6 2 15.6 9.6 15.6 5.2 0 9.2 2.4 9.6 4.8 0 3.6 0.8 3.6 2 0.8 2-4.8 17.6-2.8 17.6 2.4 0 4.4-12.4 14.4-27.2 21.6-16 8.4-13.2 14.4 6.4 14.4h14.8l-11.2 10.4c-9.6 8.8-14 10.4-28 8.4-12.4-1.6-17.6-0.8-21.2 4.4-4 5.6-5.6 5.6-11.6 0.8-3.6-3.2-8.4-9.2-10-14-3.2-7.6-3.6-7.6-3.6-0.4-0.4 7.6-0.8 7.6-5.6 0.8-2.8-3.6-6.8-6.8-8.8-6.4-8 1.6-28-0.8-22.8-2.8 6.8-2.8 6-9.2-1.2-9.2-3.2 0-6 3.2-6 7.6 0 4-3.6 8.4-8 9.6-4.4 1.2-8 0.4-8-1.6 0-2 2.4-3.6 5.6-3.6 2.8 0 6.4-5.6 8-12.8 2.8-13.6 0-20.4-4-10-2 5.6-4 4.4-11.2-6.4-4.8-6.8-12.4-12.8-16.4-12.8-4.4-0.4-10.4-1.6-13.2-3.6-8-4.8-10.8 0.4-4.4 8.4 3.6 4.8 1.6 4-6-2-6-4.8-12.8-7.6-14.8-6.4-2 1.2-3.6 17.6-3.6 36.8 0 19.2-2 37.6-4 40.8-2.8 4-3.2-5.6-1.6-30.4 2.8-37.6 0.4-57.6-6.4-57.6-5.2 0-5.2 100 0 108 3.2 4.8 4 4.8 6-1.2 2.4-5.2 4.4-5.6 10.4-2.4 4.4 2 10 2.8 12.4 0.8 2.8-1.6 16.4-2.4 30-2 14 0.8 25.2-0.4 24.8-2-1.2-7.2 0.8-13.2 4-13.2 2 0 2.8 3.6 1.6 8-2 7.6-0.8 8 27.2 6 49.2-3.6 25.6 1.6-36.4 7.6-32 3.2-63.2 7.6-69.6 10l-11.6 4.8 2.8 33.2c3.2 42.4 4.8 47.6 14.4 42.4 5.2-2.8 9.2-2.4 12.8 1.2 2.8 2.8 8.4 6.4 12.4 8 3.6 1.2 6.8 5.6 6.8 8.8 0 4.8 3.2 6.4 11.2 5.6 10.4-0.8 20.4 1.6 32.8 8 3.2 2 10 2.4 15.2 2 4.8-0.8 8.8 0 8.8 2 0 2 10.8 4.4 24 6 13.2 1.6 24.8 4.4 26 6.4 3.2 5.2-438 5.2-445.6 0.4-4-2.4 0-3.6 12.8-3.6 10 0 20.8-1.6 23.6-3.6 2.8-1.6 19.2-2.4 36.4-2 16.8 0.8 30.8-0.4 30.8-2.4 0-3.2 12-4.4 49.6-4.4 6 0 14-2.4 16.8-4.8 3.2-2.4 5.6-3.2 5.6-2 0 1.6 4-1.2 8.8-5.6 12.8-12 30.4-20 38-17.2 10.4 4 13.2-7.2 13.2-54 0-40.4-1.2-47.2-9.6-62-5.2-9.2-10.8-23.6-12-32-3.2-16.8-10-16.4-10.8 0.4-0.8 10-0.8 10.4-2.4 1.2-1.6-8.4-3.6-9.2-17.6-7.2-18.4 2.4-19.2 0-4.4-13.6 7.2-6 12.8-15.6 14.4-25.2 2.8-14.4 2.4-14.8-6.4-12.4-12 3.6-14.4 6.8-8 8.8 2.4 1.2 4.8 3.6 4.8 5.6 0 2.4-1.6 2.8-4 1.6-2-1.2-4-0.4-4 2 0 2.4-1.6 3.2-4 2-2-1.2-4.4 1.6-4.4 6.8-0.4 7.6-1.2 7.2-3.6-2.8-1.6-6.8-3.2-9.6-3.6-7.2 0 2.8-3.2 5.2-6.4 5.2-3.2 0-6 2-6 4.4 0 2.4-3.2 3.2-7.6 1.6-6.4-2-7.2-0.8-5.6 5.6 1.2 5.6 0 9.2-4.4 10.8-3.6 1.2-6.4 4.8-6.4 8 0 3.2-1.6 5.6-4 5.6-2 0-4-2-4-4 0-2.4-4.4-1.2-10 2.4-7.2 4.8-11.6 5.2-15.2 2.4-3.6-3.2-4.8-1.6-5.2 6-0.8 12.8-3.2 14.8-13.2 9.2-6-3.2-8.4-3.2-8.4 0 0 2.4-1.6 3.6-3.6 2.4-2-1.6-4.4 0-5.6 2.4-1.2 4-2.8 4-8 0-3.2-2.8-9.2-4.8-12.4-4-3.6 0.8-11.6-2.4-18.4-6.8-12.4-8.4-16.4-16.4-6-12.8 11.2 4.4 10-4.8-1.2-10.8-6.4-3.2-13.6-8.8-16.4-12-4.8-5.6-3.6-6.4 9.6-6.4 11.2 0 15.2-2 16.8-8 2-8 13.2-11.6 13.2-4 0 5.2 17.2-1.6 19.2-7.2 0.8-2.8-2-4.8-6.4-4.8-4.8 0-9.2-3.6-10.8-8-1.6-4.4-4.4-7.2-6.4-6-2 1.6-3.6 0.4-3.6-1.6 0-2.4-2-4.4-4.4-4.4-5.6 0-19.2-16.4-19.6-23.2 0-2.4 2-4.8 4-4.8 2.4 0 4 2 4 4.4 0 4 6 3.6 26-2.4 24.8-7.2 29.2-13.6 22-32-3.6-9.2-5.2-10-10-6-4.8 4-6 3.6-6-2.4 0-4.4-1.6-6-3.2-3.6-4 6-11.2 6.4-22.8 2-6-2.4-9.2-6-8-8 1.6-2.4 1.2-4-0.8-3.6-7.6 1.2-10.8-0.8-5.6-4 4.4-2.8 3.6-4.4-3.2-8-12-6.8-10.4-11.6 3.6-10.4 6.8 0.4 12-0.4 12-2.4 0-2 2.8-2.4 6-1.2 3.2 1.6 6 0.4 6-2.4 0-2.8 2.8-4 6-2.4 3.2 1.2 6 0.4 6-2 0-2.4 2.8-3.6 6-2 3.2 1.2 7.2 0 8.8-2.8 2-2.8 7.6-4.8 13.2-4.8 8 0 9.6-1.6 8.8-8.8-0.8-6.8 0.4-8.4 4.4-6.8 3.2 1.2 7.2 0.4 8.8-2 1.2-2.4 6-4.4 10.4-4.4 4.4 0 10.8-2.8 14-6 5.2-5.2 4.8-6.4-2.4-10.8-4.4-2.8-8-8.8-8-13.2 0-7.2-0.8-7.2-8 2-8 9.6-8.4 10-14 2.4-3.2-4.4-7.2-6.4-8.8-4.8-1.6 1.6-0.4 4.4 2.8 6.4 4.4 2.8 4.8 4.8 1.2 8.4-3.6 3.6-6.8 2.4-14.4-5.2-7.2-7.2-11.6-8.8-16.4-6.4-6.4 3.6-26.4-6.4-26.4-12.8 0-2-3.6-2.4-8-1.2-4.8 1.2-8 0-8-2.4 0-2.8-1.6-4-3.6-2.4-2 1.2-10.8-4.4-19.2-12-10.4-9.6-13.2-14-8.4-14 3.6 0 7.2-2.4 8.4-5.2 1.2-3.6 3.6-3.6 10.4 0.4 4.4 2.8 8.4 3.2 8.4 1.2 0-6 13.2-8.8 16.8-3.6 2.4 4 3.2 4 3.2-0.4 0-3.2 2.4-4.4 6.8-2.8 3.6 1.6 7.6 0.8 9.2-1.6 2.4-4 12.4-6.8 31.2-8.8 11.2-1.2 3.6-7.6-8-7.2-22 1.2-27.2 0.4-27.2-5.6 0-3.2-2.8-6.4-6-8-3.2-1.2-6-5.2-6-8.8 0-5.2-1.2-5.6-6-1.6-6 5.2-8 2-6.4-10.8 0.4-3.2-2-4-5.6-2.8-4.4 2-5.6 0.8-3.2-4.8 2-5.2 1.2-6-2.8-3.6-3.6 2-4.4 1.6-2.4-1.6 2-2.8 7.6-4 13.6-2.8 26.8 5.6 52.8 6.8 52.8 2.4 0-2.8 7.6-4.4 21.2-3.6 21.2 0.8 38.8-6 38.8-15.2 0-3.2-3.6-1.6-8.8 3.6-8 8-8.8 8.4-11.2 1.2-2-5.2-3.6-6-5.6-2.8-6 10-51.2-8-58.8-23.2-7.2-14-8.8-19.2-4-12 2.4 3.2 4.4 4 4.4 2 0-5.6 23.2-6.8 26.4-1.6 1.6 3.2 3.6 2.8 6-0.8 3.6-6 14-8 44.8-8.8 15.2 0 18.8-1.6 18-6.4-0.8-4-4.8-6-10.4-5.2-4.8 0.8-8.8-0.8-8.8-3.2 0-2.4-1.6-3.2-4-2-2 1.2-6.4-3.6-9.6-10.8-4.8-10.8-6-11.6-6-4.4-0.4 4.8-2.4 10-5.2 11.6-2.8 1.6-3.2 1.2-1.6-1.6 1.6-2.8 0.4-4.8-2.8-4.8-3.2 0-8-2.4-10.4-5.6-2.8-3.2-10.4-7.2-16.8-8.4-11.6-2.8-23.6-15.2-23.6-25.2 0-4 2.4-4.8 7.2-2.8 11.2 4.8 32.4 5.6 35.2 1.6 1.2-2.4 4.4-2.4 6.8-0.4 4.4 2.8 10 3.2 18 0.8 1.6-0.4 7.6-0.4 13.2 0 6.4 0.4 11.6-2 13.2-6 1.2-3.6 4-5.6 6-4.4 2 1.2 4.4 0 5.6-2.8 1.2-3.2-1.2-5.6-5.6-5.6-4-0.4-7.6 0.8-7.6 3.2 0 2-2 3.6-4.4 3.6-2.4 0-3.2-2.8-2-6.4 1.2-3.6 1.2-8.4-0.4-10.8-1.6-2.8-3.6-1.6-4.8 2.4-2.4 6-4.8 5.2-17.2-6-8-7.2-18.8-16.4-23.6-20-4.4-3.6-7.2-8.8-5.6-11.2 2-3.2 4.4-3.2 7.6-0.4 2.8 2.4 6.4 3.2 7.6 1.6 1.6-1.2 2.8-0.4 2.8 2 0 2.8 2 4.8 4.4 4.8 2 0 3.2-1.6 2-3.6-3.6-5.2 12.4-8 17.2-3.2 3.2 3.2 4.4 2.8 4.4-0.8 0-3.2 2.4-4.4 6-2.8 3.6 1.2 6 0 6-4 0-4 2.4-5.6 5.6-4.4 3.2 1.2 6.8-0.4 8-4 1.6-4 0.8-5.6-3.2-4-4 1.6-6.4-0.8-7.2-6.4-0.8-5.2-4-8.8-8-8.8-8 0-36-24-32.4-27.6 1.2-1.2 4.8-0.4 8 2.4 4.4 3.2 4.8 2.8 2.8-2.4-1.2-3.6-0.4-6.4 2-6.4 2.4 0 4.4 2 4.4 4.4 0 2.8 4.4 3.6 12 2 8.8-1.6 11.6-0.8 9.6 2.4q-3 4.2 2.4 1.2c2.8-1.6 11.6-3.2 19.2-3.6 14.8-0.4 23.6-10.4 9.2-10.4-5.2 0-8.4-2.4-8.4-6.8 0-4.8-1.2-5.6-4.4-2.4-3.2 3.2-7.6 0.8-16.4-8.8-6.4-7.6-11.6-15.2-11.2-16.8 0-1.6 9.2-2.8 20.4-2 10.8 0.4 23.2-0.8 27.6-3.2 4.8-2.8 8.4-2.8 10 0 3.2 5.2 10 5.2 10 0.4 0-4.4-22.4-16.4-30.4-16.4-5.6 0-34.8-28.4-32-31.2 1.2-0.8 4-0.4 6.8 1.6 7.6 4.4 28.4 4 30.4-0.8 0.8-2.4 6-3.6 11.6-2.4 6.8 1.2 9.6 0 9.6-4.8 0-3.6-3.2-6.4-8-6.4-4.4 0-8-2-8-4 0-2.4-2-4-4.4-4-4 0-15.6-9.6-15.6-13.2 0-1.2 11.2-1.6 25.2-1.6 13.6 0.4 25.6-0.8 26.8-2.8 1.2-2-1.2-4-5.2-4.8-10.8-1.6-26-12.4-31.2-22-4-8-3.6-8.4 4.8-6 25.6 7.6 37.2 4 27.6-7.6-2.8-3.2-3.6-6-2-6 1.6 0 0.8-2.8-2-6-2.8-3.2-3.6-6-1.6-6.4 18.8-2 25.6-2 25.6 1.2 0 2 2 2.4 4.4 0.8 2.4-1.2 6 0 8 2.8 2.4 4.4 4.4 4.4 8.4 0.4 3.6-3.6 3.6-4.8-0.4-4.8-7.6 0-16-12.4-16.4-23.2 0-8.8 4.8-9.6 27.2-2.4 6.4 2 6-2.8-1.6-13.6-5.6-8-5.6-9.2 0-11.2 3.6-1.2 6.4-4 6.4-6 0-2.4 2.4-6.4 5.2-9.6 6.4-7.6 8-7.6 5.2 0.4zm8 76c-2.4 6.4 3.6 7.6 7.6 1.6 1.2-2.4 6-4 10.4-4 4 0 7.6-1.6 7.6-3.2 0-7.2-22.4-2.4-25.6 5.6zm-22.4-6.4c-2 0-4 2-4 4.4 0 2 2 2.8 4 1.6 2.4-1.2 4-3.2 4-4.4 0-0.8-1.6-1.6-4-1.6zm3.6 18c-2.8-2.8-7.6 2-7.6 7.6 0 2.4 2 2 4.8-0.8 2.4-2.4 3.6-5.6 2.8-6.8zm-44 6c-2 0-3.6 1.6-3.6 4 0 2 2.8 4 6.4 4 3.2 0 4.8-2 3.6-4-1.2-2.4-4-4-6.4-4zm72.4 8c-2 0-4 2-4 4.4 0 2 2 2.8 4 1.6 2.4-1.2 4-3.2 4-4.4 0-0.8-1.6-1.6-4-1.6zm-28 18c-4.8-2.8-7.2 7.2-4 16 2.4 6.8 2.8 6.4 4.8-3.2 1.2-6 0.8-12-0.8-12.8zm28 12c-2-1.2-4 0.4-4 3.6 0 3.6 2 6.4 4 6.4 2.4 0 4-1.6 4-3.6 0-2.4-1.6-5.2-4-6.4zm0 14c-2 0-4 1.6-4 4 0 2 2 4 4 4 2.4 0 4-2 4-4 0-2.4-1.6-4-4-4zm-80.6 20.2c0-2.3-2.4-4.2-5.4-4.2-3 0-5.4 1.9-5.4 4.2 0 2.3 2.4 4.2 5.4 4.2 3 0 5.4-1.9 5.4-4.2zm16.2-0.2c-2 0-2.8 1.6-1.6 4 1.2 2 3.2 4 4.4 4 0.8 0 1.6-2 1.6-4 0-2.4-2-4-4.4-4zm30.4 2.4c-3.6-1.2-6 0-6 3.6 0 3.2 2.8 6 6 6 3.2 0 6-1.6 6-3.6 0-2-2.8-4.4-6-6zm39.6 13.2c-7.6-2.8-8.4-1.6-8.4 13.2 0 15.6 0 16 5.2 6.8 2.8-5.2 5.2-7.2 5.6-4.8 0 2.8 2 5.2 4.4 5.2 2.4 0 3.6-4 2.8-8.4-0.8-4.8-5.2-10-9.6-12zm26.4 0.4c-2 0-4 1.6-4 4 0 2 2 4 4 4 2.4 0 4-2 4-4 0-2.4-1.6-4-4-4zm-112.8 12c-0.8-3.2-3.2-2.8-6.8 1.6-6.4 7.6-2.4 14 4 7.6 2.4-2.4 3.6-6.8 2.8-9.2zm52.8 12c-2 0-4 2.8-4 6.4 0 3.2 2 4.8 4 3.6 2.4-1.2 4-4 4-6.4 0-2-1.6-3.6-4-3.6zm-63.6 16c-2 0-5.2 1.6-6.4 4-1.2 2-0.8 4 1.6 4 2 0 5.2-2 6.4-4 1.2-2.4 0.8-4-1.6-4zm32.8 4c-4.8 0-10 2-11.2 4.4-4.4 6.4-0.8 6.8 10 0.8 9.6-4.8 9.6-5.2 1.2-5.2zm76.4 4c-0.8 0-1.6 1.6-1.6 4 0 2 2 4 4.4 4 2 0 2.8-2 1.6-4-1.2-2.4-3.2-4-4.4-4zm15.6 0.8c-6.8-2-6.4 3.6 1.2 13.2 6 8 6.4 8 4.8-1.6-0.8-5.6-3.6-10.4-6-11.6zm-30.4 16c-6.4-5.6-10.8-2.4-10.8 8 0 4 2.8 7.2 6 7.2 4.8 0 5.6 2.8 3.6 10.4-2 7.6-1.6 10 2 8 2.4-1.6 3.6-4.8 2.4-6.8-1.6-2 0.8-3.6 4.4-3.6 6.4 0 6.4-0.4 0.4-7.2-4-4-6-8.4-4.8-9.6 1.2-1.2-0.4-4-3.2-6.4zm-95.6 2.8c-1.6-4.4-2.4-4.4-4.8 0-3.6 5.2 0 11.2 4 7.2 1.2-1.2 1.6-4.4 0.8-7.2zm215.2 0.4c-1.2 0-3.2 1.6-4.4 4-1.2 2-0.4 4 1.6 4 2.4 0 4.4-2 4.4-4 0-2.4-0.8-4-1.6-4zm-170.4 12c-2 0-4 3.6-4 8.4 0 4.4 2 6.8 4 5.6 2.4-1.2 4-5.2 4-8.4 0-3.2-1.6-5.6-4-5.6zm10 36c-4.4 1.6-9.2 2.4-10.8 1.6-1.2-0.8-1.6 2-0.4 6.4 2.8 10.4 10 10 16.4-0.4 6.4-10 5.2-11.6-5.2-7.6zm77.6 14c0-3.1-2.5-5.6-5.6-5.6-3.1 0-5.6 2.5-5.6 5.6 0 3.1 2.5 5.6 5.6 5.6 3.1 0 5.6-2.5 5.6-5.6zm-166.4 1.6c-2.8-2.8-5.2-2.8-6.8-0.4-2.8 4.8 4.8 10.8 8.4 7.2 1.6-1.6 0.8-4.4-1.6-6.8zm132.4-3.6c-1.2 0-0.8 1.6 0.4 4 1.2 2 0.4 4-1.6 4-2.4 0-4.4 1.6-4.4 3.6 0 2.4 3.6 3.6 7.6 3.2 6.4-0.4 7.2-2 4-7.6-2-4-4.8-7.2-6-7.2zm-37.6 24c-2 0-4 1.6-4 3.6 0 2.4 2 5.2 4 6.4 2.4 1.2 4-0.4 4-3.6 0-3.6-1.6-6.4-4-6.4zm-21.6 6.8c-4.4 4.4-2.4 9.2 3.6 9.2 3.2 0 6-1.6 6-3.6 0-5.2-6.4-8.8-9.6-5.6zm135.6 8.8c-0.8 1.6 0 5.2 1.6 8 2 3.2 4.4 3.6 6 1.2 1.2-2.4 6.4-3.2 11.2-1.6 5.2 1.2 7.6 0.4 6-2-3.2-5.2-22.4-9.2-24.8-5.6zm-32 5.6c-3.2 0-6 2.4-6 5.2 0 2.4 2.8 5.6 6 7.2 4 1.2 6-0.4 6-5.2 0-4-2.8-7.2-6-7.2zm21.6-1.2c-2 0-2.8 1.6-1.6 4 1.2 2 3.2 4 4.4 4 0.8 0 1.6-2 1.6-4 0-2.4-2-4-4.4-4zm-99.6 12c-2 0-4 1.6-4 4 0 2 2 4 4 4 2.4 0 4-2 4-4 0-2.4-1.6-4-4-4zm34 12c-2.8 0-6 2.4-7.2 5.6-1.6 3.6 0.8 5.2 7.2 5.2 6.4 0 8.8-1.6 7.2-5.2-1.2-3.2-4.4-5.6-7.2-5.6zm-58.4 20c-2 0-3.6 2.8-3.6 6 0 3.2-1.6 6-4 6-2 0-4 2.4-4 5.2 0 2.8 3.6 5.2 8 5.2 5.2 0 7.6-2 6.4-5.2-1.2-2.8-0.4-5.2 1.6-5.2 2 0 2.8-2.8 1.6-6-1.6-3.2-4-6-6-6zm24.4 6c0-3.3-1.8-6-4-6-2.2 0-4 2.7-4 6 0 3.3 1.8 6 4 6 2.2 0 4-2.7 4-6zm66.8 4.8c-1.2-2.4-2-0.4-2 5.2 0 5.6 0.8 7.6 2 4.8 0.8-2.4 0.8-7.2 0-10zm-124 12.8c-1.2 5.6-0.4 7.2 3.6 5.6 3.2-1.2 5.6-3.6 5.6-5.2 0-7.6-7.2-7.6-9.2-0.4zm97.2-3.2c0 2-1.6 3.2-3.6 1.6-2-1.2-4.8-0.4-6.4 2-1.2 2.4 0.4 5.2 3.6 6.4 7.2 2.8 19.6-5.6 16-10.8-2.8-4.8-9.6-4.4-9.6 0.8zm4 18.8c0 2 2.4 6.8 5.6 11.2 7.6 10 12.4 4.8 5.6-6-5.2-8.4-11.2-11.2-11.2-5.2zm-56.8 12c-4.8-6-6-6-10.8-0.8-6 7.2-5.6 7.6 6.8 11.2 4.8 1.6 8.8 1.2 8.8-0.4 0-2-2.4-6.8-4.8-10zm64 20.8c-1.6 0-3.2 3.6-3.2 8 0 6.4 2.8 8 12.8 8h12.4l-9.2-8c-5.2-4.4-10.8-8-12.8-8zm32.8 5.2c-4-1.2-4.4-0.8-1.6 1.6 2.4 1.6 5.6 6 6.8 9.2 2 4.4 2.4 3.6 1.6-1.6-0.4-4.4-3.6-8.4-6.8-9.2zm20 6.8c-2 0-4 2.8-4 6.4 0 3.2 2 4.8 4 3.6 2.4-1.2 4-4 4-6.4 0-2-1.6-3.6-4-3.6zm-68 16c-2 0-4 2.8-4 6.4 0 3.2 2 4.8 4 3.6 2.4-1.2 4-4 4-6.4 0-2-1.6-3.6-4-3.6zm49.6 28c-8.8-3.6-9.2-3.2-4.8 4 5.6 8.8 9.6 10 13.2 4 1.6-2.4 4.4-2.8 6.8-1.6 2.8 2 3.2 0.8 1.6-2-2-2.8-4-4-5.2-2.8-1.2 0.8-6.4 0.4-11.6-1.6zm-150 2.8c-2.4-2-25.6 20.8-23.2 23.2 1.2 0.8 7.2-3.6 13.6-10 6.4-6.4 10.8-12.4 9.6-13.2zm190-2.8c-0.8 0-1.6 1.6-1.6 4 0 2 2 4 4.4 4 2 0 2.8-2 1.6-4-1.2-2.4-3.2-4-4.4-4zm-98.4 22.8c-2.4 12 1.6 25.2 7.6 25.2 5.6 0 5.6-2.4 1.2-31.2-0.4-4-7.6 0.8-8.8 6zm32 6c-2.4-6.4-11.2-0.4-11.2 7.6 0 10 8.8 9.6 15.2-0.8 3.2-4.8 3.6-7.2 1.6-6-2.4 1.2-4.8 0.8-5.6-0.8zm-95.2 11.2c-2.4 4.4-6.4 7.2-8.4 5.6-2.8-1.6-3.6 0.4-2.8 4.8 0.8 4.4 4.8 7.6 9.2 7.6 6.4 0 8-2.8 8-13.2 0-15.2-0.4-15.2-6-4.8zm32-4c-2 0-4 3.6-4 8.4 0 4.4 2 6.8 4 5.6 2.4-1.2 4-5.2 4-8.4 0-3.2-1.6-5.6-4-5.6zm76.4 0c-4.8 0-10 8-7.2 10.8 2.8 2.8 10.8-2.4 10.8-7.2 0-2-1.6-3.6-3.6-3.6zm-90.8 64c-2.4 15.6-2 17.2 4 14.8 4-1.6 8.8-2.8 10.8-2.8 2 0 3.6-8.8 3.6-19.6 0-34-12.8-28.4-18.4 7.6zm56.4-25.6c-7.6-2-8.4-0.8-8 16.4 0 14.4 1.6 18.8 6.8 19.6 5.6 0.8 6.4-1.2 4.4-11.2-1.6-8-0.4-13.2 3.2-15.2 2.8-2 4.4-4.4 3.6-5.2-1.2-1.2-5.6-2.8-10-4.4zm89.2-2.4c-5.2 0-2 9.2 4 11.2 2.8 0.8 4-0.8 2.4-4.8-1.2-3.6-4.4-6.4-6.4-6.4zm-63.6 8c-2.4 0-2.8 1.6-1.6 4 1.2 2 4.4 4 6.4 4 2.4 0 2.8-2 1.6-4-1.2-2.4-4.4-4-6.4-4zm-110.8 10.4c-11.2 8-11.2 14 0.4 12 4.8-1.2 10-2 12-2 1.6-0.4 2.8-4 2.8-8.4 0-9.6-3.2-10-15.2-1.6zm-33.6 5.2c-1.2-3.2-2.8-1.2-4.4 4-1.6 6.8-1.2 8.4 2 5.2 2-2 3.2-6.4 2.4-9.2zm15.2 4.4c-3.6 0-6.4 1.6-6.4 4 0 2 1.6 4 3.6 4 2.4 0 5.2-2 6.4-4 1.2-2.4-0.4-4-3.6-4zm117.6 4c-2 0-2.8 2.8-1.6 6 1.6 3.2 3.2 6 4 6 0.8 0 1.6-2.8 1.6-6 0-3.2-1.6-6-4-6zm-164 16c-2 0-4 2-4 4.4 0 2-1.6 3.2-3.2 2-2-1.2-3.6 0.4-3.6 3.6 0 5.2 1.6 4.8 7.6-0.8 4-3.6 7.2-7.2 7.2-8 0-0.4-1.6-1.2-4-1.2zm62.8 10.8c-4.8 4.8-2.8 8.8 3.2 6.8 3.2-1.6 6-4 6-6 0-4.4-5.6-4.8-9.2-0.8zm188.8 11.2c-2.8-2.8-7.6 2-7.6 7.6 0 2.4 2 2 4.8-0.8 2.4-2.4 3.6-5.6 2.8-6.8zm-140.4 7.2c-1.2-6.8-1.6-6.8-4.4 0.4-3.2 7.6-0.8 13.6 3.6 9.2 1.2-1.2 1.6-5.6 0.8-9.6zm-3.6 18.8c-2 0-2.8 1.6-1.6 4 1.2 2 3.2 4 4.4 4 0.8 0 1.6-2 1.6-4 0-2.4-2-4-4.4-4zm159.2 21.2c-5.2-5.2-6-4.8-8 3.2-2.8 11.2 5.6 18 10.4 8.8q3.6-6-2.4-12zm-334.8 12.8c-2-1.2-4-0.8-4 1.6 0 2 2 5.2 4 6.4 2.4 1.2 4 0.8 4-1.6 0-2-1.6-5.2-4-6.4zm316.4-2c-2.4 0-5.2 1.6-6.4 4-1.2 2 0.4 4 3.6 4 3.6 0 6.4-2 6.4-4 0-2.4-1.6-4-3.6-4zm-151.2 14.8c-8.4 3.2-6 8 3.6 7.6 4.8 0 9.2-2.8 10.4-5.6 1.6-4.8-4.8-6-14-2zm-159.6 1.2c-0.8 0-1.6 3.6-1.6 8 0 4.4 1.6 8 3.6 8 2 0 2.8-3.6 1.6-8-1.2-4.4-2.8-8-3.6-8zm254 4c-2 0-2.8 1.6-1.6 4 1.2 2 3.2 4 4.4 4 0.8 0 1.6-2 1.6-4 0-2.4-2-4-4.4-4zm-129.6 24c-4 4.4-9.6 8-12.8 8-6 0-7.2 6.4-1.6 9.6 3.6 2.4 24.4-16.4 24.4-22 0-5.2-2-4.4-10 4.4zm26-4c-2 0-4 2-4 4.4 0 2 2 2.8 4 1.6 2.4-1.2 4-3.2 4-4.4 0-0.8-1.6-1.6-4-1.6zm127.6 9.6c-5.6-5.2-6.8-5.2-11.2 0-4 4.8-3.2 6.4 3.6 8.4 4.8 1.6 9.6 1.6 11.2 0.4 1.2-1.6-0.4-5.2-3.6-8.8zm12.4-1.6c-6.4 0-4.4 6.4 4 14 8.8 8 10.4 5.6 4-6.4-2.4-4-6-7.6-8-7.6zm-126 24c-1.6 2.4-6 3.2-9.6 2-6.4-2-6.8 0.4-5.6 18.8 2 26.8 4.8 40.8 8 37.6 1.2-1.2 4.8-0.4 8 2 4.4 4 5.2-1.2 4.8-30-0.4-34.8-1.2-37.6-5.6-30.4zm-27.6 1.2c-1.2-1.2-4.4 2.8-7.2 8.8-4 9.2-4 11.6 0 13.2 5.6 1.6 6.4 16.8 0.8 16.8-2 0-4 6-3.6 12.8 0.4 12.4 0.4 12.8 3.6 3.2 2-6.8 3.2-7.6 3.6-3.2 0.4 4 2.8 7.2 5.6 7.2 4 0 4.8-6 2.4-28.4-2-15.6-4-29.6-5.2-30.4zm103.6-1.2c-0.8 0-3.6 3.6-6 8-3.6 6.4-3.2 8 2 8 3.2 0 6-3.6 6-8 0-4.4-0.8-8-2-8zm71.6 4.8c-4.8-6-4.8-6-2.8 2.4 2.8 11.2 5.2 12.8 15.2 8.4 7.6-2.8 7.6-3.2 0.4-3.2-4-0.4-10-3.6-12.8-7.6zm-95.6-0.8c-0.8 0-2 2.4-3.2 5.2-1.2 2.8 1.2 5.2 5.6 5.2 5.2 0 6-1.2 2.8-5.2-2.4-2.8-4.8-5.2-5.2-5.2zm52 18l-8.4-9.2-8.8-8.8-2 8.8c-3.2 10.8-2 12 10 10.4zm-105.6 46c-11.6 0-12.8 4.8-6.4 27.2 9.2 30 14 29.6 14-0.8 0-23.6-0.8-26.4-7.6-26.4z"/>
	</g>
</svg>