<svg version="1.2" xmlns="http://www.w3.org/2000/svg" viewBox="0 0 528 1256" width="528" height="1256">
	<title>Layer</title>
	<style>
		.s0 { fill: #323935 } 
	</style>
	<g id="Layer">
		<path id="Layer" fill-rule="evenodd" class="s0" d="m253.2 2l4 21.2c2.4 16 5.6 22 12 24.4q7.8 3 3.6 6c-3.6 2-3.6 4.8 0 10.4 4 6 4 8.8 0 12.8-8.8 8.8-5.2 11.6 6 4.4 10.4-6.8 10.8-6.8 8 0-3.2 8.8 3.6 8.8 9.2-0.4 4-6 4.4-6 2 1.2-7.2 21.2-7.6 23.6-0.8 20.8 7.2-2.8 9.6 3.2 2.8 7.2-10 6-2.8 9.6 8.4 4 12.4-6.4 12.4-6.4 9.6 2.8-3.6 11.2-9.6 22.4-10 17.6 0-4.8-12 5.6-12 10.8 0 3.2 1.2 3.2 4.4 0 2.4-2.4 6.8-3.6 9.6-2.4 2.8 0.8 10.8-1.2 17.6-4.8 6.8-3.2 12.4-4.4 12.4-2.4 0 5.2-27.2 28.4-34 28.4-2.8 0-6.8 2-8.4 4.4-1.6 3.2 2.8 4 15.2 3.2 18-1.6 18-1.6 11.6 7.2-6 8.4-15.6 13.2-10.8 5.6 1.6-2-4-1.6-11.6 0.8-9.2 2.8-12.8 5.6-10.4 8 2.8 2.8 6.4 2.4 10.4-1.2 5.6-4.4 7.2-4.4 10-0.4 2.4 4.4 6.4 4.4 21.6-0.8 16-5.6 18.4-5.6 18.4-0.4 0 3.2-6.8 10-14.8 14.8-20.4 11.6-8.8 13.6 16.8 2.8 18.4-8 19.2-8 12.8-0.8-3.6 4-6.8 9.6-6.8 12 0 2.8-1.6 4.8-3.6 4.8-2 0-4.4 3.6-5.6 8.4-1.2 4.4-7.6 10-14.4 12.8-14.4 5.2-15.6 8.8-4.8 14.8 9.2 4.8 30.4 1.2 43.6-7.2 12.4-8 11.2-3.2-3.2 11.2-14.8 15.2-14.8 17.6-0.8 14.4 11.2-2.8 10.4-1.2-10 12.8-6 4-5.6 4 2.8 0.4 9.6-4.8 9.6-4.8 3.6 4.8-3.6 5.2-10.4 11.2-14.8 13.6-26 11.6 13.6 14 40.8 2 16.8-7.2 18-7.2 14-0.4-2.8 3.6-12.8 11.2-23.2 16.8-17.2 9.2-17.6 9.6-7.2 10.8 12.4 1.6 14.8 8.8 2.8 8.8-4.4 0-8 2-8 4.4 0 2.4 4 4 9.2 3.6 17.6-1.6 22.4 0 20.4 6-2.4 5.6-16.4 12.4-23.2 10.8-2-0.8-2.4 2-0.8 5.6 2.4 6-0.4 6.4-23.6 4.8-14-1.2-24.8-0.4-23.6 1.2 1.2 2 6.4 3.6 11.2 3.6 5.2 0 11.6 2.8 14.4 6 3.6 4.4 6.4 5.2 9.6 2 5.2-5.2 15.6-5.2 12.4 0.4-1.6 2.4-0.4 3.6 2.4 3.2 3.2-0.4 8.8 0.4 12.8 2.4 4 1.6 13.2 2 20.8 0.8 7.6-1.2 14-1.6 14-0.4 0 4-14.4 17.6-18.8 17.6-2.8 0-5.2 2.8-5.2 6.4 0 4.4 2 5.6 7.2 3.6 14-6 20.8-6.8 20.8-2.8 0 2.4 4 3.2 9.2 1.6 8-2 8.4-1.6 3.2 4.4-3.2 4-13.2 8.8-22.8 11.2-20.4 5.2-24 15.2-4.4 12 1.6 0 2.8 1.6 2.8 4 0 2 1.6 3.2 3.6 2 2-1.2 5.6 0 7.6 2.8 3.6 4 0.4 6.4-14.4 10.4-10 2.4-20.8 6.8-23.6 9.2-8 6.4-6.4 15.2 2.8 15.2 4.4 0 8 2.4 8 4.8 0 4 0.8 4 3.2 0 2.4-3.6 6.4-4 13.2-1.6 5.2 2 12.8 3.2 16.4 2.8 4-0.8 8.8 1.6 10.8 5.2 2 3.6 9.2 6.4 18 6.4 16.4 0.4 16.8 1.2 7.6 11.2-6 6.8-6 7.2 0 7.2 4 0 6.8 1.6 6.8 4 0 2-2.8 4-6 4-3.6 0-4.8 2.4-3.6 6 2 4.8-0.8 6-12 6-8 0-14.4-1.6-14.4-4 0-2-2.8-2.8-6-1.6-3.2 1.6-6.8-0.4-8.4-3.6-1.6-4.8-4.4-5.2-14-2-12.4 4.4-12 11.2 0.8 11.2 4.4 0 9.6 4.4 12 9.6 2.8 5.6 6.8 8.8 10 7.6 3.2-1.2 5.6 0 5.6 2.4 0 2.4 2.8 4.4 6 4.4 3.2 0 6 2 6 4.4 0 2.4-3.6 3.2-8 1.6-4.8-1.6-8-0.8-8 2 0 3.2-2.8 3.6-6.8 2-4-1.6-9.2-3.2-11.2-3.6-2.4-0.4-11.2-4.4-19.2-9.6-12.8-7.6-14.8-10-12.8-19.6 1.6-8.8 1.2-9.6-1.2-3.2-3.2 7.2-4.8 6-16-12-6.8-11.2-15.2-23.2-18.4-27.2-6.4-6.4-6-6.8 4.4-4.8 6.4 1.2 8.4 0.8 5.2-0.8-3.2-1.2-8-5.2-10.8-8.8-2.4-3.6-6-5.2-7.6-3.6-1.6 1.6-5.2 0-8-4-3.6-4.4-5.2-5.2-5.6-1.6 0 3.6-2.8 4.4-8.8 2.8l-9.2-2.4 9.6 8c4.8 4.8 10.8 7.6 12.4 6.4 1.6-1.2 2.8 1.2 2.4 5.2 0 3.6 2 6.4 4.4 6 5.6-1.2 19.2 22 15.2 26-1.2 1.6-9.6 2.4-18.4 2.4-10.8-0.4-15.6 1.2-15.6 4.8 0 3.2 1.2 5.2 3.2 4.8 5.2-1.6 32 13.2 34.4 19.2 2 5.2-2.4 7.6-10.8 6-2-0.4-2 1.6-0.4 4 2 3.6-0.4 4-9.6 2.4-6.8-1.6-13.6-1.2-14.4 0.8-2 3.2 25.2 8.8 42.8 8.8 3.6 0 6.8 1.6 6.8 4 0 2 4.4 3.6 10 3.6 6.4 0 10 2.4 10 6 0 3.2 2.8 6 6 6 3.2 0 6 1.6 6 3.6 0 2.4 3.2 4 7.2 4 16.8 0 34.8 4 34 7.2-0.4 2 5.6 3.2 13.2 2.8 7.6-0.8 13.6 0.4 13.6 2 0 4.4-10 8.4-20.4 8.4-4.4 0-7.6 2.8-7.6 7.2 0 7.2-28.8 19.2-36 14.8-1.6-1.2-4 0-4.8 2.4-2 6.4-17.6 0.8-28.8-10.4-6.8-6.8-10.4-8.4-14-4.8-3.2 3.2-4.4 3.2-4.4-0.8 0-2.8-1.6-4-3.6-2.4-2 1.2-6-0.4-9.2-3.2-2.8-2.8-8.8-7.6-13.2-10.4-7.6-4.8-7.6-4.8 0.8-2.4 4.8 1.2 10 0.4 11.6-2.4 1.6-2.8 1.2-3.6-1.6-2-2.4 1.2-6-0.4-8-4.4-4.8-8.4-18.4-11.2-15.2-2.8 1.2 3.6 0.4 4.8-2 3.6-2-1.6-2.8-6-1.6-10 1.2-4 0.4-8.4-2-10-2-1.2-4 0.8-4 4.4 0 6-1.6 5.6-10.4-2.8-10.4-9.6-10.4-9.6-6-0.8 3.2 6 3.2 9.2 0.4 9.2-2 0-0.4 3.6 4 8 4.4 4.4 9.6 8 11.6 8 6 0 10.4 17.2 4.8 19.2-6.8 2.4-5.2 6.8 6.4 18.4 7.6 8 13.2 10.4 20 8.4 5.2-1.2 9.2-0.4 9.2 2 0 2 2.4 4 5.6 4 8.8 0 12 7.6 6.4 14-4 4.8-3.6 6 2 6 4 0 10.4 2.8 14 6 8 7.2 59.2 11.6 66.4 5.6 2.8-2.4 6-2.4 7.2-0.4 1.2 2 7.2 2.8 12.8 1.6 7.6-1.2 10-0.4 8 2.8-1.6 2.4-0.8 4.4 1.2 4.4 2.4 0 4.4 2.8 4.4 6 0 3.6 2.4 4.8 6 3.6 3.6-1.6 6 0 6 4 0 4.8 4 6.4 16.8 6.4h16.8l-9.2 6.8c-10 6.8-68.4 11.6-68.4 5.6 0-1.6-2.8-3.2-6-3.2-5.2 0-4.8 1.6 1.2 8.4 13.2 14.8 14.8 20 3.2 12.4-5.6-3.6-18-7.6-27.2-8.4-9.6-0.8-21.6-2.4-27.2-4l-10-2.4 9.2 8.4c5.6 4.8 8.4 10 6.4 12.8-1.6 3.2-1.2 3.6 1.6 2 7.2-4.4 24.8 2 24.8 9.2 0 5.2 0.8 5.2 3.6 0.8 3.2-4.8 5.6-4.8 16-0.4 6.8 2.8 15.2 4 18.8 2.4 3.6-1.2 8-1.2 10.4 0 4 2.4-7.6 10.8-21.6 16-4 1.2-7.2 4.4-7.2 6.4 0 2.4-3.2 1.6-6.8-1.2-6-4.8-6.4-4.8-4 1.2 2 5.2 0.4 7.2-5.2 7.2-4.4 0-8-1.6-8-3.6 0-2.4-3.2-3.6-6.8-3.6-4 0-10.4-1.2-14-2.8-4.4-1.6-7.2-1.2-7.2 1.6 0 2.8 3.2 5.6 7.2 6.8 10 3.2 26.4 11.2 28.8 14 1.2 1.2 7.2 4 13.6 6.4 12.8 4 18.8 13.2 8.8 13.2-3.6 0-6.4 1.6-6.4 3.6 0 5.2-21.6 10-23.2 4.8-0.8-2-4-2.8-7.2-1.6-3.2 1.2-5.6 0.4-5.6-1.2 0-2-6.8-4-14.8-4.4-8-0.4-20-4.8-26.4-9.6l-12-8.8 2.8 11.6c1.6 6.4 3.2 14.8 3.6 19.2 0.4 4 4.8 10 10 13.6 9.6 6.4 12.4 0.8 2.8-7.2-9.2-7.6-7.2-11.6 4-6.8 5.6 2.8 10 6.4 10 8 0 2 2 2 4 0.8 2.4-1.2 4-0.4 4 1.6 0 2.4-2 4.4-4.4 4.4-2 0-2.8 2-1.2 4.4 2 3.2 3.6 2.8 5.6-0.4 1.6-2.8 6-4 10-2.8 3.6 1.6 5.2 4.8 3.6 7.2-1.6 2.8-0.4 4 2.8 2.8 3.2-1.2 11.2 0.4 18.4 3.6 7.2 2.8 18 5.2 24 5.2h11.2l-10 8c-10.4 8-24 10.8-24 4.4 0-2-5.2-4.4-11.6-5.2-9.6-1.6-10.8-0.4-9.2 6.4 1.6 6 0.4 7.2-4.4 5.2-4-1.6-6.8-0.8-6.8 1.6q0 3.6-7.2 0c-4.4-2.4-9.6-2.4-13.2 0-4.4 2.8-3.6 3.6 2.8 3.6 9.2 0 19.2 9.2 14.8 13.2-1.2 1.6 0.4 2.8 4 2.8 3.6 0 6.8 0.8 6.8 1.6 0 0.8 1.2 4.8 2.8 8.8 2 5.6 1.2 6.4-5.2 4.4-7.2-2.8-7.2-2.4-0.4 2.8 4 3.2 10.8 4.8 15.2 3.6 6-1.6 8.8 0 10.4 6.4 1.6 6.4 4.4 8.4 9.6 7.2 4-1.2 8 0.4 9.2 3.6 2.4 6.4-12 11.6-18.8 6.8-2.8-2-10-3.2-16.8-3.2-11.6 0-19.6-5.2-42.4-26.4l-10.8-10.4-5.2 9.2c-2.8 5.2-6.4 9.6-8.4 9.6-1.6 0-3.2 4.8-3.2 10.8 0.4 10 0.8 10.4 5.6 4.4 6.4-8.4 14.4-2 14 10.4 0 7.6-0.8 7.2-4.4-1.6-3.6-8.8-4.4-9.2-6.8-2.8-2.8 7.2-3.2 7.2-8.4 0.8-3.2-4-5.2-12-4.8-18.4 1.6-13.2-1.6-14.8-10-4.8-5.2 6.4-5.6 6-3.2-4 1.6-7.6 0.8-10.4-2-8.8-2.4 1.6-4-1.6-4-8 0-8.4-1.6-10-6.8-8.4-8.8 2.8-20-3.2-13.6-7.2 6-4 5.6-8.8-2-16.4-4.8-4.4-5.6-7.6-2.4-10.8 4-4 2.8-8.4-6.4-22.8-0.4-1.2-3.6 1.6-6.4 6-6.8 9.2-4 16 4 9.2 3.2-2.8 5.6-2.8 5.6-0.4 0 6-10.4 8.8-15.2 4-6.8-6.8 4.4-27.2 14.8-27.2 6.8 0 5.2-8.4-2.4-14.4-6-4-8.4-4-14 1.2-6.4 5.6-7.2 15.2-7.2 80.8 0 82 6.8 264.4 10.4 281.2 1.6 8.8 4.4 10.8 18 12 11.2 0.8 15.6 0 15.6-4 0-2.8 2-4 4-2.8 2.4 1.6 4-3.2 4-11.6 0-14-5.2-22-9.6-14.8-2.8 4-26.4-3.6-26.4-8.4 0-4.8 5.6-4 12 1.6 4.8 4.4 4.8 4 0-2.4-5.2-6.4-4.8-8 2-12.8 5.6-4 6-5.6 1.6-5.6-4.4 0-4.4-0.8-0.4-3.2 2.8-2 4-6.4 2.4-10-1.6-4.8-0.4-6 6-4.8 7.6 1.2 8 0 6.4-10.8-2-10.8-1.6-12 4-7.2 3.2 2.8 6 6.8 6 8.8 0 2 4.8 8 10.4 13.2 10 9.2 10 9.6 3.6 20.8-4 6-4.4 8.4-1.6 4.8 7.6-8.4 18.8-8 22 1.2 1.2 4 4 7.2 6 7.2 2.4 0 3.2 1.6 2 3.6-1.6 2-8.8 3.2-16.8 2.8-16-1.6-25.6 5.6-25.6 19.2 0 12 4 15.6 10.8 9.6 4.4-3.2 6.8-2.8 11.2 3.2 3.2 4 6 6 6 4.4 0-1.6 3.6-1.2 8 1.2 5.6 3.2 10 2.8 15.6-0.8 6.8-4 9.2-3.6 16 2.4 7.6 6.8 8 6.8 15.6-0.8 7.2-7.2 7.6-7.2 18.8 2 16.4 14.4 34.8 11.6 40.4-6 4.4-14 9.6-13.2 9.6 1.6 0 6 4 11.6 11.2 15.2 9.6 5.6-12.4 6-213.2 6-194.8-0.4-222.4-0.8-212-6 6.8-2.8 15.6-4.8 20-3.6 4.8 0.8 14.4-2 22-6.8 18-11.2 31.6-13.2 34.4-5.2 2 4.8 3.6 5.2 8 1.6 3.6-2.8 11.6-3.6 20.4-2.4 10.8 2 16.8 0.8 22.4-4.4 7.2-6.4 8-6.4 12.8 0.4 6.4 8.8 18.8 8.8 30.4-0.4 8.8-7.6 8.8-9.2 12-123.2 1.6-63.6 2-116.8 1.2-118-0.8-1.2-1.6-28-2-59.2-0.8-46-2-56.4-6-54.8-3.2 1.2-5.6 0.4-5.6-1.6 0-2.4 2-4 4-4 2.4 0 4-8 4-18 0-10-1.6-18-4-18-2 0-4 3.6-4 7.6 0 4.4-1.6 8.8-3.6 10-4 2.4-1.6 20.4 4 32.4 2.8 6 2 12.8-4 26-5.2 12-6.8 19.2-4 22.4 2.8 3.2 2.8 5.6 0 7.6-2.4 1.2-7.2 8.4-10.4 16-3.6 7.2-13.6 18-22 23.6-13.6 9.2-14.8 9.2-13.2 2 1.2-4.4 0-7.6-2.4-7.6q-4.8 0-1.2-7.2c4.4-8.4 1.6-18-4-14.4-2.4 1.6-3.2-0.4-1.2-6 2-7.2 0.8-8.4-8-8.4-8.4 0-10.4 1.6-8.4 6.4 2.4 6 1.6 6-4.4 1.2-4-3.2-5.6-3.6-4-0.8 3.6 5.6-10.4 14.4-15.2 10-2-1.6-2-0.8-0.8 2 1.6 2.4-3.2 8-11.6 12.8-17.2 10-18 10.4-14.8 1.2 1.2-4-3.6-1.2-12.4 7.2-19.2 18-10.8 20.4 17.6 5.6 23.6-12.4 30-10 14.8 5.6-6 6.4-10.8 13.2-10.8 15.6 0 2.4-3.6 3.6-7.6 2.4-4-1.2-11.6 0.4-16.4 2.8-7.2 4-9.6 3.6-12.8-0.4-2.8-4.4-3.2-4-2.4 1.2 1.2 7.6 1.6 7.2-21.6 6.8-15.6 0-16.4-0.4-7.2-4l10-4-11.6-6.4c-8.8-4.8-10.4-6.8-6-9.6 4.8-3.2 4.8-4.4-0.4-7.6-5.2-3.2-4.8-4 1.6-4 4 0 12.4-4 18.4-9.2 6-4.8 14.4-11.2 18.4-14 6.8-4.4 6-4.8-6.8-2.8-10.8 1.6-16.8 0-24.8-6-11.2-8.8-16.8-10.4-12.8-3.6 1.6 2.4-0.8 2-5.6-1.2-8.4-5.2-8.4-5.2 2.4-8.4 6.4-1.6 15.2-3.2 20.4-3.6 10.8-1.2 11.2-3.6 0.8-11.2-9.2-6.8-10.4-12-2.4-12 3.2 0 6.8-2.4 7.6-5.2 1.6-3.6 3.2-3.2 6.4 1.2 3.6 5.2 4.4 5.2 4.4-1.2 0-3.6 2.8-6.8 6-6.8 3.2 0 6-2.4 6-5.2 0-7.2 28.4-15.6 42.8-12.8 6 1.2 8.8 0.8 6.4-0.4-2.8-1.2-5.2-4.8-5.2-8 0-3.2-2-5.6-4-5.6-2.4 0 0.8-6.8 7.2-15.2 11.6-14.4 19.2-36.8 12.4-36.8-1.6 0-3.6 1.6-4.4 3.2-2.4 5.6-26.4 20.8-32.8 20.8-3.6 0-6.4 2-6.4 4.4 0 2.8-3.6 2-9.6-2-4.8-3.2-7.8-10.9-9.7-10.2 3.8-4.4 9.2-8.2 12.9-8.2 3.2 0 7.6-2.4 10-5.6 4-4.8 2-5.6-10.4-4.4-16.4 0.8-29.2-1.6-29.2-5.6 0-1.2 6.4-2.4 14-2.8 14.8-0.4 34-8.4 34-14.4 0-2-1.6-2.8-3.6-1.6-2 1.6-4.4 0.4-5.2-2-0.8-2.4-6.4-4.8-12.4-4.8-16.4 0-12.8-6.8 4.4-7.6 8 0 16.8-0.4 19.2-0.4 2.4 0 6.4-3.2 8.8-7.2 4.4-6.8 3.6-6.8-9.2-1.2-12.4 5.2-14 4.8-17.6-1.6-3.6-5.6-4.8-6-8-1.2-2 2.8-5.6 4-8 2.8-2.4-1.6-4.4-1.2-4.4 0.4 0 2-3.2 3.6-6.8 4-13.2 0.8-32.8 4.4-36.8 6.8-2 1.2-4.8-0.4-6-4-1.2-3.6-4.4-4.8-7.2-3.2-2.8 1.6-1.6-1.2 2.8-6.4 4.8-5.6 6.4-9.6 3.6-10.8-2.4-0.8-7.6-4-11.6-6.8-6.8-4.8-6.4-5.6 4-8 6.8-1.6 12.4-1.2 14 1.2 2.8 5.2 48-2.4 48-8 0-2 2.8-3.6 6-3.6 3.2 0 6-0.8 6-1.6 0-0.8 1.2-4.8 2.8-8.8 2-5.6 0.8-6.4-8-4.8-6 1.2-10.8 0.8-10.8-0.4 0-1.6-3.2-2.8-6.8-3.2-17.6-1.2-46.8-5.6-48.4-7.2-2-2 9.2-3.2 32.8-3.6 6.4-0.4 12.4-2.8 13.6-6 1.2-4 0-4.8-4.8-3.2-3.6 1.6-6.4 0.8-6.4-1.2 0-2-3.6-4.8-8-6-12.8-4-9.2-10 6-10 7.6 0 14-1.6 14-3.2 0-5.2 19.2-12.8 32-12.8 6.8 0 12-0.8 12-1.6 0-0.8 1.2-4.4 2.4-8 1.6-4.4-0.4-5.6-9.2-4.8-6 0.4-13.2-0.4-15.6-2.4-2.8-2-7.2-1.2-10.8 2.8-7.2 6.8-14.8 8-14.8 2 0-2.4-3.6-4-8-4-4.4 0-8-2-8-4 0-2.4-3.6-4-8-4-4.4 0-8-2-8-4 0-2.4 3.6-4 8-4 4.4 0 14.8-2.8 23.2-6.4 8-3.6 18-6.8 22.4-7.6 4-1.2 9.6-4.8 12.4-8.4 6-8.4 18.8-10.8 22.8-4.4 1.6 2.8 2.4 1.2 2-4 0-5.2-2.8-10-5.6-10.8-8.4-3.2-6-9.6 6.4-16.8 6.4-4 12.8-10 14-13.2 1.2-3.6 3.6-9.2 5.2-12.4 2-5.2 1.6-5.2-4-0.4-4 2.8-6.8 4-6.8 2.8 0-1.6-2.8-0.4-6 3.2-3.2 3.2-6 7.6-6 10 0 2.4-3.6 4.4-7.6 4.4-4 0-8.8 2.8-10 6.4-1.6 3.6-3.6 5.6-5.2 4.4-1.2-1.6-4.8-0.8-8 1.6-4 3.6-5.2 3.2-5.2-0.8 0-4.4-0.8-4.4-3.2-0.8-1.6 2.8-9.2 5.6-16.8 6-11.6 0.8-13.6 0-12.8-6 0.8-4.4-1.6-6.8-6-7.2-4 0 2.8-4.8 14.8-10.4 22-10.4 22-10.4 10-13.2-6.4-1.6-17.2-2-23.2-1.6-9.6 1.2-10.8 0.4-6.8-4.4 4-4.8 3.6-6-2.4-6-6.4 0-6.8-0.8-1.6-4 4-2.4 4.4-4 1.2-4-2.8 0-5.2-2-5.2-4 0-2.4 2.4-4 5.6-4 3.2 0 5.6-4.4 5.6-10.4 0-16.4 7.2-20.8 17.2-10 7.2 7.6 11.6 8.8 29.2 7.6 11.2-0.8 20.4-2.4 20.8-3.2 0-1.2 2.4-6 5.2-11.2 4-7.2 3.6-8.8-1.6-8.8-3.2 0-6-2.8-6-6.4 0-4-2.4-5.6-5.6-4.4-3.2 1.2-8.8 0-13.2-3.2-6.8-5.2-6.8-5.6-0.4-8 8.8-3.6 5.6-10-5.2-10-4 0-7.6-2.4-7.6-5.6 0-3.2-2.8-6.4-6-8-3.2-1.2-6-4-6-6.4 0-2.4 2-3.2 4.4-2 7.2 4.8 24.8 7.2 52.4 7.6 14.4 0.4 25.6 2 24.4 4-1.2 2 0 2.8 3.2 1.6 3.2-1.2 6-4.4 6.8-7.6 0.8-4-4-6-16-6.8-24.4-1.6-31.6-4.4-30.4-12 0.8-4.4-2-7.2-7.2-8-4.8-0.8-12-4.8-15.6-8.8-6.8-7.6-6.4-7.6 7.6-6 8 1.2 14.4 0.4 14.4-1.2 0-4.4-12-13.6-29.2-22.4-8-4.4-14.8-9.2-14.8-11.2 0-2 2.4-2.4 5.2-0.4 10.4 6.4 42 8.8 44.4 3.2 0.8-2.4 4-2.4 9.2 0.4 5.2 3.2 10 3.6 14.4 0.8 4.4-2.4 6.8-2 6.8 0.8 0 2 2 4 4 4 8.8 0 3.2-9.2-16.8-28.4-17.6-16.4-19.2-19.2-9.2-14 13.6 6.4 62 11.2 62 6 0-4.8-15.6-12.4-19.6-10-4 2.8-52.4-40.4-52.4-46.8 0-2.4 4-0.4 8.8 4 13.6 12 47.2 21.2 47.2 12.4 0-1.6-8-13.6-18-26.8-10-12.8-18-25.2-18-27.2 0-1.6 1.6-1.2 3.2 1.2 3.2 4.4 32.8 19.6 38.8 19.6 2.4 0 6.4 2.4 9.2 4.8 5.6 5.6 16.8 7.2 16.8 2.8 0-1.6-3.6-6-8.4-10-4.8-4-7.2-9.2-5.2-12 1.6-3.2 1.2-3.6-2-2-2.4 1.6-5.6 0.4-6.8-3.2-1.2-3.2-6-7.2-10-8.4-7.2-2.4-22-29.2-18-32.8 1.2-1.2 5.2 2 9.2 6.4 3.6 4.8 11.2 8.4 16 8.4 5.2 0 9.2 1.6 9.2 4 0 2 2 4 4.8 4 2.4 0 1.2-3.6-2.8-8-6.8-7.6-6.8-8 0-8 6.8 0 6.8-0.4 0-8-8.4-9.2-5.6-10.4 7.2-3.2 11.6 6.4 22.8 8 22.8 3.6 0-2-4.8-4.4-10.8-5.6-6.4-1.2-18.4-8.8-27.2-16.8-9.6-8.8-12.8-13.6-8-12 22 7.6 23.2 7.6 21.2-1.2-2.8-10 1.6-11.6 8.8-2.8 2.8 3.2 6.8 6 9.2 6 2 0 1.2-3.2-2.4-7.2-4-4-6-8.4-4.8-9.6 1.2-1.2-1.2-4.4-4.8-7.6-6.8-5.2-6.8-5.2-1.2 2.4 5.6 7.6 5.6 7.6-0.8 2.4-6.8-5.2-10-16.4-4.8-16.4 1.2 0 6.8 3.6 12.4 8 13.6 10.8 17.6 10 13.2-2.4-6-15.2-4.8-18.4 5.2-15.2 8.4 2.4 8.4 2.4 2-5.2-11.6-12.8-9.2-18.4 4.8-11.2 17.2 8.8 20.8 7.2 9.6-4-10.4-10.4-10-19.6 0.8-15.2 4.8 2 5.2 0.4 1.2-8.4-6-12.4-3.2-16.4 7.6-10.8 7.2 4 8 2.4 11.2-22.8zm-182.4 835.2q-2.4 5.4-2.4 0c-0.1-2 1.1-0.2 3-1.2q-0.4 0.5-0.6 1.2zm0.6-1.2q0.5-0.8 1.3-1.2c-0.4 0.6-0.9 1-1.3 1.2zm200.6-736c-2 0-4 2-4 4.4 0 2 2 2.8 4 1.6 2.4-1.2 4-3.2 4-4.4 0-0.8-1.6-1.6-4-1.6zm-38.8 14.4c-5.6-2.4-6-2-2.4 2 2.8 2.8 6 4 7.2 2.8 1.2-1.2-0.8-3.6-4.8-4.8zm-37.2 101.6c-2 0-4 2-4 4.4 0 2 2 2.8 4 1.6 2.4-1.2 4-3.2 4-4.4 0-0.8-1.6-1.6-4-1.6zm71.6 138c-2.8-2.8-7.6 2-7.6 7.6 0 2.4 2 2 4.8-0.8 2.4-2.4 3.6-5.6 2.8-6.8zm-160 34c-5.6 0-4.4 2.8 2.8 5.6 3.2 1.2 4.8 0.8 3.6-1.6-1.2-2.4-4-4-6.4-4zm88.4 10c-2.8 3.2-6.4 5.2-8 4-1.6-1.2-4 0.4-5.2 3.2-1.6 4 0.8 5.2 7.6 3.6 5.2-0.8 9.6-3.6 9.6-5.6 0-2 2-2.4 4-1.2 2.4 1.2 4 0.8 4-1.6 0-7.2-6.8-8.4-12-2.4zm34.8 24.4c-3.2 3.2 1.2 13.6 5.6 13.6 2 0 3.6-2.4 3.6-5.6 0-6.8-5.6-11.6-9.2-8zm32 0.4c-1.2-2.4-2-0.4-2 5.2 0 5.6 0.8 7.6 2 4.8 0.8-2.4 0.8-7.2 0-10zm23.6 6.8c-10.4 0.4-12.8 1.6-9.6 5.2 2.4 2.8 6.8 5.2 9.6 5.2 3.2 0 5.6 1.6 5.6 3.6 0 2 3.6 5.2 8 6.4 4.4 1.2 10.4 4.8 13.2 7.2 2.8 2.8 9.2 7.2 14 10 15.2 8.8 8.8-3.6-10-18.8-9.6-7.2-17.2-14.8-17.2-16.4 0-1.6-6-2.8-13.6-2.4zm-82.4 14.4c-4 2.4-4.8 4.8-2 7.6 2.8 2.8 5.6 1.6 9.2-3.6 5.2-8.4 2.4-10-7.2-4zm32.4-4c-2.4 0-6 3.6-8.4 8-2.8 5.2-2.8 8-0.4 8 2.4 0 6-3.6 8.4-8 2.8-5.2 2.8-8 0.4-8zm-2 49.2c-1.2-1.6-2.4 0.8-2 5.2 0 4.4 1.2 5.6 2.4 2.4 1.2-2.8 0.8-6.4-0.4-7.6zm-119.2 18.8c-0.8-2.4-3.2-0.8-6 3.6-3.6 6-3.6 7.2 2 7.2 14.4 0 17.2 1.2 14.4 6-2.4 4-1.6 4 2.8 0 2.8-2.4 8.8-4.8 13.6-4.8 4.8 0 12-2.8 16.4-6.4 7.2-6 7.2-6-2-3.2-6 1.6-10.8 0.4-13.2-2.8-2.8-4.4-4.4-4.4-6-0.8-0.8 2.8-6 5.2-11.2 5.2-5.2 0-10-2-10.8-4zm-31.2 28c-2 0-4 2-4 4.4 0 2 2 2.8 4 1.6 2.4-1.2 4-3.2 4-4.4 0-0.8-1.6-1.6-4-1.6zm151.6 4c-2 0-2.8 1.6-1.6 4 1.2 2 3.2 4 4.4 4 0.8 0 1.6-2 1.6-4 0-2.4-2-4-4.4-4zm29.2 2.4c-2-1.2-3.6 5.6-3.2 15.6 0 9.6 1.6 16.4 3.6 15.2 2-1.2 2.4-4.8 1.2-8-2-4.4 0.4-4 10.8 1.6 6.8 4 13.6 8.4 14 10 0.8 2 7.2 3.2 14 3.2h12.8l-16-13.2c-8.8-6.8-16-12-16.8-10.8-0.4 1.2-3.6-1.6-6.8-6-5.6-7.2-6-7.6-6.4-0.8 0 4-2 6-4 4.8-2.4-1.6-3.2-4-2-6 1.2-2 0.4-4.4-1.2-5.6zm48.8 1.6c-0.8 0-1.6 1.6-1.6 4 0 2 2 4 4.4 4 2 0 2.8-2 1.6-4-1.2-2.4-3.2-4-4.4-4zm-83.2 14.4c-1.2 3.2-0.8 4.8 1.6 3.6 4.4-2.8 5.6 3.2 1.2 7.6-4.8 4.8-4 18.4 1.2 18.4 3.2 0 4.8-6.4 4.8-18 0-18-4-23.6-8.8-11.6zm-42.4 33.6c-7.6 10.4-7.6 12-2 12 3.6 0 7.6-3.6 8.8-8 1.2-4.4 3.6-8 5.6-8 2 0 3.6-2 3.6-4 0-7.6-7.6-4-16 8zm128.4-8.4c-2.8 2-4.4 6-3.6 8.8 1.2 4 3.2 2.8 6.8-3.6 5.2-9.6 4.8-10.4-3.2-5.2zm-152.8 24.4c-2 0-2.8 1.6-1.6 4 1.2 2 3.2 4 4.4 4 0.8 0 1.6-2 1.6-4 0-2.4-2-4-4.4-4zm23.6 22c-0.8 7.6 0 16.4 1.6 19.2 2 3.2 3.2 2.8 3.2-2.4 0-3.6 2.4-6.8 5.2-6.8 2.8 0 3.2-1.2 0.8-3.2-2-1.6-4.8-6.4-5.2-10.8-2.4-12.4-3.6-11.6-5.6 4zm-11.6-3.2c-5.2 6.4-4.8 6.8 1.6 1.6 3.6-2.8 6.8-6 6.8-6.8 0-3.2-3.2-1.2-8.4 5.2zm32.8-6.8c-2 0-5.2 1.6-6.4 4-1.2 2-0.8 4 1.6 4 2 0 5.2-2 6.4-4 1.2-2.4 0.8-4-1.6-4zm21.6 6.8c0.8 4 1.6 8 1.6 9.2 0.4 1.2 2-0.8 4-4 2.4-3.2 2.8-7.2 2-8.8-3.6-6-8.8-3.2-7.6 3.6zm-62.4 6.4c-2-4.4-15.6-2-15.6 2.8 0 1.6-4.4 4.4-9.6 5.6-5.2 1.2-10.4 4.8-11.6 8.4-2 4.4 2 3.6 16.4-3.2 10.4-4.8 19.6-9.2 20.4-9.6 0.4-0.4 0.4-2.4 0-4zm-43.2 2.4c-3.2 2-3.6 4.4-1.2 6 2 1.2 4.8-0.4 6.4-3.6 2.4-6.8 2.4-7.2-5.2-2.4zm111.6 8.4c-5.2 0-5.2 4.4 0 12 3.2 4.8 4 4.4 4-3.2 0-4.8-1.6-8.8-4-8.8zm-66 8.4c-1.6 2.4-2 4.8-0.8 6 2.8 2.8 14.8-2.8 14.8-6.8 0-5.2-10.8-4.4-14 0.8zm45.2 1.6c-1.2-1.2-3.6 0.8-4.8 4.8-2.4 5.6-2 6 2 2.4 2.8-2.8 4-6 2.8-7.2zm48.8-2c-2 0-4 2-4 4.4 0 2 2 2.8 4 1.6 2.4-1.2 4-3.2 4-4.4 0-0.8-1.6-1.6-4-1.6zm-129.2 12.4c-3.6 2.4-8.8 2.8-10.8 1.6-2.4-1.2-4 0-4 3.2 0 9.6 10.4 10.8 17.6 2 8.4-9.6 7.2-12-2.8-6.8zm73.2 13.6c-2.8-7.2-3.6-7.2-6-1.2-3.6 9.2-1.2 15.6 4.4 12 2.8-1.6 3.2-6 1.6-10.8zm71.2 6.4c-0.8 0.4-4.4 1.2-8 2.4-9.6 2.4-9.2 7.6 0.8 7.6 4.4 0 8-2.4 8-5.2 0-2.8-0.4-4.8-0.8-4.8zm-80.8 11.6c-1.2 0-3.2 1.6-4.4 4-1.2 2-0.4 4 1.6 4 2.4 0 4.4-2 4.4-4 0-2.4-0.8-4-1.6-4zm102.8 10.8c-2-1.2-6 1.6-9.2 6.4-4.8 8.4-4.8 8.4 2.4 2.8 4-3.2 8-6 8.8-6.4 0.8-0.4-0.4-1.6-2-2.8zm-36.8 9.2c-3.2-8.4-4-5.6-4 14.8-0.4 25.6 4 31.6 11.6 17.2 3.6-6.4 3.2-7.2-2-5.6-5.2 2-6 0.8-4-6.8 1.2-5.6 0.8-14.4-1.6-19.6zm-58.4 0.4c-1.6 2.4-2 4.8-0.8 6 0.8 1.2 2.8-0.8 4-4.4 2.8-6.8 0.4-8-3.2-1.6zm11.2 7.6c-2.8 4-4.4 10-3.6 12.8 0.4 2.8 0.4 3.6-0.8 2-0.8-1.6-4.4 0-7.6 4-5.2 6.8-5.6 6.8-3.6 0 1.2-3.6 0.4-6.8-1.6-6.8-2.4 0-4 4-4 8.8 0 5.2-3.6 15.2-8 22.4-10.4 17.2-7.2 22.4 9.6 13.6 10.4-5.2 12.8-8.4 11.2-16.8-1.2-5.6-0.4-8.8 1.2-7.2 2 1.6 5.6 1.2 8.8-1.2 4-3.6 5.2-2.8 5.2 4 0 4.4 2.4 8.4 5.2 8.4 3.6 0 5.2-8 6-27.2 0.4-20-0.4-25.2-3.6-20-4.8 8.8-12.4 9.6-9.2 1.2 3.2-8.4 0.4-7.6-5.2 2zm-114.8 28c-1.2 0-3.2 1.6-4.4 4-1.2 2-0.4 4 1.6 4 2.4 0 4.4-2 4.4-4 0-2.4-0.8-4-1.6-4zm185.6 8c-3.2 2-4.8 4.8-3.6 6 1.6 1.2 4.8-0.4 7.6-4 5.6-6.8 4.4-7.6-4-2zm-147.6 0c-2 0-5.2 1.6-6.4 4-1.2 2-0.8 4 1.6 4 2 0 5.2-2 6.4-4 1.2-2.4 0.8-4-1.6-4zm127.2 0c-5.6 0-4.4 2.8 2.8 5.6 3.2 1.2 4.8 0.8 3.6-1.6-1.2-2.4-4-4-6.4-4zm32.8 6c-2-1.2-4.4 0.8-6 4-1.2 3.2-0.4 6.8 1.2 8 2 1.2 4.4-0.8 6-4 1.2-3.2 0.4-6.8-1.2-8zm-69.2 6c-4 0-7.2 2-7.2 4.4 0 2 2 2.8 4.8 1.2 2.8-2 3.6-0.8 2 3.6-1.2 3.2 0.4 8.4 3.2 10.8 4.8 4 5.6 2.8 4.8-7.6-0.4-8.8-2.8-12.4-7.6-12.4zm38.8 10c0-4.9-1.9-8.9-4.2-8.9-2.3 0-4.2 4-4.2 8.9 0 4.9 1.9 8.9 4.2 8.9 2.3 0 4.2-4 4.2-8.9zm81.6-10c-2 0-3.6 1.6-3.6 4 0 2 2.8 4 6.4 4 3.2 0 4.8-2 3.6-4-1.2-2.4-4-4-6.4-4zm-184.4 12c-1.2-8.4-2-8-10.4 3.6-5.2 6.8-8 14.4-6.8 16.8 1.6 2 0.4 6.4-2 9.6-2.4 3.2-3.6 7.6-2.4 9.6 1.6 2 0.8 4.8-1.6 6.4-2 1.2-4 6.8-4 12.4v9.6l16-8c8.8-4.4 16-10 16-12 0-5.2-2.8-5.2-12.8 0.4-8.8 4.8-7.6 0 4-13.6 5.6-6 5.2-6.8-0.8-6.8-6 0-6-0.8 0-9.6 3.2-5.6 5.6-14 4.8-18.4zm136.8-6c0 1.2 4 6.4 8.4 11.2l8.4 8.8-2.8-9.6c-2.4-7.2-1.6-8.8 2.4-6.4 3.2 2 4.4 1.6 2.4 0-3.6-4-18.8-7.2-18.8-4zm-17.6 3.2c-1.2-1.6-2.4 0.8-2 5.2 0 4.4 1.2 5.6 2.4 2.4 1.2-2.8 0.8-6.4-0.4-7.6zm-91.2 12.8c-11.6 10-15.2 16.8-6 11.6 3.6-2.4 3.6-2 0 2.8-4 4.8-3.2 6 2.8 6.4 4.4 0.4 8.8-0.8 10-3.2 1.6-2 0.4-3.6-2-3.6-2.4 0-3.2-2-1.6-4.4 2-3.2 3.2-3.2 5.2 0 2 3.2 5.6 2 10.4-3.6 6.4-7.2 6.8-9.2 2-12-8-5.2-8.4-5.2-20.8 6zm-60.8-6c-1.2 0-3.2 1.6-4.4 4-1.2 2-0.4 4 1.6 4 2.4 0 4.4-2 4.4-4 0-2.4-0.8-4-1.6-4zm190.4 12c-6 0-6 0.8-0.8 4 5.2 3.6 5.2 4.4 0 8-3.2 2-8.4 3.2-11.2 2-2.8-1.2-4 0-2.8 2.4 1.6 2.4 5.6 3.2 9.2 1.6 3.2-1.2 10 1.6 14.8 6 12.4 11.6 15.2 4.8 5.2-11.2-4.4-7.2-10.8-12.8-14.4-12.8zm-50.8 8.4c0 0-2.4 1.2-4.8 2.4-6.8 2.4-6.8 13.2 0 13.2 2.8 0 5.2-3.6 5.2-8 0-4.4 0-8-0.4-7.6zm-60 3.6c-3.2 0-6 1.6-6 4 0 2-2.4 4-5.6 4-3.2 0-6.8 2.4-8 4.8-2 4-2.8 4-4.8 0-2.4-5.2-9.6-2.8-9.6 3.6 0 9.2 33.6-0.4 37.6-10.8 1.2-3.2-0.4-5.6-3.6-5.6zm9.6 12c-5.2 6.4-12 12-14.4 12-2.8 0-5.2 2.4-5.2 5.2 0 2.8-4.4 11.2-10 18.8-5.6 7.6-10 15.2-10 17.2 0 6.4 29.6-26.8 38-42.4 4.4-8 10-14.8 12.8-14.8 2.8 0 5.2-2 5.2-4 0-7.6-7.2-4-16.4 8zm-40.4 20.4c-9.6 10-9.2 15.6 0.8 15.6 4.4 0 8-2.4 8-5.6 0-3.2 1.2-8.4 2.4-12 3.2-8.4-2.8-7.6-11.2 2zm86.8-8.4c-3.2 0-6 3.6-6 8 0 9.6 6 10.8 9.6 1.6 1.2-3.6 2.4-7.2 2.4-8 0-0.8-2.8-1.6-6-1.6zm57.6 4c-6.4 0 9.2 18.8 19.6 23.6 12.4 6 14.8 5.6 8.8-1.6-2.8-3.2-7.2-6-10.4-6-2.8 0-7.2-3.6-9.6-8-2.4-4.4-6-8-8.4-8zm-22.4 6.4c-5.6-2.4-6-2-2.4 2 2.8 2.8 6 4 7.2 2.8 1.2-1.2-0.8-3.6-4.8-4.8zm42.4-2.4c-2 0-2.8 1.6-1.6 4 1.2 2 3.2 4 4.4 4 0.8 0 1.6-2 1.6-4 0-2.4-2-4-4.4-4zm72.4 4.8c-5.6 0-7.6 0.8-4.8 2 2.4 0.8 7.2 0.8 10 0 2.4-1.2 0.4-2-5.2-2zm-201.6 7.2c-1.2 0-3.2 1.6-4.4 4-1.2 2-0.4 4 1.6 4 2.4 0 4.4-2 4.4-4 0-2.4-0.8-4-1.6-4zm-16 21.6c-1.2 5.6-5.2 10.4-8.4 10.4-3.2 0-6 2-6 4.4 0 2 2 2.8 4.4 1.2 3.6-2 4 0.4 2 8-1.6 7.2-1.2 10.4 2.8 10.4 10 0 19.2-14.4 17.2-26-3.2-16.4-8.8-20.4-12-8.4zm112.4-8c-0.8-1.2-2.8 0.8-4.4 4.4-3.6 10.4-2.8 12.8 2 4.8 2.4-4 3.6-8.4 2.4-9.2zm-88.8 18.8c-1.6 2.4-2 4.8-0.8 6 0.8 1.2 2.8-0.8 4-4.4 2.8-6.8 0.4-8-3.2-1.6zm-47.6-0.4c-1.2 0-3.2 1.6-4.4 4-1.2 2-0.4 4 1.6 4 2.4 0 4.4-2 4.4-4 0-2.4-0.8-4-1.6-4zm-14.4 12c-5.6 0-8.4 7.2-4 10 5.6 3.6 4.8 8.4-2.4 15.6-5.6 6-5.6 6.4 0 6.4 3.6 0 6.4-2.4 6.4-5.6 0-2.8 4.4-8.4 10-12 5.6-3.6 10-8.4 10-10.8 0-2.8-2.4-2.4-6.8 0.8-5.2 4.4-6.8 4.4-8 0.4-1.2-2.4-3.6-4.8-5.2-4.8zm59.2 2c-1.2-1.2-3.6 0.8-4.8 4.8-2.4 5.6-2 6 2 2.4 2.8-2.8 4-6 2.8-7.2zm-43.2 16c-3.2 3.6-3.2 6-0.8 6 2.4 0 5.6-2 6.8-4.4 4.4-6.8-0.4-8.4-6-1.6zm136 1.6c0 2.4 1.6 5.2 4 6.4 2.4 1.2 2.8-0.4 1.6-3.6-2.8-7.2-5.6-8.4-5.6-2.8zm-127.6 17.6c-4.4 0.4-9.2 2.8-10 5.6-3.6 8.4 4 9.6 11.6 1.2 6.4-7.2 6.4-7.6-1.6-6.8zm17.6 3.2c-1.6 2.4-2 4.8-0.8 6 0.8 1.2 2.8-0.8 4-4.4 2.8-6.8 0.4-8-3.2-1.6zm163.2 2c-5.6-2.4-6-2-2.4 2 2.8 2.8 6 4 7.2 2.8 1.2-1.2-0.8-3.6-4.8-4.8zm16.8 6.8c-3.2 0-4.8 1.6-3.6 3.6 2 2.8 9.6 0.8 9.6-2.4 0-0.4-2.8-1.2-6-1.2zm-284.4 38.8c-0.8 0-1.6 1.6-1.6 4 0 2 2 4 4.4 4 2 0 2.8-2 1.6-4-1.2-2.4-3.2-4-4.4-4zm228.8 176c-0.8 0-2.4 2.8-4 6-1.2 3.2-0.4 6 1.6 6 2.4 0 4-2.8 4-6 0-3.2-0.8-6-1.6-6zm-23.6 25.6c-1.6 4-0.4 5.2 3.2 3.6 3.2-1.2 4.8-3.6 3.6-5.6-2.8-4.8-4.4-4.4-6.8 2z"/>
	</g>
</svg>