<svg version="1.2" xmlns="http://www.w3.org/2000/svg" viewBox="0 0 568 1204" width="568" height="1204">
	<title>Layer</title>
	<style>
		.s0 { fill: #000000 } 
	</style>
	<g id="Layer">
		<path id="Layer" fill-rule="evenodd" class="s0" d="m309.2 4.8c7.6 3.6 10 7.2 8.4 12-1.6 5.2 0 7.2 6.4 7.2 4.8 0 7.2 1.6 6 4-1.2 2-0.4 4 2 4 2.8 0 3.6 3.2 2 8.4-2.4 7.6-1.6 8.4 5.6 6.4 12-3.2 14 3.6 3.6 11.2-9.2 6.4-9.2 6.4-1.2 12.4 4 3.2 13.6 5.2 20.8 4.8 16.8-1.2 20.4 2.8 11.6 12.4-6.8 7.6-6.8 8 2 9.2 9.6 1.2 15.6 11.2 6.8 11.2-2.8 0.4-9.2 3.6-14 7.6-9.2 7.6-12 12.8-6 12 11.6-2 17.6 0.8 15.2 7.2-1.6 4-1.6 5.6 0 4 1.6-1.6 5.2-0.8 8.4 1.6 4 3.6 5.2 3.2 5.2 0 0-2.8 2-3.6 4-2.4 2.4 1.6 3.2 4.4 2 6.4-1.6 2-0.4 3.6 2 3.6 2.8 0 4 2.8 2.4 6-2 5.2 4 8 14.8 6.4 7.6-1.2 1.6 11.2-6.8 13.2-12 2.8-23.2-0.8-19.6-6.8 1.6-2.4 0.4-2.8-2.8-0.8-4 2.4-4 4.4 1.2 8 7.2 5.2 5.2 10.8-2.8 7.6-2.8-1.2-7.2 0.8-10 4-4 4.8-3.6 5.6 3.2 3.6 4.8-1.2 8.4-0.4 8.4 2.4 0 2.4-2.8 4.4-6.4 4.4-5.6 0-5.6 1.2-1.6 6 3.6 4.4 6.4 4.8 10 2 5.6-4.8 26-1.2 26 4 0 2 3.6 2.4 8 1.2 10-2.8 10 0 1.2 13.6-4 6-5.2 9.6-2.4 8 6.4-4 17.6 1.2 14.4 6.8-1.6 2.8-0.4 2.4 3.6-0.8 4.8-4 7.2-4 10.8 0.8 2.4 3.2 4 8 3.6 10.8-0.8 3.2 2.8 5.2 8.8 5.2 5.6 0.4 9.6 2.4 9.2 5.2-0.8 2.8 1.6 4 4.8 2.8 3.2-1.6 6-0.8 6 1.6 0 5.2-10 8.8-24.4 8.8-6.4 0-11.6 1.6-11.6 4 0 2 2.4 4 5.2 4 3.2 0 2.8 1.2-1.2 4-3.6 2-7.6 2-10.4-0.4-3.2-2.8-5.2-2.4-6.4 0.8-2.4 6.8-46.4 7.2-59.2 0.8-5.6-2.8-7.6-5.2-4.8-5.2 2.4 0 4.8-2 4.8-4.4 0-2-1.6-2.8-4-1.6-2 1.2-4 0.4-4-1.6 0-2.4-1.6-4.4-4-4.4-2 0-4 2.8-4 6 0 7.2-6.8 8-9.2 0.8-2.4-6-5.2-3.2-8.8 9.2-2.8 8.8-2.4 9.2 3.2 4.4 9.6-8 20.4-2.8 14.8 7.2-4.8 9.6-5.2 16.8-0.4 8.8 3.2-4.8 5.6-4.4 15.2 2 6 4 15.6 9.6 21.2 12l10 4.4-9.2 2.8c-10.4 3.6-9.6 13.2 0.8 11.2 3.6-0.8 6.4 0.8 6.4 3.2 0 2.4 2.4 6.8 5.2 9.2 6 5.6 18.8 7.2 18.8 2.4 0-4.8 14.8-4.4 18 0.4 1.6 2.4 4.4 3.2 6.4 2 2-1.6 3.6 0.4 3.6 4.4 0 4.8 1.2 5.6 5.2 2.4 4.8-4 26.8-4.8 26.8-0.8-0.4 5.6-15.2 19.6-23.6 22-7.6 2.4-9.2 1.6-7.2-3.2 2-5.6 0.8-5.6-12 0-12 4.8-14.8 4.8-17.6 0.4-2-3.2-3.6-3.6-3.6-0.8 0 2.8-3.6 5.6-8 6.8-4.4 1.2-8 5.6-8 9.6 0 5.6 3.2 7.6 12 8.4 6.4 0.4 18.4 4.4 26 8.8 7.6 4.4 14.8 6 16 4 1.2-2.4 6-2.4 12 0 5.6 2 12.8 2.8 16 1.6 8.8-3.6 7.6 8-2 16.4-4.4 4-8 5.6-8 3.6 0-2-2.8-0.4-6 3.6-4.4 6.4-8.4 7.2-22.8 4.8-9.2-1.6-21.2-5.6-26-8.8-5.2-3.6-9.2-4.4-9.2-2.4 0 2 4.4 6.4 10 9.2 9.2 4.8 9.6 6 3.6 12.4-7.6 8.4-17.2 8.4-41.6 0.8-20.8-6.8-28.8-12.4-25.2-18.4 1.6-2.4 0-3.2-3.6-1.6-3.6 1.2-8.4 0-10.8-2.4-3.2-3.2-4.4-3.2-4.4 0.8 0 2.8 3.6 6 8 7.2 4.4 1.2 8 5.6 8 10 0 4 1.6 6.8 3.6 5.6 2-1.2 5.6 0.4 8.4 3.6 2.8 3.2 7.2 6 9.6 6 9.2 0 14.4 8.8 10 17.2-3.6 6.4-3.2 7.2 2.8 3.6 7.2-4 20.4-2 28.4 4 2.8 2 6.8 2.8 8.8 1.2 6.8-4 20.4 5.6 20.4 14.4 0 6.8 1.2 7.2 8.8 3.2 6.8-3.6 9.6-3.6 13.2 2 2.8 3.2 6 5.2 7.6 3.6 1.2-1.6 5.2 0.8 8 5.2 5.2 6.4 4.8 8-0.4 10.8-12.4 7.2-29.2 10.4-29.2 5.6 0-2.8-2-1.6-4.4 2.4-4 7.2-4.4 7.2-9.6 0-2.8-4-6.8-6-8.4-4.4-1.6 1.6-5.2 1.2-8-1.2-7.2-6-13.2-1.2-10.8 8 1.6 6.4 3.6 7.2 12 4 7.2-2.8 9.6-2.4 8.4 1.2-2.8 7.6 16.8 21.2 28.8 20 8.8-1.2 10.4 0.4 10 10 0 10 1.6 11.2 12 11.2 9.2 0 12.4 2 13.2 8.8 1.2 7.6 3.2 8.4 13.2 6.4 13.6-2.8 15.6 3.6 3.6 13.6-4.4 4-8 10-8 14 0 7.2-3.2 8-32 8.8-8.4 0.4-10 2.4-10 12.4 0 11.2-0.8 12-16 12-8.8 0.4-20.4-1.2-26-2.8-9.6-3.2-9.6-2.8 1.6 6.4 10.4 8.8 11.2 10.8 6 16.8-4.8 6-4.8 6.4 2.8 4 6-1.6 9.6-0.8 11.2 3.6 1.6 4.8 4 5.6 10 2 5.2-2.8 8.8-2.8 10.4 0 1.6 2.4 4.4 2.8 6.8 1.6 3.2-2 3.6-0.4 2 4.4-2.4 5.6-1.2 6.4 5.2 4.8 6.8-1.6 8-0.8 5.6 6-2 6.8-1.2 8 4 6 3.6-1.6 6.4-1.2 6.4 0.4 0 1.6 4 4.8 9.2 6.8 10.4 4.8 12 16.4 2 15.6-4-0.4-7.2 0.8-7.2 2.8 0 2-2.8 2-6.8 0.8-4.8-2-5.6-1.2-3.2 2.8 2.4 4 1.6 4.8-3.2 2.8-3.6-1.2-7.2-0.4-8.4 2.4-1.2 3.6-3.2 3.2-6.4-1.2-3.2-4-5.2-4.4-6.4-1.6-2 4.8-20.4 2.8-24-2.8-2.8-4.8-16 2.4-19.2 10.4-1.6 4.8-0.8 5.2 4.8 2.4 12-6.4 19.2 0.8 13.6 13.2-4.4 10-4 10.4 7.2 10.4h12l-6.8 10.8c-6.8 10-6.8 10.8-0.4 8 4-1.2 8-0.8 9.2 1.6 1.6 2 4.4 2.8 6.4 1.6 2-1.6 4.8 0.4 6 4 2 5.2 6.4 6 20.4 4 16.8-2 17.2-2 15.2 7.2-2.4 8.8-1.6 9.2 9.6 7.6 8-1.2 12.4 0 12.4 2.8 0 7.6 19.2 24.8 22.4 20 1.6-2.8 4-2.8 6.4-0.4 6 6 0 12.8-11.6 12.8-6 0-13.6 2.8-17.6 6.4-4.8 4.4-10 5.6-14.4 3.6-7.2-3.2-11.2-4-26.8-5.2-4.8-0.4-6.4-2.8-4.8-6.8 2.4-6.8-11.6-8.8-15.6-2-1.2 2-0.4 4 2.4 4 3.2 0 3.6 1.2 0 5.2-3.2 4.4-2 6.8 6.4 10.4 10 4.4 10 4.4 4.8-2.4-5.2-6.4-4.8-6.8 1.6-1.6 6 4.8 9.6 16.4 5.2 16.4-0.8 0-9.6-3.6-19.6-7.6-21.6-9.2-34.8-4.8-15.2 5.2 13.2 6.8 16.4 14.4 6.4 14.4-3.2 0-6 2-6 4.4 0 2.4-2.8 3.6-6 2-7.2-2.8-8 4-0.8 6.8 3.6 1.6 3.2 3.2-1.2 6.4-5.2 4-3.2 6 4.8 4.8 1.6 0 4.8 3.2 7.2 7.6 2.4 4.4 2.8 8 1.2 8-1.6 0-0.4 1.6 2.8 3.6 3.2 2.4 10.8 2.8 16.8 1.6 9.6-2 11.2-0.8 11.2 6.4 0 4.8 1.6 7.6 4 6.4 2-1.2 6.8-0.8 10.4 1.2 5.6 3.2 5.6 4 0 8.4-7.2 6-8.8 20-2.4 20.8 2.4 0.4 6.4 0.8 9.2 1.2 2.4 0.4 4.4 3.6 4.4 6.8-0.4 4.8 2 6 7.6 4.4 6.8-1.6 7.6-0.4 6 6.4-1.6 6.4-0.8 8.4 4.4 8 25.2-2 26.4 4.4 3.6 20.8-16.4 12-24.4 13.2-15.6 2.4 3.6-4 3.6-6.4 0.4-8.4-2.4-1.6-5.6-1.6-6.8-0.4-1.6 1.2 0 2.4 3.2 2.4 3.2 0 1.2 2.4-4.4 5.6-8.4 4.4-10.8 4.4-14.8-0.8-2.8-3.6-5.2-4.4-5.2-2.4 0 2-3.6 4-8 4.4-4.4 0.4-8-1.6-8-5.2 0-3.2 2-5.6 4.4-5.6 2 0 2.8-2 1.2-4.4-1.6-3.2-4.8-0.8-8.4 5.6-5.6 10.8-8 10.8-25.2-0.4-0.8-0.8 0.8-2.8 4-4.8 3.2-2 4.4-4.8 2.8-6.4-1.6-1.6-5.2-0.8-7.6 1.6-2.8 2.8-8 4.8-12 4.8q-7.2 0-7.2 8.4c0 6 2 7.6 6 6 3.2-1.2 6-0.4 6 1.6 0 2.4 2.8 4 6 4 3.2 0 12 3.6 20 8 8 4.4 17.6 8 22 8 8.8 0 11.2 7.6 3.2 8.4-2.8 0-10.4 0.8-17.2 1.2-10.8 0.8-34-8.8-43.6-17.6-2-2-7.2-1.6-12 0.8-7.6 4-6.4 5.2 11.6 13.6 11.2 5.2 15.6 8.4 10 6.8-5.6-1.2-16-2.8-23.6-3.2-3.3-0.3-6.6-1-9.8-2 0.7-0.4 1.4-2.2 1.4-4 0-2.4-2-4-4.4-4-2 0-2.8 1.6-1.6 4 0.8 1.3 1.9 2.6 2.9 3.3-10.1-3.8-17.8-10.9-15.7-16.5 0.8-2.8 5.2-4.4 10-3.6 4.4 0.8 9.2-0.8 10.8-3.2 1.2-2.4 4.4-2.8 6.8-1.6 2.8 1.6 3.2 0.8 1.6-2-1.6-2.4-4.8-3.6-6.8-2.4-2 1.6-3.6-0.4-3.6-3.6 0-3.6 2-6.4 4.4-6.4 2 0 2.8-2 1.2-4.8-2.4-3.6-3.6-3.6-4.8 0-0.8 2.8-4 4.8-7.2 4.8-3.2 0-5.6 2.8-5.6 6 0 3.2-1.2 6-2.4 6-4 0-22.8-16-19.2-16 4-0.4-10.8-9.6-14.8-10-1.6 0-8.4-6-16-13.2-12-11.6-18.4-14.4-26.4-12-2 0.8-2.4 36.4-1.6 79.2 1.2 76.4 5.2 103.2 16 104.4 8.4 1.2 10.4 1.6 15.6 4.8 2.8 2 16 2.8 30 2.4 36.8-0.8 86.8 4 104.8 10.4 14.4 4.8 2.8 5.6-114 6.8-71.6 0.8-169.2 0.8-216.8 0-74-1.2-87.2-2.4-87.2-7.2 0-3.2 2-4.8 4-3.6 2.4 1.2 4 0.8 4-1.2 0-2 4.4-5.6 9.6-8.4 6.8-3.6 8.8-7.6 7.2-13.6-1.2-4.8-0.4-7.2 2-5.6 2.4 1.6 4.4-2.8 4.8-10.4 0.4-7.2 1.2-15.2 1.2-18 0.4-2.4 3.2-4.8 6-4.8 3.2 0 4.8-1.6 3.6-3.2-2-3.6 4.4-15.6 7.2-12.8 0.8 1.2 2.4 5.6 3.2 10 0.4 4.4 4 10 7.2 12.8 4.4 3.6 4.8 4.8 0.8 5.2-2.8 0-4 2-2.8 4 1.6 2.4 4 3.2 6 2 2-1.2 2 3.2 0 9.6-2.8 9.6-2 11.6 2.4 9.6 6.8-2.4 7.2 0.4 1.6 11.2-2.4 4-3.2 7.6-1.6 7.6 5.2 0 16.4-16 23.6-34 4.4-10 8.8-18 10-18 3.2 0 14 28.4 13.6 34.8-0.8 6.4 0.8 6.4 10.8 0.8 4.4-2 6.8-5.6 5.6-8-1.6-2-0.4-3.6 2.4-3.6 2.8 0 3.6-4 2.8-10-1.2-6-0.4-8.8 2-7.2 2.4 1.6 3.2 0 1.6-4-1.2-3.6-0.8-7.6 1.6-8.8 2-1.6 2.8-4 1.6-6-1.2-1.6 0.4-8.8 3.6-16l5.2-12.8 4.4 12c2.4 6.8 3.2 13.2 2 14.4-1.6 1.2-0.4 2.4 2 2.4 2.4 0 3.6 2.8 2.4 6-1.6 3.2-0.4 6 2.4 6 2.4 0 3.2 2 1.6 4.4-1.2 2.4 0 6 2.8 8 4.4 2.8 3.6 3.6-2.4 3.6-4.8 0-6.4 1.2-3.6 3.2 2.4 1.6 6 6.8 7.6 12 1.6 5.2 4.8 8.4 8 7.6 2.8-1.2 6.8-0.4 9.2 2 6.4 6.4 20.4-5.2 25.6-20.8 2.8-8.8 5.2-63.2 6-142.8 2-146 5.6-132.4-34.8-140.8-12-2.8-28-8.4-35.2-12.4-12.8-7.6-13.2-7.6-19.6 0-6.8 7.6-15.6 7.2-10.8-0.8 1.6-2.8 0.8-3.2-1.6-1.6-2.4 1.6-3.6 4.8-2.4 7.6 1.2 3.6-2 5.2-10.4 4.4-7.6-0.4-12 1.2-12 4.4 0 8-7.6 11.2-13.6 6.4-4-3.2-9.2-2.8-20.4 1.6-8 3.6-17.6 5.6-21.2 4.8-4.8-1.2-3.6-2.8 5.2-6.4 8.8-3.6 10.4-5.6 6-8.4-3.6-2-8.4-1.2-13.6 2.4-4.4 3.2-12.4 5.6-17.2 5.6-5.2 0-9.2 2-9.2 4.4 0 2.4-4.4 0.4-10.4-4-12.8-10-12.4-14.4 1.6-14.4 9.6 0 10.8-1.2 9.6-11.2-0.8-8.8 0.8-12 6.8-13.6 4.8-1.2 8.4-4.8 8.4-7.6 0-3.2 4-6 9.2-6 19.2-1.2 20.8-1.6 19.6-8.8-0.8-5.2 1.6-6.8 12.8-6.8 11.6 0 13.6 1.2 11.6 6.8-2 5.2-1.2 6 5.2 3.2 4-1.6 10.8-3.2 14.8-3.6 3.6 0 6.8-1.6 6.8-3.2 0-2 7.2-2 16-0.8 11.6 2 17.2 0.8 22.4-4 8.4-8.8 4.8-12.4-6.4-6.4-4.8 2.4-9.6 3.6-10.8 2.8-0.8-1.2 2-4 6.4-6.8 12.8-6.4 10-12-5.6-12-18 0-18-6.8 0-10.4 7.6-1.2 15.2-4 16.4-6.4 1.2-2 4.4-1.6 8 1.2 4.4 3.6 6 3.2 8-2 1.6-4 6.4-6 12.8-5.6 6 0.8 10.8-1.2 11.6-4.8 1.6-5.2 1.2-5.2-2.4 0-6.4 9.6-8.4 2.4-2.4-9.2 6-11.6 2.8-16.4-8.8-12.4-6 2.4-6.4 1.6-2-2.8 6.8-7.2 6-10-3.2-10.4-4.4-0.4-8 1.6-8 4 0 2.8-4.4 8.4-10 12.4-6.8 5.2-8.8 8.8-5.6 10.8 2.4 1.6 3.2 4.8 1.6 7.6-2 3.2-4 3.2-5.6 0.8-4-6.4-45.2 13.6-44.4 22 0.4 4 0.8 11.6 0.4 17.2-0.4 7.6-1.2 8.8-4.4 4-2-3.2-4.8-4.4-6.4-2.8-1.6 1.6-5.2 0.8-8-1.6-3.6-2.8-8.4-2.4-16.8 2-12 6-31.6 5.2-38.8-2-2-2-6.4-3.6-10-3.6-4.8 0.4-4.8 1.2 1.2 5.6 6.4 4.8 6 5.6-5.6 8-6.8 1.2-16 0.4-20.8-2.4-10.8-6-22.8-7.6-22.8-2.8 0 2 4.4 3.6 9.6 3.6 5.6 0 11.2 2 12.4 4 2.8 4.8-15.6 3.6-20.4-1.2-1.6-1.6-6.8-2.8-12-2.8-11.6 0-21.6-4-21.6-8.4 0-2 1.2-3.2 3.2-3.2 8 1.2 13.2-0.8 12-5.2-2-5.6 6-15.2 12.4-15.2 2.4 0 4.4-3.6 4.4-7.6 0-9.2 7.6-12.8 17.2-7.6 4.4 2.4 6.8 2 6.8-1.2 0-2.4 2.8-3.6 5.6-2.4 4.4 1.6 5.2 0.4 3.6-4-2-5.2-0.8-6 6-4.4 6.4 1.6 8.8 0.8 8.8-3.6 0-4.8 2.8-5.6 11.6-4 9.6 2 12.4 0.8 14.4-5.6 2.4-7.2 4.8-8 16.4-5.6 10.8 2 13.6 1.2 13.6-4 0-3.2 2.4-6 5.6-6 3.6 0 5.6-3.6 5.2-8.4-0.4-5.6-2.8-7.6-7.6-6.4-4 1.2-10.8-2-16-7.6-5.2-5.2-12.4-9.6-16.4-9.6-4 0-6.4-1.6-4.8-3.6 3.6-6.4 25.6-16 28-12.4 0.8 1.6 5.6 4 10 5.2 6.8 1.6 7.6 0.8 5.2-8.4-2-8-1.2-9.6 4-7.6 10.8 4 11.6-9.2 0.8-18-12.8-10-12.8-16 0-12.8 7.2 1.6 10 0.8 10-3.6 0-3.2 3.6-6.8 8-8 4.4-1.2 8-0.4 8 1.6 0 3.2 9.2-3.2 22-15.2 2.8-2.8 6-4 7.2-2.8 4 4 22-7.6 20-12.8-2.8-7.6-9.2-7.2-9.2 0.4 0 3.6-3.6 6-8.8 6-5.2 0-19.6 1.2-32 2.4-24 2.4-28 0.4-16-8.8 6-4.8 3.6-5.2-15.2-2.8-27.2 3.2-30.8 3.2-47.2 0-18.4-3.2-19.6-5.6-4.4-8.8 11.2-2.4 12-3.6 6.8-7.6-3.2-2.4-7.2-8.4-8.8-13.6-3.2-9.2 2-10 18.8-2.8 3.6 1.6 10 1.6 14 0 6.4-2.4 6.4-2.8-0.4-8-5.6-4-6.8-8.4-5.2-17.2 2.4-10 4-11.2 15.2-9.6 8 1.2 14 0 16.8-3.6 2.4-3.2 7.6-6 11.6-6.4 17.2-0.8 18.4-1.6 16.4-7.2-1.6-3.2-0.4-6.4 2-6.4 2.4-0.4 6.4-0.8 8.4-1.2 2.4 0 5.6-2.8 7.6-5.6 1.6-2.8 5.6-4 8.8-2.8 3.2 1.2 9.6-1.6 14.4-6 5.2-4.4 11.6-6.8 15.2-5.6 4 1.6 11.2-1.6 19.2-8.8 8.8-8 16.8-11.6 25.6-11.6 16 0.4 21.6-12.8 8-17.6-8.8-3.2-8.8-3.2-0.4-6 4.4-1.2 8.4-5.2 8.4-8.4 0-4.4-1.6-4.8-4.4-2-2 2-7.2 4-11.2 4-4 0-7.2 1.6-7.2 3.6 0 2-3.6 2.8-8 1.6-9.2-2.4-10.4 2.8-2.8 10.4 4 4 2.4 6.8-6.8 14.4-11.2 8.8-21.2 10-16.4 1.6 1.6-2 0.8-3.6-1.6-3.6-2 0-5.2 1.6-6.4 4-1.2 2-5.2 4-8.4 4-3.2 0-4.8-2-3.6-4 1.2-2.4 0.4-4-1.6-4-2.4 0-4.4 1.6-4.4 3.6 0 3.6-14 10-32 14.4-6.8 1.6-8.4 1.2-4.4-1.2 7.2-5.2 2.4-7.2-22.8-10.8q-21-3-18-7.2c1.6-2.8 0-2.8-3.6 0.4-5.2 4-7.2 4-9.6 0.4-1.6-2.8-0.8-6 1.6-6.8 3.6-1.2 3.6-3.6 0.8-9.2-4.8-8.4-3.2-9.2 14.4-4 14.4 4 24 0 20.4-9.2-2.4-6.4 3.2-8.4 17.2-6.4 4.8 0.8 4.8-0.8-1.2-6.8-8-9.2-8.8-13.6-1.2-10.8 2.8 1.2 12-1.6 20-6 8-4.8 18-8.4 22.4-8.4 4.4 0 8-2 8-4 0-2.4 2.8-4 6-4 3.6 0 13.6-3.6 22.4-8.4 15.6-7.6 28-7.2 15.6 0.4-3.2 2.4-4 4-1.6 4 2.4 0 6.8-2.8 9.6-6 5.6-6.8 14-8.4 10-2-1.2 2.4 0.4 2.8 3.6 1.6 4.8-2 6.4-8.8 6.4-29.2 0-25.6-0.4-26-7.2-18-3.6 4.8-10 8-14.4 7.6-5.6-1.2-6.4-0.4-2.8 3.2 8 8 4.8 11.2-5.2 4.8-6.4-4.4-10.4-5.2-12.4-2-1.2 2.4-4.4 3.2-6.4 2-2-1.6-3.6-0.4-3.6 1.6 0 2.4-3.2 4-6.8 3.2-4-0.4-7.2 0.8-7.2 3.2 0 4 2.8 4.4 13.6 1.6 2.8-0.8 6.4 0.8 7.6 4 1.2 3.2 0 4.4-2.8 2.8-2.4-1.6-6.4 1.6-9.2 7.2-2.4 5.6-7.6 10.4-11.6 10.4-3.6 0-7.6 1.6-8.4 4-0.4 2-8 4.4-16 5.2-14.8 1.6-16.4 0.4-16-13.2 0.4-3.2-1.6-0.8-4.4 5.2-2.8 6.8-6.4 10.4-10 8.8-3.2-1.2-8-0.4-10.8 2-3.6 2.8-8.4 2.8-16 0-7.6-2.8-12-2.8-14-0.4-3.6 6-32-2.4-32-9.6 0-4 3.6-5.2 11.6-4 8.8 0.8 11.2 0 9.6-4-2.4-6.4 15.6-12.4 22.8-8 3.6 2.4 3.6 0.8 0.4-5.2-6.8-12.4-5.6-21.2 2.8-20 4.8 0.8 6.4-1.2 5.6-6-1.2-6 0.4-6.8 6.8-4.8 5.2 1.6 8.4 0.8 8.4-2 0-2.4 3.2-4 7.2-3.6 3.6 0.4 7.6 0 8.8-0.4 2.4-0.8 14-3.2 30-5.6 6.4-1.2 14-4.8 16.4-8.4 3.6-4.8 5.2-5.2 6.4-1.2 1.2 3.2 6.4 0.4 14.8-8.8 9.6-10.8 13.6-12.8 16-8.8 2.8 4.4 3.6 4 5.6-1.2 2-4.8 4.4-5.6 10.4-2.4 8.4 4.8 12.4 2 12.4-8.4 0-7.6-6-9.6-10-3.2-1.2 2-6 4-10.4 4-4 0-7.6-2-7.6-4 0-2.4 2.8-4 6-4 3.2 0 6-2.4 6-5.6 0-3.2 2-7.2 4-8.4 2.4-1.6 3.6-0.4 3.2 2.4-0.8 2.4 1.2 5.6 4 6.4 2.8 1.2 4.8-1.2 4.8-6q0-7.8-9.6-9.6c-7.2-1.6-9.2-0.4-7.2 4 1.6 4.8 0 5.6-6.4 4-4.8-1.6-8.8-0.8-8.8 1.6 0 2.4-2.8 3.2-6 1.6-3.2-1.2-6-0.4-6 2 0 2.4-1.6 3.2-3.6 2-2-1.6-8.4-0.8-14 1.6-6.4 2.4-10.8 2.4-12.4-0.4-1.6-2-7.2-0.4-14 4.4l-11.6 8-7.6-8c-7.2-7.6-8.4-8-14-2.4-7.2 7.2-16.8 8.8-12.8 2 1.6-2.4-0.4-6.4-4.4-9.2-10.4-7.6-4.4-18.4 10.4-18.4 7.2 0 13.2-2.4 14.4-6 2-5.2 3.6-5.2 8.8-1.2 4.4 3.6 6.4 4 7.6 0.8 0.8-2.4 6-3.6 11.2-2.4 6 0.8 10 0 10-2.8 0-2.4 4.4-4.4 10-4.4 5.6 0 10-2 10-4 0-2.4 1.2-3.6 3.2-3.6 8 1.2 12.8-0.8 12.8-6.4 0-4.8-2.4-4.8-14.8-0.8-16.4 5.6-33.2 1.2-33.2-8.4 0-6-20.4-5.2-24.8 1.2-1.6 2-6.8 1.6-12.8-2-5.6-2.8-11.6-4.4-12.8-2.8-3.6 3.2-17.6-4.4-17.6-9.2 0-2.4 2.4-4 5.6-4 3.2 0 6.8-2.8 8-6.4 1.2-3.2 4.4-4.8 6.4-3.6 2.4 1.6 8.8 1.6 14 0.4 6.8-1.6 8.8-4.4 7.2-10-2.4-8.8 10-13.2 21.2-7.2 5.2 2.8 7.6 2.8 8.8-0.4 0.8-2.8 3.2-4 5.2-2.8 2 1.6 2.4-0.8 0.8-4.4-1.6-4.4-1.2-6 1.6-4.4 2.4 1.6 5.2 0.4 6.4-2 1.2-4 3.6-4 10.8 0 4.8 3.2 7.6 3.6 6 1.2-1.2-2.4 0-5.6 3.2-6.8 3.6-1.2 4.8-5.6 3.6-12.4-1.6-9.2-0.8-10 6.8-8 4.4 1.2 8.4 0.4 8.4-1.6 0-2 4.8-1.6 10.4 0.4 15.6 6 21.6 4.8 21.6-4 0-6.8-1.2-7.6-7.6-4-8.8 4.4-20.8 1.2-25.6-6.8-1.6-2.8-6.8-5.2-10.8-5.2-9.6 0-28-8.4-28-12.4 0-2 2.8-2.4 6.4-0.8 3.6 1.2 8 0 9.6-2.8 2.4-4 4.8-4.4 8.8-0.8 3.2 2.4 7.6 2.8 10.4 1.2 6.4-3.6 2-16.4-5.6-16.4-3.2 0-5.6-0.8-5.6-1.6 0-0.8-1.2-4.8-2.8-8.8-2-5.2-1.2-6.4 4-4.4 3.6 1.2 6.8 0.8 6.8-1.2 0-2 4-4 9.2-4.8 6.8-0.8 8.8-3.6 8-12.4-0.4-8.4 1.2-10.8 7.2-10.8 4 0 7.6-2 7.6-4 0-5.6 8-5.2 21.2 0.8zm-23.2 63.2c-1.2 2.4 0.4 2.8 3.6 1.6 3.6-1.2 6.4-3.2 6.4-4 0-3.2-7.6-1.6-10 2.4zm41.6 0c-2 0-2.8 1.6-1.6 4 1.2 2 3.2 4 4.4 4 0.8 0 1.6-2 1.6-4 0-2.4-2-4-4.4-4zm-51.6 16c-2 0-4 2-4 4.4 0 2 2 2.8 4 1.6 2.4-1.2 4-3.2 4-4.4 0-0.8-1.6-1.6-4-1.6zm53.6 16c-0.8 0-1.6 1.6-1.6 4 0 2 2 4 4.4 4 2 0 2.8-2 1.6-4-1.2-2.4-3.2-4-4.4-4zm-11.2 48c-1.2 0-3.2 1.6-4.4 4-1.2 2-0.4 4 1.6 4 2.4 0 4.4-2 4.4-4 0-2.4-0.8-4-1.6-4zm-28.8 12c-3.2 0-4.8 1.6-3.6 4 1.2 2 4 4 6.4 4 2 0 3.6-2 3.6-4 0-2.4-2.8-4-6.4-4zm25.2 2.8c-4.8 4.8-2.8 8.8 3.2 6.8 3.2-1.6 6-4 6-6 0-4.4-5.6-4.8-9.2-0.8zm25.2-2.8c-2 0-4 1.6-4 4 0 2 2 4 4 4 2.4 0 4-2 4-4 0-2.4-1.6-4-4-4zm18.4 0c-3.2 0-7.2 1.6-8.4 4-1.2 2 0.4 4 3.6 4 3.2 0 7.2-2 8.4-4 1.2-2.4-0.4-4-3.6-4zm-83.6 12.8c-1.6-6.4-1.6-6.4-4.8 0-1.6 4-5.6 7.2-9.2 7.2-6 0-6 0.4-0.4 6.4 4.8 4.4 9.6 5.2 19.2 2.8 12.8-3.2 16-12 3.6-10.4-3.6 0.8-7.2-2-8.4-6zm-62.8-0.8c-2 0-4 1.6-4 4 0 2 2 4 4 4 2.4 0 4-2 4-4 0-2.4-1.6-4-4-4zm20.8 18.4c-2.4-1.2-5.6-0.4-6.8 2-3.6 5.6-0.8 8 5.6 4q4.8-3.6 1.2-6zm87.2 36.4c-6.4-1.6-8 0-8 8 0 10.8 8.4 21.2 16.8 21.2q4.8-0.6-2.4-6c-4.4-3.2-6.4-7.2-5.2-8.8 1.6-1.6 5.2-0.4 7.6 2 2.8 2.8 6.8 4.8 9.2 4.8 2 0 0.8-2-2.8-4.4-4-2-7.2-6.4-7.2-9.2 0-3.2-3.6-6.4-8-7.6zm40 29.2c-2 0-4 2-4 4.4 0 2 2 2.8 4 1.6 2.4-1.2 4-3.2 4-4.4 0-0.8-1.6-1.6-4-1.6zm55.2 2c-8.4-1.2-15.6-0.4-17.2 2.4-1.6 2-0.4 3.6 2.4 3.2 3.2-0.4 10.8 0.4 16.8 2.4 6.4 1.6 15.2 1.2 20-1.2 8.4-4 8.4-4 0.8-4.4-4.4 0-14.8-1.2-22.8-2.4zm-96 6c-3.2 0-5.6 4-5.6 10 0 8.4 2 10 11.2 10 6 0 11.2-2 11.2-4 0-3.6-5.6-5.6-12.8-4.4-1.6 0-2-2.4-0.8-5.6 1.6-3.6 0-6-3.2-6zm109.2 12c-2.4 0-5.2 1.6-6.4 4-1.2 2 0.4 4 3.6 4 3.6 0 6.4-2 6.4-4 0-2.4-1.6-4-3.6-4zm-40.4 4c-2 0-4 1.6-4 4 0 2 2 4 4 4 2.4 0 4-2 4-4 0-2.4-1.6-4-4-4zm-70 40q-4.8-4.2-4.8 1.2c0 2.8 3.6 5.6 7.6 5.6 4 0.4 7.2-1.2 7.2-3.6 0-2.4-1.2-3.2-2.8-2-1.2 1.6-4.4 0.8-7.2-1.2zm-3.2 14.8c-1.2-2.4-2.4 0-2.4 6-0.4 12.8 1.6 13.6 10 5.2 5.6-5.2 5.6-6 0.4-6-3.6 0-7.2-2.4-8-5.2zm1.2 23.2c-4.4 5.2-4 5.6 2 3.6 5.2-2.4 6.4-1.6 4 2.4-2 3.2-1.2 4.4 2.4 3.2 3.2-1.2 5.6-4.4 5.6-7.2 0-8-8-9.2-14-2zm36-6c-2 0-4 2-4 4.4 0 2 2 2.8 4 1.6 2.4-1.2 4-3.2 4-4.4 0-0.8-1.6-1.6-4-1.6zm-8.8 18c-7.6-3.2-10 3.6-3.2 8 7.2 4.4 39.2 6.4 41.6 2.8 1.2-2-5.2-4.8-14.8-6-9.2-0.8-20-3.2-23.6-4.8zm57.2 4c-8.8-0.4-12.4 1.2-14 7.6-4 14.4-2.8 14.8 14 6.4 9.2-4.8 15.2-9.6 14-10.8-1.2-1.6-7.6-2.8-14-3.2zm-77.6 18.4c-0.5 0-3.2 1.2-5.6 2.4-6 2-6.8 36-1.6 44.8 3.2 4.8 4.8 4.8 10-0.8 6.8-6.8 4.8-30.8-2.4-30.8-2.4 0-3.2-3.6-2-8 1.1-3.9 1.5-7.2 1.6-7.6zm0 0q0-0.1 0 0 0 0 0 0zm19.6 24.8c-1.2-1.6-2.4 0.8-2 5.2 0 4.4 1.2 5.6 2.4 2.4 1.2-2.8 0.8-6.4-0.4-7.6zm-94.4 22.8c-5.2 3.2-4.8 4 1.2 4 3.6 0 6.8-2 6.8-4 0-4.8-0.4-4.8-8 0zm211.6-4c-2.4 0-2.8 1.6-1.6 4 1.2 2 4.4 4 6.4 4 2.4 0 2.8-2 1.6-4-1.2-2.4-4.4-4-6.4-4zm-134 60c-0.8 0 0 3.6 2.4 8 2.4 4.4 5.2 8 6.4 8 0.8 0 0-3.6-2.4-8-2.4-4.4-5.2-8-6.4-8zm-41.6 14c-5.6 3.2-7.6 5.6-4.8 6 8.8 0 5.2 6-8 12-7.2 3.2-14.8 6-16.4 6-1.6 0-4.4 2.4-6.4 5.2-1.6 3.2-6.4 4.8-10.4 4-4-0.8-9.6 2.8-13.2 8.4-6.4 9.6-6.4 9.6 2 7.6 8.4-2.4 8.4-2 2.8 6.8-5.6 8.8-5.6 9.6 2.4 12 6 2 13.6-0.8 25.2-8.4 16.4-10.8 16.8-11.2 6.8-13.6-5.6-1.6-12.4-0.8-15.6 1.6-4.4 3.6-5.2 3.2-3.6-1.6 0.8-3.2 8.8-9.2 17.6-13.6 8.4-4 16.4-8.8 16.8-10.8 0.8-2 4-3.6 6.8-3.6 2.8 0 6.4-4.8 7.6-10.4 3.6-13.6 2.4-14-9.6-7.6zm32.4-5.2c-6.4-2-5.6 8 1.2 17.6 5.6 7.2 6 6.8 4.8-4.4-0.8-6.4-3.2-12.4-6-13.2zm-91.6 18.4c-6.8 4.4-10 22-3.6 19.6 2.8-0.8 4.8-4 4.8-7.2 0-3.2 1.6-8 3.2-10.8 3.6-5.6 2.8-6-4.4-1.6zm139.2-3.2c-2 0-4 2-4 4.4 0 2 2 2.8 4 1.6 2.4-1.2 4-3.2 4-4.4 0-0.8-1.6-1.6-4-1.6zm-102.4 4.4c-4.4 0-5.6 1.2-2.4 2.4 2.8 1.2 6.4 0.8 7.6-0.4 1.6-1.2-0.8-2.4-5.2-2zm114.4-0.4c-2.4 0-2.4 2.8 0.8 8 5.6 8.8 9.6 7.6 6-2-1.6-3.2-4.4-6-6.8-6zm-138 8c-1.2 2.4 0.4 2.8 3.6 1.6 3.6-1.2 6.4-3.2 6.4-4 0-3.2-7.6-1.6-10 2.4zm24 15.6c-6.4 2.8-5.6 3.6 5.6 5.6 19.6 4 24.4 3.6 24.4-2.4 0-6-17.2-7.6-30-3.2zm-47.6 4.4c-0.8 0-2.4 2.8-4 6-1.2 3.2-0.4 6 1.6 6 2.4 0 4-2.8 4-6 0-3.2-0.8-6-1.6-6zm-38 17.6c-2-6.4-4-8.4-4-4.8-0.4 4-2.4 7.2-5.2 7.2-3.2 0-2.4 2.4 2 6.8 3.6 3.6 7.6 6 8.4 4.8 1.2-1.2 0.4-7.2-1.2-14zm10.4-2.8c-5.6 5.6-2.4 9.2 8.4 8.8 9.2-0.8 9.6-0.8 1.6-2.4-4.8-0.8-8-3.6-6.8-5.6 2.8-4 0.4-4.8-3.2-0.8zm101.2 21.2c-1.6 0-2.4 4-0.8 8.8 1.2 6 0.8 7.6-2.8 5.6-2.4-1.6-4.4-1.6-4 0.4 1.6 8.8-0.8 13.6-5.2 10.8-2.8-1.6-4-1.6-2.4 0.4 1.6 1.6 1.2 5.6-1.2 8.8-3.6 4-2.8 5.2 4 5.2 5.6 0 8 1.6 6 4.4-1.2 2.4-7.2 3.6-12.8 2.4-10.4-2-10.4-1.6-2.8 4 8 5.6 8 5.6 0 11.2-28.4 19.6-33.6 24.8-34 30.4 0 4.8 5.2 3.6 27.2-7.2 14.8-7.2 28.8-14.4 30.8-16.4 2.4-2 3.6-17.2 2.8-36-0.8-18-2.8-32.8-4.8-32.8zm26.4 12c-0.4 0 0 8 0.8 18 1.2 14.4 3.2 18 8.8 18 4.4 0 8.8 2 10 4.4 1.6 2 4.8 3.2 7.2 2.4 2.8-0.8 8 2.8 12 7.6 4 5.2 9.6 8.4 12.8 6.8 3.2-1.2 6 0 6 2.8 0 2.8 3.2 4 7.6 2.8 4-0.8 10.8 0 14.8 2 4.4 2.4 3.6 0.4-2.4-4.4-5.6-4.4-12.8-8.4-16.4-8.4-3.6 0-8.8-2.8-11.6-6-2.8-3.2-7.2-6-9.6-6-10.8-0.4-15.2-6.8-10.8-15.2 4-7.6 2.8-9.2-12.4-16.8-9.2-4.4-16.8-8-16.8-8zm144 40c-1.2 0-3.2 1.6-4.4 4-1.2 2-0.4 4 1.6 4 2.4 0 4.4-2 4.4-4 0-2.4-0.8-4-1.6-4zm-136.4 4c-4.8 0-6 4-5.2 18 0.4 14.8 6.8 36 7.2 24 0-2.4 2-1.2 4.4 2 3.2 4.8 3.6 4 1.6-3.2-1.6-4.8-1.2-8.8 0.8-8.4 9.2 1.6 14-0.8 11.6-6.4-1.2-3.2-0.4-6 2-6 2.8 0 3.6 4 2 10.4-2 7.6-1.2 10 2.4 8.8 2.8-1.2 9.2 2.8 14 8.4 7.6 8.4 9.2 9.2 9.2 3.2 0-3.6-1.6-6.8-4-6.8-2 0-4-3.2-4-7.2 0-8.8-10-18.8-22.8-22.4-4.4-1.6-9.6-5.2-10.8-8.4-1.2-3.2-4.8-6-8.4-6zm-80.8 12c-5.2 0-9.2 1.6-9.2 4 0 5.2 4.4 5.2 12 0 4.8-3.2 4.4-4-2.8-4zm45.2 12c-8 0-38 21.6-42.8 30.8-3.6 6.8-3.6 10 1.2 14.8 4.8 4.4 7.2 4.8 11.2 1.2 4-4 4.4-2.4 2.4 6.4-2.4 10-2 11.2 5.6 8.8 6-2 7.6-1.2 5.6 3.6-1.2 3.6-4.8 6.4-8 6.4-7.6 0-6.8 5.6 1.6 13.2 9.6 8.4 27.2 8.8 30.4 0.4 3.2-8 3.2-30 0-61.2-1.6-13.6-4.8-24.4-7.2-24.4zm100 11.6c-1.2 2 0.8 6 4.4 8.8 5.2 4.4 6.8 4.4 8 0.4 1.2-2.4 4-4 6.4-2.4 2.8 1.2 1.2-0.8-2.8-4-8.8-7.2-12.8-8-16-2.8zm-64.8 16.4c-0.8 0-1.6 2.8-1.6 6 0 3.2 2.8 6 6.4 6 5.6 0 5.6-1.2 1.6-6-2.8-3.2-5.6-6-6.4-6zm4 18.4c-4.4-1.6-5.6 2.8-5.6 19.6 0 17.6 1.2 21.2 6 19.6 3.2-1.6 6-4 6-6.4 0-2 1.6-2.8 3.6-1.6 4 2.4 10-9.6 6.4-12.8-1.2-1.2-2 0-2 3.2 0 4-1.2 4-6.4-0.4-3.2-2.8-5.2-8.4-4.4-12 1.2-4-0.4-8-3.6-9.2zm108 17.6c-3.2 0-4.8 1.6-3.6 4 1.2 2 5.2 4 8.4 4 3.2 0 4.8-2 3.6-4-1.2-2.4-5.2-4-8.4-4zm-239.6 8c-1.2 0-2 2-2 4.4 0 2.4-2.4 3.6-5.6 2.4-5.6-2.4-21.6 11.6-17.6 15.2 1.2 1.2 4.4-0.4 7.2-4 2.8-3.2 8.4-6 12.4-6 4.4 0 7.6-2.8 7.6-6 0-3.2-0.8-6-2-6zm263.6 4.4c-4.4 0-5.6 1.2-2.4 2.4 2.8 1.2 6.4 0.8 7.6-0.4 1.6-1.2-0.8-2.4-5.2-2zm-299.2 19.6c-3.6 0-6.4 2.8-6.4 6.4 0 6.8 8.8 5.6 11.2-1.6 0.8-2.8-1.2-4.8-4.8-4.8zm165.2 52.8c0.4 5.6 4 7.2 15.6 7.2 23.6 0 28-5.6 12-15.2-14-8.8-30.8-24.8-25.6-24.8 3.6 0 22.8 12.4 32 20.8 7.2 6.8 22.4 10 22.4 5.2 0-2.4-21.6-23.6-37.2-37.2-21.2-17.2-22-15.6-19.2 44zm-58.4-43.6c-13.6 4.8-21.2 14.8-10.8 14.8 8.8 0 4.4 9.6-4.8 11.2-20 2.8-24 5.2-30.8 16.8-4.8 7.6-5.6 12-2.4 12 2.4 0 3.6 2.8 2 6-4 10.4 11.2 20.4 41.2 28 16 3.6 29.6 6.4 30 5.6 3.2-3.2 6-76.4 3.6-88-2.4-12.4-6.4-13.2-28-6.4zm-196.8 10.8c-4.8 0-10 8-7.2 10.8 2.8 2.8 10.8-2.4 10.8-7.2 0-2-1.6-3.6-3.6-3.6zm35.2 8c-2 0-2.8 1.6-1.6 4 1.2 2 3.2 4 4.4 4 0.8 0 1.6-2 1.6-4 0-2.4-2-4-4.4-4zm300.4 28c-27.6-10.8-27.6-0.8 0 12.8 11.2 5.6 19.2 9.2 18 8-0.8-1.2 0-4.4 2.4-7.6 2.4-2.8 3.6-5.2 2.4-5.2-1.6 0-11.6-3.6-22.8-8zm-74.4 12h-9.6v108l11.2-4.4c6-2.4 23.2-4.4 38-4.4 24.4 0 26.8-0.4 20-5.2-4.4-3.2-15.6-8-24.4-10.8-9.2-2.8-16.8-6.8-16.8-8.4 0-2 1.6-2.4 3.2-1.2 2 1.2 3.6-0.4 3.6-3.6 0-3.2-2-5.2-4.4-4.8-2.4 0.4-4.8-3.2-5.6-8.4-1.2-8-0.4-8.8 10-6.4 10 2.8 10.8 2.4 5.6-3.6-2.8-4-4-6.8-2-6.8 1.6 0 1.2-2-1.6-4.8-2.8-2.8-4.8-7.6-4.8-10.8 0-4 2.8-3.2 10.8 4 8 7.2 10 8 8 2.4-2.8-7.2 3.2-9.6 7.2-2.8 1.6 2.4 4.4 3.2 6.4 1.6 4.8-2.8-8.8-16.8-23.6-24.8-13.2-6.4-14-6.4-11.6 4l2.4 9.2-6.4-9.2c-3.6-4.8-10.4-8.8-15.6-8.8zm128 20c-0.8 0-1.6 1.6-1.6 4 0 2 2 4 4.4 4 2 0 2.8-2 1.6-4-1.2-2.4-3.2-4-4.4-4zm63.2 0c-2 0-6 2.8-8.8 6-2.8 3.2-3.6 6-2.4 6 1.6 0 5.6-2.8 8.8-6 3.6-3.2 4.4-6 2.4-6zm-368 8.8c-2.8-0.8-4 0.8-2.4 4.8 2.8 7.2 11.2 8.8 8.8 1.6-0.8-2.4-4-5.6-6.4-6.4zm215.6 76.8c-18-1.6-25.2 0-35.2 6.8-20.4 13.2-17.2 31.2 7.6 44 8.8 4.4 23.6 13.6 32.4 20 16 11.6 35.2 14.8 46 8 4.8-2.8 4.8-4.8 0.4-12-3.2-4.4-7.6-8.4-10-8.4-2.8 0-5.6-4-6.8-8.8-2.8-9.6 1.2-16.4 4-8.4 1.2 2.8 5.6 5.2 10 5.2 8 0 8.4-0.4 1.2-8-6.4-7.2-6.4-8-0.8-8 13.2 0 5.6-10.8-16.8-23.6-5.2-2.8-19.6-6-32-6.8zm71.6 70.4c-3.2-4.8-4-4.4-4 2.8 0 5.2 2 9.2 4 9.2 2.4 0 4-1.2 4-3.2 0-1.6-2-5.6-4-8.8zm-27.1 63.3q0.8 0.4 1.7 0.7-0.1 0-0.2 0c-0.4 0-1-0.3-1.5-0.7zm-213.3 100.7c-9.6 0-8.4 9.2 1.6 11.2 4 0.8 6.8-1.2 6.8-4.8 0-4-3.6-6.4-8.4-6.4zm36.4 0c-2 0-4 2-4 4.4 0 2 2 2.8 4 1.6 2.4-1.2 4-3.2 4-4.4 0-0.8-1.6-1.6-4-1.6z"/>
	</g>
</svg>