<svg version="1.2" xmlns="http://www.w3.org/2000/svg" viewBox="0 0 456 1100" width="456" height="1100">
	<title>Layer</title>
	<style>
		.s0 { fill: #394231 } 
	</style>
	<g id="Layer">
		<path id="Layer" fill-rule="evenodd" class="s0" d="m229.2 12.8c2.4 8.4 6 15.2 8.4 15.2 2.4 0 1.6 2-1.6 4-5.2 3.2-4.8 4 1.2 4 8 0 9.2 6.4 2 9.6-3.6 1.2-3.2 3.6 2.4 8 6.4 5.2 6.8 7.2 2.4 12.4-2.8 3.2-4 7.2-2.4 8.8 1.2 1.2 2.4 0.8 2.4-1.6 0-2.4 2.8-5.2 6-6.8 5.6-2 5.2-0.8 0 9.6-5.6 10.8-5.6 12 0 12 3.2 0 6-1.6 6-3.6 0-2 2.8-4.4 5.6-5.6 4.4-1.6 5.2-0.4 3.6 4.4-3.6 10-16.8 21.6-21.2 18.8-2.4-1.2-2.8 0.4-1.6 3.6 3.2 8.4 10.4 8 28-1.6 8-4.8 15.2-7.6 16-6.8 0.8 0.8-6 9.2-14.8 18.4-12.4 12.4-15.2 18.4-12 21.6 2.4 2.4 4.4 2.8 4.4 0.8 0-2.4 1.6-1.2 4 2 3.2 4.8 6 4.4 20.8-3.6l17.2-9.2-16 15.6c-8.8 8.4-15.6 16.4-15.2 18 0.8 1.6-1.6 2-4.8 0.8-3.6-1.6-6 0-6 4 0 3.6-1.6 6.4-4 6.4-2 0-4 2-4 4 0 2.4 4.4 3.2 9.6 2.4 5.6-0.8 10.8 0.4 11.6 2.8 1.2 3.6 3.2 3.2 8-0.8 4-2.8 6.8-4 6.8-2.4 0 1.6 2.8 0.8 6-2 12-10 10.8-0.4-1.2 10.8-19.6 18.4-24.8 21.6-28.8 19.2-7.2-4.4-4.4 4 3.6 10.8 6.4 5.6 36.4 8.4 36.4 3.2 0-1.2 5.6-2.4 12.4-2.4l12-0.8-8.8 9.6c-4.8 5.2-10.4 9.6-12 9.6-1.6 0-8 2-14.4 4.8-6 2.4-14.4 4-18 3.6-4-0.4-7.2 1.2-7.2 4 0 4-1.2 4-4.4 0.8-3.6-3.6-6-3.2-10 0.8-9.6 9.2-9.6 9.2 26.4 11.2 12 0.8 26.4 0 31.6-2 14-4.8 15.2-0.8 3.2 11.2-6 6-10.8 12.4-10.8 14.4 0 2.4-2.8 3.2-6 1.6-3.2-1.2-6-0.4-6 2 0 2.4-2.4 3.6-5.2 2.4-3.2-1.2-8-0.4-11.2 1.6-4.4 2.8-4 3.6 1.6 3.6 4 0 10 2.4 12.8 5.6 3.2 2.8 9.6 4.8 14.8 4.4 16.4-2.4 36.4-6.4 40-8.4 1.6-1.2 3.2-0.8 3.2 0.4 0 3.2-17.6 18-22.8 19.2-1.6 0.4-7.2 4.8-12.4 9.6-5.6 5.2-11.2 8-13.2 6.8-2-1.2-3.6 0-3.6 2 0 2.4-2.8 4.4-6.4 4.4-3.2 0-5.2 1.6-3.6 3.6 1.2 2-1.2 4.8-4.8 5.6-4 0.8-1.2 1.6 5.6 1.2 7.2 0 13.2-1.6 13.2-2.8 0-1.6 8.4-3.6 19.2-4.8 10.4-1.2 23.2-3.6 28.8-5.2 10-2.8 10-2.8 2.4 5.6-4.4 5.2-6.4 11.2-4.8 15.2 2 5.2 1.2 5.6-2.8 2.4-6-4.8-10.8-2.4-17.2 9.2-3.6 6.4-8.4 8-21.2 7.2-10.8-0.8-16.4 0.8-16.4 4 0 3.6 7.2 4.8 23.6 4.4 18 0 23.2 1.2 21.6 5.2-2 5.6 4.8 7.2 8.4 2 0.8-1.6 7.2-3.6 14-4 9.2-0.8 11.6 0.4 10 4.8-1.2 3.6-5.2 4.8-8.8 3.6-3.6-1.6-5.6-1.2-4 0.8 4 4-12.4 26.8-17.2 23.6-2-1.2-3.2-0.4-2.8 2 0.8 2.4-4 8.8-10.8 14-11.6 10-11.6 10-2.8 10.4 5.2 0 22.8-4.4 39.2-10 36-12 37.6-12 26.4-2-5.2 5.2-7.6 10.4-6 14.8 1.6 4 0.8 5.6-1.6 4-6.8-4.4-16.8 1.2-14.4 7.6 1.2 3.6-0.4 5.6-4.8 5.6-3.6 0-5.6 1.6-4 4 2 3.6-28.8 20-37.6 20-2.4 0-4.4 1.6-4.4 3.2 0 2 6.4 2.8 14.4 2.4 8-0.8 18 0.4 22 2.8 4.4 2 7.6 2.4 7.6 0.4 0-3.6 40-10 43.2-6.8 1.2 0.8-2.8 3.6-8.4 6.4-5.6 2.4-11.2 8-12 12.4-1.6 5.2-4 6.8-7.2 5.2-3.6-2.4-4 0-2.4 8.4 1.6 9.2 1.2 10.4-2.4 5.2-2.8-3.6-7.2-5.6-10-4.4-4 1.2-4 2.8 0 8 4 4.8 4 5.6 0.4 3.2-3.2-1.6-4.4-0.8-2.8 2.8 1.2 4 19.6 6.8 19.6 2.8 0-0.4 6.8-1.2 14.8-2 8-0.4 16.4-2.4 18.8-4 2.4-1.2 4.4-0.8 4.4 0.8 0 2-7.2 7.6-16 13.2-18.4 11.2-20.8 18-5.6 14.4 6.8-2 9.2-1.2 7.6 1.6-1.2 2 0.4 4 4 4 3.6 0 5.6-1.6 4.4-3.6-1.2-2 2.8-4.4 8.8-5.6 11.6-2.4 18.4 0.8 9.6 4.4-3.2 0.8-11.6 6.8-18.4 13.2-14.4 12.4-33.2 20.8-38.8 17.2-2-1.2-3.6 0-3.6 2.4 0 2.4-2 3.2-4.8 1.6-4-2.4-4-2-0.4 2.8 3.2 4 11.6 6 27.2 5.6 12-0.4 22 0.4 22 1.6-0.4 4.4-15.2 20.4-19.2 20.4-2 0-6 2.8-8.8 6-4.4 5.2-2.4 5.6 15.6 4.4 18-1.6 20.4-0.8 20.4 5.6 0 4-5.2 11.2-12 16-6.4 4.8-12 7.2-12 5.6 0-1.6-3.6 2-8 7.6-4.4 5.6-8 12-8 14.4 0 2.4-4.8 4.4-10.8 4.4-8.8 0-10 0.8-5.2 4 4.8 2.8 3.2 4-6 4.4l-12 0.4 12 3.6c6.8 2 18 2.4 25.6 1.2 10.4-2 12.8-1.6 10.4 2.4-2.4 3.6-1.2 3.6 5.6 0.4 5.6-3.2 8.4-3.2 8.4-0.4 0 2.4 7.6 3.6 18.8 3.2 15.2-0.8 19.2 0 20.4 5.6 0.8 4.4-3.2 8-12.4 11.6-9.6 3.2-13.2 6.8-12 10.8 2 4.4 0.4 5.2-7.2 2.8-8.4-2.8-8.8-2.4-4.4 2.8 4 5.2 4 6.8-1.6 8.8-3.6 1.2-8 1.6-10 0-2-1.2-3.6 1.6-3.6 6.4 0 4.8-1.6 7.6-3.6 6-2-1.2-5.2 0-6.8 2.4-2 3.6 3.6 4.4 21.6 2.4 13.6-1.2 24.8-0.8 24.8 0.8 0 4.8-19.2 12.4-30 12.4-5.6 0-10 1.6-10 4 0 2-2.8 2.8-6 1.6-3.2-1.6-6-0.4-6 1.6 0 4 24 12.8 35.2 12.8 2.4 0 4.8 3.2 4.8 6.8 0 4-1.6 5.6-3.2 3.2-3.2-4.4-18.8-5.2-22.8-1.6-4 4 28 10.8 44.8 9.2l15.2-1.2-10.8 9.6c-7.2 6.4-9.2 10.4-6.4 13.2 5.6 5.6-22.8 13.2-54.8 14.8-13.2 0.8-25.6 1.6-28 1.6-6 0.8 45.6 24.4 58.8 27.2 13.6 2.8 14.8 9.2 1.6 9.2-5.6 0-11.2 2-12.8 4.4-1.2 2.4-6 3.2-10.8 2-16-4-0.4 5.6 25.2 15.2l26 10-23.2 0.4c-12.8 0-22.4-1.2-21.6-3.2 2.8-4-32-3.6-36 0.8q-2.4 3 1.2 1.2c2.4-1.6 7.6 0.8 11.6 5.2 4 4.4 8.8 6.8 11.2 5.2 2-1.2 3.2 0 2 3.2-1.2 4-9.2 5.6-25.2 6-14 0-24 2-25.2 4.8-2 6.8-25.6 6-35.2-1.2-10-7.6-13.6-7.6-13.6 0 0 3.2 2.8 6 6.4 6 3.2 0 4.8 2 3.6 4-1.6 2.8-5.6 2.4-11.2-0.4l-8.8-4.8 8 9.6c4.4 5.2 9.6 10.8 12 12.4 2 1.6 2.4 4 1.2 5.6-1.6 1.2-8.4-1.6-15.6-6.8l-12.8-9.2-12 17.6-9.2-12.8-9.6-12.8 0.4 34c0.4 36.8 3.2 52 10.4 54.4 2.4 0.8 5.2-1.6 6.4-5.6 1.6-5.6 2-5.2 2.4 2 0 5.2 2.4 8 4.4 6.8 2.4-1.2 4-0.4 4 2 0 7.2 8 0 12.8-11.2l4.4-10.8 2.4 10c1.6 6.8 5.6 10.4 12.4 11.2 5.2 0.4 10.8 2.8 12.4 5.2 2 3.2 3.2 3.2 5.2 0.4 1.6-2.4 5.2-3.6 8.4-2 4.4 1.2 6-0.8 6-7.2 0.4-8.8 0.8-9.2 5.6-2.8 6 8 10.4 5.6 10.4-5.6 0-12.8 7.2-7.6 13.2 9.6 5.2 14.8 6.4 15.6 6.4 6.4 0.4-14.4 7.2-18 12.8-6 4.8 10.8 19.6 10.8 19.6 0 0-3.2 2-4.4 4-3.2 2.4 1.2 4 5.6 4 9.2 0 3.6 1.6 9.2 3.6 12.4 3.2 4.8 4.8 4.8 9.6 0.8 5.2-4 6.4-3.2 8.8 3.6 1.2 4.4 4.4 7.2 6.4 6 2-1.6 3.6-0.8 3.6 1.2 0 2.4 6.8 5.6 15.2 7.6 10 2.8-38 4.8-155.2 6.4-155.6 2.4-196 2-272-1.2l-26-0.8 19.2-4c15.2-3.2 18.8-5.6 18.8-12.4 0-8 0.4-8 5.2-0.8 5.6 7.2 6 7.2 48.8 0.4 4.4-0.8 8.4-2 9.2-2.4 0.4-0.4 2.8-1.6 4.8-2 2.4-0.4 4.8-1.6 6-2 1.2-0.4 4-1.2 6-1.6 2.4 0 6-2.8 7.6-6 2.4-3.6 4-4 6.4-0.8 2 3.6 4.8 2.8 9.2-2.4 7.6-8 16.8-11.2 16.8-5.2 0 2 2.8 2.8 6 1.6 3.6-1.6 6 0 6 3.6 0 4 3.6 5.6 10 5.2 5.6 0 10-2 10-3.6 0-2 2-2 4-0.8 2.4 1.2 4-0.4 4-3.6 0-3.6 2-6.4 4.4-6.4 2.4 0 3.6-3.6 2.4-8-1.2-4.4-0.4-8 2-8 2.8 0 2.4-52.8-0.8-75.2 0-0.8-5.2 2.4-11.6 6.8-6 4.4-12 7.2-13.2 6.4-0.8-1.2-8 0-15.6 2.4-7.6 2.4-18.8 4.8-25.6 6l-12 2 12-6.4c14.8-7.6 24-20.4 17.2-24.4-2.8-1.6-3.2-1.2-1.6 1.6 2 3.2 0 4.8-5.2 4.8-4 0-8.8-2.4-10-5.2-2-3.6-2.8-3.6-4.8 0.4-2 4-3.6 4-8 0.4-4.4-3.6-5.6-3.2-5.6 0.8-0.4 4-2 3.2-6-2-4.8-6.4-6.8-6.8-11.6-2.4-9.6 7.6-35.6 12.4-39.2 6.8-2.4-3.6-4.4-3.2-7.2 1.2-2 3.2-4 4.4-4 2.8 0-2 3.6-8 8-13.6 4.4-5.6 7.6-14 7.6-18.8-0.4-6.8-0.8-6.8-2.4-1.6-2 8-7.2 9.2-11.2 3.2-1.2-2.4-6.8-4-12.4-4-5.2 0-9.6-2-9.6-4 0-2.4-3.2-4-6.8-4-4-0.4-11.6-3.2-17.2-6.4l-10-6 10.4 2c6.8 1.6 14.8-1.2 24.4-7.6 8-5.2 15.2-8.4 16.8-7.2 1.2 1.2 3.2-0.8 4.8-4.4 1.2-3.6 4-5.6 5.6-4.4 4 2.4 10-5.6 6.8-8.4-1.2-1.2-5.6-0.4-10 2-6 3.2-11.2 3.2-19.6-0.4-6-2.4-12-4.8-13.2-4.8-5.6-1.2-28-16.4-28-19.2 0-4.4 11.2-4 13.6 0.4 2.4 3.6 7.2 3.6 18.4-0.8 3.2-1.2 8.4-2.8 11.6-3.6 9.2-2.4 8.8-15.2 0-15.2-4.4 0-6.8-2-5.6-4 1.2-2.4-0.4-6.8-3.6-10.4-3.6-3.2-6.4-4.4-6.4-1.6 0 2.4-4 1.6-10-2.4-5.6-3.6-8.8-8-7.6-10.4 1.2-2 5.2-1.6 8.8 1.6 4 2.8 5.6 3.6 4 1.6-3.2-4 5.6-14.4 10-11.6 1.6 0.8 2.8-1.2 2.8-4.4 0-3.6 1.6-6.4 3.6-6.4 2 0 4.4-3.6 5.6-7.6 1.2-4.8 0-7.2-2.8-6-6 2.4-32.8-8.4-36.4-14.8-1.6-2-1.6-5.2 0-6.8 1.6-1.6 4-0.4 4.8 2.4 1.2 3.2 3.6 4 6.4 1.6 5.2-4 27.2-10.4 32-9.6 1.6 0.4 2.8-0.8 2.8-3.2 0-2 2.8-2.8 6-1.6 3.6 1.6 6 0.4 6-2.8 0-3.2-8-9.2-17.2-13.2-18-8-38.8-25.2-38.8-32 0-2.4 1.6-2.4 3.2 0.4 1.6 2.8 7.2 4.4 12 3.2 4.8-0.8 9.6 0.4 10.8 2.4 1.6 2 4.4 2.4 6.8 1.2 2.4-1.6 5.6-0.4 7.2 2.8 2.4 3.6 4.8 4 8.8 0.8 2.8-2.4 9.6-5.2 15.2-6.4 8-1.2 7.2-2-4-2.4-23.2-0.8-32.4-4.8-30-12 1.2-4.4-2.4-8.8-12-14-7.6-4.4-14-10-14-12.8 0-4 2.4-4 10.8 0.4 6 3.2 12 4.4 13.2 2.8 1.2-1.6 7.6-3.2 14-3.6 35.2-2.4 49.2-10.4 28-15.6-5.6-1.2-10-4-10-5.6 0-2-3.6-4.8-8-6-4.4-1.2-8-4.4-8-6.4 0-2.4 1.6-3.2 3.6-2 2 1.6 8 0.8 12.8-1.2 9.2-3.2 9.2-3.2-2.8-9.6-7.2-3.6-13.2-5.6-14-4.8-0.8 0.8-8-3.6-15.6-10l-13.6-11.2 12.8 1.2c7.2 0.4 14 1.6 14.8 2.8 1.2 1.2 10.4 0.8 21.2-0.8 10.4-1.6 22.4-2.8 26.8-2 4.8 0.4 10.8-2 13.6-4.8 4.4-4.8 4-5.6-2-5.2-18 2-29.2-0.8-44.8-10.8-18-11.6-21.6-17.6-8.8-14.4 6 1.6 8 0 8-5.2 0-6 0.8-6.4 3.6-2 2.8 4.4 4 4.4 6.8 0 2-3.2 0.4-6.8-4-9.2-14.4-8.8-36.4-30-33.6-32.8 1.6-1.6 5.2-0.8 8 1.6 7.6 6 47.2 9.2 47.2 3.6 0-2.8 1.2-9.2 2.4-14.8 2.4-8.4 1.6-9.2-2.8-5.2-7.2 7.2-12 6.4-9.2-0.8 1.6-3.2 0.4-6-2.4-6-6 0-28-15.2-28-19.6 0-1.6 7.2-2.8 16-2.4 8.8 0 16 1.6 16 3.6 0 2 2.4 1.2 5.2-1.2 3.2-2.4 6.8-3.2 8-2 2.8 2.8 22.8 6 22.8 3.6 0-6.8-6.4-14-12.4-14-4 0-7.6-2.8-7.6-6 0-3.2-2.8-6-6-6-3.2 0-6-2-6-4 0-2.4-3.6-4-8.4-4-6.4 0-7.6-1.6-5.6-8.4 2-5.6 0.4-10-4.8-13.6-12.8-9.6-2.4-10.8 14.8-2 9.6 4.8 21.2 8 26.4 6.8 6.8-1.2 9.6 0.4 10 4.8 0.4 5.2 0.8 5.2 2.4-0.8 0.8-3.6 3.6-6.8 5.6-6.8 2 0 3.6-2 3.6-4 0-2.4-2.4-4-4.8-3.2-2.8 0.4-10.8-4.4-18-10.8-6.8-6.8-17.6-16-24-20.8l-11.2-9.2 16.8 5.6c22 7.6 42 9.6 44 4 0.8-2.4-7.6-10.4-18.4-17.2-10.8-7.2-22-15.6-24.8-18.8-4.4-5.2-3.6-5.6 6.8-2.8 16 4 45.2 3.2 50-1.6 2.8-2.8 0-5.6-7.6-8.8-6.8-2.8-16.4-9.6-21.2-15.2l-9.6-10 10 1.2c5.6 0.4 14 0.4 19.2 0.4 8-0.8 8.4-1.6 4-8.8-2.8-4.4-7.2-8-9.2-8-2.4 0-10.4-5.6-18-12.4-9.2-8-11.2-11.2-6-9.2 4.4 1.2 14.4 3.2 22 3.6 7.6 0.8 17.6 2.4 21.6 4.4 5.2 2 8.4 1.2 9.6-1.6 0.8-2.8 4.4-4.8 8-5.2q7.2 0-2.4-3.6c-4.8-2-11.2-2.8-14-1.6-6.4 2.4-22-10.8-29.2-24.8-7.2-13.6-7.2-14 3.6-10 5.2 2 17.6 3.2 28 3.2 10.4-0.4 19.2 0.4 20 2 0.4 1.6 3.6 1.2 6.8-0.8 5.2-3.6 5.2-4.4 0.4-7.6-3.2-2-9.2-3.2-13.2-2.4-4 0.8-7.2-0.4-7.2-2.8 0-2-2.8-3.2-6-1.6-3.6 1.2-6 0-6-4 0-3.2-1.6-5.2-3.6-4-1.6 1.2-6.8-1.6-10.8-6-7.2-8-6.8-8 8.8-5.2 19.6 2.8 49.6-4.4 49.6-12.4 0-3.2-1.2-5.6-2.8-5.2-10 2-26.8-10.8-30.8-24-2.8-8.4-2.8-8.4 14-2.8 20.8 7.6 23.6 7.6 23.6 0 0-3.2-1.6-6-4-6-4 0-32.8-28.4-30.8-30.4 0.8-0.8 11.6 2.4 24 7.2 12.8 4.4 24 7.2 25.6 5.6 1.6-1.6-3.6-8.4-11.2-15.6-25.6-22.8-29.2-40-5.2-24.4 13.2 8.8 17.2 4 6.4-7.6-4.8-5.2-8.8-13.6-8.4-19.2v-9.6l6.4 8.8c6.4 9.6 16 13.2 10.4 4-6-10-4.8-15.6 3.6-13.6 7.2 2 7.6 1.6 1.6-4.8-8-8.8-8.4-14-0.4-10.8 3.6 1.2 6 0.4 5.6-2.8-0.4-2.4 0-10.4 0.4-16.8 1.2-12 1.2-12 5.2 2.8zm22.8 127.2c-2 0-4 2-4 4.4 0 2 2 2.8 4 1.6 2.4-1.2 4-3.2 4-4.4 0-0.8-1.6-1.6-4-1.6zm-44.4 4c-2 0-2.8 1.6-1.6 4 1.2 2 3.2 4 4.4 4 0.8 0 1.6-2 1.6-4 0-2.4-2-4-4.4-4zm-6 72c-0.8 0-1.6 1.6-1.6 4 0 2 2 4 4.4 4 2 0 2.8-2 1.6-4-1.2-2.4-3.2-4-4.4-4zm-41.6 76c-2 0-4 1.6-4 4 0 2 2 4 4 4 2.4 0 4-2 4-4 0-2.4-1.6-4-4-4zm20 8c-3.6 2.4-4 4-1.2 4 2.4 0 6-2 7.2-4 3.2-4.8 1.6-4.8-6 0zm99.2 40c-3.6 0-8 1.6-9.2 4-3.2 5.2 2 5.2 10 0 5.2-3.2 5.2-4-0.8-4zm-114.8 35.6c-6.8-6.4-20.4-6-20.4 0.8 0 2.4 2 2.8 4 1.6 2.4-1.6 6.8-0.4 10 2 3.2 2.8 7.2 4 9.2 3.2 2-0.4 0.8-4-2.8-7.6zm182 29.6c-1.2-1.6-2.4 0.8-2 5.2 0 4.4 1.2 5.6 2.4 2.4 1.2-2.8 0.8-6.4-0.4-7.6zm-214.4 54.8c-2 0-4 2-4 4.4 0 2 2 2.8 4 1.6 2.4-1.2 4-3.2 4-4.4 0-0.8-1.6-1.6-4-1.6zm-46 76c-3.2 0-6 2.8-6 6.4 0 5.6 1.2 5.6 6 1.6 3.2-2.8 6-5.6 6-6.4 0-0.8-2.8-1.6-6-1.6zm258 4c-5.2 3.2-4.8 4 1.2 4 3.6 0 6.8-2 6.8-4 0-4.8-0.4-4.8-8 0zm20 100c-5.2 3.2-4.8 4 1.2 4 3.6 0 6.8-2 6.8-4 0-4.8-0.4-4.8-8 0zm-2 151.2c-5.2-1.2-8.8-0.8-8 0.8 1.2 1.6 6.4 4 12 4.8 5.2 1.2 8.8 0.8 8-0.8-1.2-1.6-6.4-4-12-4.8zm-290 44.8c-8.4 0-18.4 6.8-15.2 10 1.6 1.6 6.8 0 12-3.6 5.6-4 6.8-6.4 3.2-6.4z"/>
	</g>
</svg>