<svg version="1.2" xmlns="http://www.w3.org/2000/svg" viewBox="0 0 520 1108" width="520" height="1108">
	<title>Layer</title>
	<style>
		.s0 { fill: #000000 } 
	</style>
	<g id="Layer">
		<path id="Layer" fill-rule="evenodd" class="s0" d="m273.6 2l2.4 12c1.6 7.6 4.4 11.6 8 10.8 4-0.8 3.2 1.6-2 7.6-7.6 8.4-7.6 8.8-0.4 6 6-2 6.8-1.6 2.8 3.2-5.2 6.4 0.4 12.8 7.6 8.4 2.4-1.2 4-0.8 4 0.8 0 5.6-8.4 12.8-13.6 11.6-2.4-0.8-3.2-0.4-1.2 0.4 1.6 1.2 2.8 4.4 2.8 7.6 0 7.2 4 7.2 15.2-0.8 14.4-10 14.4-4 0 9.6-6.8 7.2-11.6 13.6-10.4 14.8 1.2 1.2 6.8-2.8 12.8-8.4 10.4-10.8 19.2-11.6 9.6-0.8-2.8 3.2-10.4 11.6-17.2 18.8-7.6 8.4-9.6 12-4.8 10.4 3.6-1.6 6.8-4.4 6.8-6 0-1.6 4.8-4 11.2-4.8 6-1.2 14.4-3.2 18.8-4.8 6.4-2.4 5.6-0.8-2.8 7.2-6.4 5.6-11.2 12.8-11.2 16.4 0 7.2 3.2 7.6 16 0 16.8-9.6 20.4-7.2 12.4 6.8-4.4 7.2-8.8 17.6-10.4 23.2-2.8 9.2-2.8 9.2 3.6 2.8 11.6-11.2 15.6-7.6 4.4 4-11.2 12.4-12.8 18-4 14.8 3.2-1.6 6-3.6 6-5.2 0-1.6 3.2-2.8 7.2-2.8 3.6-0.4 10.4-2 14.8-3.6 5.2-2 2.4 2-6.8 11.2-8 8.4-13.6 14.8-12.4 14.8 1.2 0 0 2.8-2.8 6-2.8 3.2-7.2 6-9.6 6-2.4 0-1.6-2 1.6-4.4 5.2-3.6 5.2-4 0-2.4-3.2 0.8-6.4 4.4-7.2 8-2 10.8 15.2 8.4 41.2-5.2 12.4-6.4 22-9.6 20.8-6.8-0.8 2.4-3.6 4.4-6 4-2.4-0.8-3.6 1.6-2.4 4.4 2 5.2-3.2 12-19.2 24.8-2.8 2.4-7.6 3.6-10.4 2.4-2.4-0.8-4.8 0.4-4.8 2.8 0 2.4 2.4 4.4 5.2 4.8 3.6 0 3.6 0.8-0.4 2.4-4 1.6-3.2 3.6 2.8 7.6 6.8 4.8 10.4 4.8 28.8-2.4 11.2-4.8 21.2-7.6 22-6.8 0.8 0.8-6.8 10.4-17.2 21.2-10.4 10.8-18.8 21.2-18 23.2 0.8 2-1.6 2.4-5.2 1.2-3.2-1.6-6-0.8-6 1.2 0 2.4-3.2 4-6.8 4.4-4 0-1.6 2 4.8 4 6.8 2 20.8 2.4 31.6 1.2 17.6-2 19.2-1.6 14.8 4-2.8 3.6-6.8 5.2-8.8 4-2-1.2-2.4 0.8-1.2 4 1.6 4.4-0.8 7.6-8 10.4-5.6 2-10.4 6-10.4 8.4 0 2.4-2.4 3.6-5.6 2.4-3.2-1.2-6.8-1.2-8.4 0.4-1.6 1.6-4.4 3.2-6.4 3.2-2 0.4-5.2 0.8-7.6 1.2-8 0.8-3.6 7.6 8 12 6.8 2 12 2.4 12 0.8 0-2 4-3.6 9.2-3.6 11.2 0 38.8-9.6 38.8-13.6 0-2 2.4-3.2 5.2-3.2 2.4 0 0 4.4-6 9.6-6 5.2-9.6 10.8-8.4 12 1.6 1.2-0.4 2.4-3.6 2.4-3.6 0-8.4 2.8-11.2 6-2.8 3.2-6.4 4.8-8.4 3.6-2-1.2-4.8 0.4-6 3.6-1.2 3.2-5.2 5.6-8.8 4.8-3.6-0.4-9.2 0.8-12 3.2-7.6 6 2.4 11.2 11.2 6 4.4-2.8 9.2-3.2 14-0.4 4.8 2.8 12.4 2 26.4-3.2 10.8-4.4 19.6-6.4 19.6-5.2 0 1.6 2.8 0.4 6-2.4 3.2-2.8 6-3.2 6-0.8 0 6-26.4 33.2-29.2 30-1.6-1.2-2.8 0.4-2.8 4 0 3.6-2 6.8-4.4 6.8-2 0-2.8-2-1.6-4 1.2-2.4 0.4-4-1.6-4-2.4 0-4.4 1.6-4.4 3.6 0 5.6-22.4 12-32.8 9.6-6.8-1.6-8-1.2-4.8 2.4 7.6 8.4 41.2 8.4 63.2 0.4l20.4-7.6-16 13.6c-8.8 7.6-17.2 14-18.8 14-2 0-3.2 1.6-3.2 4 0 5.6 31.2 4 47.2-2.4 6.8-2.8 12.8-4 12.8-2.8 0 5.2-13.6 17.2-19.2 17.2-3.6 0-4.8 1.2-3.6 2.8 3.2 3.2-4.4 13.2-10 13.2-2.4 0-2.4-2.4 0.4-5.6 3.2-3.6 3.2-6.4 0.8-8-2-1.6-4.8 1.2-6.4 5.2-1.6 4.8-4.8 7.2-8.4 5.6-2.8-1.2-5.6-0.4-5.6 2 0 4.8 29.2 9.6 37.6 6.4 3.6-1.2 6.4-0.4 6.4 1.6 0 2.4-3.6 5.6-8 6.8-4.4 1.2-8 4.4-8 6.4 0 2.4-1.6 3.2-3.2 2-5.2-3.2-14 4.4-11.2 9.2 1.6 2.4 4.4 3.6 6.4 2.4 2-1.2 4.4-0.4 6 2 1.2 2.4-1.6 5.6-6.8 7.6-8.4 3.2-8.4 4-2 6.4 4 1.6 6.4 5.2 5.6 8-1.6 3.2 2.8 4 16.4 1.6 10.4-1.6 20-2 21.6-1.2 1.2 0.8 3.2 0 4-2 0.4-1.6 4.8-2 8.8-0.4 6.8 2 5.2 4.4-11.2 16.4-10.8 7.6-20.8 14-22.8 14-2 0.4-5.2 0.8-7.6 1.2-2 0-4 2.8-4 6 0 4-4 5.6-12 5.6-6.8-0.4-13.2 0.8-14.4 2-1.6 1.6-6.4 0.4-11.2-2-8-4-8-4-1.2 3.2 5.6 6.4 13.2 7.6 40.8 8 20 0 34-1.6 34-3.6 0-2.4 1.2-2.8 2.4-1.6 1.6 1.2 6 0.8 10-1.6 4.8-2.4 7.6-2.4 7.6 0 0 4-49.6 33.2-60 35.2-3.2 0.8-12.4 2-20 2.4-7.6 0.8-14.8 2.8-15.2 5.2-0.8 2-3.2 5.6-5.2 8-4.4 5.2 44.8 4.8 78-0.4l19.6-3.2-8.4 9.2c-4.8 5.2-10 7.6-13.2 6-3.2-2-4-1.6-2 1.2 2.8 4.8-11.6 21.6-15.2 17.6-1.2-1.2-2.4 0-2.4 2.4 0 2.8-4.4 4.8-10 4.8-7.2 0-9.2 1.6-7.6 6 2 4.4 0.8 5.2-4 3.6-3.6-1.2-6.4-0.8-6.4 1.6 0 6.4-19.2 8-28 2-6.4-4.4-8-4.4-8-0.4-0.4 3.6-2 2.8-5.6-1.6-4-5.2-6-6-9.6-2.4-7.2 7.2-6 15.2 2.4 15.6 24.4 2.4 56.8 1.2 56.8-1.6 0-1.6 2-2 4.8-0.4 5.2 3.2 33.2 2.8 44-0.8 5.2-1.6 6.4-0.4 4.8 4.4-1.6 3.6-5.2 5.6-8 4.4-2.8-1.2-4.4 0-3.2 2.8 2.4 6.4-29.6 18.4-45.6 17.2-20-1.2-8 7.6 18 13.6 12.8 3.2 24.4 6 26.4 6.4 1.6 0.4 7.2 0.8 12.8 1.2 5.6 0 10 2 10 4.4 0 6-24 16.8-32.4 14.8-4.4-1.2-7.6-0.4-7.6 1.6 0 2-3.6 3.6-8.4 3.6-4.4 0-7.2 1.6-5.6 3.6 1.2 2 0.4 5.2-2 6.4-2.4 1.6-3.6 0.4-3.2-2.4 0.8-2.4-1.2-5.6-4-6.4-2.8-1.2-4.4 0.4-4 3.6 0.8 3.2-2 4.8-7.6 4-4.8-0.8-9.6 0.8-11.2 2.8-1.6 2.8 0 3.2 4.4 1.6 4.8-1.6 6-1.2 4 2-2 3.2-0.8 4 3.2 2.4 3.6-1.2 6.4-0.4 6.4 2.4 0 2.4 3.2 4 7.2 3.2 4.4-0.8 10.8 1.6 14.8 4.8 5.2 4.4 16 6 38.8 5.6 17.2-0.4 31.2 0 31.2 0.8 0 3.6-19.6 20.4-21.6 18.4-1.2-1.2-2.4 0-2.4 2.4 0 2.8-2.8 4.8-6 4.8-3.6 0-7.2 2.4-8.4 5.2-1.2 3.2-8.8 4.8-22 4.4-21.6-0.4-34.4 6-30.8 14.8 2.4 6 11.2 11.2 34.4 19.6 6.8 2.8 12.8 8 13.2 11.6q0 6 2.4 1.2c0.8-2.4 4.8-4.8 8.4-4.8 5.2 0 4.8 1.2-2 6-4.8 3.6-13.2 5.6-18 4.4-5.2-0.8-12.8 0.8-16.4 3.6-8.4 6-34.4 0-37.6-8.4-1.2-2.8-4.4-4-7.6-2.8-3.2 1.2-9.2-0.8-13.6-4.8-6.8-6.4-8.4-6.4-13.6-0.8-4.8 4.8-5.2 6.8-1.2 8.4 3.6 2 3.6 2.8-0.4 4.8-2.4 1.2-3.6 4.4-2 6.8 1.6 2.8 0 3.2-4.4 1.6-4.4-1.6-6-1.2-4.4 1.6 1.6 2.4 4.8 3.2 7.6 2.4 13.6-5.2 24-7.6 21.6-4.8-1.6 2 0 5.6 4 8.4 6.4 4.8 6 5.2-3.2 6-5.6 0.4-12.4 0.4-14.8 0-2.8-0.4-5.2 1.2-5.2 3.6 0 8-6 3.6-18.8-13.6-7.2-9.6-13.2-20.4-13.2-24 0-3.6-1.6-6-3.6-4.4-2 1.2-4.8-1.6-6.4-6-1.2-4.4-4.4-8-7.2-8-3.2 0-3.2 1.2 0.4 4.8 2.8 2.8 4.4 8.4 4.4 12.8-0.4 6.8-0.8 7.2-2.4 1.2-2.4-9.2-7.6-8.8-10.4 0.8-2 8.4 0.4 126 3.6 175.2 2.4 34.8 6 42.8 14.4 29.6 3.6-6.4 6.4-6.8 12.4-3.6 5.6 2.8 8.8 2.8 11.2-1.2 2.4-4.4 3.6-4 6 1.6 3.6 9.6 9.2 8.4 6.8-1.2-1.2-4.4 0-8 2.4-8 3.6 0 3.6-2 0-8.4-3.2-6-3.2-7.6 0-6 2.4 1.6 4.4 1.2 4.4-1.2 0-2-2.4-4.8-4.8-5.6-2.8-1.2-1.6-2.4 2.4-2.4 4.4-0.4 6.4-1.6 5.2-3.2-1.6-1.2 0.4-4.4 4-7.2 6-4.4 6-5.6 0-14.4-8.8-12.4-8.4-16.8 1.2-13.6 9.2 2.8 10 0.8 3.6-10.8-3.6-6.8-3.2-9.2 2-12 4.4-2.4 6-6.4 4.4-11.6-1.6-4.4-0.8-7.6 2-7.6 2.8 0 4-2.8 2.4-6-1.2-3.2-0.4-6 1.6-6 2.4 0 4-3.6 4-8 0-4.4 2-8 4-8 2.4 0 4 3.2 4 6.8 0 4 2.4 11.6 5.2 17.2 3.2 5.6 5.2 14.4 4.8 19.6-0.4 6.8 0.8 8.4 6.8 7.2 6-1.6 7.2-0.4 4.8 6.4-1.2 4.8-4.4 11.2-6.8 14-3.2 4.4-2 4.8 6.4 2.8 9.6-2.4 10.4-2 8.4 4.4-1.6 4.4-5.6 11.2-9.2 15.2-6 7.2-6 7.6 0.8 5.2 4-1.6 10-2.8 13.2-2.8 3.2 0 8.4-5.6 11.2-12.4l5.2-12.8 7.2 18.4c3.6 10 5.6 20 4 22.4-1.2 2.4-0.4 4.4 2 4.4 2.8 0 3.6 3.2 2 8.4-2 5.2-0.8 10 2.4 12.4 4.4 2.8 4.4 4.4 0.8 6-3.6 1.2-4 4-1.2 9.2 2 4 3.2 10 2.8 12.8-0.8 2.8-0.8 3.6 0.4 1.6 0.8-1.6 3.2-1.2 4.8 1.6 1.6 2.4 9.6 6.8 17.6 9.6l15.2 5.2-32 2.8c-40.4 3.2-423.2 2.8-459.6-0.4l-27.2-2.4 17.6-4.4c14.8-3.6 18-6 18.8-14.4 2-22.8 10.4-49.2 13.6-43.6 2 2.8 2.8 6.4 1.6 8-0.8 1.6 0 4 2 5.2 2 1.6 4.8 9.6 6.4 18 1.6 8.8 5.2 16.8 8.4 18 6.4 2.4 21.6-12.4 21.6-21.2 0.4-4.8 1.6-4.4 5.2 1.6 6.4 10.4 18.8 11.6 18.8 1.6 0-4 1.6-7.6 3.6-7.6 2 0 6-6.4 8.8-14 6.4-17.2 10-17.6 13.6-2.4 1.2 6.4 4.8 14 7.6 16.4 4.4 3.2 6.4 0.4 10.8-13.6 5.6-18.4 11.6-20.8 11.6-4.4 0 13.2 6.8 16 12.4 5.6 4.4-8.4 4.8-8 12 8 4.8 11.2 9.6 16.4 15.2 16.4 10 0 11.2-9.6 14.8-116.4 2.4-87.2 0.8-95.6-14.4-81.6-4 3.6-9.2 5.6-11.6 4-2.8-1.6-3.2 0-1.6 4.4 2 5.2 0.8 6-5.6 4-5.6-1.6-9.2-0.4-10.4 3.6-1.6 3.6-6 5.2-11.6 4.4-5.2-1.2-10.8-2-12.4-2-1.6-0.4-0.8-4.4 1.6-9.6l4.8-8.8-9.2 8c-5.2 4.4-8 5.6-6.4 2.8 1.6-2.4 1.2-4.8-0.8-4.8-6 0-8.8 11.2-3.6 13.6 2.8 0.8 0.4 2-4.8 2-7.6 0.4-8.4-0.4-4.4-5.6 5.6-6.8 1.2-16-5.2-10.8-6 4.8-30.8 3.6-40.8-2.4-7.2-4-7.2-4.4 3.2-6.8 6-1.6 10.8-4 10.8-6 0-1.6 7.2-4.8 16-7.6 8.8-2.4 16-6.4 16-8.8 0-2.4 2-2.8 4-1.6 2.4 1.2 4 0 4-3.2 0-7.6-8.8-10.8-19.6-8-8.8 2.4-11.6-4.4-4-8.8 2.4-2 1.6-4.4-2.8-7.6-5.6-4.4-8.8-4-18 0.4-8.4 4.4-13.2 4.4-19.6 1.2-4.4-2.4-10-3.2-12-2-3.6 2.4-5.6-3.2-4.4-11.2 0.4-2-1.2-2.4-3.2-0.8-3.2 2-12.4-9.2-12.4-15.2 0-1.2 6.4 0 14 2.4 10 2.8 18 2.8 30-0.8 14.4-4.4 16-6 16-17.2 0-12-0.4-12.4-6-4.8-5.6 7.2-5.6 7.2-6-2 0-7.6-1.2-8.4-5.6-4.8-4.4 3.6-8.8 2.8-20-4-8-4.4-14.4-11.2-14.4-14.4 0-3.2-1.6-4.8-3.6-3.2-4 2.4-18.4-10.8-25.2-23.2-3.6-6.8-3.2-6.8 5.6-2 15.6 8.8 60.4 11.6 67.6 4.4 2.4-2.4 7.2-3.6 10-2.4 3.6 1.2 5.6-0.8 6-5.2 0-4.4 1.2-5.6 2-3.2 2.8 6.4 27.6-2.8 38-13.6 4.4-4.8 6-8.8 4-8.8-2 0-5.2 1.6-6.4 4-1.2 2-6 6-10.8 8.4-6 3.2-7.6 3.2-5.6 0 1.6-2.4 1.6-6.4 0-8.8-1.6-2.8-4.8-0.4-8 6.8-4 9.2-5.2 10-5.2 3.6-0.4-6.8-1.2-6.8-4.4-2-2.4 4-4 4.4-4 0.8 0-2.4-1.6-4.8-4-4.8-2 0-4 3.6-4 8 0 9.6-6 10.4-9.6 1.2-2.4-6-3.2-5.6-8 0.8-4.8 6.8-5.6 6.8-11.6-2-3.2-4.8-8-7.6-10.4-6-2.4 1.2-4.4 0.4-4.4-2 0-2.4-2-3.2-4-2-4.8 2.8-34-25.6-30.4-29.2 1.2-1.2 4.4-0.4 7.2 2 7.6 5.6 38.8 6.4 44.8 1.2 3.2-2.4 8-3.6 10.8-3.2 3.2 0.8 5.2-1.2 4.4-4.4-0.4-2.8 1.2-7.6 3.6-10.8 2.4-3.2 4-5.6 3.2-6-0.8 0-8.4-0.8-17.2-1.6-8.4-0.8-17.6-3.6-20-6-2.8-2-6-2.8-7.2-1.6-2.8 2.4-27.2-21.6-27.2-26.8 0-2 4.8-1.6 10.8 0.8 15.6 6 65.2 8.8 65.2 3.6 0-2-2.4-4-5.6-4-2.8 0-7.6-2.8-10.4-6-2.8-3.2-6.4-5.2-8-4-4.8 3.2-8-3.6-4.4-9.2 2-3.6 15.2-5.2 42-5.2 39.2 0 58.4-4 58.4-11.6 0-2.4-1.6-3.2-4-2-2.4 1.2-4 0.8-4-1.2 0-4-12-3.6-19.2 0.8-2.8 1.6-4.8 0.8-4.8-2 0-3.6-1.2-3.6-5.6 0-4 3.6-6 3.2-7.6-1.6-2-4.4-4.8-5.2-12.8-2-6.8 2.4-10 2.4-10-0.4 0-2.4-2-2.8-4-1.6-2.4 1.2-4 0.4-4-2 0-2.4-1.6-3.6-3.6-2.4-4 2.4-40.4-31.6-40.4-37.6 0-2 5.6-0.8 12.4 2.8 6.4 3.2 23.2 6.8 36.8 7.6 15.6 0.8 21.2 0.4 14.8-1.6-12.8-4-13.6-19.2-0.8-21.6 4.8-0.8 5.2-2.4 2-4.4-2.8-2-8.4 0.4-13.2 5.2l-8.4 8.4 2.8-10c1.6-7.6 0.8-9.6-5.2-9.2-4 0.4-6.8-1.2-6.4-3.6 0.4-2.8-1.2-4.4-4-4-2.8 0-5.2-0.8-6-2.4-0.4-2-6-8-12.4-14-12.8-12.8-28.4-40-19.6-34.8 2.8 1.6 11.6 6.8 19.2 11.6 17.6 10.8 58 19.2 68 14 3.6-2 12.4-3.2 18.8-2.4 6.4 0.8 14 0.4 16.8-1.2 2.8-2-2.8-4.4-14-6-10.4-1.2-21.2-4.4-24-6.4-3.2-3.2-5.6-3.2-7.6 0-1.6 2.8-4.4 2.4-8-0.8-2.8-2.8-16.8-14.4-31.2-25.2-26.4-20-36.8-32-23.6-27.2 3.6 1.2 9.2 4 12 6.4 2.4 2 4.8 2.4 4.8 0.8 0-1.6 2.8-0.8 6 2 4.8 4 7.2 4 12.8-0.4 6-4.8 6.4-4.8 3.6 2.4-1.6 4.4-1.6 6.4 0 5.2 1.6-1.6 6-1.2 10 0.8q7.2 4.2 9.6 0c2-3.2 4.4-2.8 8.4 0.4 8.4 6.8 6.8 0.4-2.4-9.2-10.8-11.6-10-15.2 2.8-14.4 5.6 0.8 11.2-1.2 12.4-4 1.2-3.6 4-3.2 12.8 1.2 6 3.2 12 4.4 13.2 3.2 1.6-1.2 5.2 0 8.8 2.8 3.2 2.8 6 3.2 6 1.2 0-3.2-15.6-12.8-24-15.2-1.2-0.4-8-2-15.6-3.6-13.2-3.2-50.8-33.6-46.4-37.6 0.8-1.2 4 0 7.2 2.4 2.8 2.4 11.6 4 20 3.6 11.2-0.8 14.8-2.4 14.8-8 0-6.4 0.8-6.4 8.4 0.8 6.4 6 10.4 7.2 16 4.4 4-2.4 8-2.4 9.2-0.8 1.2 2 8 3.6 15.2 4 11.2 0.4 12-0.4 6.8-4.4-3.6-2.8-5.6-7.2-4.8-10 1.2-2.8-2-5.2-7.6-5.6-16.4-0.8-17.6-1.2-28.4-8.4-6-4-10.8-9.2-10.8-12 0-2.8-5.6-11.6-12.4-20-14.8-18-12.8-24 3.2-9.2 6 5.6 13.6 9.6 16.4 8.4 2.4-0.8 4.8 0 4.8 2.4 0 2.4 2 2.8 4 1.6 6-3.6 4.8-14-1.2-14-4.8 0-22.8-26.8-22.8-34 0-1.6 4.8 1.6 10.8 7.6 5.6 6 12.8 10 15.6 8.8 2.8-1.2 5.6 0 6.4 2.4 0.8 2 10 4.8 20.8 6 14.4 1.6 19.2 1.2 18-2.4-1.2-2.8-3.2-4.8-5.2-4.4-2 0.4-4.8-1.2-6-3.2-1.2-2.4-8.8-6.8-16.4-10.4-8-3.6-10.4-5.6-4.8-4.8 10 2 10.8 0.8 3.6-6.4-7.6-8-19.6-27.6-18-29.6 1.2-0.8 5.2 1.6 9.6 5.6 22.8 20 25.2 20 6-0.4-12-12.4-20.4-24-18.8-25.6 1.6-1.6 4-0.8 5.6 1.6 4.4 6.8 30 21.2 38 21.2 6 0 3.6-4.4-10.8-20.4-17.6-19.6-24-31.6-13.2-24.8 38.8 25.6 48 28.8 43.2 16-2-4.8-4.4-8-5.6-6.8-1.2 1.2-7.2-5.2-13.6-14-19.6-26.8-20-28.8-7.2-20.4 7.2 4.8 12 6 13.2 3.2 0.8-2.4 4-3.2 7.2-2 3.2 1.2 5.6 0 5.6-2.8 0-2.8 3.2-3.6 9.2-2 6.8 2.4 6 0.4-5.2-9.6-15.6-13.6-13.2-17.2 2.8-4.4 6 4.4 11.2 7.2 12.4 6 1.2-0.8-2.4-5.6-8-10-5.6-4.4-11.2-13.2-12-20-1.2-8.4-0.4-10.8 2.4-8 6 6 10.4 4.8 10.4-3.2 0-6 2.4-7.2 12.8-5.6l12.4 2-8.8-12.8c-12-16.4-8-20.8 5.2-6.4 9.2 10 10.4 10.4 10.4 3.2 0-4-2.8-11.2-6-15.6-6.8-9.2-8-17.2-1.2-10.4 6.8 6.8 12.4 6 9.6-1.6-1.6-3.6-1.2-13.2 0.4-21.2zm-20 102c-0.8 0 0 3.6 2.4 8 2.4 4.4 5.2 8 6.4 8 0.8 0 0-3.6-2.4-8-2.4-4.4-5.2-8-6.4-8zm38 26.8c-5.2 6.4-4.8 6.8 1.6 1.6 3.6-2.8 6.8-6 6.8-6.8 0-3.2-3.2-1.2-8.4 5.2zm22 5.2c-0.8 0-1.6 1.6-1.6 4 0 2 2 4 4.4 4 2 0 2.8-2 1.6-4-1.2-2.4-3.2-4-4.4-4zm-59.2 5.2c-1.2-1.6-2.4 0.8-2 5.2 0 4.4 1.2 5.6 2.4 2.4 1.2-2.8 0.8-6.4-0.4-7.6zm-36.4 13.6c-6.4-4.4-9.2-5.2-8-2 2.4 6 18 16.8 18 12.4 0-2-4.8-6.4-10-10.4zm83.2-0.8c0 3.2 1.6 4.8 3.6 3.6 2-1.2 2.4-4 1.2-6-3.6-5.2-4.8-4.4-4.8 2.4zm-68 2.4q-1.2-1.2-1.2 2.4c0 2.4 3.2 6.8 7.2 9.6 6.4 5.2 6.4 5.2 0.8-2.4-3.2-4.4-6.4-8.8-6.8-9.6zm56.4-0.4c-0.8 0-1.6 1.6-1.6 4 0 2 2 4 4.4 4 2 0 2.8-2 1.6-4-1.2-2.4-3.2-4-4.4-4zm18.4 42l-10-2.8 9.2 6.8c5.2 3.6 10.4 5.6 11.6 4.4 1.6-1.2 1.6-3.2 0.8-4-0.8-0.8-6-2.8-11.6-4.4zm-88.4 62c-2 0-2.8 1.6-1.6 4 1.2 2 3.2 4 4.4 4 0.8 0 1.6-2 1.6-4 0-2.4-2-4-4.4-4zm-20 126c-2.8-2.8-7.6 2-7.6 7.6 0 2.4 2 2 4.8-0.8 2.4-2.4 3.6-5.6 2.8-6.8zm116 115.6c-8.8-7.6-10-3.2-2 7.2 6.8 9.2 23.2 10 20 1.2-1.6-3.2-4-4.8-6.4-3.6-2 1.2-7.2-0.8-11.6-4.8zm-120 0.8c-0.8-0.8-5.2 0.8-9.2 4-4.4 2.8-7.2 6.4-6 7.2 0.8 0.8 5.2-0.8 9.2-4 4.4-2.8 7.2-6.4 6-7.2zm-49.6 29.6c-1.2 2.4 0.4 2.8 3.6 1.6 3.6-1.2 6.4-3.2 6.4-4 0-3.2-7.6-1.6-10 2.4zm56.4 28c-1.2 0-3.2 1.6-4.4 4-1.2 2-0.4 4 1.6 4 2.4 0 4.4-2 4.4-4 0-2.4-0.8-4-1.6-4zm-14.4 4c-2 0-2.8 2.8-1.6 6 1.6 3.2 3.2 6 4 6 0.8 0 1.6-2.8 1.6-6 0-3.2-1.6-6-4-6zm98 19.6c-1.2 2-0.4 4.8 2 6.4 2 1.2 4-0.4 4-3.6 0-7.2-2.4-8.4-6-2.8zm29.6 16.4c-2.4 0-3.6 3.2-2.8 6.8 1.6 8 15.6 9.6 18.4 2 0.8-2.8-0.8-4-4.8-2.4-3.6 1.2-6.4 0.4-6.4-2 0-2.4-2-4.4-4.4-4.4zm-93.2 13.2c-1.2-1.6-2.4 0.8-2 5.2 0 4.4 1.2 5.6 2.4 2.4 1.2-2.8 0.8-6.4-0.4-7.6zm108.4 4c-4.8 3.6-5.2 5.6-1.6 8.8 6.8 5.6 18 6 20 0.4 3.2-8-11.2-14.8-18.4-9.2zm-122 10.8c-2.4 0-5.6 2-6.8 4-1.6 2.4-4.8 4-7.2 3.6-10.4-1.2-14.8 0.8-14.8 6 0 4.8 2.4 5.2 11.6 2 6.8-2.4 14-6.8 16.8-10 2.8-3.6 3.2-5.6 0.4-5.6zm77.6 18.4c-3.2 8-3.2 9.6 0.8 9.6 1.6 0 3.2-3.6 3.6-8 0.8-9.6-1.2-10.4-4.4-1.6zm-144.8 5.6c-0.8 0-1.6 1.6-1.6 4 0 2 2 4 4.4 4 2 0 2.8-2 1.6-4-1.2-2.4-3.2-4-4.4-4zm-11.2 4c-3.2 0-7.2 1.6-8.4 4-1.2 2 0.4 4 3.6 4 3.2 0 7.2-2 8.4-4 1.2-2.4-0.4-4-3.6-4zm-20.4 4c-3.2 0-6 2.8-6 6 0 3.6 2.4 4.8 6 3.6 3.2-1.6 6-4 6-6 0-2-2.8-3.6-6-3.6zm180.4 1.2c-1.2-1.6-2.4 0.8-2 5.2 0 4.4 1.2 5.6 2.4 2.4 1.2-2.8 0.8-6.4-0.4-7.6zm-73.2 24.8c-9.6 14.4-11.6 22-6 22 3.6 0 10.8-13.2 14.8-27.2 3.6-12 1.6-11.2-8.8 5.2zm33.2-10c-0.8 0-2.4 2.8-4 6-1.2 3.2-0.4 6 1.6 6 2.4 0 4-2.8 4-6 0-3.2-0.8-6-1.6-6zm10.4 12c-6 0.4-16.8 8.4-16.8 12.8 0 2.8 1.6 2.8 5.2-0.4 3.2-2.4 6.4-3.2 7.6-2 1.2 0.8 3.2-0.8 4.4-4.4 1.6-3.2 1.2-6-0.4-6zm74.8 24c-2 0-1.6 2.8 1.2 6 16.8 20.4 37.6 36.8 41.6 32.8 1.2-1.2-4.4-6.4-12.4-12-8-5.6-17.2-13.6-20.4-18.4-3.6-4.8-8-8.4-10-8.4zm82.8 28c-1.2 0-3.2 1.6-4.4 4-1.2 2-0.4 4 1.6 4 2.4 0 4.4-2 4.4-4 0-2.4-0.8-4-1.6-4zm-130.8 12c-2.4 0-2.8 1.6-1.6 4 1.2 2 4.4 4 6.4 4 2.4 0 2.8-2 1.6-4-1.2-2.4-4.4-4-6.4-4zm-34.8 8.8c-7.2 7.2-6 11.2 2.4 8.4 6.4-2.4 6.4-2-0.4 5.6-5.6 6.4-6 8-0.8 8 3.2 0 6-2 6.4-4.4 0-2.4 0.8-8.4 1.2-13.6 1.2-10-1.6-11.2-8.8-4zm-104.4 1.2c-2.4-1.2-4.4 0.4-4.4 4 0 3.6-2 5.2-4 4-2.4-1.2-5.2 0.4-6.4 4-4 10.4 0.4 10.8 10 0.4 5.6-6 7.6-10.4 4.8-12.4zm-30 8c-3.2 3.6-5.2 8.8-4 12 3.2 8 8 7.6 11.2-1.2 1.2-3.6 3.6-9.2 4.8-12 3.2-6.8-4.4-6-12 1.2zm177.6 4c0-2-2.4-3.6-5.4-3.6-3 0-5.4 1.6-5.4 3.6 0 2 2.4 3.6 5.4 3.6 3 0 5.4-1.6 5.4-3.6zm-10.4 38c0 6.4 1.2 12 2.8 12 4.4 0 7.6-11.2 5.2-18-4-10-8-6.8-8 6zm42-10.8c-9.2-0.8-10 1.2-1.6 4 3.2 1.6 6.4 1.2 7.6-0.4 1.2-1.6-1.6-3.6-6-3.6zm-73.6 5.2c-4.4-1.6-6 0.8-6 8.4 0 8.4 0.8 9.6 6 5.2 3.2-2.8 6-6.4 6-8 0-1.6-2.8-4-6-5.6zm142-2.4c-2 0-4 1.6-4 4 0 2 2 4 4 4 2.4 0 4-2 4-4 0-2.4-1.6-4-4-4zm-258.4 4c-0.8 0-1.6 1.6-1.6 4 0 2 2 4 4.4 4 2 0 2.8-2 1.6-4-1.2-2.4-3.2-4-4.4-4zm191.2 8c-6.8 0-6 6.4 2.4 12.4 6 4.8 6.4 4.8 2-0.8-2.8-3.6-4-7.6-2.4-8.8 1.2-1.6 0.4-2.8-2-2.8zm-36.8 16c-2 0-4 1.6-4 4 0 2 2 4 4 4 2.4 0 4-2 4-4 0-2.4-1.6-4-4-4zm-136 10c0-3.3-1.8-6-4-6-2.2 0-4 2.7-4 6 0 3.3 1.8 6 4 6 2.2 0 4-2.7 4-6zm105.5 0.8c0-2.9-2.5-5.2-5.5-5.2-3 0-5.5 2.3-5.5 5.2 0 2.9 2.5 5.2 5.5 5.2 3 0 5.5-2.3 5.5-5.2zm27.3 2.8c-2.8-0.4-3.2 0-0.8 1.2 2 0.8 4 3.6 4 5.6 0 2.4-1.6 2.8-4 1.6-2-1.2-4.8 2.4-6.4 8.4-3.2 12.8 0.4 205.2 4 208.8 1.6 1.2 4.8 0 7.6-2.8 5.6-5.6 8.4-183.6 3.6-208-1.6-7.6-5.2-14.4-8-14.8zm-40.4 2.4c-6.4 0-9.6 58.4-7.6 142.8 2 82.4 4.8 97.2 16.4 86 3.6-4 5.2-32.4 6-107.6 1.2-93.2 0.8-102.4-4.8-97.6-3.6 3.2-6.4 3.6-6.4 1.2 0-2 2.8-6 6-8.8 3.2-2.8 6-6.8 6-8.8 0-2.4-2.8-3.2-6-1.6-3.2 1.2-6 0.4-6-1.6 0-2.4-1.6-4-3.6-4zm-24.4 12c-2 0-4 1.6-4 4 0 2 2 4 4 4 2.4 0 4-2 4-4 0-2.4-1.6-4-4-4zm-15.2 4c-4.8 0-10.4 7.6-7.6 10.4 0.8 0.8 4-0.8 6.8-4.4 3.2-3.6 3.2-6 0.8-6zm-34.4 5.2c-1.2-1.6-2.4 0.8-2 5.2 0 4.4 1.2 5.6 2.4 2.4 1.2-2.8 0.8-6.4-0.4-7.6zm11.2-1.2c-0.8 0-1.6 1.6-1.6 4 0 2 2 4 4.4 4 2 0 2.8-2 1.6-4-1.2-2.4-3.2-4-4.4-4zm252.4 180c-1.2 2-1.2 6 0.4 8.4 2.4 4.4 9.2-2.4 9.6-9.6 0-4-7.2-3.6-10 1.2z"/>
	</g>
</svg>