<svg version="1.2" xmlns="http://www.w3.org/2000/svg" viewBox="0 0 640 1096" width="640" height="1096">
	<title>Layer</title>
	<style>
		.s0 { fill: #434f38 } 
	</style>
	<g id="Layer">
		<path id="Layer" fill-rule="evenodd" class="s0" d="m304 10.4c0 3.2 2.4 5.6 5.2 5.6 2.8 0.4 2 2.4-2.4 5.6-7.6 6-2.4 13.2 5.6 8 3.2-1.6 3.6 0 1.6 6-2 6-0.8 8.4 4 8.4 3.6 0 5.6 1.6 4 3.6-1.2 2-0.4 4.8 1.6 6 2 1.2 2.8 6 1.6 10.4-2.4 9.2 6 11.2 14 3.2 7.6-7.6 10.4-0.4 4.8 12.8-3.2 7.2-8 12-12.4 12-4.4 0-7.6 1.6-7.6 3.6 0 8 8.8 8.8 22.4 2.4 16.4-7.6 21.2-6 11.2 3.6-3.6 3.6-5.6 8-4 9.2 2 2.4-12.8 15.2-17.6 15.2-1.2 0-6.4 4-12 8.8l-9.6 9.2h8.8c8 0 26.4-9.2 32.8-16 1.2-1.2 7.2-2.4 13.2-2.8 9.2-0.4 10.4 0.8 6.4 5.2-2.4 3.2-3.2 10-2 16 2.4 8.4 3.6 9.6 8.4 5.6 3.2-2.8 6-3.6 6-2.4 0 1.6 3.6 0.8 8-1.6 4.4-2.4 8-2.8 8-0.8 0 6-32.4 40.8-36 38.8-1.6-1.2-5.2 0.8-8 4-4 4.8-4 6 0.4 6.4 7.6 0.8 8 0.8 20-2.4 14.4-3.6 18.4 10.8 6.4 22-8.4 8.4-6.8 16.4 2 8.8 2.8-2.4 6-4 7.2-4.4 1.2 0 5.2-1.2 9.2-2.8 6-2 6-3.6 2-8.8-4.4-5.2-4-6 2-3.6 5.2 2 8 0 10.4-6.4 2-4.8 2.8-10 1.6-12-0.8-1.6 0.4-2.8 2.4-2.8 2.4 0 4.4 3.6 4.4 7.6 0 4.4 2 9.2 4.4 10.8 3.2 1.6 2.8 3.6-0.8 6-4 2.4-4 3.6-0.8 3.6 3.6 0 4 2.8 1.6 8.8-1.6 5.2-2.4 11.6-1.2 14.8 1.2 3.2 0 4.4-2.8 2.8-2.8-1.6-4.4 0-4.4 5.2 0 4.4-2.4 8.4-5.2 9.2-4.4 0.8-4.4 4.4-1.6 15.2 2.4 7.6 4.8 11.2 5.6 8 2-7.2 28.4-20.4 31.6-15.6 1.2 2-1.2 4.8-5.2 6.4-8.4 3.2-19.2 13.2-14.4 13.2 2 0 6-2.4 8.8-5.2 4.4-4 4.8-2.8 2.4 5.2-1.6 5.6-4.4 10.4-6.4 11.2-1.6 0.8-2 4-0.8 7.6 1.6 4.4 1.2 5.6-2.4 3.6-3.2-2-4.4-1.2-4 2 2 10-4.8 23.2-12.8 25.6-4 1.6-7.6 4.4-7.6 6.4 0 5.2 10.8 4.4 14.4-0.8 1.6-3.2 3.6-2.8 6 0.8 2.4 4 3.6 4.4 3.6 0.4 0-2.4 2.4-4.8 5.6-4.8 3.2 0 8.8-4 12-8.8 8.8-12 16.4-4.8 10.8 10-3.6 9.2-3.2 10.8 2.4 10.8 5.6 0 5.2 1.6-2 9.2-4.8 5.2-8.8 11.6-8.8 14.4 0 2.8-2 3.6-4.8 2-2.4-1.6-3.2-1.2-2 1.6 4.4 6.8-1.6 17.2-11.6 21.2-9.6 3.6-12.8 13.2-5.6 17.6 2 1.2 10-0.4 17.6-3.6 7.6-3.2 14.8-4.8 15.6-3.6 1.2 1.2 4.8-1.6 7.6-6.4 7.2-12 12.4-10.4 9.2 2.4l-2.8 11.2 11.2-10c6-5.6 14.4-13.2 18.8-17.2 8.4-8.4 14.4-6 7.2 2.8-3.6 4.4-3.6 6 0.4 7.6 4 1.6 3.2 3.6-2 6.8-5.6 3.6-6.8 7.6-4.8 16.8 2.8 11.2 2 11.6-6.4 9.2-8.4-2.8-8.8-2.4-4 3.6 4.8 5.6 4.4 6.4-1.2 6.4-3.6 0-6.4 2-6.4 4.8 0 2.4-1.2 3.6-2.4 2-4-4-12.8 6.8-10.4 13.2 2 5.2 1.2 5.2-4.4 0.4-4-3.2-8.4-4-10-2.4-1.6 1.6-0.4 4 2.4 4.8 2.4 1.2 4.8 4.4 4.8 7.6 0 4 2.4 4.4 10.4 1.6 5.6-2.4 12-3.2 14-1.6 2 1.2 3.6 0.4 3.6-1.6 0-3.6 24-10.4 26.8-7.2 0.8 0.8 0.4 6-0.8 11.6-2 6.8-4.8 9.6-8.4 8-3.2-1.2-5.6 0.4-5.6 4.4 0 3.6-1.6 6.4-4 6.4-2 0-4 2.8-4 6.4 0 3.2-1.6 4.8-4 3.6-2-1.2-4-0.4-4 1.6 0 2.4-2.8 4.4-6 4.4-3.2 0-4.8 2.4-3.6 5.6 2.8 7.2-13.2 16.4-19.6 11.6-5.6-4.4-16.4-4.4-17.6-0.4-3.2 9.6 0 11.2 18 9.2 23.2-2 31.2-4.8 46-14.8 6-4.4 10.8-6.8 10.8-5.2 0 1.2 4.4-2.4 10-8 11.6-11.2 18-12.8 18-4 0 3.2-1.6 6-3.6 6-5.6 0-8.4 17.2-3.6 22.8 3.2 4 2.4 5.2-2.8 5.2q-6.6 0-4.8 6c4 9.2-4.8 11.6-14.4 3.2-7.6-6-8-6.4-3.2-0.4 4.4 5.6 4.4 7.2 0.4 7.2-4 0-3.6 2 0.8 6.8 3.6 4 5.2 9.6 4 12.8-1.6 4.4-2.4 4.4-5.2 0-3.2-4.8-4.4-4.4-7.6 0.4q-3.6 6 0 7.2c2.4 0.8 4 3.2 4 5.6 0 4-6.8 3.2-20-2.4-4.4-1.6-6 0.4-6.4 7.6-0.4 5.6 0.8 10 2.8 10 6.8 0 3.6 7.6-4.4 10-4.4 1.6-7.2 4.4-5.6 6.4 1.2 2 3.6 2.8 5.6 1.6 2-1.2 8.4 0.8 14 4.4 8 5.2 9.6 5.6 8 0.8-2-4.4 1.2-6 12.8-6.4 9.6-0.4 13.2 0.8 9.6 2.8-4 2.4-4 4-0.4 6.4 2.4 1.6 6.8 0.8 8.8-1.2 2.4-2.4 9.2-3.2 15.2-2 7.6 1.2 11.6 0 13.2-4.4 2.8-6.8 18.8-8.8 18.8-2.4 0 2-2 4-4.4 4-2.4 0-3.2 2.8-2 6.4 2 4.8 0.4 5.6-6 3.6-7.2-2.4-8-1.6-5.6 5.6 1.6 4.8 0.8 8.4-1.6 8.4-2.4 0-3.2 2.8-1.6 6.4 2 5.6 0.4 6.4-8.4 4.8-8-1.6-10.4-0.8-8.8 3.2 1.6 4-1.2 5.6-8.4 5.6-8 0-9.6 1.2-6.4 4.4 2.4 2.4 3.6 7.6 2.4 11.2-1.6 3.6-1.2 5.2 0.8 3.6 3.2-3.2 13.6 7.6 14 14.4 0 1.6-4.4 2.4-10 1.6-5.6-1.2-10-0.4-10 2 0 2.8-1.6 2.8-4.8-0.4-6.8-6.8-12.4-6-9.6 1.2 2.8 7.2-2 8-9.2 0.8-4.4-4-4.8-3.2-2.4 4.8 3.6 11.6-5.2 18.8-12 10-3.6-5.2-5.2-5.2-12 0-8 6-8 6-0.4 11.6 7.2 5.2 52.4 6 76.4 0.8 4.4-0.8 12-2.4 16.8-3.6 5.2-1.2 10 0 11.6 2 1.6 2.4 5.2 1.6 10-2.8 4.4-3.6 8.8-5.6 10.4-4.4 1.2 1.6 0.4 2.8-2.4 2.8-2.8 0-3.6 2-2.4 4 1.2 2.4-0.4 5.2-3.6 6.4-3.6 1.2-5.2 4-4 6 1.2 2-0.8 3.6-4 3.6-4 0-5.2 2.4-3.6 6.4 1.6 4 0.4 6-3.2 5.6-12-2-14.4 0.4-12.8 10.8 1.6 8.8 0.8 10-2.4 5.2-3.6-4.8-5.2-4.8-7.6-0.8-2 2.8-5.2 4.8-7.2 4.4-8.4-1.6-13.6 0.8-13.6 6.4 0 7.2-4.8 7.6-10.8 1.6-3.6-3.6-6.4-3.2-11.2 2-7.6 7.6-14.8 8-20.8 2-3.6-3.6-4.4-2.8-2.4 3.6 1.2 4.4 4.8 8 8.4 8 10-0.4 18.4 2.4 21.6 6.8 2 2.4 4.8 2 8-1.2 2.4-2.4 7.6-4.8 11.2-4.4q6 0 1.2 2.4c-2.8 0.8-5.2 4.4-5.2 7.6 0 3.6 2 4.8 4 3.6 2.4-1.2 4-0.8 4 1.2 0 2.4 7.2 3.2 16.8 2 12-2 15.6-1.2 13.6 2.4-2.4 3.6 0 4 7.6 2 10-2.4 10.4-2 6.4 6-4.4 8-4 8.4 9.6 6.8 11.6-1.6 14-0.4 14 6 0 6.8 8.4 10 21.2 8 1.6 0 2.8 0.8 2.8 2.4 0 6-6 11.2-16.8 16-6.4 2.8-11.2 7.6-11.2 11.2 0 7.2 0.4 7.2-17.2 0-13.6-5.6-14-5.6-11.6 2.8 1.6 7.2 0.8 8-6.4 6.4-9.6-2.8-12.8 6.4-3.6 10 2.4 1.2 0 2.4-6 2.4-6 0.4-12-1.6-13.2-3.6-3.2-5.2-14-5.2-14 0 0 2 2 4 4.4 4 2.8 0 10.4 6 17.2 12.8 6.8 7.2 15.2 13.2 18.4 13.6 14 0.8 36 6.8 36 10 0 2-4.8 4.4-10.8 6-6.4 1.6-13.2 5.2-16 8.8-4 4.8-6.4 4.8-10.4 1.2-3.2-2.4-8.8-3.6-12.4-2-3.6 1.2-9.2 0.4-12.4-2.4-3.2-2.8-8-4-10.8-2.8-8.4 2.8-23.2-4.4-23.2-11.2 0-3.6-1.6-5.6-3.2-4.4-2 1.2-7.6-1.6-12.8-6.4-5.2-4.8-12.4-9.2-15.6-9.6-3.6-0.4-10.4-2.4-15.2-3.6-12-4-11.6 1.2 2 15.2l10.8 12-13.2-2.8c-20-3.6-14.8 5.6 10 18 11.6 6 19.6 12 18 13.6-1.6 1.6 0 2.4 3.2 2 3.2-0.8 12.4 0.4 20 2.4l14 3.2-24 4.8c-14.4 2.8-31.2 3.6-42.8 2-10.4-2-19.2-2-19.2 0 0 8.4-14.8-2.8-21.2-15.6-3.6-8.4-6-10.8-5.2-5.6 2 11.2-0.8 11.2-10 0.4-4.4-5.2-10-7.6-13.6-6-8.4 3.2-12.4-8-6-15.6 3.2-3.6 3.2-6 0.8-6-2.4 0-7.2-1.2-11.2-2.8-6-2-6.4-0.8-4.4 10 1.6 7.6 0.8 12.8-1.2 12.8-2.4 0-4-1.6-4-3.2 0-2-2.8-6.8-6.4-11.2-5.6-6.8-6-2.4-4.4 52.8 1.6 45.2 3.6 63.2 8.4 72.8 3.6 7.2 8 12.8 9.6 12.8 1.6 0 7.2 1.2 12 2.8 9.6 2.4 9.6 2 7.6-25.2-1.2-15.2-2.8-32-3.6-37.6-1.2-9.2 0.4-10 15.6-11.2 14.4-1.2 18.4 0.8 32.8 14.4 17.2 16 20.8 24.8 10.4 24.8-6.4 0-8.4 26-2.8 35.2 2.8 4 28.4 10.4 57.6 14.4 4 0.4 8.4 2 9.6 3.6 1.6 1.6-105.2 2.8-237.6 2.8-158 0-240.8-1.2-240.8-4 0-2.4 2-4 4.4-4 3.2 0 4-5.6 2.4-16-2-15.2 4-36 10.4-36 3.2 0 4.4 14.8 3.2 34.8-0.8 12 0 13.2 9.6 13.2 10.4 0 10.8-0.8 9.2-15.2-2-16 2.4-32.8 8.4-32.8 2.4 0 5.2 10.8 6.8 24l2.8 24h33.6c29.2 0 33.6-0.8 31.6-6.4-1.2-3.2-0.4-10 2-14.8 4.4-8 4.8-8 10-0.8 3.2 4 5.6 10.4 5.6 14 0 5.2 3.2 6 15.2 4.8 8-0.8 17.2-3.6 20-5.6 3.2-2.8 4.8-2.8 4.8 0.4 0 12 34.4-2.8 39.6-16.8 2-5.2 4.8-40 6.4-77.6l2.8-68.4-9.6 0.4c-7.6 0.8-9.6 2.8-8.4 8.8 1.6 8 1.6 8-3.2 0-4.8-7.2-5.2-7.2-7.6-0.4-2.4 6.8-2.8 6.8-9.2 0.8-6-6-6.8-6-10.8 1.2-2.8 5.2-6.4 7.2-10.8 5.6-5.2-2-6-0.8-3.6 8 2 8 1.2 10.8-3.2 10.8-3.2 0-7.2-2-8.4-4-4.4-6.8-9.6-4.4-12.4 6-2.8 10.8-7.2 12.8-12 5.2-2-3.2-4-2.8-7.2 1.6-2.4 3.2-8.8 7.2-13.6 8.8-9.2 3.2-9.2 3.2-2.8-9.6 3.6-7.2 5.6-13.6 4.4-15.2-1.2-1.2-2.4 0-2.4 2.4 0 2.8-2.8 4.8-6.4 4.8-3.6 0-9.2 3.2-12 7.2-4 4.8-5.2 5.2-5.6 1.2 0-4-2-4-10 1.2-8.8 6-10.4 6-12.4 0.8-2-5.2-4-5.2-10.8-1.6-10.8 5.6-30.8 7.6-30.8 2.8 0-2 2-3.6 4-3.6 2.4 0 9.6-5.6 16.4-12.4 6.4-6.8 14.4-11.6 17.2-10.4 5.6 2 6-8 0.8-16.4-4-6.4-11.6-1.6-8.8 5.6 3.2 8-4 10.4-9.6 3.6-6.4-7.6-12-7.6-12 0.4 0 3.2-1.6 4.8-4 3.6-2-1.2-4-0.8-4 1.2 0 6.4-14.4 8-22 2.4-6-4.4-8.4-4.4-10.8-0.4-2.4 3.6-4.8 3.2-8.8-2-2.8-4-6-6-7.2-4.8-1.6 1.2-3.6 0-5.2-2.8-2.4-3.2-0.4-4 7.2-2.8 6 1.2 9.6 0.8 8.8-1.2-2-2.8 19.6-15.6 26.8-15.6 2 0 10.8-5.6 19.6-12.8 14.4-11.6 15.2-13.2 9.6-18.8-5.6-5.6-6.8-5.6-10-0.4-2 3.2-4 4.4-4 2.4 0-2-2.4-1.2-5.6 1.2-4.4 3.6-7.2 3.2-12-1.6-3.6-3.6-6.4-8.8-6.4-11.2-0.4-2.8-3.2-0.4-6.4 5.2-3.2 5.6-5.2 6.8-4 2.8 1.2-3.6 0-6.8-2-6.8-2.4 0-3.6-3.6-2.4-8 1.2-4.4 0.4-7.2-1.6-5.6-2 1.2-3.6-0.8-3.6-4.8 0-5.6-0.8-6-6.8-1.2-6 5.2-6 4.8-2-3.2 4.4-7.6 3.6-9.6-3.2-13.2-4.4-2.4-8-6-8-8.4 0-5.6 24.4-1.6 28 4.4 2 3.2 4 3.6 5.6 0.8 2.8-4.4 26-4 33.6 0.8 2.4 1.2 5.2 0.8 6.4-1.2 1.6-2 0.8-4.8-1.6-6.4-2.4-1.2-6.8-8.8-10-16.4-3.6-9.2-8.4-13.6-13.6-13.6-4.8 0-8.4 1.6-8.4 4 0 2-1.6 4-3.6 4-1.6 0-2.4-4.8-1.6-11.2 1.6-8.4 0.8-9.6-2.4-4.8-3.6 5.2-4.8 5.2-9.2 0.4-4-4.4-4-5.6 0-7.2 2.4-1.2 4.8-3.6 4.8-5.6 0-2-3.6-1.6-8 1.2-11.2 7.2-19.6-1.2-11.6-11.2 4.4-5.6 4.4-6.4 0-4-3.2 2-6.8 1.2-8.8-2-5.2-8.8-4.4-13.2 2-8 4.4 4 6 3.6 7.2-1.2 0.8-4.8 4-4.4 19.2 2.4 9.6 4.4 22.8 8.4 28.4 8.8 6 0.4 12.4 2 14 3.6 5.2 5.2 9.6 2.8 9.6-5.2 0-6.4 2.8-7.6 17.2-7.2 18.8 0.4 43.2-11.6 34.4-16.8-3.2-2.4-2.4-5.2 4-10.4 9.6-8.4 11.2-14.4 2.4-11.2-4 1.6-6 0-6-4.4 0-5.6-1.2-6-6-2-3.2 2.8-8.8 3.6-12.4 2.4-3.6-1.6-8.8-0.8-11.6 1.6-3.6 3.2-6 3.2-8 0-3.6-5.6 1.6-12.8 6.8-9.6 2.4 1.6 3.2 1.2 2-0.8-3.2-5.6-25.6-6.4-28.8-1.6-2 3.2-4.4 2.8-8.8-0.4-4.8-4-6.4-4-9.2 0.4-2.8 4.8-4.8 4.4-11.6-1.6-4.4-4-6.8-9.6-5.6-13.6 2-4.8 0.4-5.6-6-4-4.8 1.6-8 0.8-6.4-1.2 1.2-2 0-3.6-2.4-3.6-2.4 0-3.2-4-1.6-10 1.6-6.8 0.8-10.8-3.2-12-3.2-1.2-5.6-5.6-6-10-0.8-9.2 4.8-10.8 8.4-2 1.2 3.2 4.8 6 8.4 6 3.2 0 6 2 6 4.8 0 2.4 1.2 3.2 2.8 2 1.2-1.6 4.8-0.8 7.6 1.6q4.8 3.6 7.2 0c1.6-2.4 7.2-2.4 15.2-0.4 13.2 4 20.8 2 16.8-4.8-1.6-2.4 1.2-3.2 6.8-2.4 8 0.8 9.6-0.8 10-9.6 0.4-9.6-0.4-10.4-6-6-3.6 2.4-7.6 6.4-9.2 8.8-2 2.4-3.2 1.2-3.2-2.4 0-4-2.8-6.4-6.8-6-4 0-6.8-2-6.4-4.8 1.6-6-5.2-6.4-9.2 0-2 2.8-4.4 2-8.4-3.2-3.2-4-6.8-7.6-8.4-7.6-4.4 0-18.8-11.2-22.8-17.6-2.4-4.4-1.6-5.2 3.2-3.2 4 1.2 6.8 0.8 6.8-1.2 0-2 6.4-2.4 14.4-1.2 13.6 2.4 14.4 1.6 11.6-6.4-1.6-4.8-0.8-8.4 1.6-8.4 2.4 0 4.4 1.6 4.4 3.6 0 2 4.8 3.2 11.2 2.4 6-0.8 16.4-1.6 23.6-1.6 10-0.4 12.4-1.6 10.4-6.8-1.2-3.2-6.8-8-12-10-12.4-4.8-8.4-11.6 7.2-11.6 8.8 0 11.6-2 11.6-8 0-5.2-2-7.2-6-5.6-3.2 1.6-6 0.4-6-2 0-2.4-2.8-4.4-6-4.4-2.8 0-7.6-3.2-9.6-7.2-2.4-3.6-4.4-4.4-4.4-2 0 7.2-8 6.4-8-0.8 0-3.2-1.6-6-3.6-6-2 0-4.4-3.6-5.6-8-1.2-5.2-4.4-7.2-8-5.6-6.8 2.4-12.8-4.8-6.8-8.4 7.2-4.4 4.4-12.8-4.8-15.6-7.2-2-8-3.2-3.6-6 3.2-2 4.4-6 3.2-9.2-1.6-4.4 0.4-5.6 8-4 5.2 1.2 10.8 4.4 12 7.2 1.2 3.6 6 4.4 13.2 3.2 8.8-2 11.6-0.8 13.6 5.6 1.6 4.8 6 8.4 9.6 8.8 21.6 1.2 28.8 2.4 28.8 4.8 0 1.6 2.4 2 5.6 0.8 3.2-1.2 9.2-0.4 13.2 1.6 10 5.6 37.2-2.8 37.2-11.2 0-3.6-1.2-4.4-3.2-2-4.4 6.8-24.4 6.8-34 0-7.2-5.2-7.6-6-1.6-8.4 3.6-1.2 6.8-4 6.8-6 0-5.6-11.2-4.4-13.2 1.2-1.2 4-4 4-12-0.4-10.8-5.6-14.4-12.4-6.8-12.4 2.4 0 4 1.6 4 4 0 2 1.6 4 3.6 4 2 0 1.6-4.4-0.8-10-2.8-5.6-7.2-9.2-9.6-8-3.6 1.2-5.2-2.4-5.2-10.4 0-10.4-1.2-11.6-10-9.2-10 2.4-12-0.4-10.4-13.6 0.4-2.4-1.6-4.8-4-4.8-2.8 0-3.6-1.2-2.4-2.4 1.6-1.6 5.6-0.4 9.2 2.8 6 4.8 6.8 4.8 4.8-0.4-0.8-3.2-5.6-6.4-10.4-7.2-9.6-1.6-11.6-7.2-3.6-10 3.2-1.2 1.2-4.4-5.2-10-5.6-4.8-7.6-8.4-4.8-8.8 2.4 0 4.8-3.2 4.8-7.2 0-5.6 0.8-6 4-0.8 2 3.2 4 4 4 2 0.4-2.4 2 0 4 4.8 2 5.2 6.4 9.2 10 9.2 3.2 0 6 1.6 6 4 0 2 3.6 4 8 4 4 0 9.2 2.8 10.8 6 2.8 4.4 6.4 5.2 16 2.4 9.6-2.8 13.2-2.4 14.8 1.6 3.2 8.4 18.4 2.4 18.4-7.2 0-7.6 0.4-7.6 7.2-1.6 4 4 8.4 6.8 9.6 6.8 2 0 1.6-9.6-0.8-16-0.4-1.2-0.8-4 0-6 0.4-2.4-1.6-2-4 0.4-5.6 5.6-20.8 2.4-17.2-3.6 1.6-2.4 0-3.2-4-1.6-5.2 2-6.8 0-6.8-8 0-9.6-0.4-10-5.2-3.6-4.8 6.4-5.6 6.4-12.8-1.6-6.4-6.8-6.8-9.6-2.8-16.4 3.2-4.8 3.2-7.6 0.8-7.6-2.4 0-5.2 2.8-6.4 6-4 9.6-8.8 6.8-6.4-4 1.2-6.4 0-10-3.2-10-2.8 0-4-3.2-2.8-8 1.2-5.2-0.4-8.4-6-10.4-4-1.2-6.8-4.4-6-6.8 0.8-2.8-0.8-7.2-4-10-2.8-2.8-4.8-8.4-4.8-12 0.4-5.6 0.8-5.2 2.4 0.8 1.6 5.6 2.8 6.4 5.2 2.4 2.4-4 6-2 14.8 6.8 6.4 6.4 13.6 11.2 16.4 10 2.8-0.8 4.8 0.4 4.8 2.8 0 2.4 1.2 4 3.2 4 8-1.2 12.8 0.8 12.8 6.4 0 6.8 10 8 14 2 1.2-2.4 0.4-4-2.4-4-2.8 0-3.6-1.2-2.4-2.8 1.6-1.2 0.4-4.4-2.4-6.8-8-6.8-15.2-25.6-10.8-28.4 2.4-1.6 4-0.8 4 1.2 0 4.4 20 18.8 31.2 22.4 11.6 4 11.6-4.8 0-9.2-14-5.6-27.2-19.6-24.8-26.4 2.4-6.4-7.6-19.2-12-15.2-1.2 1.6-2.4 0.8-2.4-1.2 0-2.4 2.4-6.4 5.2-9.2 4-4 3.6-4.4-2-2.4-8 3.2-10.4-7.6-2.8-12 2.4-1.6 3.2-4.8 2.4-7.6-8.8-23.2-7.2-24.4 8.8-7.2 8.8 9.2 16.8 16.4 17.2 16 2.4-2 19.2 11.6 16.8 13.6-1.2 1.2 4 4.4 12 7.2 7.6 2.4 14.8 6.4 16 9.2 1.2 3.2 2 2.4 2-1.2 0.4-3.2-4-10.8-9.2-16.8-5.6-5.6-8.8-11.6-7.2-13.6 1.6-1.6-0.8-1.6-4.8 0-4.4 1.6-8.8 0.8-10.8-2-3.6-6 0-16.4 4.4-13.6 2 1.2 2.4-2 1.2-6.8-2.4-8.8-2.4-8.8 6 0.8 4.8 5.6 8.4 8.4 8.8 6.8 0-1.6-3.6-6.8-8-11.6-6.4-6.8-8.8-7.6-14-3.2-6.8 5.6-8.4 0-1.6-6.8 3.2-3.2 2.4-7.6-2-16.4-7.2-14.4-7.6-16.8-2.8-16.8 2 0 5.2 3.6 6.4 8 1.6 4.4 4 7.2 6 6 2-1.2 5.2 0.8 7.2 4.4 2 3.6 7.2 5.6 12 4.8 8.4-1.2 8.4-1.6-2.4-13.2-20.8-22-28.4-45.6-8.8-26 7.2 7.2 9.6 8 12.4 3.6 2.8-4.4 3.6-3.6 4 2.4 0.4 6.4 0.8 6.8 2.4 1.2 2-7.6 12.4-5.6 20.4 4 4 5.2 4.8 5.2 4.8 0.4 0-3.2-5.2-8.4-11.6-12.4-13.2-7.2-26.8-26-22.8-30.4 1.6-1.2 8.4 0.4 14.8 4 6.4 3.6 11.6 5.2 11.6 3.2 0-4.8 12-0.8 21.2 7.2 6 5.2 6.8 5.2 6.8 0 0-3.2-8-11.2-17.6-17.2-10-6-18.8-14.4-19.6-18.8-2.4-9.2-0.8-9.2 13.2 0.8 9.6 6.8 11.6 7.2 16 2 3.6-4.4 2.8-8-4.4-17.6-9.6-12.8-8-21.2 2.4-12.4 4 3.2 6 3.6 6 0.8 0-2.4 2.8-3.6 6.4-2 4.8 1.6 5.6 0 3.2-8.4-1.6-6.4-0.8-10.4 2-10.4 2.4 0 4.4-4.4 4.4-9.2 0-5.2 1.2-10.8 2.4-12 4-3.6 9.6 0.8 9.6 7.6zm8 91.2c0 0.8 3.2 4 7.2 6.8 6 5.2 6.4 4.8 1.2-1.6-5.2-6.4-8.4-8.4-8.4-5.2zm-40 30.4c-2 0-4 1.6-4 4 0 2 2 4 4 4 2.4 0 4-2 4-4 0-2.4-1.6-4-4-4zm86.8 17.6c-1.2 3.2 0 8 3.2 10.4 4 3.2 5.2 2 4.4-6-0.4-11.2-4.4-13.2-7.6-4.4zm13.2 68.4c-5.2-3.2-5.2 6 0 14 3.2 4.8 4 4.4 4-2.8 0-4.8-1.6-10-4-11.2zm-7.2 16.4c-1.6-1.2-6.4 1.6-10 6-7.6 8.8-4 10 6.4 2 4-3.2 5.6-6.8 3.6-8zm-114.4 1.6c-1.2 0-3.2 1.6-4.4 4-1.2 2-0.4 4 1.6 4 2.4 0 4.4-2 4.4-4 0-2.4-0.8-4-1.6-4zm84 12c-1.2 0-3.2 1.6-4.4 4-1.2 2-0.4 4 1.6 4 2.4 0 4.4-2 4.4-4 0-2.4-0.8-4-1.6-4zm74 10.8c-3.2-3.2-4.4-2.4-4.4 2.8 0 3.6-1.6 5.6-4 4.4-2-1.2-4 0-4 3.2 0 9.6 11.2 11.2 14 2 1.6-4.4 0.8-10-1.6-12.4zm-20.8 17.2c-2 0-2.8 1.6-1.6 4 1.2 2 3.2 4 4.4 4 0.8 0 1.6-2 1.6-4 0-2.4-2-4-4.4-4zm-167.2 6.4c-2-1.2-4.4 0.4-6 3.6-2.4 6.4 3.6 8.4 7.6 2.4 1.2-2 0.4-4.8-1.6-6zm-16.4 33.6c-2 0-4 1.6-4 4 0 2 2 4 4 4 2.4 0 4-2 4-4 0-2.4-1.6-4-4-4zm242.4 38c-6.8 10-6.4 10 1.6 5.2 4.4-2.8 8-7.2 8-10 0-7.6-2.4-6.4-9.6 4.8zm-232 22c-1.2 0-3.2 1.6-4.4 4-1.2 2-0.4 4 1.6 4 2.4 0 4.4-2 4.4-4 0-2.4-0.8-4-1.6-4zm208.4 29.6c-1.6-6.4-2-6.4-2.4-0.8 0 3.6-2.8 7.2-5.2 8.4-2.8 0.8-4 3.2-2 4.8 1.6 2 4.8 1.6 7.2-0.8 2.4-2.4 3.6-7.6 2.4-11.6zm-300.4 222.4c0-2.2-2-4-4.4-4-2.4 0-4.4 1.8-4.4 4 0 2.2 2 4 4.4 4 2.4 0 4.4-1.8 4.4-4zm-46.4 177.6c0 4.8 19.2 16.4 22.8 13.2 0.8-0.8 0-5.2-1.6-9.2-3.6-8.8-21.2-12.4-21.2-4zm18.4 55.6c-1.2-1.6-2.4 0.8-2 5.2 0 4.4 1.2 5.6 2.4 2.4 1.2-2.8 0.8-6.4-0.4-7.6zm205.6 26.8c0 4.4 12 13.6 14 11.2 1.2-1.2 1.2-4.8 0-8-2.4-6-14-8.4-14-3.2zm-0.4 26.8c-1.2 49.2 1.6 140 4.8 146 2 4 7.2 7.2 11.2 7.2 15.2 0 18.4-10.8 19.6-66.8 2-63.2 0.4-71.6-13.2-74.8-6-1.6-12-6.8-14-12.4-4.8-13.2-8-12.8-8.4 0.8zm146.8-1.2c3.2 3.6 9.2 6.4 12.8 6.4 5.2 0 4.4-2-3.2-8-14.8-11.6-22-10.4-9.6 1.6zm-332.8-1.6c-0.8 0-1.6 3.6-1.6 8 0 4.4 1.6 8 3.6 8 2 0 2.8-3.6 1.6-8-1.2-4.4-2.8-8-3.6-8zm468.8 16c-1.2 0-3.2 1.6-4.4 4-1.2 2-0.4 4 1.6 4 2.4 0 4.4-2 4.4-4 0-2.4-0.8-4-1.6-4zm-159.6 126.8c-1.2-2.4-2-0.4-2 5.2 0 5.6 0.8 7.6 2 4.8 0.8-2.4 0.8-7.2 0-10zm24.4 7.2c-1.2-1.2-3.6 0.8-4.8 4.8-2.4 5.6-2 6 2 2.4 2.8-2.8 4-6 2.8-7.2z"/>
	</g>
</svg>