<svg version="1.2" xmlns="http://www.w3.org/2000/svg" viewBox="0 0 544 1104" width="544" height="1104">
	<title>Layer</title>
	<style>
		.s0 { fill: #000000 } 
	</style>
	<g id="Layer">
		<path id="Layer" fill-rule="evenodd" class="s0" d="m285.6 20.8c0.8 12.8 2.8 17.6 8 18.4 6.8 1.6 6.8 2 0 9.2-6.4 7.2-6.4 7.6 0.8 7.6 6.8 0.4 7.2 0.8 0.8 5.2-10.4 8-2 19.6 10.8 14.8 12.4-4.8 13.6 1.6 2 8.8-10.4 6.8-10 11.2 1.2 11.2 8.4 0.4 8.4 0.4 1.6 6-4.4 2.8-10 4.4-13.2 3.2-3.6-1.2-5.6 0.4-5.6 4.8 0 4.8 2 6 8.4 4 4.8-1.6 12.8-3.2 18-4 13.2-1.2 11.2 10.8-2 14-5.6 1.2-10.8 4.8-11.6 7.6-1.6 4.4 1.6 5.2 14.8 3.2 8.8-1.2 16.4-0.8 16.4 0.8 0 5.2-15.2 15.6-29.6 20.4-16.4 5.2-19.6 10.4-4.4 6.4 5.6-1.6 13.2-0.4 17.2 2 5.6 3.6 10.8 2.8 24-3.6 18-8.8 23.2-4 10 9.6-8.4 8.4-37.6 21.6-42 19.2-1.6-1.2-2 1.2-0.4 4.8 2 5.6 6.4 6.4 30.8 4.4 25.2-2 27.6-1.6 20.4 3.2-4.4 3.2-10.4 8-13.2 10.4-3.2 2.4-14 5.2-24 5.6-23.6 1.2-24 1.2-16.8 6 3.2 2 15.6 4 27.2 4 18 0 20.4 0.8 16 5.6-2.8 3.2-6.8 4.8-8.4 3.6-1.6-1.2-6.4 1.6-10 5.6-3.6 4-10 6.8-13.6 6-4-0.8-7.2 0.4-7.2 2.8 0 4.8 34 4.8 47.6-0.4 14-5.2 15.2-0.4 2.8 12.4-7.6 8-13.6 10.8-19.2 9.2-6-1.2-7.6-0.4-6.4 3.6 2 6 23.6 6.8 36.4 1.6 8.4-3.6 9.2 4 1.2 12-10 10.4-31.6 21.2-36.8 19.2-3.2-1.2-5.6 0-5.6 2.4 0 6.4-18.4 5.2-24-1.6-2.8-3.2-6.4-6-8.4-6-6.4 0-4 7.6 4.8 16.4 7.2 7.2 12 8.4 30.4 6.8 12-1.2 23.2-3.6 24.4-5.6 1.6-2 10.4-7.6 20-12.8 18-9.6 23.6-5.2 6.8 5.6-15.2 10-12.4 15.2 6 12 19.6-3.2 20.8 2 3.2 12.8-16 9.6-32.4 14-52 14-17.6-0.4-19.6 4.8-5.2 11.6 7.6 3.2 11.2 3.2 16-0.8 3.2-2.8 6-3.2 6-1.2 0 2.8 8.8 2 22.8-1.2 12.4-2.8 23.6-4.4 24.8-3.2 2.4 2-18.4 22.4-21.2 20.8-1.2-0.8-6 2-10.4 5.6-4.4 4-11.2 7.2-15.2 7.6-3.6 0 1.2 3.6 10.4 8 9.6 4 19.6 6.4 22 4.8 2.8-1.6 7.2-3.2 10.8-3.6 3.2-0.4 11.6-2 18-3.6l12-3.2-15.2 16c-8 8.8-13.6 16.8-12.4 18.4 2.8 2.4-5.2 4.4-17.2 4-2.8-0.4-4 1.2-2.8 3.2 1.2 2-4.8 2.8-13.2 1.2-12.4-2-14.4-1.2-10 2.8 2.4 2.8 4.8 6.8 4.8 8.4 0 6-6.8 3.2-17.2-6.4-6-5.6-11.6-8-12.8-6-5.2 7.6-19.6 3.2-32.4-10.8-13.2-14-13.6-14-13.6-4 0 18.8 42.8 50.4 68.4 50.4 6.4 0 23.6-4.8 38.4-10.4 14.8-6 31.2-10.8 35.6-11.2 5.6-0.4 8-2.4 6.4-6-1.2-3.6-0.4-4.8 2.4-2.8 2.8 1.6 4.8 5.2 4.8 7.6 0 5.6-14 18.8-20 18.8-2.4 0-4 2.4-4 5.6 0 2.8-4 6.8-8.8 8.4-6 1.6-7.2 3.2-4 4.8 2.8 1.2 7.6 0 10.4-2.8 3.2-2.4 6.8-2.8 8-0.8 2.4 4 24 0.8 49.6-6.8 8.4-2.4 12.8-2.4 12.8 0 0 5.6-10.4 15.6-13.2 13.2-1.2-1.2-4.4 1.6-6.8 6.4-2.8 5.2-6.8 7.6-10.4 6.4-3.2-1.2-5.2-0.8-4 1.2 1.2 2-1.6 4.8-6.8 6.4-4.8 1.6-9.6 3.2-10.8 4-1.2 0.4-5.2 2-8.8 3.6-11.2 5.2-4.4 10.4 13.2 10.4 11.2 0 15.6 1.6 15.6 6 0 5.2-10.4 8.4-21.2 6.4-2-0.4-2.4 2.8-0.8 7.2 2 6.4 0.4 7.6-9.6 6.8-9.6-0.8-11.2 0.4-7.6 4.4 2.8 3.6 2.8 5.2 0 5.2-2.4 0-5.2-1.6-6.4-3.6-1.2-2-7.6-5.6-14-7.6-12-4-12-4-8 6.4l4 10.8-12-11.6c-12-11.6-17.6-10-7.2 1.6 2.4 3.2-2-0.4-10-7.6-16.8-15.2-18.4-14.4-8.8 4.8 9.6 18.8 17.2 26 24.8 24.4 3.6-0.8 12.4-0.4 18.8 1.6 7.6 2.4 22.4 1.6 40-2 15.6-3.2 34.4-6.4 42-7.6 20.8-2.8 31.2-4.8 40-7.6 4.4-1.6 8-1.6 8-0.4 0 4.8-21.2 22.8-28 23.6-4 0.8-10 3.2-12.8 6-3.2 2.4-7.2 3.6-8.4 2-1.6-1.2-2.8-0.8-2.8 1.2 0 2-5.2 7.2-12 10.8-8.8 5.6-12 6-12 2 0-2.8-2-2-4.4 2.4-3.6 6-5.2 6.4-8 2-2-3.2-3.6-3.6-3.6-1.2 0 4.8-12.8 4.4-24.4-0.4-14-5.6-10.8 5.2 3.6 11.6 16.8 7.6 34.8 8.8 60 4.8 22.8-4 21.6 2-3.2 13.6-10.8 5.2-18.4 11.2-17.2 13.2 1.6 2.4 0 3.2-4 1.6-4-1.2-6.8-0.8-6.8 1.6 0 2.4-1.6 3.2-3.6 2-2-1.6-4.4 0-5.6 2.4-1.2 4-2.8 4-8-0.4-4-3.2-6.8-3.6-6.8-1.2 0 2.4-4 5.2-8.8 6-10.8 2 14.8 3.6 56.8 3.6 17.6 0 37.2-2.4 47.6-6.4 17.6-6.4 28.4-5.2 15.6 2-3.6 2-9.6 6.4-12.8 10-3.6 3.2-11.6 8-18.4 10-6.4 2.4-12 7.2-12 10.4 0 3.2-2 4.4-4.8 2.8-2.8-1.6-12.8-3.2-22-3.6-12.4 0-17.2 1.2-17.2 5.6 0 4.4-2 4-8.8-2-7.6-6.8-8.4-6.8-6-0.8 2.8 8.4-0.4 8.8-16 2.8-10.4-3.6-10.8-3.6-4.4 2.8 3.6 3.6 14 8 22.8 9.6 18.4 3.2 74.4 2.4 96.4-1.6 13.2-2.4 13.6-2.4 6.4 3.6-4.4 3.2-10.4 6-13.2 6-2.8 0-5.2 1.6-5.2 4 0 2-2.4 4-5.6 4-2.8 0-7.6 2.8-10.4 6-3.6 4.4-6.4 5.2-9.6 2-5.2-5.2-19.6-5.2-16.4 0 1.6 2.4 4 3.2 6 2 1.6-1.2 2.8 1.2 2.4 4.8-0.4 4.8 4.8 8 17.6 11.2l18 4.4-16 4c-8.8 2.4-24.8 4-35.2 4-10.8-0.4-18.4 1.2-17.6 3.6 1.6 4.4 40.4 13.2 66 14.4 19.2 1.2 20.8 4 6.8 11.6-5.6 2.8-10 6.8-10 8.4 0 2-2.8 2-6.8 0.8-4-1.6-5.6-0.8-3.6 2 2.8 4.8-1.2 6-34.4 12.8-12.8 2.4-25.2 3.2-27.6 1.6-2.8-1.6-2.4 0.8 0.8 6.8 4.4 8.8 4.4 9.2-1.6 4.4-3.6-3.2-8.4-4.4-10.8-2.8-2 1.2-4 0.4-4-1.6 0-2.4-1.6-4.4-3.6-4.4-4.8 0-0.4 17.2 5.2 20.8 4.4 3.2 55.2 1.2 75.6-2.8 9.6-2 11.2-0.8 10 4.8q-1.2 7.2-14.4 8.4c-12.8 1.2-16.8 6.4-7.6 10q4.8 2.4-1.2 2.4c-3.6 0.4-8.8-2-11.6-4.8-4-4-4.4-3.6-2.4 2 2.4 5.6 0.8 7.2-6.4 7.6q-10.2 0.6-2.4 2.4c3.6 0.8 6.8 3.6 6.8 5.6 0 2 4 3.6 9.2 3.6 7.2 0 7.6 0.8 2.8 4-6.4 4-3.2 5.2 10 4.4 6-0.8 5.2 0.8-3.6 5.2-6 3.6-19.6 7.2-29.6 8.4-10.4 0.8-20.4 4-22.8 6.8-4.4 5.6-15.6 6.8-20.4 2-4-4-13.6-3.6-13.6 0.8 0 2 5.2 4.4 11.6 5.6 6.4 1.2 16.8 3.6 22.8 5.2 10 2.4 10.8 2 6.4-3.2-6.4-8 0.8-11.6 13.2-7.2 7.2 2.8 7.6 3.2 1.2 6-4 1.6-6 4.4-4.8 6.8 1.2 2 4.8 1.6 8-1.2 4.8-4 5.2-3.6 3.2 1.6-1.6 4.8-0.4 5.6 7.2 4 7.6-2 8.4-1.2 4.4 3.2-6.8 6.8-37.2 9.2-56 4-8.4-2.4-15.6-2.8-16.4-0.8-2.4 6.8-28.4-4.8-45.6-20.4-9.6-8.4-21.6-16.4-27.2-18-5.6-1.2-10.8-3.6-12-4.8-3.2-4-31.2-24.4-33.6-24.4-0.8 0-1.2 6.8-0.4 14.8 1.6 19.6 14.4 29.6 31.6 24.8 10.4-2.8 16.4-2.8 30.4 0.4 1.2 0-1.6 2.4-5.6 4.8-4.4 2.4-14.8 4-23.2 4-11.6-0.8-14.4 0.4-12.8 5.2 3.2 8-2 7.6-11.6-0.8-8-7.2-8-6.8-5.6 47.2 3.2 62 8.4 91.6 18.4 104.4 6 7.2 12 8.8 41.6 9.6 19.6 0.8 35.6-0.4 36.8-2.4 1.2-2.4 0.4-4-1.6-4-7.6 0-4.8-15.6 4.4-24 16.8-15.6 36-4.8 32.4 18.4-1.2 7.6-0.8 13.6 1.2 14 2 0 20.8 2.4 41.6 5.2 34.4 5.2 14 5.6-213.6 6-138.4 0.4-250.8-0.4-249.6-1.6 1.2-1.6 18-4 37.2-6 19.2-2 35.6-4.4 36.4-5.2 2.8-2.4-6.8-26.8-10.8-27.2-2-0.4-6-0.8-8.4-1.2-7.6-0.8-8.4-12.8-1.2-20 10-10 51.6-8.8 62 1.6 9.2 9.2 10 15.6 2.8 18.4-4.4 1.6-4.4 4.8-1.2 15.6l4 13.2 46.4-1.6c25.2-0.8 49.6-1.6 54.4-1.6 10.8-0.4 25.2-13.6 32.4-31.2 4.8-12 14.4-131.2 10.4-136.4-0.4-0.8-5.2 1.2-10.8 4.8-9.2 6-9.6 6-7.2-2 1.6-6.8 0.8-8-4.4-6-4 1.6-6.8 0.8-6.8-1.2 0-3.6-15.2 2.8-20 8.4-3.2 3.6-16 7.6-16 4.8 0-1.2 3.2-4.8 7.2-8 4.8-4 5.6-6.4 1.6-7.6-2.4-1.2-3.6-4.4-2-6.8 1.2-2.8-1.2-1.6-5.6 2-4.4 4-10 7.2-12.4 7.2-2.8 0-4.4 2-4 4.8 0.8 2.8-0.8 4.8-3.6 5.2-2.8 0-7.2 3.6-10.4 7.6-3.2 4.4-10 8-15.2 8.4-5.2 0.8-18 2.4-28.4 4-20.8 3.2-27.6-3.2-8.8-7.6 12.8-3.2 29.6-14 29.6-18.8 0-2-3.6-3.6-8-3.6-4.4 0-8 2-8 4 0 4.8-8.8 3.6-12.8-2-2-2.4-3.2-2-3.2 1.6 0 4.4-1.2 4.4-6.8 0-4-3.2-5.6-3.6-4-0.8 1.6 2.4 0.8 6-1.6 7.6-2.4 1.2-6 0.4-7.6-2.8-2.8-4-5.6-4-13.6-0.4-8 3.6-11.2 3.2-15.2-0.8-2.8-2.8-10.4-6.4-16.4-8-14.8-3.6-13.6-8.4 2.4-9.6 6.8-0.8 13.2-2.4 14-4.4 0.4-1.6 5.2-2.4 10.4-1.6 5.2 1.2 10.4 0 12-2 1.2-2-5.2-5.2-15.2-6.4-9.6-1.6-20.4-4.8-24-7.6-5.2-4-0.4-4.8 26.8-5.2 18.4-0.4 37.2-2.4 41.2-4.8 4-2.4 6-4.8 3.6-4.8-2-0.4 2-2.8 9.6-5.6 7.6-2.8 14.8-7.2 15.6-10.4 1.6-4 0-4.4-5.6-2-4.4 2-13.6 3.2-20.4 2.8-7.2-0.4-13.2 0.8-13.2 2.8 0 4-7.6 3.6-14.8-0.8-2.4-1.6-5.2-0.8-6 2q-1.8 4.2-7.2 1.2c-3.2-2-14-4-24-4.8-9.6-0.4-18.4-2.8-19.2-5.2-0.8-2-4.4-4-8-4-3.6 0-9.6-2-12.8-4-4.8-3.2-4-4 4-3.6 21.2 0.4 48-5.6 48-10.4 0-3.2-3.2-4.4-8.4-3.2-5.2 1.6-10.8-0.8-16.4-6.8-5.6-6-9.2-7.2-11.2-4.4-1.6 3.2-4.8 2-10-3.6-4-4.4-5.2-8-2.8-8 2.8 0 4.8 2.4 4.8 4.8 0 4 0.8 4 3.2 0.4 1.6-2.4 13.6-5.2 26.8-6.4 50.4-4.8 70-10 70-19.2 0-2.4-2-2.8-4.4-1.2-6 3.6-39.6 5.2-41.6 1.6-0.8-1.2-10.8-2-21.6-1.6-16.4 0.4-20.4-0.8-20.8-6 0-4-0.8-4.8-2.4-1.6-2.8 7.6-9.2 6.4-9.2-1.6 0-3.6-1.2-5.6-2.4-4-4 4-26.4-8.8-23.6-13.6 1.6-2 4.8-2.4 7.2-0.8 7.6 4.8 14 5.2 55.6 6 27.6 0.8 40.4-0.4 44-4.4 4.4-4 4-4.8-0.8-4-3.2 0.4-11.2-1.2-18-4-6.4-2.8-12-4.4-12.4-3.6 0 0.8-3.2-1.2-6.4-4-3.6-2.8-8.8-4-12.4-2.4-3.6 1.2-11.6-2.8-19.6-10-9.6-8.8-11.2-12-6.4-12.4 3.6 0 7.6 1.2 8.4 3.2 3.2 4.4 46.4 5.2 68.8 1.2 48.4-8.8 65.2-16.8 65.2-31.2 0-10-0.4-10-5.6-3.2-5.2 6.8-5.6 6.8-9.2-2.4l-4-9.6-0.4 10c-0.4 9.6-0.4 9.6-6 2.4-4.4-5.6-6-6.4-6-2 0 4.8-0.8 4.8-4-0.4-3.2-5.2-4-4.8-4 1.6 0 6-1.2 6.8-4.4 3.6-2.4-2.4-7.2-3.6-10.4-2.4-3.2 1.2-7.6 0-9.6-3.2-2.4-4-3.6-4-3.6-0.8 0 2.8-2.8 5.2-6.4 5.2-4.4 0-5.6-3.2-4.8-13.2 0.8-6.8 3.6-13.2 6.4-13.2 2.4-0.4 5.2-1.2 6-1.6 0.4-0.4 5.2-1.6 10.4-2 11.2-1.2 48.4-18.8 48.4-22.8 0-1.6-2.8-2-6-0.8-3.2 1.6-8.8 0.4-11.6-2-3.6-2.8-6-3.2-7.2-0.8-2 5.6-36 8.8-42 3.6-3.6-2.8-6.8-2.8-10.8 0.4-3.6 2.8-6.8 3.2-8 1.2-1.2-2.4 0.4-4.8 3.6-6.4 9.6-3.6 7.6-15.6-2.4-13.2-4.8 1.2-8.8 0-10.4-3.6-1.2-3.2-4.4-5.6-7.2-5.6-2.8 0-6.4-2.8-7.6-6.4-1.2-3.2-3.6-5.2-5.2-4.4-2 1.2-6.4-2.4-10.4-7.6l-7.6-10 11.6 2.4c6 1.6 15.6 3.2 20.8 4.4 5.6 1.2 11.2 0 13.2-3.2 2.4-4.4 4-4.4 6.4 0 5.2 7.6 72.4 13.6 102.4 8.8 13.2-2 34.4-9.2 46.4-15.6 17.6-9.2 22-13.2 21.6-20.8-0.4-5.2 2.4-11.6 6-14.4 3.6-2.8 4.8-5.2 2.8-5.2-2.4 0-0.4-2.4 4-5.6 4-3.2 6-7.2 4.4-9.2-2-1.6-5.2 0-7.2 4-2.4 3.6-6 6-8 4.4-2.4-1.2-3.6 0.8-2.8 4.8 0.8 5.6-0.8 7.2-6.8 6.4-6.4-1.2-7.2-0.4-2.8 3.6 6.8 7.2 6 10.4-3.2 12.8-4.4 1.2-8 0-8-2.4 0-2.8-1.6-2.4-3.6 0.8-3.2 4.8-5.2 4.8-9.6 1.2-4.4-4-6.8-3.6-10.8 1.2-2.8 3.2-6.4 4.8-8.4 3.6-2-1.2-3.6 0-3.6 2.4 0 2.4-2 3.2-4 2-2.4-1.6-6.8-0.4-10 2-4.8 4-6 4-6 0 0-4-1.2-4-6 0-5.2 4.4-7.6 3.2-6.8-4.4 0-1.2-3.2-4-7.2-6.8-6-3.6-8.8-3.2-13.6 1.2-5.2 5.6-6.4 5.2-10-0.8-3.6-6.4-4.8-6.4-8.4-1.2-3.2 5.2-4 5.2-4-0.8q0-6.6-6-4.8c-3.2 1.6-6 0.8-6-1.6 0-2-5.6-6-12-8.8-18.4-7.6-20-13.6-2.8-10.4 16.8 3.2 50.8-4.4 50.8-11.6 0-7.6-4.4-10-12.4-5.6-5.6 2.8-9.2 2-14.8-3.6-4-4-9.6-6.4-12-5.6-2.8 0.8-4.8-0.4-4.8-2.8 0-2.4-2.8-4.4-6-4.4-3.2 0-6-1.6-6-4 0-2-3.2-2.4-6.8-1.2-4.8 2-6 0.8-4-4 1.6-4.4 0.8-5.6-3.6-4-2.8 1.2-5.6 0.4-5.6-2 0-2.8 16.8-4 45.2-4 41.2 0.4 76-2.8 84-7.6 1.6-1.2 1.2-4.4-1.6-7.6-3.6-4.4-6-4.8-10.4-0.8-4.4 3.6-6.8 3.6-10-1.2-2.8-4.4-4.4-4.4-6-0.8-2.8 7.2-11.2 6.4-17.2-0.8-2.8-3.6-7.6-5.6-10.8-4.4-3.2 1.6-5.2-0.8-5.2-6.8 0-7.2-0.8-7.6-4-2.8-2.4 4-4 4.4-4 0.8 0-2.4-2.4-4.8-5.6-4.8-6 0-16.8-11.2-13.6-14.4 1.2-0.8 10.8 0.4 21.6 2.8 34.8 8.4 67.6 2 107.6-21.2 11.2-6.4 22.8-13.2 26-14.8 6.4-3.6 10.8-24.4 4.8-24.4-2 0-6 4.4-8.8 10-3.2 5.6-7.2 9.6-9.6 8.8-2.4-0.8-7.6 2-11.2 6.4-5.6 6.4-8.4 6.8-12.8 3.2-4-3.6-6.4-3.6-8.4-0.4-1.6 2.4-4.8 3.6-7.2 2.8-2.8-0.8-8 0.8-11.6 4.4-5.2 4.4-7.2 4.8-7.2 0.8 0-2.8-2.8-4-6-2.4-3.6 1.2-6 0-6-3.6 0-7.2-4.8-7.6-11.2-1.2-4 4-5.6 3.2-7.6-4-1.6-7.2-3.2-8-7.6-4.4-4.4 3.6-6 2.8-8.4-2.8-4-10.8-10.4-16.4-16.4-14.4-2.4 0.8-4.8-1.2-4.8-4.8 0-3.2-4-8.8-8.8-12-11.2-8-2.8-8.4 19.2-0.8 19.2 6.8 47.6 10.4 53.6 6.4 2.4-1.6-4-8-15.6-14.8-10.8-6.8-22-16.4-24.4-21.2-2.8-5.2-2.8-8-0.8-6.4 2.4 1.2 5.2 0 6-2.4 1.6-3.6 2.4-3.2 2.4 0.8 0.4 3.2 4 8.4 8.8 11.2 7.6 4.8 7.6 4.4 3.6-3.2-6.4-12-1.6-14.8 9.2-5.2 4.8 4.4 18.4 11.2 30 15.2 11.2 3.6 20.8 8.4 20.8 10.4 0 8.4 14 2.8 26.4-10.8 17.2-18 17.2-23.6 0.8-15.2q-12.6 6.6-14.4 2.4-1.2-4.8-8.4 0c-6 3.6-9.6 2.4-20.8-8-7.6-7.2-14.8-12.8-16.4-12.8-1.6 0-6.8-7.2-11.2-16-9.6-19.2-7.2-19.6 13.6-4 18.8 14.4 23.2 14.8 21.6 3.2-0.8-5.2-6-11.6-12.4-14.4-10.4-5.2-26.8-26-26.8-34.4 0-2 4 0 9.2 4.4 20 18.4 58 28.4 65.2 16.8 1.6-2.8-1.6-4-8.8-3.2-14 1.2-38.4-10.4-44.8-20.8-4-6.4-3.6-7.6 2-7.6 4 0.4 14.4 2.8 23.2 6 8.4 3.2 16.4 4.8 17.6 4 2-2.4 3.6-1.2-22.4-17.6-11.6-7.2-21.2-14.8-21.2-16.4 0-1.6 12.8-2 28-0.8 23.2 1.6 28 0.8 28-4 0-4.4-2.8-5.6-10-4-10.4 2-42-15.6-42-23.2 0-4.8 37.2-3.2 40.8 1.6 1.6 2.4 6 2.4 12-0.4l9.2-4.4-10.4-4c-11.6-4.4-35.6-24-35.6-28.8 0-1.6 6.8-0.8 15.2 2 39.6 13.2 50.8 9.6 18.8-6-28.4-13.6-23.2-23.2 7.2-13.6l8.8 2.4-8.4-9.2c-15.6-18-15.6-20.4 0-17.6 9.6 2 14.4 1.2 14.4-1.6 0-2.4-5.6-5.6-12-7.2-6.8-1.2-13.2-4-14.8-6.4-1.6-2.4 2.8-2.8 12.4-1.2 9.6 2 14.4 1.2 14.4-1.6 0-2.4-1.6-3.6-3.6-2.4-3.2 2-16.4-13.6-16.4-19.2 0-1.2 4.4-0.4 10 1.6 11.2 4.4 12 3.2 5.6-8.8-3.2-5.6-3.2-9.2 0-12.4 2.4-2.4 4.4-9.6 4.4-16.4 0-17.6 4.4-9.6 5.6 10.4zm0 175.2c-0.8 0-1.6 1.6-1.6 4 0 2 2 4 4.4 4 2 0 2.8-2 1.6-4-1.2-2.4-3.2-4-4.4-4zm-29.6 32c-4.8 3.2-3.6 4 5.2 4 6 0 10.8-2 10.8-4 0-5.2-8-5.2-16 0zm-25.2 46.8c-4.8 4.4-3.2 9.2 3.2 9.2 3.2 0 6-2.8 6-6 0-6.4-4.8-8-9.2-3.2zm63.6-2.8c-1.2 0-3.2 1.6-4.4 4-1.2 2-0.4 4 1.6 4 2.4 0 4.4-2 4.4-4 0-2.4-0.8-4-1.6-4zm-30.4 8.4c-8 0-24 6.8-24 9.6 0 3.2 21.2-2.4 26-6.4 2-2.4 1.2-3.6-2-3.2zm24 43.2c0 2 2.8 6 6.8 8.8 6 5.2 6 4.8 1.6-3.6-4.8-9.2-8.4-11.2-8.4-5.2zm7.6 20.4c-4.8 0-4.4 0.8 0.4 4.4 4.4 3.2 4.8 4.8 0.8 6.4-5.2 2-2.8 9.2 3.6 9.2 2.4 0 2.8-2 1.6-4-3.6-5.6 3.2-5.2 9.2 0.8 2.8 2.8 4.8 3.2 4.8 0.8 0-2.4-3.2-7.2-7.2-10.8-4-4-10-6.8-13.2-6.8zm-90 8c-3.2 0-4.8 1.6-3.6 4 1.2 2 4 4 6.4 4 2 0 3.6-2 3.6-4 0-2.4-2.8-4-6.4-4zm92.8 27.2c-7.2-10-8.4-5.2-2.8 10 4.4 11.6 14.4 16.4 23.6 11.2 6-3.2 5.2-4.4-3.6-8-6-2-13.6-8-17.2-13.2zm44.4 13.2c-3.6 0-3.2 0.8 0.4 2.4 2.4 0.8 3.6 4 2.4 6-1.6 2.8-0.8 3.2 2 1.6 2.4-1.6 3.6-4.8 2.4-6.8-1.6-2-4.8-3.6-7.2-3.2zm-75.6 31.2c-1.2-8.8-1.2-8.8-6.8 1.6-4.4 8.4-4.8 12-1.2 15.6 3.6 3.6 5.2 2.8 6.8-2 1.6-3.2 2-10.4 1.2-15.2zm-16.4 13.6c-0.8-6-2-8.4-2.4-4.4 0 3.6-2.8 7.2-5.2 8.4-4 1.6-4 2.8-0.4 7.2 2.8 2.8 6 4 7.6 2.8 1.2-1.6 1.6-7.6 0.4-14zm-20.8 10.8c-6.4 0-10 2.4-10 6 0 3.2 1.6 6 3.6 6 6.8 0 16.4-4.8 16.4-8.4 0-2-4.4-3.6-10-3.6zm-19.6 5.2c-1.2-1.6-2.4 0.8-2 5.2 0 4.4 1.2 5.6 2.4 2.4 1.2-2.8 0.8-6.4-0.4-7.6zm56.4 17.6c-4.4 4-3.2 17.2 1.2 17.2 2.4 0 4-4.4 4-10 0-10.4-0.8-11.6-5.2-7.2zm25.2 3.2c-5.2-3.2-4.8-2 0.4 13.2 2.8 8 6 11.6 10 10 3.2-1.2 5.6-4 5.6-6 0-2.4-2.8-3.2-6-1.6-4 1.2-6-0.4-6-5.6 0-4-1.6-8.8-4-10zm-34 6c-1.2 0-3.6 3.2-4.8 6.8-1.6 4-4.4 8.4-6.8 10-2.8 2-2 3.2 1.6 3.2 9.2 0 19.2-8 12.8-10.8-2.4-0.8-4-3.6-2.4-5.6 1.2-2 1.2-3.6-0.4-3.6zm-75.6 9.2c-0.8-0.8-2.4 1.2-3.6 4.8-1.6 3.2-5.2 6-8.4 6-3.2 0-6.8 2.4-7.6 4.8-1.2 3.2-2.4 2-2.4-2-0.4-9.6-8.4-4.4-8.4 5.6 0 9.2 5.2 10 13.6 1.6 3.2-3.2 7.6-6 9.6-6 2.4 0 5.2-2.8 6.4-6.4 1.6-3.6 2-7.6 0.8-8.4zm141.6 6.8c-5.2-7.2-7.2-7.6-9.2-3.2-2.8 8 1.2 13.6 12.4 16.8 6.8 2.4 8.8 1.2 8.8-4.4 0-4.4 1.2-5.6 3.2-2.8 1.6 2.4 8.8 6 15.6 7.6 11.2 2 12.8 1.6 10.8-3.6-1.2-3.6-4-5.6-5.6-4.4-2 1.2-8 0.4-13.6-2-6.8-2.4-10.8-2.4-12.8 0.8-1.6 2.8-5.2 1.2-9.6-4.8zm2.8 46.8c-1.6 1.2-0.8 5.6 1.6 10 4 7.2 3.2 7.6-5.2 5.2-4.8-1.6-11.6-4.8-14.8-7.2-6.4-5.2-16.4-7.2-16.4-3.2 0 5.6 18 19.2 32 24.4 7.6 2.8 15.6 6.8 18 8.8 4 3.6 22 4.4 22 1.2 0-1.6-2.8-7.6-6-14-6.4-12.4-27.2-29.2-31.2-25.2zm-30.8 43.2c-2.4-1.6-4 1.2-4 5.6 0 10 2.4 10.8 5.2 2.4 1.6-3.2 0.8-6.8-1.2-8zm-25.2 11.2c-1.2-5.6-2.4-4.8-4.4 3.6-2 6.4-4.8 10-6.8 8.8-2-1.2-3.6 0-3.6 2 0 6.4 6 5.2 12-1.6 2.4-3.2 4-8.8 2.8-12.8zm41.2 6c0 4.8 9.2 12.8 14.8 12.8 3.2 0 2.4-2.8-2.8-8-8.4-8.4-12-10-12-4.8zm-65.2 5.6c-1.2-3.6-2-0.4-2 7.2 0 7.6 0.8 10.8 2 6.8 0.8-3.6 0.8-10 0-14zm-12 10.4c-1.6-3.6-2.4-2.8-2.4 2-0.4 4-2 6-4.4 4.8-2-1.2-4 0.8-4 4.8 0 6.4 0.4 6.4 6.4 0.4 3.6-3.6 5.6-8.8 4.4-12zm63.6 14c-1.2-1.6-2.4 0.8-2 5.2 0 4.4 1.2 5.6 2.4 2.4 1.2-2.8 0.8-6.4-0.4-7.6zm-4.4 13.2c-6-8-6-8-6 0.4 0 10 13.2 22.4 25.2 23.6 4.8 0.4 8.8 1.2 8.8 1.6 0 0.4 2.8 1.2 6 2 3.2 0.8 9.2 2.4 13.2 4 3.6 1.6 6.8 1.2 6.8-1.2 0-5.6-11.6-14.4-14.8-11.2-1.2 1.2-6-0.4-10-4.4-4-3.6-7.2-4.8-7.2-3.2 0 1.6-3.6 0-8-4-4.4-4-8-5.6-8-3.6 0 2-2.8 0-6-4zm66 12c-8-8-8-8-8 0.4 0 4.4 3.6 11.2 8 15.2 6 5.6 8 6 8 1.6 0-4.8 0.8-4.4 4 0.4 2 3.2 4.8 4.8 6 3.2 1.6-1.2-0.4-4.8-4-7.6-3.6-3.2-10-9.2-14-13.2zm-108.4 1.6c-2.4 0-3.6 2.8-2.4 5.6 1.6 3.6 0.4 5.2-2.4 4-2.8-0.8-5.2 1.6-5.6 6.4-0.4 4.4 0 8 0.8 8 4 0 14-13.2 14-18.4 0-3.2-2-5.6-4.4-5.6zm12.4 0c-2 0-4 2-4 4.4 0 2 2 2.8 4 1.6 2.4-1.2 4-3.2 4-4.4 0-0.8-1.6-1.6-4-1.6zm-36.8 19.6c-4.4 1.6-5.6 4.4-3.6 7.6 2.4 4 4 4 8.4-1.2 6-7.6 4.4-10-4.8-6.4zm-28 9.2c-1.2-6.4-1.6-6-4.4 0.4-1.6 4-2.8 10.4-2.8 14 0.4 6 0.8 6 4.4-0.4 2.4-4 3.6-10 2.8-14zm16-0.8c-2-6-7.2-0.4-7.2 7.6 0 4.4 1.2 4.8 4.4 1.6 2.4-2.4 4-6.4 2.8-9.2zm82.8 4c-3.6-3.2-6-3.2-6-0.8 0 4.8 7.6 10.4 10.4 7.6 0.8-0.8-0.8-4-4.4-6.8zm-115.6 4c-1.2 0-3.2 1.6-4.4 4-1.2 2-0.4 4 1.6 4 2.4 0 4.4-2 4.4-4 0-2.4-0.8-4-1.6-4zm133.6 4c-2 0-4 1.6-4 4 0 2 2 4 4 4 2.4 0 4-2 4-4 0-2.4-1.6-4-4-4zm22 2.4c-4-1.6-6 0.4-6 6.4 0 4.8 1.2 7.6 2.4 6 1.2-1.2 6.8-0.8 12 1.2 6 2.4 9.6 2.4 9.6 0 0-2.4-2.8-4-6-4-3.2 0-6-1.6-6-3.6 0-2-2.8-4.4-6-6zm-67.2 25.2c-0.8-7.6-2-12-2.8-9.6-0.4 2-0.8 5.2-0.4 6.8 0 2-1.2 3.2-3.2 3.2-4.4 0-8.8 15.2-4.8 17.6 1.6 1.2 5.2 0.4 8-1.2 3.2-2 4.4-8.4 3.2-16.8zm21.2-7.6c-6 0 0 28 7.2 35.2 8 8 50.8 32.8 56.8 32.8 6.8 0 4.4-10-4-17.2-4.8-4-6.8-9.2-5.2-13.6 2-6 1.2-6-4 0.8-4 4.8-6.4 6-6.8 2.8 0-2.8-1.6-4.4-3.6-3.2-2 1.6-4.4 1.2-5.2-0.4-0.4-2-7.2-8-14.4-14.4-7.6-6-12-10.8-10.8-10.8 1.6 0 0.8-2.8-2-6-2.8-3.2-6.4-6-8-6zm205.6 8c-0.8 0-1.6 1.6-1.6 4 0 2 2 4 4.4 4 2 0 2.8-2 1.6-4-1.2-2.4-3.2-4-4.4-4zm-247.6 9.2c-5.6-6.8-5.6-6.8-6 1.6 0 4.8-1.6 10-4 11.2-2 1.2-4-0.4-4-4 0-3.6-1.6-5.2-4-4-2 1.2-4 6.8-4 12.4 0 5.2 2 9.6 4 9.6 2.4 0 4-2 4-4 0-2.4 3.6-4 7.6-4 4 0 8.4-2.4 9.6-5.6 1.2-3.2-0.4-8.8-3.2-13.2zm-132.4 10.4c-0.8 0.8-1.6 2.8-1.6 4.4 0 3.6 19.6 0 21.6-3.6 1.6-2.8-17.2-3.6-20-0.8zm103.2 0.4c-6.4 0-12.8 9.6-12.8 18.8 0 8.4 0.8 8.8 8 4.4 4.4-2.8 8-9.2 8-14 0-5.2-1.6-9.2-3.2-9.2zm134.8 12c-5.6 0-4.4 2.8 2.8 5.6 3.2 1.2 4.8 0.8 3.6-1.6-1.2-2.4-4-4-6.4-4zm-189.2 14.4c-4.4 2.8-6.4 6.8-5.2 8.4 1.6 1.6 6-0.4 9.6-4 8.8-8.4 5.6-12-4.4-4.4zm29.6-5.2c-4.4 0.4-8 2.8-8 5.2 0 2.8 3.2 4 8 2.8 4.4-1.2 8-3.6 8-5.6 0-1.6-3.6-2.8-8-2.4zm244-1.2c-2 0-4 1.6-4 4 0 2 2 4 4 4 2.4 0 4-2 4-4 0-2.4-1.6-4-4-4zm-168.8 10c-0.8-5.2-3.2-4.4-10 4.4-5.2 6.4-9.2 10-9.2 8.4 0-1.6-2.4-0.8-5.6 2-3.2 2.8-4.8 6.4-3.6 8.4 0.8 1.6 4.4 0 8-3.2 3.6-3.6 8.8-5.6 12-4.4 2.8 1.2 6.4-0.4 7.6-3.6 1.2-2.8 1.6-8.4 0.8-12zm104.8-4c-2-1.2-4 0.4-4 3.6 0 3.6 2 6.4 4 6.4 2.4 0 4-1.6 4-3.6 0-2.4-1.6-5.2-4-6.4zm-84.4 4.4c-4-4.4-0.4 12.8 5.2 24 4 8.8 22.4 19.6 26.4 16 1.2-1.2-4.8-10-13.2-19.2-8.4-9.6-16.4-18.8-18.4-20.8zm102.8 3.6c-3.2-4.4-6-5.6-7.6-3.2-2.8 4.4 8 16 11.2 12.4 1.2-0.8-0.4-5.2-3.6-9.2zm57.2 14c-2 0-2.8 1.6-1.6 4 1.2 2 3.2 4 4.4 4 0.8 0 1.6-2 1.6-4 0-2.4-2-4-4.4-4zm20 1.2c-4.8-0.4-7.6 1.2-6.4 4 2 6.8 14.8 8.4 14.8 2 0-3.2-3.6-5.6-8.4-6zm26.8 2.8c-1.2 0-3.2 1.6-4.4 4-1.2 2-0.4 4 1.6 4 2.4 0 4.4-2 4.4-4 0-2.4-0.8-4-1.6-4zm-166.8 16c-2 0-2.8 1.6-1.6 4 1.2 2 3.2 4 4.4 4 0.8 0 1.6-2 1.6-4 0-2.4-2-4-4.4-4zm-251.6 8c-3.6 2.4-4 4-1.2 4 2.4 0 6-2 7.2-4 3.2-4.8 1.6-4.8-6 0zm264-4c-2 0-4 1.6-4 4 0 2 2 4 4 4 2.4 0 4-2 4-4 0-2.4-1.6-4-4-4zm-86.4 14c-7.6 5.6-7.2 5.6 1.6 6 5.2 0 8.8-2.4 8.8-6 0-7.6-0.4-7.6-10.4 0zm100.4-6c-3.2 0-6 0.8-6 1.6 0 0.8 2.8 3.6 6 6.4 4.8 4 6 4 6-1.6 0-3.6-2.8-6.4-6-6.4zm28.8 4.8c-5.2-4.4-6-4-4 2.4 2.4 9.6 18.4 18.8 27.2 15.2 9.6-3.6 4.8-12.4-6.8-12.4-5.6 0-12.8-2.4-16.4-5.2zm-88 7.2c-2 0 0.8 4.4 6.8 10 11.6 10.8 20.4 13.2 17.2 4.8-0.8-2.4-3.6-4.4-6-4-2 0.4-6.4-1.6-8.8-4.8-2.8-3.2-6.8-6-9.2-6zm-136.8 4c-3.2 0-6 1.6-6 4 0 2 2.8 2.8 6 1.6 3.2-1.6 6-3.2 6-4 0-0.8-2.8-1.6-6-1.6zm82 0c-2 0-4 1.6-4 4 0 2 2 4 4 4 2.4 0 4-2 4-4 0-2.4-1.6-4-4-4zm-13.6 4c-1.2 0-3.2 1.6-4.4 4-1.2 2-0.4 4 1.6 4 2.4 0 4.4-2 4.4-4 0-2.4-0.8-4-1.6-4zm110 14c-6.8-3.2-12.4-4.8-12.4-2.8 0 4 20 14 22.8 11.2 1.2-0.8-3.6-4.8-10.4-8.4zm16.4 6.8c1.2 2.8 5.2 6 9.6 6.8 6.4 1.2 6.8 0.4 2-5.2-6.4-7.6-13.6-8.4-11.6-1.6zm-94.8 15.2c-4 4.4-9.2 8-11.6 8-2.4 0-6.8 3.6-9.6 8.4-3.2 4.8-3.6 7.2-1.6 6 2.4-1.2 4.8-0.4 5.6 1.6 0.8 2.8 5.6 2.8 14.4-0.4 11.2-3.6 12.8-6.4 12.8-18 0-16-0.4-16-10-5.6zm196.8 4.4c-16 0.4-16 0.8-4.8 3.6 17.6 4.4 26.8 4.4 24 0-1.2-2.4-10-3.6-19.2-3.6zm-96 15.2c-8.8-4.8-8.8-4.8-1.2 4 7.6 8.4 17.2 12 12.4 4.4-1.2-2-6.4-6-11.2-8.4zm-270 164.4c-8 0-9.2 1.6-8 10.8 0.8 9.2 3.2 11.6 14.4 12.4 10.4 1.2 12.8 0 12.8-6 0-4.4-2-9.6-4.8-12.4-2.8-2.8-9.2-4.8-14.4-4.8zm309.6 10.8c-1.2 1.2-2.4 4.8-2.4 8 0 6 14.4 7.2 18 1.6 2.8-4.8-11.6-13.2-15.6-9.6z"/>
	</g>
</svg>