<svg version="1.2" xmlns="http://www.w3.org/2000/svg" viewBox="0 0 520 1244" width="520" height="1244">
	<title>Layer</title>
	<style>
		.s0 { fill: #000000 } 
	</style>
	<g id="Layer">
		<path id="Layer" fill-rule="evenodd" class="s0" d="m272.4 2c2.4 1.6 3.2 5.2 2 8.4-1.2 3.2-0.4 5.6 1.6 5.6 2.4 0 4 6.4 4 14.4 0 11.2 1.2 14 6 12 7.2-2.4 7.6-0.4 2 10-5.2 9.6-0.8 10 6.8 0.4 5.2-6.4 5.6-6 4 2.4-1.2 5.2-0.4 8 2 6.4 2.4-1.6 3.2 0.4 1.2 6-2 6.4-0.8 8.4 4.8 8.4 4.4 0 9.6-2 12.4-4.8 6.8-6.8 6.4 1.2-0.8 18.4-5.6 13.6-3.2 16.4 8.8 8.8 8-4.8 10.8 0.4 5.6 11.6-6.4 14-6 18.4 2 15.2 4.4-1.6 5.6-1.2 3.6 2-2 3.2-0.8 4 3.2 2.4 3.6-1.2 6.4-1.6 6.4-0.8 0 5.6-13.2 27.2-16.4 27.2-2 0-3.6 1.6-3.6 3.6 0 1.6 8.4 2.8 18.8 1.6l18.8-1.2-8 8.8c-4 5.2-8.8 10-10.4 11.2-1.6 1.2-1.2 4.8 0.8 8 2.8 4.4 5.2 4.8 14.4 0.8 14.4-6.8 16.8-2.8 5.6 9.2-9.2 9.6-6.8 14 3.2 6 3.6-2.8 3.6-2.8 0.8 0.8-2 2.8-4 6.4-4 8 0 4.4 19.6-0.8 31.2-8 12-7.6 11.2-3.6-2 10-15.2 15.6-38.4 29.2-49.2 29.2-10.4 0-7.2 5.6 3.2 6.4 4 0.4 12 0.8 18 1.2 6.4 0 10.4 2 9.2 4-4 6.4 21.2 9.6 28.4 3.6 6.4-4.8 6.4-4.4 0.8 3.6-8.4 12.4-26.8 26-31.2 23.6-2-1.2-5.6 0-8 3.2-3.6 4.4-2 6.4 8 10 6.8 2.4 14 3.2 16 2 2-1.2 3.6 0 3.6 2.4 0 2.8 3.2 3.6 8.4 2 6.4-2.4 8-1.6 5.2 2.4-2.4 4.4-2 4.4 3.6 0 4-3.2 8.4-4.4 9.6-2.8 1.6 1.6 1.2 4-0.8 5.6-2.4 1.6-7.2 6.8-11.2 11.6-7.2 8.4-7.2 8.4 0.8 6.4 4.8-1.2 8.4-0.4 8.4 1.2 0 4-15.2 14.8-22.4 16-2.4 0.4-8.8 2-14 3.6-9.2 2.8-9.2 3.2-1.6 6 4.4 1.6 16 3.2 25.6 3.2 9.6 0.4 18.4 1.2 19.6 2.4 1.2 1.6 5.6-0.4 9.6-4.4 8.4-7.6 10-0.4 1.6 7.6-14.4 13.6-23.2 19.2-26.4 17.2-2.4-1.6-4-0.8-4 1.6 0 2 2.4 4.4 5.2 5.6 8 2.8 0.8 7.2-14.4 8-8 0.8-15.6 2.4-17.2 4-1.6 1.6-7.2 2.8-12.4 2.8-5.2 0-9.2 2.4-9.2 6 0 6 18 10.4 38 8.8 6.8-0.4 14.4 0.8 17.2 2.8 3.2 2.4 6.4 2.4 8 0 4.4-5.6 20.8-6 20.8-0.4 0 3.6 0.8 3.6 3.6-0.4 2.4-4 4-4 8.4 1.2 4 4.8 6 5.2 11.2 1.2 4.8-4.4 5.6-4 4.4 0.4-1.2 3.2-10.8 8-21.2 10.4-20.8 5.2-38.4 18-24.8 18 14.4 0 3.2 10-16 14-22.4 4.4-24.8 13.2-6.4 22.4 10.8 5.2 14 6.4 23.6 7.2 2.8 0.4 4 3.2 2.4 7.2-2 6-1.2 5.6 4-0.8 6.4-8 6.4-8 6.8 0.8 0 9.6 10 12.8 12.8 4.4q1.8-4.2 7.2-1.2c7.6 4.8 25.6 5.2 28.4 0.8 1.6-2 3.6-2 5.2 0.8 1.6 2-2.8 6.8-9.2 10-13.2 7.2-24.4 17.2-24.4 22.8 0 2 6.4 3.6 14.4 3.6 19.6 0 13.6 6.4-13.6 14.4-37.2 10.8-35.6 10-25.6 14 4.8 1.6 8.8 6 8.8 8.8 0 4.4 6 5.6 29.2 4.4 26-1.2 28-0.8 21.2 4.4-4.4 3.2-10 6-12.8 6-2.4 0-5.6 2.8-7.2 6-1.2 3.2-4.8 6-8.4 6-3.2 0-6 1.6-6 4 0 2-2.8 4-6 4-3.2 0-6-2-6-4.8 0-2.4-0.8-3.6-2-2.4-1.2 1.2-0.8 5.2 0.4 8.8 2 5.2 6 6.8 14 5.6 6.4-1.2 11.6-0.4 11.6 1.6 0 1.6-4.4 3.6-10 3.6-16.8 0.8-18 1.6-21.6 7.2-2 2.8-5.2 4.4-7.2 3.2-2-1.2-6-0.8-9.2 1.6-4.8 2.8-4.4 3.6 2 4 24.8 2 46 8.8 46 15.2 0 2.4 2.4 3.2 5.6 2 3.2-1.2 9.2-0.4 12.8 1.6 6 3.2 4.4 5.6-12.8 16.4-18.4 11.2-28 14.4-40.8 12.8-4-0.8-4 0.8 0 7.2 2.4 4.4 6 7.2 7.6 6.4 1.2-1.2 8 0 14.8 1.6 8.4 2.4 15.2 2 22.8-2 10.8-5.6 10.8-5.2 8.4 4.8-2.8 10-2 10.4 11.6 8.8 8-0.8 13.6 0 12.8 2.4-2 6-32 14.8-42.4 12.4-8.8-2.4-8.8-2-2.8 4 3.6 3.6 6.4 10.8 6.4 16 0 8 2.8 10 14 12.4 16.8 2.8 17.2 4.8 3.6 16-6 5.2-8.4 10-6 11.6 8.8 5.2 4 10.4-8.4 9.2-18-1.6-16 8 5.6 28 15.6 14.8 16 15.6 8.8 22.4-4.4 4.4-8 5.6-8.8 3.2-0.8-2.8-6-3.6-13.2-2-8 1.6-12 0.4-13.6-3.6-2.4-5.6-27.2-7.2-32.8-2-1.2 1.6-0.4 2.8 2 2.8 2.8 0 4.8 2.4 4.8 5.2 0 2.8 4 7.6 8.4 10.8 20.8 14.4 32 25.6 30 30.4-1.2 3.2 0 4.4 4 2.8 2.8-1.2 5.6 0 5.6 2.4 0 6.4-11.6 5.6-18.4-1.6-3.6-3.2-8.4-6-10.8-6-3.2 0-2.8 1.2 0.8 3.6 4 2.8 4 4 0.4 6.4-2.8 1.6-6.4 0.8-8-2-1.6-2.8-6.4-3.6-11.6-2-5.2 1.6-10.8 0.4-14.4-3.6-3.6-3.2-9.2-4.8-12.8-3.6-5.6 2-5.6 3.2-0.8 4.4 2.8 1.2 7.2 4.4 8.8 7.2 1.6 3.2 5.6 5.6 8.8 5.6 9.2 0 10.4 6.8 3.2 14.4-6.4 6.4-6.4 6.4 2.8 3.6 8.4-2.8 9.2-2.4 5.2 2.8-6.4 7.6-2.8 11.2 11.2 11.2 15.2 0 17.6 6 7.2 16.4-6.4 6.4-7.2 8.4-2.4 6.4 3.6-1.2 6.8-0.8 6.8 1.2 0 2.4 3.6 4 8.4 4 4.4 0 6.8 1.6 5.6 4-3.6 5.6 3.2 4.8 9.6-1.2 4.4-4 4.8-3.2 2.8 4-2 6-0.4 10 4.4 12.8 6.8 4 6.4 4-1.6 4.4-6.4 0-8 2-6.4 8q4.2 15-10.8 0c-6.4-6.4-10-7.2-16-4-10.4 5.6-12 5.2-9.2-3.2 1.2-3.6 1.2-5.6-0.8-4-1.6 1.6-10-0.8-18.8-5.2-16-8-27.2-8-12 0 5.6 2.8 7.2 6.8 6 12.4-1.6 5.6 0 8 4 8 3.6 0 9.6 4.4 13.6 9.6 4 5.2 11.6 10.4 16.4 12 4.8 1.6 11.2 5.2 13.6 8 2.8 2.8 12.4 6.4 21.2 8.8l16 3.6-9.6 10c-6.8 6.8-8.8 8-7.2 2.8 2-5.6 0-6.8-11.6-6.8-9.6 0-13.2 1.6-11.2 4.8 2 3.2 0.8 3.6-4 2-4-1.6-6-1.2-4.4 1.2 1.2 2.4 5.2 4 8.4 4 3.2 0 5.6 1.6 5.6 3.6 0 2 4.4 4.8 10 6 6.4 1.6 8.8 4.4 7.6 8-1.6 4.4 2.8 6.4 16.4 8.4 18.4 2.8 18.4 3.2 9.2 9.6-5.2 3.6-10.4 6-12 5.2-2-0.4-3.2 0.8-3.2 2.4 0 3.6-18.8 3.2-22.8-0.4-4-4.4-14-3.2-11.2 1.2 4.8 7.6-1.6 4-12-6.8l-10-11.2v18.8l-8.4-9.2c-5.6-6.8-7.6-7.6-6-2.8 1.2 4.8 0.4 6-4 4.4-3.6-1.2-5.6 0.8-5.6 6.4 0 11.2-6.4 10.4-14.4-2-5.2-7.6-5.6-11.2-2-14.8 2.4-2.4 4.4-7.6 4.4-11.2 0-7.6-15.2-20.4-20.4-17.2-3.2 1.6-2.8 5.2 2.8 25.6l2.4 10-6.8-9.6c-11.2-14.8-14-4-14 58.8 0 60.8 3.2 75.6 15.2 69.2 6.8-3.6 9.6-4.4 16.4-4.4 2 0 4.8-4 6-9.2 2.8-8.4 3.2-8.4 9.2 4 8 15.6 11.2 16.4 14.8 4 2-8.4 2.8-8 14.4 6 8.4 10.4 16 15.2 22.8 15.2 7.2 0 9.6-1.6 7.6-6-1.2-3.6 0-6 3.2-6 2.8 0 6.4-5.6 8-12.4 2.4-12 10.4-12.8 10.4-1.2 0 11.6 12 29.2 20.8 30.8 5.2 0.8-106.8 2-248.8 2-160.8 0.4-260.4-0.8-264-3.2-5.2-3.6-5.2-4 0-4 14.4-0.8 46.8-4 54.8-5.6 10-2 58-5.6 117.2-8.4 61.2-2.8 65.6-4.8 69.6-31.2 4.4-30.4 3.6-144.4-1.2-146-2.8-0.8-3.2-4-0.8-8.4 2-3.6 3.6-17.2 3.2-29.6-0.4-19.6-1.6-22.4-7.6-20.4-4.8 1.2-7.2 0-7.2-4 0-3.6-2.8-6.4-6-6.4-3.2 0-6-2-6-4 0-2.8-2.4-2.8-8 0-4.4 2.4-8 6.4-8 8.8 0 2.8 2 2.4 6-0.8 6-4.8 14-2.4 14 4.4 0 2.4-2 2.8-4.8 1.2-2.4-1.6-3.2-1.2-2 1.6 4 6-1.2 16.8-6.8 14.4-2.8-0.8-4.8 2-5.2 6.8-0.8 10.4-5.6 15.6-8 8.4-2.8-7.6-12.4-5.6-17.2 3.2-2.4 4.4-6 7.2-8.4 6-2-1.6-3.6 0.4-3.6 3.6 0 3.2 2 7.2 4.4 8.4 2.4 2 1.2 5.2-4 8.8-4.8 3.2-8.4 8.8-8.4 12.8 0 3.6-2.4 10.4-5.6 14.8-5.6 7.2-5.6 7.2-4.8-3.6 1.6-14.4-3.6-14-8.8 0.8-6 16.8-21.6 33.6-25.6 27.6-4.8-7.6-3.6-14 1.2-7.2 3.6 5.2 4 4.8 2-0.8-1.2-4-0.4-8 1.6-9.2 2.4-1.6 4-4 4-6 0-2-8 1.6-17.6 8-9.6 6.8-18.8 12-20 12-1.6 0-6.4 3.6-11.2 8-10.4 9.6-16 10.4-12.8 2 2.8-6.8-6.4-8.4-13.2-1.6-2.8 2.8-4.8 2.4-6.8-2.4-1.2-4 0.4-7.2 5.2-9.2 4.4-1.6 16-10.8 26.4-20 13.6-12.8 17.2-18.8 14.4-22.4-2.4-2.8-2.8-6.8-1.2-8.8 1.6-1.6-0.4-0.8-4.4 2.4-6 4.4-8 4.4-10.4 0.4-2-2.8-4.4-4.8-6-4.8-3.2 0.4-2.4-4 1.6-11.6 2-3.2 4.4-5.6 5.6-5.2 1.2 0.8 2.4 0 2.4-2-0.4-1.6-6.4-2.4-14-1.6-7.6 0.8-14 0.8-14-0.4 0-0.8 7.6-6.8 16.8-12.8 17.6-11.6 36.4-30 33.6-32.8-0.8-1.2-6.4 1.2-12 4.8-8 5.2-10.4 5.6-10.4 1.6 0-4-2-3.6-6.8 1.2-6 6.4-6.8 6.4-11.2-2-2.4-5.2-8-8.8-12.8-8.4-4.8 0-8.4-1.6-8-4 1.2-6.4 27.2-23.2 42.8-27.6 15.2-4 37.6-18.4 34.4-21.6-1.2-1.2-6.8 0.8-12.4 4.4-6.8 4.4-10 5.2-10 1.6 0-3.6-1.2-3.6-4.8 0-7.6 7.6-12 5.6-7.2-3.2 4.8-9.2 1.6-17.6-5.2-13.2-2.4 1.6-9.2 3.2-14.4 3.6-5.6 0.8-12.4 4.4-15.2 8-4.8 6.4-6.8 4.8-5.6-3.6q0-2.4-2.4-2.4c-7.6 1.2-13.2-0.8-13.2-4.4 0-2 2.4-2.8 5.6-1.6 3.2 1.2 10.4-3.2 16.8-10 6-6.8 13.2-12.4 16.4-12.4 2.8 0 5.2-2 5.2-4 0-2.4 4.4-8.4 10-13.6 11.6-10.8 12.4-14.4 4-14.4-3.2 0-6 2.4-6 4.8 0 3.6-1.6 3.2-4-0.8-2.8-4.4-4-4.4-4-0.8 0 2.8-1.6 4.4-3.6 2.8-2-1.2-4.8-0.4-6 1.6-3.2 4.8-22.4 4.4-22.4-0.4 0-2.4-4.4-2.8-10-1.6-16 4-11.6-4 7.6-13.2 18-8.8 44.8-31.6 41.2-35.2-1.2-0.8-6 2-10.8 6.8-8.8 8.8-25.2 10-35.2 2.4-3.6-2.8-4.4-1.6-2.4 4 2.8 7.2 2.4 7.2-6-0.4l-8.8-7.6 11.2-4.4c7.6-2.8 11.2-6.4 10-10.8-0.8-4.8 0.4-6.4 4-5.2 2.8 1.2 10.8 0.4 17.2-1.6 6.8-2 9.6-4 7.2-4-2.8-0.4-5.2-4-5.2-8.8 0-6 2-7.6 6-6 3.2 1.2 6 0.4 6-2 0-2.4 2.8-3.6 6-2 3.2 1.2 6 0.4 6-1.6 0-2.4 2.8-4 6-4 3.2 0 6-3.2 6-7.2 0-4.4-1.2-5.2-3.2-2-3.2 4.8-16 4.8-31.6-0.4-6-2-9.2-1.2-9.2 1.6 0 2.4-2 3.2-4 2-2.4-1.6-1.6-4.8 2-8.4 7.2-7.6 7.6-10.4 1.2-16.8-6-6-3.2-6 10.8-0.8 6.8 2.8 9.6 2.8 8 0-1.2-2.4 0.4-4 4-4 4.4 0 6-2 4.4-6.4-2-4.8-0.4-5.6 6-3.6 6 2 7.6 1.6 6-1.6-1.6-2.4 0-4.4 3.2-4.4 7.6 0 8.4-4.4 2-10.8-5.2-5.2-1.6-13.2 6.4-13.2 4.8 0 14-11.2 14-17.2 0-0.8-5.2-1.6-12-1.6-6.4 0-12 2-12 4 0 2-2.4 1.6-5.6-0.8-4-3.2-6.4-3.6-8.4-0.4-1.6 2.4-4.8 2.8-8.8 0.4-3.6-2-14-2.8-22.8-1.6l-16.4 2 16.8-10c9.2-5.6 20.8-11.2 25.2-12.8 6.4-2 8-4.8 6.4-11.6-2-7.6 0.4-9.6 16.8-14.4 10.4-3.2 20-5.2 22-4.8 1.6 0.4 2.8-2 2.8-5.2 0-3.2 2.4-4.8 5.6-3.6 7.2 2.8 12.4-6 6.8-11.6-3.2-3.2-4.4-2.4-4.4 2.8 0 3.6-2 5.6-4 4.4-2.4-1.6-6.8-0.4-10 2-4.8 4-6 4-6-0.4 0-4-1.2-4-3.2-1.2-3.2 4.8-20.8 11.6-26 10.4-2-0.4-6.4 2.8-10 7.2l-6.8 8.4-9.2-8.4c-7.2-6.8-10.4-7.6-14.8-4-4.4 3.6-8.8 3.2-19.6-2-17.2-8.4-18.4-12.8-3.2-13.2 20.8-0.8 24.8-2 20.8-6.8-2.4-3.2 0.4-4.4 10-4.8 20.4-0.4 24-4.4 13.6-15.6-8-8.4-7.6-11.6 1.6-10 1.6 0 2.8-1.6 2.8-3.6 0-2.4 4-3.2 9.6-1.6 10 2.4 38.4-8.4 38.4-14.8 0-2-4.4-2.8-10-2-6.8 1.2-10 0-10-4 0-6.8-2-6.8-12.4-1.6-6 3.2-8.4 2.8-10-1.6-1.2-3.2-4.8-4.8-7.6-4-2.8 1.2-6.4-1.2-8-6-1.2-4.4-4.4-7.2-7.2-6.4-2.8 1.2-8.4-3.2-12.8-9.2-5.2-7.6-5.6-9.2-1.2-5.6 4.4 3.6 7.2 4 9.2 0.8 2-3.2 4.4-3.2 7.6-0.4 7.2 6 39.6 3.6 45.2-3.6 4.4-5.2 5.6-5.2 8.8 0 3.6 4.8 4.4 4.8 6.8-1.2 1.2-3.6 4.8-6.8 7.6-6.8 6.8 0 10.8-11.2 5.2-14.4-2.4-1.6-13.6-3.2-24.8-3.2-14.4-0.8-20.8-2.4-21.6-6.8-0.8-4 2.8-5.6 12-5.6 7.6 0 13.2-2 13.6-5.2 1.2-9.2 1.6-9.6 7.2-5.2 4.4 3.6 4.8 2.4 3.6-5.6-2.4-11.2-16.4-17.6-21.6-9.6-2.8 4.4-3.6 4-3.6-1.2 0-4.8-3.2-6.4-10.8-6-7.6 0.4-10.8-0.8-10-4.8 0.8-3.6-1.6-4.8-6-3.6-4 1.2-10.8-1.6-15.2-6-7.2-7.2-7.2-7.6-0.8-5.6 4 1.6 12.4 0 18.4-3.2 6.4-3.2 12.4-4.4 14-3.2 4.8 4.8 26.4 4 30.8-1.2 2.4-3.2 8.4-6 13.2-6 6.8-0.4 6.8-0.8 1.6-2.4-4-0.8-7.2-4.8-7.2-8.4 0-5.2-0.8-5.2-6 1.6-4.4 5.6-5.6 6-6 1.6 0-3.2-6.4-10-14-14.8-16-10.4-28-28.4-15.6-23.2 4.4 1.6 10.4 3.2 13.6 3.2 3.2 0 6.8 1.6 8 3.2 1.2 2 7.6 0.8 13.6-2.8 6.4-3.2 12.4-4.8 13.6-3.6 1.2 1.2 4.4 0 7.2-2 2.4-2.4 6.8-3.6 9.6-3.2 2.8 0.8 6-0.8 6.8-3.6 1.2-3.2-2-4.4-10.8-3.2-10.8 1.2-16.8-0.4-31.6-8.8-0.8-0.8 0.8-3.6 3.6-7.2 2.8-3.2 6.4-5.2 8-4 2 1.2 4.4 0.4 6-2 1.6-2.4 4.4-3.2 6.4-1.6 2.4 1.2 7.2 1.2 10.8-0.4 5.2-2 3.6-4-7.2-9.2-13.2-6-36-27.6-36-34 0-4.4 6-3.2 11.2 2 2.8 2.8 10.8 5.2 18 6 7.2 0.4 14.8 0.8 16.8 1.2 10.8 2.4 17.6-0.4 15.6-6-1.6-3.2-4-4.8-6-3.6-2 1.2-3.6-0.8-3.6-4.4 0-4.8 3.2-6.4 11.2-5.6 6 0.8 14.4-0.8 18.8-3.6 6.8-4 4.8-4.4-12-2.8-10.8 1.2-23.6 3.2-28 4.4-6.4 1.6-6.8 1.2-2-2 5.2-3.6 4.8-4.4-1.6-4.4-6 0-6.4-1.2-2.4-6 2.8-3.6 6-5.2 6.8-4.4 1.2 0.8 7.2 0 14-2.4l12.4-4.4-14.4-6c-16-6-19.6-12.8-6.8-12.8 4.4 0 8-2 8-4.4 0-2 2-2.8 4.8-1.2 3.2 2 3.6 0.8 2-4.4-2.4-5.6-1.2-6.8 7.2-5.2 8.8 2 10 0.8 9.6-8.4 0-5.6-1.2-8-2.4-5.6-2.8 7.2-9.2 6.4-9.2-0.8 0-3.2-2-5.6-4.8-5.2-2.4 0.8-5.2-2-6.4-5.6-1.2-6 0.4-6.4 12-2.8 17.6 4.8 19.2 4.8 19.2-2.4 0-3.2 1.6-6 4-6 2 0 2.8 2.8 1.6 6-1.6 3.2-0.4 6 2 6 9.2 0 4-14-10.4-29.2-11.6-12-12.8-14.4-5.6-10.8 7.6 4 10 3.6 12.8-0.4 2.4-4 4.4-4 9.6 0.4 5.6 4.8 6.4 4.4 5.2-4.4-0.8-5.2-3.2-12-4.8-15.2-2.8-4.4-2-5.2 4-2.8 4 1.6 10 3.6 13.2 4 2.8 0.4 6.8 4 9.2 7.6 2 3.6 5.2 6.8 7.2 6.8 2 0-2.8-9.2-10.4-20.4-7.6-11.2-13.6-22-13.6-24 0-2.4 6.4-2.8 14.8-1.2l14.8 2.8-6.4-10c-3.6-5.6-5.2-12-3.2-14.8 2-3.6 4-4 5.6-0.8 5.6 8.8 8.4 4 7.2-11.6-1.2-13.2-0.4-15.6 4.4-13.6 3.6 1.2 7.6 5.2 8.8 8.8 2.4 6 3.2 6 6-1.2 1.6-4.4 1.6-10 0-12-1.6-2.4-2-10-1.2-17.2 1.6-10.4 3.2-12 7.6-8.4 4.4 3.6 5.6 2.8 5.6-4 0-5.2 1.6-7.6 4.4-6.4zm-24.8 86c-2 0-2.8 1.6-1.6 4 1.2 2 3.2 4 4.4 4 0.8 0 1.6-2 1.6-4 0-2.4-2-4-4.4-4zm72.4 36c-2 0-4 1.6-4 4 0 2 2 4 4 4 2.4 0 4-2 4-4 0-2.4-1.6-4-4-4zm-116.8 51.6c-1.6-4.4-2.4-4.4-4.8 0-3.6 5.2 0 11.2 4 7.2 1.2-1.2 1.6-4.4 0.8-7.2zm137.2 12.4c-2 0-5.2 1.6-6.4 4-1.2 2-0.8 4 1.6 4 2 0 5.2-2 6.4-4 1.2-2.4 0.8-4-1.6-4zm-128.4 60c-2 0-4 2-4 4.4 0 2 2 2.8 4 1.6 2.4-1.2 4-3.2 4-4.4 0-0.8-1.6-1.6-4-1.6zm-88.8 192.4c-4 2-7.2 6.8-7.2 10.4 0 4.8 2 4.4 8-2.8 4.4-5.2 8-10 8-10.8 0-2-1.2-1.6-8.8 3.2zm21.6-4.4c-4.8 0-10.4 7.6-7.6 10.4 0.8 0.8 4-0.8 6.8-4.4 3.2-3.6 3.2-6 0.8-6zm-24.4 104c-2 0-5.2 1.6-6.4 4-1.2 2-0.8 4 1.6 4 2 0 5.2-2 6.4-4 1.2-2.4 0.8-4-1.6-4zm260.8 14.4c-5.6-2.4-6-2-2.4 2 2.8 2.8 6 4 7.2 2.8 1.2-1.2-0.8-3.6-4.8-4.8zm25.2 1.6c-3.2 0-7.2 1.6-8.4 4-1.2 2 1.2 4 5.6 4 4.8 0 8.4-2 8.4-4 0-2.4-2.4-4-5.6-4zm-270 33.6c-4 4.8-3.6 5.6 2 4.8 4-0.8 8-3.2 8.8-5.6 2-6.8-5.2-6-10.8 0.8zm291.6 22.4c-2 0-4 1.6-4 4 0 2 2 4 4 4 2.4 0 4-2 4-4 0-2.4-1.6-4-4-4zm-318 44c-6.4 2.8-6.8 3.6-1.2 3.6 3.6 0.4 8-1.6 9.2-3.6 2.8-4.4 2.8-4.4-8 0zm177.2 64c-4.8 0-12 12-10 16.8 1.2 3.2 2.4 2 2.4-2.4 0.4-6.4 1.2-6.8 7.6-2 6 4.8 6.4 4.8 2-0.8-2.8-3.6-4-7.6-2.4-8.8 1.2-1.6 1.6-2.8 0.4-2.8zm-45.2 7.6c-1.2 2-0.4 4.8 2 6.4 2 1.2 4-0.4 4-3.6 0-7.2-2.4-8.4-6-2.8zm40.8 27.6c-0.8-2.8-2.4 0.8-3.6 7.6-2 14.4 2.8 21.6 11.2 18.4 4.4-1.6 4.8-3.6 1.2-7.6-2.4-3.2-3.6-8.4-2-11.6 1.2-3.6 0.8-5.6-1.2-4-2 1.2-4.4-0.4-5.6-2.8zm-39.2 12.8c-2.4 0-3.2 3.2-1.6 7.6 1.2 4.4 0.4 8.8-2 10.4-6 3.6-4.8 16.8 2 19.6 4.8 1.6 6-1.6 6-17.6 0-11.6-2-20-4.4-20zm42 27.6c-9.6-8.8-14-5.6-4.8 3.6 3.6 3.6 3.6 4.8 0 4.8-2.8 0-4.8 4.8-4.8 10.4 0 8 1.6 10 6.4 8 3.6-1.2 4.8-0.8 3.6 2-4 6 6 15.6 16.4 15.6h9.6l-8-8c-4.8-4.8-7.2-10-6-12 1.6-2.4 0.4-4-2-4-2.8 0-4-2.4-2.8-5.6 1.2-3.2-2-9.6-7.6-14.8zm-61.2 2.8c-2-1.6-4.8-0.8-6 1.2-1.6 2-0.8 4.8 1.2 6 2 1.6 4.8 0.8 6-1.2 1.6-2 0.8-4.8-1.2-6zm229.2-2c-4.4 0-5.6 1.2-2.4 2.4 2.8 1.2 6.4 0.8 7.6-0.4 1.6-1.2-0.8-2.4-5.2-2zm-208.4 19.6c-1.6 0-8.4 6-14.8 12.8-6.8 7.2-10.8 9.6-9.2 5.6 2-4.8 1.2-6.4-2-5.6-2.8 1.2-5.6 5.6-6.4 10.4-1.2 6.4 0.8 8.8 6.4 8.8 4.4 0 9.2-2.8 10.4-6.4 2.4-6.4 8.4-4.4 8.4 2.8 0 2 2 4 4 4.4 2.4 0.8 4.4-6.4 5.2-16 0.8-9.2 0-16.8-2-16.8zm33.2 20c-4.8 0-2.4 6.8 5.6 14 8.8 8 10.4 3.6 2.4-7.2-2.8-3.6-6.4-6.8-8-6.8zm212 4c-1.2 0-3.2 1.6-4.4 4-1.2 2-0.4 4 1.6 4 2.4 0 4.4-2 4.4-4 0-2.4-0.8-4-1.6-4zm-266 18c-4.8-2.8-9.6 4.8-6.4 10 1.2 2.4 0 5.2-3.6 6.4-3.2 1.2-6.8 4.8-8 8-1.6 4-0.8 5.2 2.4 3.2 10.8-6.8 19.2-15.6 19.2-20.4 0-2.4-1.6-5.6-3.6-7.2zm60.8 2.8c-5.2-7.6-5.2-8.4-6.4 28.8-0.8 22.4 6.8 29.6 13.2 12.4 2-5.6 5.6-9.2 8-8 2 1.2 4-1.2 4-5.6 0-10-6-10.8-11.2-2-2.4 4.4-4.4 5.2-6.4 2-1.6-2.4-0.8-4.4 1.6-4.4 2.4 0 3.2-2 2-4-1.2-2.4 0.4-6.8 3.6-10.4 3.6-3.2 6.4-8.4 6.4-10.8 0-2.8-2.4-2-5.2 2-4.8 6-5.6 6-9.6 0zm-40.8-0.8c-5.2 0-14 11.6-10.8 14.8 1.2 1.2 2.4 0.4 2.4-2 0-2.8 2.8-4.8 6-4.8 3.2 0 6-2 6-4 0-2.4-1.6-4-3.6-4zm-9.6 28.4c-5.6 14.4-5.6 16-0.4 14 3.6-1.2 8-2.4 10-2.4 2 0 3.6-6.4 3.6-14 0-18.8-5.2-17.6-13.2 2.4zm-17.6 8c-4.8-0.4-10 1.2-11.2 3.6-2.8 4.8 0.8 4.8 12 0 7.6-3.2 7.6-3.6-0.8-3.6zm26.4 11.6c-2 0-2.8 1.6-1.6 4 1.2 2 0.4 4-2 4-2.8 0-3.6 3.2-2 7.6 1.6 5.2-0.8 10-7.6 15.6-10.8 8.4-10.8 26.4 0 22 3.2-1.2 8.4 0 11.6 2.8 5.2 4.4 6 1.2 6-25.6 0-18.8-1.6-30.4-4.4-30.4zm45.6 12c-6-5.6-13.2 0.8-13.2 11.6 0 14 10.4 14.8 14 1.2 1.2-5.6 0.8-11.2-0.8-12.8zm-139.6 20c-0.8 0-1.6 1.6-1.6 4 0 2 2 4 4.4 4 2 0 2.8-2 1.6-4-1.2-2.4-3.2-4-4.4-4zm168.8 0c-1.2 0-3.2 1.6-4.4 4-1.2 2-0.4 4 1.6 4 2.4 0 4.4-2 4.4-4 0-2.4-0.8-4-1.6-4zm-12 4c-1.2 0-3.2 1.6-4.4 4-1.2 2-0.4 4 1.6 4 2.4 0 4.4-2 4.4-4 0-2.4-0.8-4-1.6-4zm-22.4 6c-2-1.2-4 0.4-4 3.6 0 3.6 2 6.4 4 6.4 2.4 0 4-1.6 4-3.6 0-2.4-1.6-5.2-4-6.4zm-80 10c-3.2 2-4.8 4.8-3.6 6 1.6 1.2 4.8-0.4 7.6-4 5.6-6.8 4.4-7.6-4-2zm185.6-4c-3.2 0-4.8 2-3.6 4 2.4 3.6 10 2 10-2.4 0-0.8-2.8-1.6-6.4-1.6zm-81.2 20.4c-2.8-4.4-4.4-3.6-8 3.2-4 7.2-3.6 8.4 3.6 8.4 4.4 0 8-1.2 8-3.2 0-1.6-1.6-5.2-3.6-8.4zm85.6-0.8c-1.2 2-0.4 4.8 2 6.4 2 1.2 4-0.4 4-3.6 0-7.2-2.4-8.4-6-2.8zm-110.4 8.8c-4.4 8.8 0 15.6 10.4 15.6 2.4 0 1.6-1.6-1.6-3.6-3.2-2-4.4-6.4-2.4-12 3.2-10.8-0.4-10.8-6.4 0zm-88.4 7.2c-1.2-4-2.4-4-4.8-0.4-1.6 2.8-4.4 4-6.4 2.8-1.6-1.2-4 1.6-5.2 6-2.4 9.2 0.4 10 10.8 2 4-2.8 6.4-7.6 5.6-10.4zm95.2 14.4l-10.4-6.8v26c0 14.4 2 27.6 4 28.8 5.6 3.6 4.8 10-0.8 8.8-4-0.4-4.8 14-4 65.2 1.6 79.6 4 90.4 22.4 93.6 7.6 1.6 18.4 0.8 24.4-1.6 6.4-2.4 13.6-3.6 16.4-2.4 3.6 1.2 6.4-2.8 8-12 3.2-17.2 0-140.4-3.6-144-1.6-1.6-5.2-0.4-8.8 2.4-8.8 7.2-7.2-1.2 2-11.2 4.4-4.4 6.8-11.2 5.6-14.4-3.2-8-8-8-11.2-0.4-2.4 6.8-18.4 8.4-18.4 1.6 0-2-2-2.8-4.8-1.2-2.8 2-3.2 1.2-1.6-2 2-2.8 5.6-4 8.8-2.8 3.2 1.2 5.6-0.4 5.6-3.2 0-7.6-12-11.6-18.4-6-3.6 2.8-5.6 3.2-5.6 0.4 0-2.4 4.8-8 11.2-12.4q10.8-7.8 4.8-8.4c-3.6 0-8.4 2-10.8 4.4-3.2 3.2-7.2 2.4-14.8-2.4zm-151.2 52c-1.2-1.2-3.6 0.8-4.8 4.8-2.4 5.6-2 6 2 2.4 2.8-2.8 4-6 2.8-7.2z"/>
	</g>
</svg>