<svg version="1.2" xmlns="http://www.w3.org/2000/svg" viewBox="0 0 536 1060" width="536" height="1060">
	<title>Layer</title>
	<style>
		.s0 { fill: #233031 } 
	</style>
	<g id="Layer">
		<path id="Layer" fill-rule="evenodd" class="s0" d="m284 14.8c0 7.2 1.6 9.6 6 7.6 8-2.8 7.6 5.6-0.4 11.6-5.6 4-5.6 6-1.6 13.6 4.4 8.4 5.2 8.8 12 2.4 4.4-4 8-4.8 9.6-2.4 2.8 4.4-3.6 17.6-15.2 31.2-11.6 13.6-4.4 15.6 11.6 3.2 8-6 15.2-10 16.4-9.2 2.4 2.4-7.6 23.2-11.2 23.2-2 0-3.2 2.8-3.2 6 0 3.2-2 5.6-4.4 4.8-5.6-1.2-14.4 12-10.4 15.6 1.2 1.6 4.8 0.8 7.6-1.6 2.8-2 12-5.2 20.4-6.8 8-1.6 16-4.4 17.2-6.4 2.8-4.8 9.6-4.8 9.6 0 0 2-3.6 5.2-8.4 6.4-4.4 1.6-9.6 6.4-11.6 11.2-2.8 7.2-3.6 7.2-3.6 1.6-0.4-6-1.6-6-8.4-2-4.4 2.8-8 8.4-8 12 0 4.4 3.2 7.2 8 7.2 4.4 0 8-1.6 8-3.2 0-3.6 28.4-13.6 30.8-11.2 0.8 0.4-2.4 5.2-6.8 10.4-4.4 5.2-8 10.8-8 12.8 0 1.6-2.4 3.2-5.6 3.2-2.8 0-6.4 4-8 8.8-2 7.6-3.2 8.4-6.4 3.2-3.6-5.2-4.8-5.2-9.6 1.2-3.2 4-7.2 7.2-8.8 6.8-2-0.4-4 0.8-4.4 2.8-0.8 1.6 6.8 3.6 16.8 4 10 0.4 18-1.2 18-3.6 0-2.4 2.8-3.2 6-1.6 6.8 2.4 26-5.2 26-10.4 0-2 1.6-2.8 4-1.2 2 1.2 7.2-1.2 11.6-5.6 4.4-4.4 9.2-6.4 10.4-4.8 0.8 2-0.8 5.6-4 8.4-3.2 2.8-6 8.4-6 12 0 4-2.4 8-4.8 9.2-4 1.6-4 2.8-0.4 7.2 4.4 4.4 6.4 3.6 11.2-2.8 3.2-4 5.6-6 5.6-3.6 0 2-7.2 12-15.6 22-8.8 10-16 16-16 13.2 0-5.6-19.2 3.2-24.4 11.6-5.6 8.8-3.6 13.6 2 6 4.8-6 7.2-6.4 14-2.8 6.8 3.6 8.4 3.2 8.4-2.4 0-4 2-5.6 6-4 3.6 1.2 9.6 0 14-2.4 11.2-7.2 15.6 0.4 5.2 8.8-5.2 4-9.2 10.4-9.2 14 0 4.8-2 6-6.4 4.4-4.8-2-6-0.8-4 4 2 5.6 1.6 6-3.2 2-4.4-3.6-6-3.2-8 1.6-1.2 3.6-4 5.2-6.4 4-2.4-1.6-4 2-4 7.6 0 6.4 2.4 10.4 5.6 10.4 8.4 0 41.2-14.4 44-19.6 4-6 10.4-5.6 10.4 0.8 0 2.8-5.2 9.2-12 14.8-15.6 12.8-16.4 25.2-1.6 21.6 10.4-2.8 10.4-2.4 4.4 8.8-8.8 17.6-4.8 22.8 10.4 14.8 7.2-4 14-6.4 16-6 1.6 0.4 2.8-1.2 2.8-3.6 0-2.4 2.8-3.6 6-2 3.2 1.2 7.6-0.8 9.6-4.8 2-3.6 5.2-5.2 6.8-3.6 2 2 1.2 4.4-1.2 6-2.4 1.6-6 7.6-7.2 14-1.6 6-4.4 9.6-6.4 8.4-6.4-4-35.6 15.2-35.6 23.6 0 7.6-0.4 7.6-8-1.2l-8-9.2v15.2c0 12.4 1.2 14.4 7.2 12 3.6-1.6 12-3.6 18.4-4.8 6.4-1.2 16-3.6 21.2-5.6 5.6-2 11.2-2.8 13.2-1.6 1.6 1.2 4.4-0.8 5.6-4.4 1.2-3.2 4-5.2 6-4 2 1.6 4.8 0 5.6-2.4 1.6-3.6 2.4-4 2.4-0.4 0.4 2.4-1.2 6-3.6 7.2-2 1.2-4 6-4 10.4 0 4.4-1.6 7.2-3.2 6-2-1.2-7.2 1.2-11.6 5.6-4.8 4-9.6 6.4-10.8 5.2-1.2-1.6-2.4 0.4-2.4 3.6 0 4.4-2.4 5.6-8 4.4-7.2-2-10 2-8.4 11.6 0.8 6.4-6.8 2.8-12.8-6l-6.4-8.8 2.4 10c2 9.6 2 10-4 2-6.4-8-6.4-8-6.8 0.8 0 10.8-2.4 11.6-10.8 3.2-8.8-8.8-10.4-5.2-4 9.2 4 10 6.4 11.6 10 8 3.6-3.6 4.8-3.6 4.8 0 0 6 27.6 2.8 50.8-6 9.2-3.2 19.6-5.2 23.2-4 4 1.6 6 0.4 6-4 0-5.2 1.2-5.6 4.8-2 3.6 3.6 6 2.8 10-2.4 5.2-6 5.2-5.6 1.2 2.4-2.4 4.8-3.2 10.8-2 12.8 1.2 2.4-0.4 2.8-3.6 1.6-3.6-1.2-6.4-0.8-6.4 1.6 0 2-3.6 4.8-8 6-5.2 1.2-7.2 4-5.6 8.4 1.6 4.4 0.4 6.4-4.4 6.4-4.8 0-6 2-4.4 6.4 2 5.6 0.4 6.4-9.6 4-11.2-2-12-1.6-8 5.6 5.6 10.4 5.2 11.6-3.2 9.2-4-0.8-9.6 1.2-12.8 4.4-4 4.8-6.4 5.6-10.4 2-4.4-3.6-5.6-2.8-6 4.8v9.6l-4-10c-3.6-9.2-4.4-9.2-8-3.2-5.2 9.6-10.4 9.2-13.6-1.2-2-5.6-4-7.2-6.8-4.4-2.8 2.8-7.6 2.8-13.6 0.8-12-4.8-15.6 0.8-5.2 8 4 3.2 7.6 8 7.6 10.8 0 2.8 2.8 5.2 6 5.2 3.2 0 6 1.6 6 4 0 2 2.4 2.8 5.2 1.6 3.2-1.2 8 0.8 10.8 4 2.8 3.6 6.8 5.2 8.8 4 2.4-1.6 5.6-0.4 7.2 2.4 2 3.2 6 4 10.4 2 4.4-1.6 25.6-3.6 47.6-4.4 22.4-0.8 40.4-3.2 41.2-5.6 2.4-7.2 8.8-4.4 8.8 3.6 0 4.4 1.6 8.8 4 10.4 4 2.4 1.2 14-3.2 13.2-6.4-1.2-16.8 6.4-16.8 12 0 5.2-1.2 4.8-6.4-1.6-5.6-7.2-6-7.2-3.2 2.4 2.8 10 2.4 10-5.6 2.8-8-7.2-8.4-7.2-6.4 2 0.8 4.8 0.8 6.8-0.8 4-3.2-6.8-9.6-6-9.6 1.6 0 5.6-0.8 5.6-8.8 0-12.8-9.2-15.6-8-12.8 4.4l2.4 11.2-10.4-11.2c-10.8-10.8-14.8-13.2-14-8 2.8 17.2-6.4 23.2-12 8-3.2-8-4-8-6.4-1.6-1.6 3.6-0.8 9.6 2 12.8 4 4.8 4 6-1.2 6-3.6 0-7.6-3.6-8.8-8.4-1.6-4.8-5.2-7.2-8-6-3.2 1.2-6.4 0-7.6-2.8-0.8-2.8-2-1.6-2 2.8-0.4 6.4-1.2 6.4-8.8-2l-8-9.6 2.4 8.8c3.2 12-1.6 11.6-15.2-0.8-10-9.6-10.8-9.6-10.8-2.4 0 4 2.8 8.4 6 10 3.2 1.2 6 4.4 6 7.2 0 4.8 11.6 13.6 32.8 25.2 3.6 2 8 8.4 9.2 14.4 2.4 10 4 10.8 33.2 14 16.8 1.6 32 2.8 34 2.4 1.6-0.4 2.8 2.8 2.8 7.2 0 5.2 2.8 8 8 8 4.4 0 8 1.2 8 2.8 0 2 12.4 3.2 28 3.2 15.2 0 28 1.2 28 2.8 0 4-24 20.4-24 16.4 0-1.6-2 0-4.4 4-3.6 6-5.2 6.4-10.8 2-3.6-2.8-5.2-3.2-3.6-0.8 1.6 2.8 0.4 5.6-2.8 6.8-7.2 2.8-3.6 18.8 4 18.8 3.2 0 5.6 2 5.6 4.4 0 2.8 4.4 3.6 12 2 6.8-1.2 12-0.4 12 1.6 0 5.2-40 24.4-44.4 21.6-2-1.2-3.6-0.4-3.6 2 0 2 3.6 5.2 8 6.4 4.4 1.2 8 4.4 8 6.4 0 2 2.8 3.6 6 3.6 3.2 0 6 1.6 6 3.6 0 2 3.2 2.8 7.6 1.6 4-1.2 8.8 0 10 2.4 1.6 2.4 8.8 4.4 15.6 4.4l12.8 0.4-12 8.8c-12.4 9.2-13.6 9.6-30.4 10.4-11.2 0.4-19.2 14.4-10 17.6 3.2 1.2 3.2 3.2-0.4 7.2-4 4-6.4 4-10 0.4-2.8-2.8-8.8-4.8-14-4.8-5.2 0-9.2-2-9.2-4 0-2.4-2.8-4-6-4-3.6 0-6 3.6-6 8.8 0 8.4 0 8.4-8.4 0.8-4.8-4-11.2-13.6-14.4-20.8-6-14.8-6.4-14.8-14.8-6.4-8.4 8-8 16.4 0.8 19.2 3.6 1.2 12 7.2 18.8 13.2 6.4 6.4 13.2 10.8 14.8 10.4 1.6-0.8 4.8 2.4 7.2 6.8 4.4 8-1.2 12-6 4-1.2-2.4-4.8-4-7.2-4-2.8 0-0.4 3.6 5.2 7.6 5.2 4.4 11.6 6.8 13.6 5.6 2-1.2 5.6 0 8 3.2 4 5.2 13.2 6.4 51.6 8 6 0.4 10.8 2 10.8 3.6 0 5.2-25.2 22-33.6 22-6.4 0-8 2.4-7.6 9.2 1.2 8.8-4.4 12-8.8 4.8-2.8-4.8-10.4-5.6-9.6-1.2 2 12-0.8 14-8.4 7.2-8-7.2-8.4-7.2-18 2l-9.6 9.2-7.6-9.2c-6.4-8-8.4-8.4-16-3.6-7.6 4.8-9.6 4.8-12.8-0.4-3.2-4.8-4-4.8-4-0.4 0 7.2-5.2 2.4-6.4-6-2.4-14.8-5.6-18.8-11.2-14-3.6 3.2-6.8 3.2-8 0.8-1.2-2 0-4.4 2.4-5.6 4-1.2 4-2.8 0-8-4-4.8-4.4-8.4-0.8-14.4 4.8-9.2 0.4-11.2-7.6-3.6-4.4 4.4-5.2 3.6-3.2-4 2.4-10-0.8-11.2-8.8-4-4.4 4.4-4.8 3.6-2.4-4.4 2-6.4 1.6-8.4-1.6-6.8-2.4 1.6-4.4 0.4-4.4-3.2 0-3.2 1.6-7.2 4-8.4 6.4-4 4.8-14-2-11.6-4 1.6-5.6 0.4-4.8-2.8 0.8-3.2 0.8-4.4 0-2.8-2.8 4.8-13.2 4-13.2-0.8 0-2.4-4.8-3.6-10.8-2.8l-11.2 1.6 0.8 77.6c1.6 124.4 6.4 164.4 16.8 147.6 3.6-5.2 4.4-4.8 6.4 0.4 2.4 6 6.8 6.4 32 2.4 4.4-0.8 10.4-2.4 13.2-4.4 2.4-1.6 6.8-1.6 8.8-0.4 2.4 1.2 4 0.8 4-1.2 0-4.8 17.2-4 21.2 1.2 2.4 2.8 4 2.4 5.2-0.8 2.4-5.2 13.2-0.8 24.4 9.6 3.2 2.8 7.6 4 10.8 2.8 2.8-1.2 7.6 0.8 10.4 4.4 4.4 5.2 6 5.2 8.4 1.2 2.8-4 3.6-4 3.6-0.4 0 2.8 3.6 5.2 8 5.2 4.4 0 9.2 2.4 10.4 5.6 1.6 4 6 5.2 15.2 3.6 9.2-1.2 15.2 0.4 22.4 6.4l10 8h-504l19.2-10c10.4-5.6 20.4-12.8 21.6-16 1.6-4 5.2-5.6 11.6-4 5.2 1.6 11.2 0 14.4-2.8 2.8-3.2 10-5.2 15.2-4.8 5.6 0.4 12-0.8 14.8-2.8 2.8-2 6.8-2.8 9.2-1.2 2 1.2 4 0.8 4-1.2 0-2 4-3.2 9.2-2.8 4.8 0.4 12.8-0.8 17.6-2.4 5.6-2 10-1.6 11.6 0.8 1.2 2.4 4.8 3.2 8 2 3.2-1.2 5.6-0.4 5.6 2 0 2.4 2.4 3.6 5.6 2.4 2.8-1.2 9.6 0.8 14.8 4.4 10.4 7.2 39.2 10 46.4 4.4 8-7.2 13.2-55.6 14-141.6 1.2-72 0.4-84-4.8-85.2-4.8-0.8-6 3.2-5.6 20 0.4 20.8 0 21.2-14 26-8 2.4-11.2 4.8-7.2 4.8 9.6 0.4 8.4 5.6-2 10.4-6.4 2.8-8.8 7.2-8.4 13.2 0.8 5.2-0.4 8.4-2.8 6.8-10-6-20-4.8-28 4-5.2 5.6-10.4 8.8-12 8-1.6-1.2-5.2 3.6-8 10-4.8 11.6-12 16.4-12 7.6 0-2-2-2.8-4-1.6-9.2 5.6-24.8 6-30 0.4-7.6-7.2-7.6-14.4-0.8-14.4 3.2 0 5.6-2.4 5.6-5.2 0-2.4 1.6-8.4 3.6-12.4 2.4-6 1.6-6.8-2.8-4-6.8 4.4-20.4 2.4-24.8-4-2-2.4-2.4 0-1.2 6 1.6 7.6 0.4 11.6-4 13.2-4.8 2-6 0.8-4-4 2-5.6 1.6-6-2.8-2-4.4 3.6-6.8 3.2-10.8-1.6-4.4-5.2-5.6-4.8-12 2.8-6.4 8-8 8.4-14.4 3.2-5.2-4.4-6.4-4.4-4-0.8 2.8 4.4 1.6 4.8-5.2 1.2-6.4-3.6-8-7.6-6.4-15.2 1.2-8 0.4-9.2-2.8-6-2.8 2.8-8 4.8-11.6 4.8-8.4 0-15.2-8.8-8.4-11.2 6.8-2 6-8.8-0.8-8.8-4 0-5.6-3.6-4.8-10 1.2-10.4 6.4-19.2 6.4-10.4q0 4.8 8.4 2.4c5.2-2 7.6-1.2 6 1.2-1.6 2.4 2.4 2.8 11.6 0.8 11.6-2.8 14-2 14 3.6 0.4 5.6 0.8 5.6 4.4-0.8 2-3.6 3.2-8.4 1.6-10.4-2.8-4.8 9.2-8.8 29.6-9.6 14.4-0.4 16-1.6 14-8.4-2-6-0.8-7.2 5.6-5.6 4.8 1.2 9.2 0 10.4-2.8 0.8-2.8 6-4.8 11.2-4.4 12.8 1.2 20.8-5.2 14.8-12-3.6-4.4-2.8-6 2.8-8 4.4-1.2 10.8-4 14.8-6 4.4-2.4 14-4 22-3.6 8.4 0.4 15.6 0.4 16.8 0 1.2-0.4 4.8-1.2 8.4-2 16-2.8 23.6-6.8 23.6-12 0-2.8 5.6-7.6 12-10.8 6.8-2.8 12-6.8 12-9.2 0-2 1.2-8 2.4-13.2 1.6-4.8 0.8-8.8-1.6-8.8-2.4 0-4.8 4.8-5.6 10.8-0.8 6.4-3.2 10.8-6 10-2.8-0.4-5.2 1.2-5.2 4 0 2.4-1.2 3.6-2.4 2-1.6-1.2-5.2 0-8.4 3.2-4 4.4-8 4.8-12.8 2q-7.2-3.6-12 1.2c-3.6 3.6-6.4 3.6-12.4-0.4-7.2-4.4-8.8-3.6-12.8 5.6-4 8.8-6.8 10-20 8.8-8.4-0.8-15.6 0.4-16.4 2.4-0.8 2-6.8 0.4-13.6-3.2-9.2-4.8-13.6-5.2-15.6-1.6-1.6 2.8-1.2 3.2 1.6 1.6 2.8-1.6 4.8-0.8 4.8 1.2 0 6.4-6.4 5.2-13.6-1.6-7.2-7.6-10.4-7.6-16 0-3.6 5.2-6.8 5.6-17.6 1.6-7.2-2.4-12.8-7.2-12.8-10.8 0-4.8-1.2-5.2-4.8-1.6-7.6 7.6-12.4 5.6-10.4-5.2 2-10-3.2-12.4-20-10.4-8 1.2-17.2-12.4-12.4-18.4 2.8-3.2 1.2-6.4-5.6-11.2-7.2-4.4-9.2-8.8-7.6-14.8 2-7.6 2.4-7.6 6-0.8 3.6 6.4 4.4 6.4 8.8 0.4 4-5.2 7.2-5.6 21.6-2 13.6 3.6 18 3.2 20.4-0.8 2.8-4.4 4.4-4.4 9.6-0.4 4.8 4 6.4 4.4 6.4 0.4 0-2.8 2.8-4 6.4-2.4 3.2 1.2 11.2-0.4 18-3.6 6.4-3.6 11.6-5.2 11.6-4 0 0.8 14-5.6 31.2-14.8 54-28.8 73.6-43.2 59.2-43.2-3.6 0-6.4 2.4-6.8 4.8q0 6-2.4 0c-2.8-6.8-9.2-6-9.2 1.2 0 7.6-5.6 7.6-12 0-4-4.8-6.8-3.6-18.4 8-17.2 17.2-32.4 20-17.2 3.2l9.6-10.8-10.8 6.8c-6.4 4-11.2 5.2-11.2 2.8 0-2.4-4.4-1.2-9.6 2-12.4 8-26.4 2-26.4-11.2-0.4-8-0.8-8-4.4-2-5.2 9.2-15.6 9.2-15.6 0.4 0-5.2-1.2-5.6-4.8-2-7.2 7.2-11.2 6-11.2-3.2 0-7.6-4-9.6-15.6-8-3.6 0.4-4.8-1.6-3.2-5.6 1.2-3.2 0-8.8-3.2-12-7.6-7.2-2.8-11.2 7.2-5.6 12.8 6.8 47.2 5.2 51.6-2.4 2.8-4.8 7.2-5.6 20.8-4 16.8 2.4 17.2 2 15.6-6.8-1.2-8.4 2-11.6 22.8-22.8 22-12 34-25.6 29.2-34-0.8-1.6-4.4 0-7.6 3.2-7.2 6.8-13.6 8-13.6 2 0-7.6-11.2-4-13.2 4.4-3.2 11.6-10 6-13.2-10.8l-2.4-14-9.6 8.8c-8.8 8-11.6 7.6-10-1.6 0.4-2-1.2-2-3.6-0.8-2.8 1.6-5.6-0.8-6.8-5.6-2.4-10-7.2-10.8-10.8-2-2.4 6.4-6.8 5.6-7.2-1.2-0.4-5.2-14.8-14-18.8-11.2-2 1.2-5.2 0-6.8-2.4-1.2-2.4-0.4-6 2.4-7.6 3.2-2 0.8-4.8-7.6-8.4-8.8-4-11.6-7.6-10-12.4 1.6-5.2 0-7.2-5.2-7.6-4 0-5.2-1.2-2-2.4 5.2-2 28.8 7.2 28.8 11.2 0 1.2 4.4 1.6 9.6 0.8 6.4-1.2 14.4 1.2 22 6.8 11.6 8 14.8 6.8 12.8-5.2-0.8-5.2 6.8-2.8 9.2 3.2 1.2 3.2 4.8 4.8 8.4 3.6 3.2-1.6 8.8-0.4 12 2.4 4.4 3.6 7.6 3.2 14.4-1.6 6.8-4.4 10.4-4.8 14.4-2 3.6 3.2 6.8 2.8 11.6-2 7.6-7.6 6-10.4-6-11.6-6.4-0.4-8.4-2.4-6.8-8 1.2-6 0.8-6.4-4-2.8-4 3.6-6.8 3.2-12-2-3.6-3.6-9.2-5.6-12-4.4-3.2 1.2-5.6 0.4-5.6-1.6 0-2.4-3.6-4-8-4-4.4 0-9.2-2.8-10.4-6-1.6-3.2-5.2-6-8.4-6-3.2 0-5.2-2.4-4.4-4.8 1.2-2.8-0.8-7.6-4-10.8-4.4-4.8-4.8-6.4-0.8-7.6 2.8-1.2 6.8 1.2 9.2 5.2 2.8 5.6 4.4 6 6.8 1.6 2.8-4 4.4-4 9.6 0.4 3.6 2.8 7.6 4 9.2 2.8 1.2-1.6 4.4 0.4 7.2 4 3.6 4.8 6.4 5.2 12 2 5.6-2.8 8.8-2.4 13.2 1.6 8.8 8.8 12.8 6.4 12.8-7.6 0-10-1.2-11.6-4.4-6.8-3.2 4.4-4.8 4.8-6.4 0.8-0.8-2.4-3.6-4-5.6-2.4-2 1.2-3.6 0-3.6-2.4 0-2.8-2.4-4-4.8-2.8-2.8 0.8-7.2-2-10-6.8-2.8-4.8-4.8-6-5.2-2.8 0 7.6-12-2.4-12-10 0-3.2-2.8-5.6-6.4-5.6-3.2 0-5.2-1.6-4-3.6 1.2-2-1.6-4.8-6.8-6.4-5.2-1.6-6.8-3.2-4-4.4 5.6-2.4 26.4 3.6 51.2 14.4 8.8 4 22 8.4 29.2 10 12 2.4 13.2 2 12-4.8-0.8-4-4.4-6.8-8.4-6.8-3.6 0.4-6.8-0.4-6.8-2 0-1.6-2.8-6.4-6-10.8-3.2-4-6-6-5.6-3.6 1.2 9.6-1.2 10-12 2.4-6-4.4-12.4-7.2-14-5.6-1.2 1.2-6.8-2.8-12.4-9.2-6.8-8-8.4-12-5.2-14.4 3.6-2 2.8-5.2-2.8-10.8-4-4.8-6-9.6-4.4-11.6 1.6-1.6 5.2 0.4 8 4.4 2.8 3.6 9.2 6.8 13.6 6.8 4.4 0 9.6 2 10.8 4.4q4.2 6.6 31.2 13.2c9.2 2 10.8 1.2 10.8-5.6 0-4.4-2.4-8-5.6-8-5.2 0-10.4-8-10.4-16.4 0-2 2.8-3.6 6-3.6 3.2 0 6-1.6 6-3.6 0-2-2.8-4.4-6-6-3.2-1.2-6-5.2-6-8.8 0-5.2-1.2-5.6-5.2-2-6.4 5.2-11.2 2-8-6 1.2-3.2-0.8-6.8-4.4-8-3.6-1.2-6.4-4.8-6.4-8 0-3.2-1.6-5.6-4-5.6-2 0-4-2-4-4 0-2.4 3.6-4 8-4 4.4 0 8 1.6 8 4 0 2 2.8 4 6 4 3.6 0 4.8 2.4 3.6 6-1.6 4 0 6 5.6 6 4.4 0 11.2 2.8 14.4 6.4 3.6 3.2 8 5.2 10 4 2-1.2 5.6 0.4 8.4 3.6 6.8 8.4 12 7.6 12-2 0-4.4-2.8-8-6-8-3.6 0-7.2-2.8-8.4-6-1.6-3.6-4.4-5.6-7.2-5.2-6.8 1.6-26.4-17.2-26.4-25.2 0-3.6-2.8-7.6-6-9.2-6.4-2.4-8.4-14.4-2-14.4 2 0 5.2 2.4 6.8 5.6 3.2 6 4.4 6.4 15.6 6.4 4 0 5.6 2.4 4.4 5.6q-2.4 5.4 4.8 3.6c4-0.8 10 0.8 13.2 4 3.6 4 8 4.8 11.6 2.8 3.2-2 7.6-1.6 10.4 0.8 4 3.2 5.2 2.4 5.2-4 0-8-10-14.4-16.4-10.4-2 1.2-3.6 0.4-3.6-1.6 0-2-4.8-6-10.4-8.8-10-5.6-32.4-38.4-28.4-42.4 2-2 13.2 8 15.6 14 0.4 2 4 4.4 7.2 5.2 3.2 0.8 7.2 2.8 8.8 4.8 1.2 2 6 4.4 10.8 5.2 5.6 0.8 7.6-1.2 7.2-6.8-0.4-5.2-2.4-7.6-6-6-6.8 2.4-20.8-6.4-20.8-13.6 0-3.2-4-10-8.8-15.2l-8.4-9.2h8.4c4.8 0 9.2 3.2 10.8 7.6 1.2 4.4 4.4 7.2 7.2 6.4 2.8-1.2 11.6 0.4 20 3.6 16 5.2 36.4 4 32.4-2-1.2-2-4-2.8-6-1.6-3.6 2.4-9.6-1.6-23.6-15.6-11.2-11.2-10-15.6 4-12.4 16 3.6 15.2 1.2-4-11.6-9.2-6-15.2-12.4-13.6-14.8 1.6-2.8 5.6-1.2 11.2 3.6 13.2 12.8 19.6 12.4 20-1.2 0.4-6.8-3.2-15.6-8.4-21.6-15.2-16-11.6-22.8 6-12 8 5.2 18 12.8 22 17.2 5.6 6.4 6.8 6.4 6.8 1.2 0-3.6-2-7.6-4-8.8-2.4-1.6-2.8-4.8-1.6-7.2 1.6-2.8 1.6-3.6 0-2-4 3.6-22.4-12.8-22.4-19.6 0-4.8 1.6-4.4 8.8 0.4 4.8 3.6 11.2 6.4 13.6 6.4 6 0 4.8-10.4-1.6-16.8-2.8-2.8-4.8-8.4-4.4-13.2 0-7.6 0.4-7.6 6.4 0.8 3.2 5.2 8.4 9.2 10.8 9.2 3.2 0 3.2-0.8 0-3.2-2.4-1.6-3.6-9.2-2.4-17.6 2-16.4 8.8-16.8 8.8-0.4zm11.6 47.2c-2.8-2.8-7.6 2-7.6 7.6 0 2.4 2 2 4.8-0.8 2.4-2.4 3.6-5.6 2.8-6.8zm-29.2 42.4c-4-3.2-6.4-3.6-8.4-0.4-2.4 4 8.8 10.8 12.4 7.2 0.8-1.2-0.8-4.4-4-6.8zm-6.8 15.6c-2 0-3.6 1.6-3.6 4 0 2 2.8 4 6.4 4 3.2 0 4.8-2 3.6-4-1.2-2.4-4-4-6.4-4zm2 12c-0.8 0-1.6 1.6-1.6 4 0 2 2 4 4.4 4 2 0 2.8-2 1.6-4-1.2-2.4-3.2-4-4.4-4zm41.6 8c-2-6-7.2-0.4-7.2 7.6 0 4.4 1.2 4.8 4.4 1.6 2.4-2.4 4-6.4 2.8-9.2zm-73.2 44c-1.6 2.4-1.2 5.6 0 8 3.6 6 14 4.8 14-1.6 0-6.8-10.8-11.6-14-6.4zm41.2-2c-1.2-1.2-3.6 0.8-4.8 4.8-2.4 5.6-2 6 2 2.4 2.8-2.8 4-6 2.8-7.2zm97.2 6l-2.8-10-2.8 10c-4 14.8-3.6 18.8 3.2 18.8 3.2 0 6-2 5.6-4.4-0.4-2.4-1.6-8.8-3.2-14.4zm-16.4 4c-2 0-4 1.6-4 3.6 0 2-1.2 6.8-2.4 10-2 4.8-0.8 6 4 4 3.6-1.2 6.4-6 6.4-10 0-4-1.6-7.6-4-7.6zm-25.6 36c-1.2 0-3.2 1.6-4.4 4-1.2 2-0.4 4 1.6 4 2.4 0 4.4-2 4.4-4 0-2.4-0.8-4-1.6-4zm-85.6 48c-3.2 5.2-3.2 8-0.8 8 2.4 0 5.2-2.8 6.8-6 3.6-9.6-0.4-10.8-6-2zm89.6-3.2c-6.4 0-9.2 2-7.6 5.6 2.4 6.4 17.2 5.6 17.2-0.8 0-2.4-4.4-4.8-9.6-4.8zm-142.4 20.4c0 7.6 15.2 15.6 22.8 11.6 5.2-3.2 4-4.8-6.8-10.4-16-7.6-16-7.6-16-1.2zm174 9.2c-3.6 5.6-6 10.8-5.2 11.6 3.2 2.8 19.2-6.4 19.2-11.6 0-10.4-6.8-10.4-14 0zm-228 16c-3.2-1.2-6-1.6-6-0.8 0 0.8 2.8 3.6 6 6.4 3.6 2.8 6 3.2 6 0.8 0-2-2.8-4.8-6-6.4zm249.2 1.6c-2-6-7.2-0.4-7.2 7.6 0 4.4 1.2 4.8 4.4 1.6 2.4-2.4 4-6.4 2.8-9.2zm-172 7.6c-1.6-4.4-2.4-4.4-4.8 0-3.6 5.2 0 11.2 4 7.2 1.2-1.2 1.6-4.4 0.8-7.2zm152.8-3.6c-2 0-4 2-4 4.4 0 2 2 2.8 4 1.6 2.4-1.2 4-3.2 4-4.4 0-0.8-1.6-1.6-4-1.6zm-10 43.2c-4.8-6.4-6.4-7.2-4.4-2 1.2 4 2.4 10.4 2.4 14 0 4.8 1.2 5.2 4.4 2 3.2-3.2 2.8-6.8-2.4-14zm19.2 0.4c-2.8-2.8-4.8-2-6.8 2.8-3.2 8.8 0.4 12.4 6.4 6.4 3.6-3.6 3.6-6 0.4-9.2zm-35.2 9.6c-3.2 0-4.8 1.6-3.6 3.6 2 2.8 9.6 0.8 9.6-2.4 0-0.4-2.8-1.2-6-1.2zm-146 21.2c-2.8-2.8-4-2.4-4 1.2 0 2.8-1.6 3.6-4 2.4-2-1.2-4 0.8-4 5.2 0 8.8 10.8 10 14 1.6 1.2-3.6 0.4-8-2-10.4zm164 15.6c-5.2-3.2-5.2 2 0 10 3.2 5.2 4 5.2 4-0.8 0-3.6-1.6-8-4-9.2zm-108 24.4c-5.2 13.2-5.2 16.4 0.8 10.4 2.4-2.4 4.8-8.4 5.2-12.8 0.8-10.8-1.6-10-6 2.4zm67.6 21.6c-4.4 0-4.8 10.8 0 13.6 4.8 3.2 8-1.6 5.6-8-1.2-3.2-3.6-5.6-5.6-5.6zm-87.6 36c-3.2-5.2-4-5.2-4 0.4 0 3.6-2.8 7.6-6 9.2-3.2 1.2-6 0.8-6-1.2 0-2-3.6-4.4-7.6-5.6-6.8-1.6-7.2-0.8-3.2 5.6 2.4 4 3.2 8.8 1.6 10.4-2 1.6-4.8 0.4-6.4-2.4-4.4-7.2-12.4-2-12.4 7.6 0 16.8 47.6 4.8 47.6-12 0.4-3.2-1.6-8.8-3.6-12zm71.6 24c-4.8 0 1.6 20.8 7.2 22.8 9.2 3.6 10.4-1.6 2.4-12.4-4-5.6-8.4-10.4-9.6-10.4zm-163.6 44c-2 0-4 2-4 4.4 0 2 2 2.8 4 1.6 2.4-1.2 4-3.2 4-4.4 0-0.8-1.6-1.6-4-1.6zm12 4c-2 0-4 2-4 4.4 0 2 2 2.8 4 1.6 2.4-1.2 4-3.2 4-4.4 0-0.8-1.6-1.6-4-1.6zm108 6c-2-1.2-4 0.4-4 3.6 0 3.6 2 6.4 4 6.4 2.4 0 4-1.6 4-3.6 0-2.4-1.6-5.2-4-6.4zm-8 8c-2.4-1.2-4 0-4 3.2 0 3.2-2.8 7.2-6.4 8.4-7.6 2.8-3.2 11.2 5.2 9.6 3.6-0.8 7.2-5.2 7.6-10 0.8-4.8-0.4-10-2.4-11.2zm56.4 61.2c-1.6-4.8-4-6-8.4-3.2-4.4 2.8-4.8 4.8-1.2 8.4 2.4 2.4 6.4 4 8.4 3.2 2-0.8 2.8-4.8 1.2-8.4zm-7.2 39.6c-5.6 2-6.8 20-2.8 30.8 1.2 3.6 4 5.6 5.6 4.4 2-1.2 2.4 1.2 1.6 4.8-1.6 6 1.2 7.2 14.4 8 8.8 0.8 16-0.8 16-2.8 0-2.4-2-4-4.4-4-2.4 0-3.6-3.2-2.8-7.2 1.6-6 0.4-7.2-7.2-5.6-5.2 0.8-9.6 0-10-1.6 0-2-0.8-8.8-1.6-15.2-1.6-13.2-2.4-14-8.8-11.6zm-2.8 84.8c-1.2 2 0.4 4.4 3.6 6 3.2 1.2 6 0.4 6-1.6 0-5.2-7.2-8.8-9.6-4.4zm-44.8 8.4c-0.8 0-1.6 1.6-1.6 4 0 2 2 4 4.4 4 2 0 2.8-2 1.6-4-1.2-2.4-3.2-4-4.4-4zm-103.6 72.8c0.4 5.2 2.4 8.4 4.4 7.6 2-0.4 3.2-3.2 2.4-6-2.8-9.2-7.6-10.4-6.8-1.6zm14-4.8c-2 0-4 1.6-4 4 0 2 2 4 4 4 2.4 0 4-2 4-4 0-2.4-1.6-4-4-4zm-20.8 20c-4.4 0-4 11.2 0.4 14 2.4 1.2 3.6-1.6 3.2-6-0.4-4.4-2-8-3.6-8z"/>
	</g>
</svg>