<svg version="1.2" xmlns="http://www.w3.org/2000/svg" viewBox="0 0 4096 3820" width="4096" height="3820">
	<title>Path 0</title>
	<style>
		.s0 { fill: #9abcbd } 
	</style>
	<path id="Path 0" class="s0" d="m1950 3.5c-6.6 1.7-29.1 13.4-50 26-20.9 12.6-47 25.5-58 28.6-11 3.1-29.9 6-42 6.4-12.1 0.4-32.8-0.7-46-2.4-15.5-2-32.5-1.3-48 1.9-13.2 2.8-33 9.1-44 14.1-11 5-35.8 15.6-55 23.5-28.8 11.8-36.1 13.5-41.1 9.4-5.1-4.1-7.2-3.6-11.9 3-3.2 4.4-5.8 9.3-5.9 11 0 1.6-2.3 3.1-5.1 3.1-2.7 0.1-8.6-8-13-18-4.4-10-9.6-17.7-11.6-17.2-2 0.6-6.6 10.1-10.3 21.1-4.1 12.1-9.4 20.4-13.4 21-4.4 0.7-7.6-2.8-9.3-10-1.4-6.1-4.5-13.3-7-16-3.5-4.1-5.4-4.1-9.5 0-2.7 2.7-5.8 8.6-6.8 13-1.4 6.6-5.2 8.1-20.9 8.3-10.6 0.2-26 2-34.4 4-13.9 3.4-15.3 3-17-5.3-1-5-4-9-6.8-9.1-2.8 0-6.2 4.9-7.8 11-1.5 6.1-6.4 13.3-11 16.1-6.9 4.2-9.1 3.9-13.7-2-5-6.5-5.9-6.2-13 4.2-4.1 6.1-12.5 12.9-18.5 15-9.4 3.2-11.3 2.6-13-4.2-1.1-4.4-4.3-7.4-7-6.7-2.8 0.7-5.5 4.8-6 9-0.6 4.2-7.8 11.5-16 16.1-8.3 4.6-30.3 10.7-49 13.5-27.6 4.2-43.8 4.2-86 0.1-31.6-3.1-66.1-4-88-2.2-19.8 1.6-48.6 4-64 5.3-15.4 1.3-36.1 2.5-46 2.6-9.9 0-46.8-1.4-82-3.1-35.2-1.7-80.2-4.7-100-6.7-19.8-1.9-39.6-4.4-44-5.4-4.4-1-24.2-6.3-44-11.8-19.8-5.4-41-11.8-47-14.3-6.1-2.4-21.4-4.4-34-4.5-12.7 0-40.1 4.3-61 9.5-20.9 5.2-51.5 12.8-68 16.7-16.5 4-49.8 8.4-74 9.9-29.3 1.7-55.4 0.9-78-2.6-18.7-2.9-49.8-9.8-69-15.3-19.3-5.6-50.8-14.6-70-20.2-29.5-8.5-42.8-10.1-85-9.8-27.5 0.2-55 0.7-61 1.1-6.1 0.4-14.6 1.2-19 1.8-8 1-8 4-8 1839v1838h4096v-3676c-23.3 0-59.7 1.9-96 4.3-60.3 3.9-70.5 5.7-118 21-51.4 16.5-52.6 16.7-104 15.7-28.6-0.6-62.8-2-76-3-13.2-1.1-39.3-4.5-58-7.6-18.7-3.1-43-7.5-54-9.8-11-2.3-40.7-9.9-66-16.8-29-7.8-56.4-12.6-74-12.9-15.4-0.3-48.7 0-74 0.7-39.2 1-55.8-0.8-112-12.1-53.8-10.8-75.3-13.3-116-13.3-27.5 0-65.3 2.4-84 5.3-18.7 2.9-44.8 8-58 11.2-13.2 3.2-37.5 10.4-54 15.9-16.5 5.4-33.6 11.5-38 13.5-4.4 2-21.5 8.4-38 14.2-16.5 5.9-48.9 16-72 22.5-29.4 8.3-47.4 11.3-60 10-9.9-1.1-25.2-5.5-34-9.9-8.8-4.4-39.4-23.7-68-42.8-28.6-19.1-64.6-40.8-80-48.1-18.9-8.9-39-14.7-62-17.8-18.7-2.5-59.2-3.7-90-2.8-50.4 1.6-59.4 3-90 14.3-18.7 6.9-43.9 13.6-56 14.9-13.6 1.6-28.1 0.5-38-2.6-8.8-2.8-23.2-8.3-32-12.3-8.8-3.9-30.4-12.8-48-19.8-18.8-7.4-42.7-21-58-33-16.7-13.1-36-23.9-54-30-15.4-5.3-37.9-10.3-50-11.1-12.1-0.8-27.4 0-34 1.7z"/>
</svg>